<svg xmlns="http://www.w3.org/2000/svg" xmlns:xlink="http://www.w3.org/1999/xlink" width="1000" zoomAndPan="magnify" viewBox="0 0 750 749.999995" height="1000" preserveAspectRatio="xMidYMid meet" version="1.2"><defs><clipPath id="5e059bd938"><rect x="0" width="705" y="0" height="343"/></clipPath><filter x="0%" y="0%" width="100%" filterUnits="objectBoundingBox" id="66ba41b04c" height="100%"><feColorMatrix values="0 0 0 0 1 0 0 0 0 1 0 0 0 0 1 0 0 0 1 0" type="matrix" in="SourceGraphic"/></filter><clipPath id="371652406c"><path d="M 0.625 0.609375 L 451 0.609375 L 451 272 L 0.625 272 Z M 0.625 0.609375 "/></clipPath><clipPath id="ca3b27140c"><rect x="0" width="454" y="0" height="274"/></clipPath></defs><g id="8ed4a21e42"><g transform="matrix(1,0,0,1,36,174)"><g clip-path="url(#5e059bd938)"><g style="fill:#000000;fill-opacity:1;"><g transform="translate(0.417518, 110.704216)"><path style="stroke:none" d="M 70.484375 -1.703125 C 70.484375 -0.566406 70.007812 0.09375 69.0625 0.28125 C 67.257812 0.46875 64.703125 0.609375 61.390625 0.703125 C 58.078125 0.804688 54.617188 0.878906 51.015625 0.921875 C 47.410156 0.972656 44.191406 1 41.359375 1 C 31.410156 1 23.875 -1.035156 18.75 -5.109375 C 13.632812 -9.191406 11.078125 -15.96875 11.078125 -25.4375 L 11.078125 -80.15625 C 11.078125 -89.625 13.632812 -96.394531 18.75 -100.46875 C 23.875 -104.539062 31.410156 -106.578125 41.359375 -106.578125 C 44.191406 -106.578125 47.382812 -106.550781 50.9375 -106.5 C 54.5 -106.457031 57.910156 -106.363281 61.171875 -106.21875 C 64.441406 -106.082031 67.070312 -105.921875 69.0625 -105.734375 C 70.007812 -105.535156 70.484375 -104.867188 70.484375 -103.734375 L 70.484375 -96.640625 C 70.484375 -95.492188 69.960938 -94.921875 68.921875 -94.921875 L 41.5 -94.921875 C 36.476562 -94.921875 32.710938 -94.445312 30.203125 -93.5 C 27.691406 -92.5625 26.03125 -91 25.21875 -88.8125 C 24.414062 -86.632812 24.015625 -83.75 24.015625 -80.15625 L 24.015625 -60.390625 L 67.640625 -60.390625 C 68.398438 -60.390625 69.0625 -60.101562 69.625 -59.53125 C 70.195312 -58.96875 70.484375 -58.304688 70.484375 -57.546875 L 70.484375 -52.15625 C 70.484375 -51.394531 70.195312 -50.726562 69.625 -50.15625 C 69.0625 -49.59375 68.398438 -49.3125 67.640625 -49.3125 L 24.015625 -49.3125 L 24.015625 -25.4375 C 24.015625 -21.832031 24.414062 -18.941406 25.21875 -16.765625 C 26.03125 -14.585938 27.691406 -13.023438 30.203125 -12.078125 C 32.710938 -11.128906 36.476562 -10.65625 41.5 -10.65625 L 68.921875 -10.65625 C 69.960938 -10.65625 70.484375 -10.085938 70.484375 -8.953125 Z M 70.484375 -1.703125 "/></g></g><g style="fill:#000000;fill-opacity:1;"><g transform="translate(78.717051, 110.704216)"><path style="stroke:none" d="M 85.40625 -43.625 C 85.40625 -34.15625 84.054688 -26.289062 81.359375 -20.03125 C 78.660156 -13.78125 74.894531 -8.972656 70.0625 -5.609375 C 65.226562 -2.242188 59.640625 -0.1875 53.296875 0.5625 L 53.296875 23.453125 C 53.296875 24.203125 53.082031 24.863281 52.65625 25.4375 C 52.226562 26.007812 51.632812 26.296875 50.875 26.296875 L 43.203125 26.296875 C 42.441406 26.296875 41.847656 26.007812 41.421875 25.4375 C 40.992188 24.863281 40.78125 24.203125 40.78125 23.453125 L 40.78125 0.5625 C 34.4375 -0.28125 28.847656 -2.359375 24.015625 -5.671875 C 19.179688 -8.992188 15.390625 -13.78125 12.640625 -20.03125 C 9.898438 -26.289062 8.53125 -34.15625 8.53125 -43.625 L 8.53125 -61.953125 C 8.53125 -72.472656 10.1875 -81 13.5 -87.53125 C 16.8125 -94.070312 21.378906 -98.878906 27.203125 -101.953125 C 33.035156 -105.035156 39.644531 -106.578125 47.03125 -106.578125 C 54.519531 -106.578125 61.128906 -105.035156 66.859375 -101.953125 C 72.585938 -98.878906 77.109375 -94.070312 80.421875 -87.53125 C 83.742188 -81 85.40625 -72.472656 85.40625 -61.953125 Z M 72.328125 -43.625 L 72.328125 -61.953125 C 72.328125 -73.890625 70.078125 -82.367188 65.578125 -87.390625 C 61.078125 -92.410156 54.894531 -94.921875 47.03125 -94.921875 C 39.269531 -94.921875 33.085938 -92.410156 28.484375 -87.390625 C 23.890625 -82.367188 21.59375 -73.890625 21.59375 -61.953125 L 21.59375 -43.625 C 21.59375 -31.6875 23.890625 -23.207031 28.484375 -18.1875 C 33.085938 -13.164062 39.269531 -10.65625 47.03125 -10.65625 C 54.800781 -10.65625 60.957031 -13.164062 65.5 -18.1875 C 70.050781 -23.207031 72.328125 -31.6875 72.328125 -43.625 Z M 72.328125 -43.625 "/></g></g><g style="fill:#000000;fill-opacity:1;"><g transform="translate(172.648082, 110.704216)"><path style="stroke:none" d="M 82.984375 -5.109375 C 82.984375 -3.316406 82.675781 -2.160156 82.0625 -1.640625 C 81.445312 -1.117188 80.429688 -0.757812 79.015625 -0.5625 C 76.546875 -0.1875 73.394531 0.113281 69.5625 0.34375 C 65.726562 0.582031 61.914062 0.773438 58.125 0.921875 C 54.332031 1.066406 51.207031 1.140625 48.75 1.140625 C 40.21875 1.140625 33.085938 -0.0859375 27.359375 -2.546875 C 21.628906 -5.015625 17.296875 -9.253906 14.359375 -15.265625 C 11.421875 -21.285156 9.953125 -29.507812 9.953125 -39.9375 L 9.953125 -102.75 C 9.953125 -103.5 10.1875 -104.160156 10.65625 -104.734375 C 11.132812 -105.304688 11.75 -105.59375 12.5 -105.59375 L 20.46875 -105.59375 C 21.21875 -105.59375 21.804688 -105.304688 22.234375 -104.734375 C 22.660156 -104.160156 22.875 -103.5 22.875 -102.75 L 22.875 -39.9375 C 22.875 -31.6875 23.820312 -25.429688 25.71875 -21.171875 C 27.613281 -16.910156 30.503906 -14.019531 34.390625 -12.5 C 38.273438 -10.988281 43.15625 -10.234375 49.03125 -10.234375 C 51.113281 -10.234375 53.578125 -10.28125 56.421875 -10.375 C 59.265625 -10.46875 61.960938 -10.582031 64.515625 -10.71875 C 67.078125 -10.863281 68.925781 -10.984375 70.0625 -11.078125 L 70.0625 -102.75 C 70.0625 -103.5 70.296875 -104.160156 70.765625 -104.734375 C 71.242188 -105.304688 71.863281 -105.59375 72.625 -105.59375 L 80.4375 -105.59375 C 81.195312 -105.59375 81.8125 -105.304688 82.28125 -104.734375 C 82.75 -104.160156 82.984375 -103.5 82.984375 -102.75 Z M 82.984375 -5.109375 "/></g></g><g style="fill:#000000;fill-opacity:1;"><g transform="translate(266.721259, 110.704216)"><path style="stroke:none" d="M 80.4375 -2.84375 C 80.4375 -2.175781 80.195312 -1.535156 79.71875 -0.921875 C 79.25 -0.304688 78.632812 0 77.875 0 L 70.0625 0 C 69.394531 0 68.800781 -0.28125 68.28125 -0.84375 C 67.757812 -1.414062 67.5 -2.082031 67.5 -2.84375 L 67.5 -44.90625 L 24.015625 -44.90625 L 24.015625 -2.84375 C 24.015625 -2.175781 23.773438 -1.535156 23.296875 -0.921875 C 22.828125 -0.304688 22.210938 0 21.453125 0 L 13.640625 0 C 12.972656 0 12.378906 -0.304688 11.859375 -0.921875 C 11.335938 -1.535156 11.078125 -2.175781 11.078125 -2.84375 L 11.078125 -77.171875 C 11.078125 -88.066406 13.613281 -95.691406 18.6875 -100.046875 C 23.757812 -104.398438 31.410156 -106.578125 41.640625 -106.578125 L 49.875 -106.578125 C 60.019531 -106.578125 67.648438 -104.398438 72.765625 -100.046875 C 77.878906 -95.691406 80.4375 -88.066406 80.4375 -77.171875 Z M 67.5 -56.28125 L 67.5 -77.171875 C 67.5 -82.097656 66.929688 -85.863281 65.796875 -88.46875 C 64.660156 -91.070312 62.8125 -92.847656 60.25 -93.796875 C 57.695312 -94.742188 54.238281 -95.21875 49.875 -95.21875 L 41.640625 -95.21875 C 37.378906 -95.21875 33.941406 -94.742188 31.328125 -93.796875 C 28.722656 -92.847656 26.851562 -91.070312 25.71875 -88.46875 C 24.582031 -85.863281 24.015625 -82.097656 24.015625 -77.171875 L 24.015625 -56.28125 Z M 67.5 -56.28125 "/></g></g><g style="fill:#000000;fill-opacity:1;"><g transform="translate(358.236507, 110.704216)"><path style="stroke:none" d="M 78.875 -96.78125 C 78.875 -95.257812 77.972656 -94.5 76.171875 -94.5 L 48.453125 -94.5 L 48.453125 -2.84375 C 48.453125 -2.175781 48.210938 -1.535156 47.734375 -0.921875 C 47.265625 -0.304688 46.65625 0 45.90625 0 L 38.078125 0 C 37.421875 0 36.832031 -0.28125 36.3125 -0.84375 C 35.789062 -1.414062 35.53125 -2.082031 35.53125 -2.84375 L 35.53125 -94.5 L 7.8125 -94.5 C 7.050781 -94.5 6.382812 -94.6875 5.8125 -95.0625 C 5.25 -95.445312 4.96875 -96.019531 4.96875 -96.78125 L 4.96875 -103.03125 C 4.96875 -103.789062 5.25 -104.40625 5.8125 -104.875 C 6.382812 -105.351562 7.050781 -105.59375 7.8125 -105.59375 L 76.171875 -105.59375 C 77.972656 -105.59375 78.875 -104.738281 78.875 -103.03125 Z M 78.875 -96.78125 "/></g></g><g style="fill:#000000;fill-opacity:1;"><g transform="translate(442.078146, 110.704216)"><path style="stroke:none" d="M 85.40625 -43.625 C 85.40625 -33.113281 83.742188 -24.585938 80.421875 -18.046875 C 77.109375 -11.515625 72.585938 -6.707031 66.859375 -3.625 C 61.128906 -0.539062 54.519531 1 47.03125 1 C 39.644531 1 33.035156 -0.539062 27.203125 -3.625 C 21.378906 -6.707031 16.8125 -11.515625 13.5 -18.046875 C 10.1875 -24.585938 8.53125 -33.113281 8.53125 -43.625 L 8.53125 -61.953125 C 8.53125 -72.472656 10.1875 -81 13.5 -87.53125 C 16.8125 -94.070312 21.378906 -98.878906 27.203125 -101.953125 C 33.035156 -105.035156 39.644531 -106.578125 47.03125 -106.578125 C 54.519531 -106.578125 61.128906 -105.035156 66.859375 -101.953125 C 72.585938 -98.878906 77.109375 -94.070312 80.421875 -87.53125 C 83.742188 -81 85.40625 -72.472656 85.40625 -61.953125 Z M 72.328125 -43.625 L 72.328125 -61.953125 C 72.328125 -73.890625 70.078125 -82.367188 65.578125 -87.390625 C 61.078125 -92.410156 54.894531 -94.921875 47.03125 -94.921875 C 39.269531 -94.921875 33.085938 -92.410156 28.484375 -87.390625 C 23.890625 -82.367188 21.59375 -73.890625 21.59375 -61.953125 L 21.59375 -43.625 C 21.59375 -31.6875 23.890625 -23.207031 28.484375 -18.1875 C 33.085938 -13.164062 39.269531 -10.65625 47.03125 -10.65625 C 54.800781 -10.65625 60.957031 -13.164062 65.5 -18.1875 C 70.050781 -23.207031 72.328125 -31.6875 72.328125 -43.625 Z M 72.328125 -43.625 "/></g></g><g style="fill:#000000;fill-opacity:1;"><g transform="translate(536.009177, 110.704216)"><path style="stroke:none" d="M 83.28125 -1.84375 C 83.28125 -0.613281 82.660156 0 81.421875 0 L 72.328125 0 C 71.484375 0 70.796875 -0.0664062 70.265625 -0.203125 C 69.742188 -0.347656 69.203125 -0.894531 68.640625 -1.84375 L 43.203125 -44.203125 C 43.015625 -44.203125 42.800781 -44.203125 42.5625 -44.203125 C 42.320312 -44.203125 42.109375 -44.203125 41.921875 -44.203125 C 41.546875 -44.203125 41.164062 -44.203125 40.78125 -44.203125 C 40.40625 -44.203125 39.976562 -44.203125 39.5 -44.203125 C 37.132812 -44.203125 34.882812 -44.25 32.75 -44.34375 C 30.625 -44.4375 27.664062 -44.53125 23.875 -44.625 L 23.875 -2.84375 C 23.875 -2.175781 23.632812 -1.535156 23.15625 -0.921875 C 22.6875 -0.304688 22.070312 0 21.3125 0 L 13.640625 0 C 12.972656 0 12.378906 -0.28125 11.859375 -0.84375 C 11.335938 -1.414062 11.078125 -2.082031 11.078125 -2.84375 L 11.078125 -102.3125 C 11.078125 -104.113281 12.21875 -105.15625 14.5 -105.4375 C 17.53125 -105.820312 21.4375 -106.109375 26.21875 -106.296875 C 31 -106.484375 35.425781 -106.578125 39.5 -106.578125 C 46.988281 -106.578125 53.738281 -105.628906 59.75 -103.734375 C 65.769531 -101.835938 70.53125 -98.664062 74.03125 -94.21875 C 77.539062 -89.769531 79.296875 -83.707031 79.296875 -76.03125 L 79.296875 -75.03125 C 79.296875 -67.070312 77.1875 -60.722656 72.96875 -55.984375 C 68.757812 -51.253906 63.429688 -48.035156 56.984375 -46.328125 L 82.84375 -3.125 C 83.132812 -2.75 83.28125 -2.320312 83.28125 -1.84375 Z M 66.5 -75.03125 L 66.5 -76.03125 C 66.5 -83.132812 64.222656 -88.054688 59.671875 -90.796875 C 55.128906 -93.546875 48.40625 -94.921875 39.5 -94.921875 C 38.082031 -94.921875 36.351562 -94.921875 34.3125 -94.921875 C 32.28125 -94.921875 30.316406 -94.894531 28.421875 -94.84375 C 26.523438 -94.800781 25.007812 -94.6875 23.875 -94.5 L 23.875 -55.5625 C 27 -55.46875 29.984375 -55.394531 32.828125 -55.34375 C 35.671875 -55.300781 37.894531 -55.28125 39.5 -55.28125 C 48.21875 -55.28125 54.894531 -56.648438 59.53125 -59.390625 C 64.175781 -62.140625 66.5 -67.351562 66.5 -75.03125 Z M 66.5 -75.03125 "/></g></g><g style="fill:#000000;fill-opacity:1;"><g transform="translate(624.82447, 110.704216)"><path style="stroke:none" d="M 71.0625 -27.421875 C 71.0625 -24.015625 70.535156 -20.628906 69.484375 -17.265625 C 68.441406 -13.898438 66.617188 -10.84375 64.015625 -8.09375 C 61.410156 -5.351562 57.832031 -3.148438 53.28125 -1.484375 C 48.738281 0.171875 42.960938 1 35.953125 1 C 31.023438 1 26.640625 0.785156 22.796875 0.359375 C 18.960938 -0.0664062 15.484375 -0.519531 12.359375 -1 C 11.128906 -1.1875 10.367188 -1.46875 10.078125 -1.84375 C 9.796875 -2.226562 9.65625 -2.796875 9.65625 -3.546875 L 9.65625 -9.234375 C 9.65625 -9.992188 9.890625 -10.5625 10.359375 -10.9375 C 10.835938 -11.320312 11.410156 -11.515625 12.078125 -11.515625 C 12.171875 -11.515625 12.238281 -11.515625 12.28125 -11.515625 C 12.332031 -11.515625 12.40625 -11.515625 12.5 -11.515625 C 15.820312 -11.222656 19.753906 -11.003906 24.296875 -10.859375 C 28.847656 -10.722656 32.734375 -10.65625 35.953125 -10.65625 C 41.640625 -10.65625 46.046875 -11.363281 49.171875 -12.78125 C 52.296875 -14.207031 54.472656 -16.175781 55.703125 -18.6875 C 56.929688 -21.195312 57.546875 -24.109375 57.546875 -27.421875 C 57.546875 -29.796875 57.023438 -31.929688 55.984375 -33.828125 C 54.941406 -35.722656 53.1875 -37.640625 50.71875 -39.578125 C 48.257812 -41.515625 44.851562 -43.8125 40.5 -46.46875 L 26.71875 -54.859375 C 20.175781 -58.835938 15.269531 -62.835938 12 -66.859375 C 8.738281 -70.890625 7.109375 -75.742188 7.109375 -81.421875 C 7.109375 -90.046875 10.066406 -96.394531 15.984375 -100.46875 C 21.910156 -104.539062 30.269531 -106.578125 41.0625 -106.578125 C 43.90625 -106.578125 46.890625 -106.503906 50.015625 -106.359375 C 53.148438 -106.222656 56.113281 -106.007812 58.90625 -105.71875 C 61.695312 -105.4375 63.992188 -105.15625 65.796875 -104.875 C 67.410156 -104.59375 68.21875 -103.785156 68.21875 -102.453125 L 68.21875 -96.34375 C 68.21875 -94.832031 67.410156 -94.078125 65.796875 -94.078125 C 65.703125 -94.078125 65.65625 -94.078125 65.65625 -94.078125 C 65.65625 -94.078125 65.609375 -94.078125 65.515625 -94.078125 C 62.390625 -94.265625 58.578125 -94.453125 54.078125 -94.640625 C 49.578125 -94.828125 45.238281 -94.921875 41.0625 -94.921875 C 33.769531 -94.921875 28.460938 -93.972656 25.140625 -92.078125 C 21.828125 -90.191406 20.171875 -86.640625 20.171875 -81.421875 C 20.171875 -78.109375 21.398438 -75.242188 23.859375 -72.828125 C 26.328125 -70.410156 30.265625 -67.546875 35.671875 -64.234375 L 48.75 -56.421875 C 56.988281 -51.492188 62.765625 -46.847656 66.078125 -42.484375 C 69.398438 -38.128906 71.0625 -33.109375 71.0625 -27.421875 Z M 71.0625 -27.421875 "/></g></g><g style="fill:#000000;fill-opacity:1;"><g transform="translate(44.3157, 308.662413)"><path style="stroke:none" d="M 72.46875 -3.6875 C 72.46875 -2.84375 72.179688 -2.207031 71.609375 -1.78125 C 71.046875 -1.351562 70.390625 -1.046875 69.640625 -0.859375 C 66.703125 -0.285156 63.550781 0.164062 60.1875 0.5 C 56.820312 0.832031 52.109375 1 46.046875 1 C 41.679688 1 37.296875 0.3125 32.890625 -1.0625 C 28.492188 -2.4375 24.445312 -4.757812 20.75 -8.03125 C 17.050781 -11.300781 14.085938 -15.773438 11.859375 -21.453125 C 9.640625 -27.140625 8.53125 -34.296875 8.53125 -42.921875 L 8.53125 -62.671875 C 8.53125 -71.390625 9.640625 -78.585938 11.859375 -84.265625 C 14.085938 -89.953125 17.050781 -94.429688 20.75 -97.703125 C 24.445312 -100.972656 28.492188 -103.269531 32.890625 -104.59375 C 37.296875 -105.914062 41.679688 -106.578125 46.046875 -106.578125 C 50.492188 -106.578125 54.800781 -106.316406 58.96875 -105.796875 C 63.144531 -105.273438 66.796875 -104.78125 69.921875 -104.3125 C 71.429688 -104.125 72.1875 -103.503906 72.1875 -102.453125 L 72.1875 -95.21875 C 72.1875 -94.175781 71.617188 -93.65625 70.484375 -93.65625 C 70.390625 -93.65625 70.316406 -93.65625 70.265625 -93.65625 C 70.222656 -93.65625 70.15625 -93.65625 70.0625 -93.65625 C 68.351562 -93.84375 66.148438 -94.03125 63.453125 -94.21875 C 60.753906 -94.40625 57.890625 -94.566406 54.859375 -94.703125 C 51.828125 -94.847656 48.9375 -94.921875 46.1875 -94.921875 C 41.539062 -94.921875 37.347656 -93.898438 33.609375 -91.859375 C 29.867188 -89.828125 26.90625 -86.46875 24.71875 -81.78125 C 22.539062 -77.09375 21.453125 -70.722656 21.453125 -62.671875 L 21.453125 -42.921875 C 21.453125 -34.960938 22.539062 -28.632812 24.71875 -23.9375 C 26.90625 -19.25 29.867188 -15.863281 33.609375 -13.78125 C 37.347656 -11.695312 41.539062 -10.65625 46.1875 -10.65625 C 50.257812 -10.65625 54.546875 -10.796875 59.046875 -11.078125 C 63.546875 -11.367188 67.078125 -11.609375 69.640625 -11.796875 C 69.734375 -11.796875 69.828125 -11.796875 69.921875 -11.796875 C 70.015625 -11.796875 70.109375 -11.796875 70.203125 -11.796875 C 71.710938 -11.796875 72.46875 -11.035156 72.46875 -9.515625 Z M 72.46875 -3.6875 "/></g></g><g style="fill:#000000;fill-opacity:1;"><g transform="translate(121.762607, 308.662413)"><path style="stroke:none" d="M 85.546875 -2.84375 C 85.546875 -2.082031 85.257812 -1.414062 84.6875 -0.84375 C 84.125 -0.28125 83.460938 0 82.703125 0 L 75.453125 0 C 74.703125 0 74.039062 -0.28125 73.46875 -0.84375 C 72.90625 -1.414062 72.625 -2.082031 72.625 -2.84375 L 72.625 -50.015625 L 24.015625 -50.015625 L 24.015625 -2.84375 C 24.015625 -2.082031 23.726562 -1.414062 23.15625 -0.84375 C 22.59375 -0.28125 21.929688 0 21.171875 0 L 13.921875 0 C 13.171875 0 12.507812 -0.28125 11.9375 -0.84375 C 11.363281 -1.414062 11.078125 -2.082031 11.078125 -2.84375 L 11.078125 -102.75 C 11.078125 -103.5 11.363281 -104.160156 11.9375 -104.734375 C 12.507812 -105.304688 13.171875 -105.59375 13.921875 -105.59375 L 21.171875 -105.59375 C 21.929688 -105.59375 22.59375 -105.304688 23.15625 -104.734375 C 23.726562 -104.160156 24.015625 -103.5 24.015625 -102.75 L 24.015625 -61.53125 L 72.625 -61.53125 L 72.625 -102.75 C 72.625 -103.5 72.90625 -104.160156 73.46875 -104.734375 C 74.039062 -105.304688 74.703125 -105.59375 75.453125 -105.59375 L 82.703125 -105.59375 C 83.460938 -105.59375 84.125 -105.304688 84.6875 -104.734375 C 85.257812 -104.160156 85.546875 -103.5 85.546875 -102.75 Z M 85.546875 -2.84375 "/></g></g><g style="fill:#000000;fill-opacity:1;"><g transform="translate(218.393652, 308.662413)"><path style="stroke:none" d="M 80.4375 -2.84375 C 80.4375 -2.175781 80.195312 -1.535156 79.71875 -0.921875 C 79.25 -0.304688 78.632812 0 77.875 0 L 70.0625 0 C 69.394531 0 68.800781 -0.28125 68.28125 -0.84375 C 67.757812 -1.414062 67.5 -2.082031 67.5 -2.84375 L 67.5 -44.90625 L 24.015625 -44.90625 L 24.015625 -2.84375 C 24.015625 -2.175781 23.773438 -1.535156 23.296875 -0.921875 C 22.828125 -0.304688 22.210938 0 21.453125 0 L 13.640625 0 C 12.972656 0 12.378906 -0.304688 11.859375 -0.921875 C 11.335938 -1.535156 11.078125 -2.175781 11.078125 -2.84375 L 11.078125 -77.171875 C 11.078125 -88.066406 13.613281 -95.691406 18.6875 -100.046875 C 23.757812 -104.398438 31.410156 -106.578125 41.640625 -106.578125 L 49.875 -106.578125 C 60.019531 -106.578125 67.648438 -104.398438 72.765625 -100.046875 C 77.878906 -95.691406 80.4375 -88.066406 80.4375 -77.171875 Z M 67.5 -56.28125 L 67.5 -77.171875 C 67.5 -82.097656 66.929688 -85.863281 65.796875 -88.46875 C 64.660156 -91.070312 62.8125 -92.847656 60.25 -93.796875 C 57.695312 -94.742188 54.238281 -95.21875 49.875 -95.21875 L 41.640625 -95.21875 C 37.378906 -95.21875 33.941406 -94.742188 31.328125 -93.796875 C 28.722656 -92.847656 26.851562 -91.070312 25.71875 -88.46875 C 24.582031 -85.863281 24.015625 -82.097656 24.015625 -77.171875 L 24.015625 -56.28125 Z M 67.5 -56.28125 "/></g></g><g style="fill:#000000;fill-opacity:1;"><g transform="translate(309.9089, 308.662413)"><path style="stroke:none" d="M 78.875 -96.78125 C 78.875 -95.257812 77.972656 -94.5 76.171875 -94.5 L 48.453125 -94.5 L 48.453125 -2.84375 C 48.453125 -2.175781 48.210938 -1.535156 47.734375 -0.921875 C 47.265625 -0.304688 46.65625 0 45.90625 0 L 38.078125 0 C 37.421875 0 36.832031 -0.28125 36.3125 -0.84375 C 35.789062 -1.414062 35.53125 -2.082031 35.53125 -2.84375 L 35.53125 -94.5 L 7.8125 -94.5 C 7.050781 -94.5 6.382812 -94.6875 5.8125 -95.0625 C 5.25 -95.445312 4.96875 -96.019531 4.96875 -96.78125 L 4.96875 -103.03125 C 4.96875 -103.789062 5.25 -104.40625 5.8125 -104.875 C 6.382812 -105.351562 7.050781 -105.59375 7.8125 -105.59375 L 76.171875 -105.59375 C 77.972656 -105.59375 78.875 -104.738281 78.875 -103.03125 Z M 78.875 -96.78125 "/></g></g><g style="fill:#000000;fill-opacity:1;"><g transform="translate(393.750539, 308.662413)"><path style="stroke:none" d="M 80.4375 -29.125 C 80.4375 -23.15625 79.320312 -18.226562 77.09375 -14.34375 C 74.863281 -10.46875 71.832031 -7.390625 68 -5.109375 C 64.164062 -2.835938 59.757812 -1.25 54.78125 -0.34375 C 49.8125 0.550781 44.53125 1 38.9375 1 C 34.289062 1 29.953125 0.878906 25.921875 0.640625 C 21.898438 0.398438 18.519531 0.09375 15.78125 -0.28125 C 14.164062 -0.46875 12.976562 -0.941406 12.21875 -1.703125 C 11.457031 -2.460938 11.078125 -3.742188 11.078125 -5.546875 L 11.078125 -100.1875 C 11.078125 -103.40625 12.59375 -105.15625 15.625 -105.4375 C 18 -105.726562 21.195312 -105.988281 25.21875 -106.21875 C 29.25 -106.457031 33.585938 -106.578125 38.234375 -106.578125 C 45.804688 -106.578125 52.742188 -105.769531 59.046875 -104.15625 C 65.347656 -102.550781 70.390625 -99.78125 74.171875 -95.84375 C 77.960938 -91.914062 79.859375 -86.351562 79.859375 -79.15625 L 79.859375 -76.875 C 79.859375 -71.664062 78.53125 -67.117188 75.875 -63.234375 C 73.226562 -59.347656 69.488281 -56.457031 64.65625 -54.5625 C 69.582031 -52.863281 73.441406 -49.976562 76.234375 -45.90625 C 79.035156 -41.832031 80.4375 -37.046875 80.4375 -31.546875 Z M 66.9375 -76.875 L 66.9375 -79.15625 C 66.9375 -83.695312 65.75 -87.148438 63.375 -89.515625 C 61.007812 -91.890625 57.671875 -93.503906 53.359375 -94.359375 C 49.046875 -95.210938 44.003906 -95.640625 38.234375 -95.640625 C 35.859375 -95.640625 33.414062 -95.59375 30.90625 -95.5 C 28.394531 -95.40625 26.144531 -95.3125 24.15625 -95.21875 L 24.15625 -59.96875 L 46.046875 -59.96875 C 51.535156 -59.96875 55.796875 -60.75 58.828125 -62.3125 C 61.859375 -63.875 63.96875 -65.957031 65.15625 -68.5625 C 66.34375 -71.164062 66.9375 -73.9375 66.9375 -76.875 Z M 67.5 -29.125 L 67.5 -31.546875 C 67.5 -34.671875 66.882812 -37.609375 65.65625 -40.359375 C 64.425781 -43.109375 62.242188 -45.332031 59.109375 -47.03125 C 55.984375 -48.738281 51.628906 -49.59375 46.046875 -49.59375 L 24.15625 -49.59375 L 24.15625 -10.515625 C 26.53125 -10.421875 28.972656 -10.300781 31.484375 -10.15625 C 33.992188 -10.019531 36.476562 -9.953125 38.9375 -9.953125 C 44.8125 -9.953125 49.878906 -10.492188 54.140625 -11.578125 C 58.398438 -12.671875 61.691406 -14.585938 64.015625 -17.328125 C 66.335938 -20.078125 67.5 -24.007812 67.5 -29.125 Z M 67.5 -29.125 "/></g></g><g style="fill:#000000;fill-opacity:1;"><g transform="translate(481.2869, 308.662413)"><path style="stroke:none" d="M 85.40625 -43.625 C 85.40625 -33.113281 83.742188 -24.585938 80.421875 -18.046875 C 77.109375 -11.515625 72.585938 -6.707031 66.859375 -3.625 C 61.128906 -0.539062 54.519531 1 47.03125 1 C 39.644531 1 33.035156 -0.539062 27.203125 -3.625 C 21.378906 -6.707031 16.8125 -11.515625 13.5 -18.046875 C 10.1875 -24.585938 8.53125 -33.113281 8.53125 -43.625 L 8.53125 -61.953125 C 8.53125 -72.472656 10.1875 -81 13.5 -87.53125 C 16.8125 -94.070312 21.378906 -98.878906 27.203125 -101.953125 C 33.035156 -105.035156 39.644531 -106.578125 47.03125 -106.578125 C 54.519531 -106.578125 61.128906 -105.035156 66.859375 -101.953125 C 72.585938 -98.878906 77.109375 -94.070312 80.421875 -87.53125 C 83.742188 -81 85.40625 -72.472656 85.40625 -61.953125 Z M 72.328125 -43.625 L 72.328125 -61.953125 C 72.328125 -73.890625 70.078125 -82.367188 65.578125 -87.390625 C 61.078125 -92.410156 54.894531 -94.921875 47.03125 -94.921875 C 39.269531 -94.921875 33.085938 -92.410156 28.484375 -87.390625 C 23.890625 -82.367188 21.59375 -73.890625 21.59375 -61.953125 L 21.59375 -43.625 C 21.59375 -31.6875 23.890625 -23.207031 28.484375 -18.1875 C 33.085938 -13.164062 39.269531 -10.65625 47.03125 -10.65625 C 54.800781 -10.65625 60.957031 -13.164062 65.5 -18.1875 C 70.050781 -23.207031 72.328125 -31.6875 72.328125 -43.625 Z M 72.328125 -43.625 "/></g></g><g style="fill:#000000;fill-opacity:1;"><g transform="translate(575.217931, 308.662413)"><path style="stroke:none" d="M 78.875 -96.78125 C 78.875 -95.257812 77.972656 -94.5 76.171875 -94.5 L 48.453125 -94.5 L 48.453125 -2.84375 C 48.453125 -2.175781 48.210938 -1.535156 47.734375 -0.921875 C 47.265625 -0.304688 46.65625 0 45.90625 0 L 38.078125 0 C 37.421875 0 36.832031 -0.28125 36.3125 -0.84375 C 35.789062 -1.414062 35.53125 -2.082031 35.53125 -2.84375 L 35.53125 -94.5 L 7.8125 -94.5 C 7.050781 -94.5 6.382812 -94.6875 5.8125 -95.0625 C 5.25 -95.445312 4.96875 -96.019531 4.96875 -96.78125 L 4.96875 -103.03125 C 4.96875 -103.789062 5.25 -104.40625 5.8125 -104.875 C 6.382812 -105.351562 7.050781 -105.59375 7.8125 -105.59375 L 76.171875 -105.59375 C 77.972656 -105.59375 78.875 -104.738281 78.875 -103.03125 Z M 78.875 -96.78125 "/></g></g></g></g><g mask="url(#a6b6facc35)" transform="matrix(1,0,0,1,253,62)"><g clip-path="url(#ca3b27140c)"><g clip-rule="nonzero" clip-path="url(#371652406c)"><path style=" stroke:none;fill-rule:nonzero;fill:#000000;fill-opacity:1;" d="M 404.347656 57.976562 L 394.972656 57.976562 C 393.988281 55.847656 392.929688 53.761719 391.796875 51.710938 C 390.664062 49.660156 389.457031 47.652344 388.179688 45.691406 C 386.902344 43.726562 385.558594 41.808594 384.144531 39.941406 C 382.730469 38.070312 381.253906 36.253906 379.710938 34.492188 C 378.167969 32.726562 376.566406 31.019531 374.902344 29.371094 C 373.238281 27.722656 371.515625 26.132812 369.738281 24.605469 C 367.960938 23.078125 366.132812 21.617188 364.25 20.21875 C 362.371094 18.820312 360.441406 17.492188 358.464844 16.234375 C 356.488281 14.972656 354.472656 13.785156 352.410156 12.667969 C 350.347656 11.550781 348.25 10.507812 346.117188 9.542969 C 343.980469 8.574219 341.816406 7.683594 339.617188 6.871094 C 337.417969 6.054688 335.195312 5.320312 332.945312 4.667969 C 330.691406 4.011719 328.421875 3.4375 326.128906 2.941406 C 323.839844 2.449219 321.53125 2.035156 319.210938 1.707031 C 316.890625 1.375 314.5625 1.128906 312.222656 0.964844 C 309.886719 0.800781 307.542969 0.71875 305.199219 0.722656 L 146.050781 0.722656 C 143.707031 0.71875 141.363281 0.800781 139.027344 0.964844 C 136.6875 1.128906 134.355469 1.375 132.035156 1.707031 C 129.714844 2.035156 127.410156 2.449219 125.117188 2.941406 C 122.828125 3.4375 120.554688 4.011719 118.304688 4.667969 C 116.054688 5.320312 113.828125 6.054688 111.632812 6.871094 C 109.433594 7.683594 107.265625 8.574219 105.132812 9.542969 C 102.996094 10.507812 100.898438 11.550781 98.839844 12.667969 C 96.777344 13.785156 94.757812 14.972656 92.785156 16.234375 C 90.808594 17.492188 88.878906 18.820312 86.996094 20.21875 C 85.117188 21.617188 83.285156 23.078125 81.507812 24.605469 C 79.730469 26.132812 78.011719 27.722656 76.347656 29.371094 C 74.683594 31.019531 73.082031 32.726562 71.539062 34.492188 C 69.996094 36.253906 68.515625 38.070312 67.105469 39.941406 C 65.691406 41.808594 64.34375 43.726562 63.070312 45.691406 C 61.792969 47.652344 60.585938 49.660156 59.453125 51.710938 C 58.320312 53.761719 57.257812 55.847656 56.273438 57.976562 L 46.898438 57.976562 C 43.871094 57.96875 40.867188 58.257812 37.894531 58.84375 C 34.921875 59.429688 32.035156 60.300781 29.238281 61.460938 C 26.4375 62.617188 23.777344 64.039062 21.261719 65.722656 C 18.742188 67.40625 16.414062 69.320312 14.273438 71.464844 C 12.105469 73.585938 10.167969 75.902344 8.460938 78.414062 C 6.753906 80.925781 5.316406 83.582031 4.144531 86.382812 C 2.972656 89.179688 2.089844 92.070312 1.496094 95.042969 C 0.90625 98.019531 0.613281 101.027344 0.625 104.0625 C 0.625 105.574219 0.703125 107.085938 0.855469 108.589844 C 1.003906 110.097656 1.230469 111.59375 1.527344 113.078125 C 1.824219 114.5625 2.191406 116.027344 2.632812 117.476562 C 3.074219 118.921875 3.585938 120.347656 4.167969 121.742188 C 4.746094 123.140625 5.394531 124.507812 6.109375 125.84375 C 6.824219 127.175781 7.605469 128.472656 8.445312 129.730469 C 9.289062 130.988281 10.191406 132.203125 11.152344 133.375 C 12.113281 134.542969 13.128906 135.664062 14.199219 136.734375 C 15.269531 137.804688 16.390625 138.820312 17.5625 139.78125 C 18.734375 140.742188 19.949219 141.640625 21.207031 142.484375 C 22.46875 143.324219 23.765625 144.101562 25.101562 144.816406 C 26.4375 145.53125 27.804688 146.179688 29.203125 146.757812 C 30.601562 147.339844 32.027344 147.851562 33.476562 148.289062 C 34.925781 148.730469 36.390625 149.101562 37.875 149.398438 C 39.363281 149.695312 40.859375 149.917969 42.367188 150.070312 C 43.875 150.21875 45.382812 150.296875 46.898438 150.296875 L 56.347656 150.296875 C 57.707031 153.160156 59.195312 155.949219 60.816406 158.667969 C 62.441406 161.390625 64.1875 164.027344 66.058594 166.582031 C 67.929688 169.136719 69.917969 171.597656 72.023438 173.960938 C 74.128906 176.328125 76.339844 178.589844 78.660156 180.75 C 80.976562 182.90625 83.394531 184.949219 85.90625 186.875 C 88.417969 188.804688 91.015625 190.609375 93.703125 192.292969 C 96.386719 193.976562 99.144531 195.527344 101.972656 196.949219 C 104.804688 198.371094 107.695312 199.65625 110.648438 200.804688 C 99.550781 224.9375 82.675781 260.90625 82.449219 261.28125 C 82.117188 262.003906 81.902344 262.761719 81.808594 263.550781 C 81.714844 264.339844 81.746094 265.125 81.898438 265.90625 C 82.054688 266.6875 82.328125 267.425781 82.714844 268.121094 C 83.105469 268.816406 83.589844 269.433594 84.175781 269.972656 C 84.757812 270.527344 85.414062 270.972656 86.140625 271.3125 C 86.871094 271.652344 87.636719 271.863281 88.433594 271.953125 C 89.234375 272.039062 90.027344 272 90.8125 271.828125 C 91.597656 271.65625 92.335938 271.363281 93.023438 270.949219 L 201.925781 207.402344 L 305.199219 207.402344 C 307.542969 207.40625 309.882812 207.324219 312.21875 207.164062 C 314.554688 207 316.882812 206.757812 319.203125 206.429688 C 321.519531 206.101562 323.824219 205.691406 326.113281 205.199219 C 328.40625 204.707031 330.675781 204.136719 332.925781 203.484375 C 335.171875 202.832031 337.398438 202.101562 339.59375 201.289062 C 341.792969 200.480469 343.957031 199.589844 346.089844 198.625 C 348.226562 197.664062 350.320312 196.625 352.382812 195.511719 C 354.441406 194.398438 356.460938 193.210938 358.4375 191.953125 C 360.414062 190.699219 362.339844 189.371094 364.222656 187.980469 C 366.105469 186.585938 367.933594 185.125 369.710938 183.601562 C 371.488281 182.078125 373.210938 180.492188 374.875 178.847656 C 376.539062 177.203125 378.144531 175.5 379.6875 173.738281 C 381.230469 171.980469 382.710938 170.167969 384.125 168.300781 C 385.542969 166.4375 386.886719 164.523438 388.167969 162.5625 C 389.445312 160.601562 390.652344 158.597656 391.789062 156.550781 C 392.925781 154.503906 393.988281 152.421875 394.972656 150.296875 L 404.347656 150.296875 C 405.863281 150.300781 407.371094 150.226562 408.878906 150.078125 C 410.386719 149.929688 411.882812 149.710938 413.367188 149.414062 C 414.851562 149.121094 416.316406 148.753906 417.765625 148.316406 C 419.214844 147.878906 420.636719 147.367188 422.035156 146.789062 C 423.433594 146.210938 424.800781 145.566406 426.136719 144.855469 C 427.472656 144.140625 428.769531 143.367188 430.027344 142.527344 C 431.285156 141.6875 432.5 140.789062 433.671875 139.828125 C 434.839844 138.867188 435.960938 137.855469 437.03125 136.785156 C 438.101562 135.714844 439.117188 134.597656 440.078125 133.429688 C 441.039062 132.261719 441.941406 131.046875 442.78125 129.789062 C 443.621094 128.53125 444.398438 127.238281 445.113281 125.902344 C 445.828125 124.570312 446.472656 123.203125 447.054688 121.808594 C 447.632812 120.410156 448.140625 118.988281 448.582031 117.539062 C 449.019531 116.09375 449.386719 114.628906 449.683594 113.144531 C 449.980469 111.660156 450.199219 110.167969 450.347656 108.664062 C 450.496094 107.15625 450.570312 105.648438 450.570312 104.136719 C 450.570312 102.625 450.496094 101.117188 450.347656 99.609375 C 450.199219 98.105469 449.980469 96.609375 449.683594 95.128906 C 449.386719 93.644531 449.019531 92.179688 448.582031 90.730469 C 448.140625 89.285156 447.632812 87.863281 447.054688 86.464844 C 446.472656 85.070312 445.828125 83.703125 445.113281 82.371094 C 444.398438 81.035156 443.621094 79.742188 442.78125 78.484375 C 441.941406 77.226562 441.039062 76.011719 440.078125 74.84375 C 439.117188 73.675781 438.101562 72.554688 437.03125 71.488281 C 435.960938 70.417969 434.839844 69.402344 433.671875 68.445312 C 432.5 67.484375 431.285156 66.585938 430.027344 65.746094 C 428.769531 64.90625 427.472656 64.128906 426.136719 63.417969 C 424.800781 62.707031 423.433594 62.058594 422.035156 61.480469 C 420.636719 60.902344 419.214844 60.394531 417.765625 59.957031 C 416.316406 59.519531 414.851562 59.152344 413.367188 58.859375 C 411.882812 58.5625 410.386719 58.34375 408.878906 58.195312 C 407.371094 58.046875 405.863281 57.972656 404.347656 57.976562 Z M 46.898438 135.3125 C 45.875 135.308594 44.855469 135.257812 43.835938 135.15625 C 42.816406 135.054688 41.804688 134.90625 40.800781 134.707031 C 39.796875 134.503906 38.804688 134.257812 37.824219 133.957031 C 36.84375 133.660156 35.882812 133.316406 34.9375 132.925781 C 33.988281 132.53125 33.066406 132.09375 32.164062 131.613281 C 31.257812 131.128906 30.382812 130.605469 29.53125 130.035156 C 28.679688 129.464844 27.859375 128.859375 27.066406 128.207031 C 26.273438 127.558594 25.515625 126.871094 24.792969 126.148438 C 24.070312 125.425781 23.382812 124.667969 22.734375 123.878906 C 22.082031 123.085938 21.472656 122.265625 20.90625 121.414062 C 20.335938 120.566406 19.808594 119.6875 19.328125 118.785156 C 18.84375 117.882812 18.40625 116.960938 18.011719 116.015625 C 17.621094 115.070312 17.277344 114.109375 16.976562 113.128906 C 16.679688 112.152344 16.429688 111.160156 16.230469 110.15625 C 16.03125 109.152344 15.878906 108.140625 15.777344 107.125 C 15.675781 106.105469 15.625 105.085938 15.625 104.0625 C 15.632812 103.042969 15.691406 102.027344 15.796875 101.011719 C 15.90625 99.996094 16.0625 98.992188 16.265625 97.992188 C 16.472656 96.996094 16.726562 96.007812 17.027344 95.035156 C 17.328125 94.0625 17.679688 93.105469 18.074219 92.164062 C 18.46875 91.222656 18.910156 90.304688 19.394531 89.410156 C 19.878906 88.511719 20.40625 87.640625 20.976562 86.796875 C 21.546875 85.949219 22.15625 85.132812 22.804688 84.347656 C 23.457031 83.5625 24.140625 82.808594 24.867188 82.089844 C 25.589844 81.371094 26.34375 80.6875 27.136719 80.042969 C 27.925781 79.398438 28.746094 78.792969 29.59375 78.226562 C 30.441406 77.660156 31.316406 77.136719 32.214844 76.660156 C 33.117188 76.179688 34.039062 75.742188 34.980469 75.351562 C 35.921875 74.960938 36.882812 74.617188 37.859375 74.320312 C 38.835938 74.023438 39.824219 73.777344 40.824219 73.574219 C 41.824219 73.375 42.832031 73.222656 43.847656 73.121094 C 44.863281 73.019531 45.878906 72.964844 46.898438 72.960938 L 50.5 72.960938 C 49.824219 75.359375 49.300781 77.757812 48.773438 80.230469 C 48.636719 80.824219 48.539062 81.425781 48.472656 82.03125 C 48.023438 84.277344 47.722656 86.601562 47.425781 88.925781 C 47.347656 89.671875 47.273438 90.421875 47.199219 91.246094 C 46.972656 94.09375 46.824219 97.015625 46.824219 99.863281 L 46.824219 108.257812 C 46.824219 111.179688 46.972656 114.027344 47.199219 116.800781 C 47.273438 117.625 47.347656 118.449219 47.425781 119.199219 C 47.722656 121.445312 48.023438 123.695312 48.398438 125.867188 C 48.550781 126.542969 48.625 127.21875 48.773438 127.816406 C 49.300781 130.363281 49.898438 132.835938 50.574219 135.3125 Z M 389.425781 108.257812 C 389.449219 110.988281 389.324219 113.710938 389.050781 116.425781 C 388.289062 124.566406 386.339844 132.410156 383.199219 139.957031 C 382.421875 141.882812 381.570312 143.78125 380.652344 145.644531 C 379.730469 147.507812 378.742188 149.335938 377.6875 151.125 C 376.628906 152.914062 375.507812 154.664062 374.324219 156.371094 C 373.136719 158.078125 371.886719 159.738281 370.578125 161.355469 C 369.269531 162.96875 367.902344 164.53125 366.476562 166.046875 C 365.050781 167.558594 363.570312 169.015625 362.035156 170.417969 C 360.5 171.824219 358.914062 173.167969 357.28125 174.453125 C 355.644531 175.738281 353.964844 176.960938 352.238281 178.121094 C 350.515625 179.28125 348.746094 180.375 346.941406 181.40625 C 345.132812 182.433594 343.289062 183.394531 341.414062 184.289062 C 339.535156 185.179688 337.625 186.003906 335.683594 186.753906 C 333.746094 187.503906 331.78125 188.179688 329.789062 188.785156 C 327.800781 189.390625 325.789062 189.921875 323.761719 190.375 C 321.730469 190.832031 319.6875 191.210938 317.628906 191.515625 C 315.574219 191.816406 313.507812 192.042969 311.429688 192.195312 C 309.355469 192.34375 307.28125 192.417969 305.199219 192.414062 L 199.898438 192.414062 C 198.550781 192.414062 197.300781 192.765625 196.148438 193.460938 L 106.222656 245.917969 C 113.125 231.15625 121.972656 212.195312 127.75 199.457031 C 128.1875 198.464844 128.402344 197.425781 128.386719 196.339844 C 128.375 195.253906 128.136719 194.21875 127.675781 193.238281 C 127.230469 192.242188 126.59375 191.394531 125.765625 190.683594 C 124.9375 189.976562 124 189.476562 122.949219 189.191406 C 119.894531 188.300781 116.898438 187.246094 113.960938 186.019531 C 111.023438 184.796875 108.164062 183.410156 105.382812 181.863281 C 102.601562 180.320312 99.917969 178.625 97.324219 176.777344 C 94.734375 174.933594 92.253906 172.945312 89.886719 170.824219 C 87.519531 168.699219 85.277344 166.449219 83.160156 164.074219 C 81.042969 161.699219 79.066406 159.214844 77.230469 156.617188 C 75.394531 154.019531 73.707031 151.328125 72.171875 148.542969 C 70.636719 145.757812 69.261719 142.894531 68.050781 139.957031 C 65.992188 134.925781 64.441406 129.742188 63.394531 124.410156 C 62.347656 119.078125 61.824219 113.691406 61.824219 108.257812 L 61.824219 99.863281 C 61.789062 94.449219 62.292969 89.089844 63.339844 83.777344 C 64.390625 78.464844 65.957031 73.3125 68.050781 68.316406 C 68.828125 66.386719 69.675781 64.488281 70.59375 62.621094 C 71.515625 60.757812 72.5 58.925781 73.558594 57.132812 C 74.613281 55.339844 75.730469 53.589844 76.917969 51.878906 C 78.101562 50.171875 79.351562 48.507812 80.660156 46.890625 C 81.96875 45.273438 83.335938 43.707031 84.761719 42.191406 C 86.1875 40.671875 87.667969 39.214844 89.199219 37.808594 C 90.734375 36.402344 92.320312 35.054688 93.953125 33.765625 C 95.585938 32.476562 97.269531 31.25 98.992188 30.085938 C 100.71875 28.921875 102.484375 27.824219 104.292969 26.792969 C 106.097656 25.761719 107.941406 24.796875 109.820312 23.898438 C 111.699219 23.003906 113.609375 22.179688 115.546875 21.425781 C 117.488281 20.671875 119.453125 19.988281 121.445312 19.382812 C 123.4375 18.773438 125.445312 18.238281 127.476562 17.78125 C 129.507812 17.320312 131.550781 16.9375 133.609375 16.632812 C 135.667969 16.324219 137.738281 16.09375 139.8125 15.941406 C 141.890625 15.785156 143.96875 15.710938 146.050781 15.710938 L 305.199219 15.710938 C 307.28125 15.710938 309.359375 15.785156 311.4375 15.941406 C 313.511719 16.09375 315.578125 16.324219 317.636719 16.632812 C 319.695312 16.9375 321.742188 17.320312 323.773438 17.78125 C 325.800781 18.238281 327.8125 18.773438 329.804688 19.382812 C 331.792969 19.988281 333.761719 20.671875 335.699219 21.425781 C 337.640625 22.179688 339.550781 23.003906 341.429688 23.898438 C 343.308594 24.796875 345.148438 25.761719 346.957031 26.792969 C 348.765625 27.824219 350.53125 28.921875 352.257812 30.085938 C 353.980469 31.25 355.660156 32.476562 357.296875 33.765625 C 358.929688 35.054688 360.515625 36.402344 362.046875 37.808594 C 363.582031 39.214844 365.0625 40.671875 366.488281 42.191406 C 367.914062 43.707031 369.28125 45.273438 370.589844 46.890625 C 371.898438 48.507812 373.144531 50.171875 374.332031 51.878906 C 375.515625 53.589844 376.636719 55.339844 377.691406 57.132812 C 378.746094 58.925781 379.734375 60.757812 380.652344 62.621094 C 381.574219 64.488281 382.421875 66.386719 383.199219 68.316406 C 385.289062 73.3125 386.859375 78.464844 387.90625 83.777344 C 388.957031 89.089844 389.460938 94.449219 389.425781 99.863281 Z M 426.398438 126.167969 C 424.957031 127.621094 423.386719 128.921875 421.683594 130.0625 C 419.984375 131.203125 418.1875 132.167969 416.292969 132.953125 C 414.402344 133.738281 412.449219 134.328125 410.4375 134.722656 C 408.429688 135.121094 406.398438 135.316406 404.347656 135.3125 L 400.675781 135.3125 C 401.347656 132.835938 401.949219 130.363281 402.472656 127.816406 C 402.625 127.21875 402.699219 126.542969 402.847656 125.867188 C 403.222656 123.695312 403.523438 121.445312 403.824219 119.199219 C 403.898438 118.449219 403.972656 117.625 404.050781 116.800781 C 404.273438 114.027344 404.425781 111.179688 404.425781 108.257812 L 404.425781 99.863281 C 404.425781 97.015625 404.273438 94.09375 404.050781 91.246094 C 403.972656 90.496094 403.898438 89.671875 403.824219 88.925781 C 403.523438 86.601562 403.222656 84.351562 402.773438 82.105469 C 402.710938 81.472656 402.609375 80.851562 402.472656 80.230469 C 401.949219 77.757812 401.425781 75.359375 400.75 72.960938 L 404.347656 72.960938 C 405.886719 72.957031 407.414062 73.0625 408.9375 73.28125 C 410.457031 73.5 411.953125 73.832031 413.425781 74.269531 C 414.898438 74.710938 416.332031 75.257812 417.722656 75.910156 C 419.113281 76.566406 420.449219 77.316406 421.730469 78.167969 C 423.007812 79.015625 424.21875 79.957031 425.359375 80.984375 C 426.5 82.015625 427.558594 83.125 428.535156 84.308594 C 429.511719 85.496094 430.394531 86.746094 431.183594 88.0625 C 431.976562 89.382812 432.664062 90.75 433.253906 92.167969 C 433.839844 93.585938 434.320312 95.042969 434.695312 96.53125 C 435.066406 98.019531 435.328125 99.53125 435.476562 101.058594 C 435.625 102.585938 435.660156 104.117188 435.582031 105.652344 C 435.503906 107.1875 435.3125 108.707031 435.007812 110.210938 C 434.707031 111.714844 434.292969 113.191406 433.769531 114.636719 C 433.25 116.082031 432.621094 117.476562 431.894531 118.832031 C 431.164062 120.183594 430.339844 121.472656 429.417969 122.703125 C 428.496094 123.933594 427.492188 125.085938 426.398438 126.167969 Z M 426.398438 126.167969 "/></g><path style=" stroke:none;fill-rule:nonzero;fill:#000000;fill-opacity:1;" d="M 306.472656 38.492188 L 144.773438 38.492188 C 143.699219 38.492188 142.625 38.515625 141.550781 38.570312 C 140.480469 38.621094 139.40625 38.703125 138.339844 38.808594 C 137.269531 38.910156 136.203125 39.042969 135.140625 39.199219 C 134.078125 39.359375 133.019531 39.542969 131.964844 39.75 C 130.910156 39.960938 129.863281 40.195312 128.820312 40.457031 C 127.777344 40.71875 126.742188 41.003906 125.714844 41.316406 C 124.683594 41.628906 123.664062 41.964844 122.652344 42.324219 C 121.640625 42.6875 120.640625 43.074219 119.644531 43.484375 C 118.652344 43.894531 117.671875 44.332031 116.699219 44.789062 C 115.730469 45.25 114.769531 45.730469 113.820312 46.238281 C 112.875 46.742188 111.9375 47.273438 111.015625 47.824219 C 110.09375 48.378906 109.1875 48.953125 108.292969 49.546875 C 107.402344 50.144531 106.523438 50.761719 105.660156 51.402344 C 104.796875 52.042969 103.949219 52.703125 103.117188 53.382812 C 102.289062 54.0625 101.472656 54.765625 100.679688 55.488281 C 99.882812 56.207031 99.105469 56.949219 98.34375 57.707031 C 97.585938 58.464844 96.84375 59.242188 96.121094 60.039062 C 95.398438 60.835938 94.699219 61.648438 94.015625 62.476562 C 93.335938 63.308594 92.675781 64.152344 92.035156 65.015625 C 91.394531 65.878906 90.773438 66.757812 90.179688 67.648438 C 89.582031 68.542969 89.007812 69.449219 88.453125 70.371094 C 87.902344 71.289062 87.371094 72.222656 86.867188 73.171875 C 86.359375 74.117188 85.875 75.078125 85.417969 76.046875 C 84.957031 77.019531 84.519531 78 84.109375 78.992188 C 83.699219 79.984375 83.3125 80.984375 82.949219 81.996094 C 82.589844 83.007812 82.25 84.027344 81.9375 85.054688 C 81.628906 86.082031 81.339844 87.117188 81.078125 88.15625 C 80.820312 89.199219 80.582031 90.246094 80.375 91.300781 C 80.164062 92.351562 79.980469 93.410156 79.824219 94.472656 C 79.664062 95.535156 79.535156 96.601562 79.429688 97.667969 C 79.324219 98.738281 79.242188 99.808594 79.191406 100.878906 C 79.136719 101.953125 79.113281 103.023438 79.113281 104.097656 C 79.113281 105.171875 79.136719 106.246094 79.191406 107.316406 C 79.242188 108.390625 79.324219 109.460938 79.429688 110.53125 C 79.535156 111.597656 79.664062 112.664062 79.824219 113.726562 C 79.980469 114.789062 80.164062 115.84375 80.375 116.898438 C 80.582031 117.953125 80.820312 119 81.078125 120.039062 C 81.339844 121.082031 81.628906 122.117188 81.9375 123.144531 C 82.25 124.171875 82.589844 125.191406 82.949219 126.203125 C 83.3125 127.210938 83.699219 128.214844 84.109375 129.207031 C 84.519531 130.199219 84.957031 131.179688 85.417969 132.148438 C 85.875 133.121094 86.359375 134.078125 86.867188 135.027344 C 87.371094 135.972656 87.902344 136.90625 88.453125 137.828125 C 89.007812 138.75 89.582031 139.65625 90.179688 140.550781 C 90.773438 141.441406 91.394531 142.320312 92.035156 143.183594 C 92.675781 144.042969 93.335938 144.890625 94.015625 145.71875 C 94.699219 146.550781 95.398438 147.363281 96.121094 148.160156 C 96.84375 148.953125 97.585938 149.730469 98.34375 150.492188 C 99.105469 151.25 99.882812 151.992188 100.679688 152.710938 C 101.472656 153.433594 102.289062 154.132812 103.117188 154.816406 C 103.949219 155.496094 104.796875 156.15625 105.660156 156.796875 C 106.523438 157.4375 107.402344 158.054688 108.292969 158.648438 C 109.1875 159.246094 110.09375 159.820312 111.015625 160.371094 C 111.9375 160.925781 112.875 161.453125 113.820312 161.960938 C 114.769531 162.464844 115.730469 162.949219 116.699219 163.40625 C 117.671875 163.867188 118.652344 164.300781 119.644531 164.714844 C 120.640625 165.125 121.640625 165.511719 122.652344 165.871094 C 123.664062 166.234375 124.683594 166.570312 125.714844 166.882812 C 126.742188 167.195312 127.777344 167.480469 128.820312 167.742188 C 129.863281 168 130.910156 168.238281 131.964844 168.445312 C 133.019531 168.65625 134.078125 168.839844 135.140625 168.996094 C 136.203125 169.15625 137.269531 169.285156 138.339844 169.390625 C 139.40625 169.496094 140.480469 169.574219 141.550781 169.628906 C 142.625 169.679688 143.699219 169.707031 144.773438 169.707031 L 306.472656 169.707031 C 307.550781 169.707031 308.621094 169.679688 309.695312 169.628906 C 310.769531 169.574219 311.839844 169.496094 312.910156 169.390625 C 313.980469 169.285156 315.046875 169.15625 316.109375 168.996094 C 317.171875 168.839844 318.230469 168.65625 319.285156 168.445312 C 320.339844 168.238281 321.386719 168 322.429688 167.742188 C 323.472656 167.480469 324.507812 167.195312 325.535156 166.882812 C 326.5625 166.570312 327.582031 166.234375 328.59375 165.871094 C 329.605469 165.511719 330.609375 165.125 331.601562 164.714844 C 332.59375 164.300781 333.578125 163.867188 334.546875 163.40625 C 335.519531 162.949219 336.480469 162.464844 337.425781 161.960938 C 338.375 161.453125 339.308594 160.925781 340.230469 160.371094 C 341.152344 159.820312 342.0625 159.246094 342.953125 158.648438 C 343.847656 158.054688 344.726562 157.4375 345.589844 156.796875 C 346.453125 156.15625 347.300781 155.496094 348.128906 154.816406 C 348.960938 154.132812 349.773438 153.433594 350.570312 152.710938 C 351.367188 151.992188 352.144531 151.25 352.90625 150.492188 C 353.664062 149.730469 354.40625 148.953125 355.128906 148.160156 C 355.847656 147.363281 356.550781 146.550781 357.230469 145.71875 C 357.914062 144.890625 358.574219 144.042969 359.214844 143.183594 C 359.855469 142.320312 360.472656 141.441406 361.070312 140.550781 C 361.667969 139.65625 362.242188 138.75 362.796875 137.828125 C 363.347656 136.90625 363.875 135.972656 364.382812 135.027344 C 364.890625 134.078125 365.375 133.121094 365.832031 132.148438 C 366.292969 131.179688 366.726562 130.199219 367.136719 129.207031 C 367.550781 128.214844 367.9375 127.210938 368.296875 126.203125 C 368.660156 125.191406 368.996094 124.171875 369.308594 123.144531 C 369.621094 122.117188 369.90625 121.082031 370.167969 120.039062 C 370.429688 119 370.664062 117.953125 370.875 116.898438 C 371.085938 115.84375 371.269531 114.789062 371.425781 113.726562 C 371.582031 112.664062 371.714844 111.597656 371.820312 110.53125 C 371.925781 109.460938 372.003906 108.390625 372.058594 107.316406 C 372.109375 106.246094 372.136719 105.171875 372.136719 104.097656 C 372.136719 103.023438 372.109375 101.953125 372.058594 100.878906 C 372.003906 99.808594 371.925781 98.738281 371.820312 97.667969 C 371.714844 96.601562 371.582031 95.535156 371.425781 94.472656 C 371.269531 93.410156 371.085938 92.351562 370.875 91.300781 C 370.664062 90.246094 370.429688 89.199219 370.167969 88.15625 C 369.90625 87.117188 369.621094 86.082031 369.308594 85.054688 C 368.996094 84.027344 368.660156 83.007812 368.296875 81.996094 C 367.9375 80.984375 367.550781 79.984375 367.136719 78.992188 C 366.726562 78 366.292969 77.019531 365.832031 76.046875 C 365.375 75.078125 364.890625 74.117188 364.382812 73.171875 C 363.875 72.222656 363.347656 71.289062 362.796875 70.371094 C 362.242188 69.449219 361.667969 68.542969 361.070312 67.648438 C 360.472656 66.757812 359.855469 65.878906 359.214844 65.015625 C 358.574219 64.152344 357.914062 63.308594 357.230469 62.476562 C 356.550781 61.648438 355.847656 60.835938 355.128906 60.039062 C 354.40625 59.242188 353.664062 58.464844 352.90625 57.707031 C 352.144531 56.949219 351.367188 56.207031 350.570312 55.488281 C 349.773438 54.765625 348.960938 54.0625 348.128906 53.382812 C 347.300781 52.703125 346.453125 52.042969 345.589844 51.402344 C 344.726562 50.761719 343.847656 50.144531 342.953125 49.546875 C 342.0625 48.953125 341.152344 48.378906 340.230469 47.824219 C 339.308594 47.273438 338.375 46.742188 337.425781 46.238281 C 336.480469 45.730469 335.519531 45.25 334.546875 44.789062 C 333.578125 44.332031 332.59375 43.894531 331.601562 43.484375 C 330.609375 43.074219 329.605469 42.6875 328.59375 42.324219 C 327.582031 41.964844 326.5625 41.628906 325.535156 41.316406 C 324.507812 41.003906 323.472656 40.71875 322.429688 40.457031 C 321.386719 40.195312 320.339844 39.960938 319.285156 39.75 C 318.230469 39.542969 317.171875 39.359375 316.109375 39.199219 C 315.046875 39.042969 313.980469 38.910156 312.910156 38.808594 C 311.839844 38.703125 310.769531 38.621094 309.695312 38.570312 C 308.621094 38.515625 307.550781 38.492188 306.472656 38.492188 Z M 271.898438 104.0625 C 271.902344 103.25 271.941406 102.441406 272.023438 101.632812 C 272.101562 100.828125 272.222656 100.027344 272.382812 99.230469 C 272.542969 98.433594 272.742188 97.648438 272.976562 96.875 C 273.214844 96.097656 273.488281 95.335938 273.800781 94.585938 C 274.113281 93.835938 274.460938 93.105469 274.84375 92.390625 C 275.226562 91.675781 275.644531 90.980469 276.097656 90.308594 C 276.550781 89.632812 277.035156 88.984375 277.550781 88.359375 C 278.066406 87.730469 278.609375 87.132812 279.1875 86.558594 C 279.761719 85.988281 280.363281 85.445312 280.992188 84.929688 C 281.621094 84.417969 282.269531 83.933594 282.945312 83.484375 C 283.621094 83.035156 284.320312 82.621094 285.035156 82.238281 C 285.75 81.859375 286.484375 81.511719 287.234375 81.203125 C 287.984375 80.894531 288.75 80.621094 289.527344 80.386719 C 290.304688 80.152344 291.089844 79.957031 291.886719 79.800781 C 292.683594 79.644531 293.488281 79.527344 294.292969 79.449219 C 295.101562 79.371094 295.914062 79.332031 296.722656 79.332031 C 297.535156 79.332031 298.347656 79.375 299.152344 79.453125 C 299.960938 79.535156 300.761719 79.65625 301.558594 79.816406 C 302.355469 79.976562 303.140625 80.171875 303.917969 80.410156 C 304.695312 80.644531 305.457031 80.921875 306.207031 81.230469 C 306.957031 81.542969 307.6875 81.890625 308.40625 82.273438 C 309.121094 82.65625 309.816406 83.074219 310.488281 83.527344 C 311.164062 83.980469 311.8125 84.460938 312.441406 84.976562 C 313.066406 85.492188 313.667969 86.039062 314.242188 86.613281 C 314.8125 87.1875 315.359375 87.789062 315.871094 88.414062 C 316.386719 89.042969 316.867188 89.695312 317.316406 90.371094 C 317.769531 91.046875 318.183594 91.742188 318.566406 92.457031 C 318.945312 93.171875 319.292969 93.90625 319.601562 94.65625 C 319.910156 95.40625 320.183594 96.167969 320.417969 96.945312 C 320.652344 97.722656 320.847656 98.507812 321.003906 99.304688 C 321.164062 100.101562 321.28125 100.902344 321.359375 101.707031 C 321.4375 102.515625 321.476562 103.324219 321.472656 104.136719 C 321.472656 104.949219 321.433594 105.757812 321.351562 106.5625 C 321.269531 107.371094 321.148438 108.171875 320.992188 108.96875 C 320.832031 109.761719 320.632812 110.546875 320.394531 111.324219 C 320.160156 112.101562 319.886719 112.863281 319.574219 113.613281 C 319.261719 114.359375 318.914062 115.09375 318.53125 115.808594 C 318.144531 116.523438 317.726562 117.214844 317.277344 117.890625 C 316.824219 118.5625 316.339844 119.214844 315.824219 119.839844 C 315.308594 120.464844 314.761719 121.066406 314.1875 121.636719 C 313.613281 122.210938 313.011719 122.753906 312.382812 123.269531 C 311.753906 123.78125 311.101562 124.261719 310.425781 124.710938 C 309.75 125.164062 309.054688 125.578125 308.339844 125.960938 C 307.621094 126.339844 306.886719 126.6875 306.136719 126.996094 C 305.386719 127.304688 304.625 127.574219 303.847656 127.808594 C 303.070312 128.042969 302.28125 128.242188 301.484375 128.398438 C 300.691406 128.554688 299.886719 128.671875 299.078125 128.75 C 298.269531 128.828125 297.460938 128.867188 296.648438 128.867188 C 295.835938 128.867188 295.027344 128.824219 294.21875 128.746094 C 293.410156 128.667969 292.609375 128.546875 291.8125 128.390625 C 291.015625 128.230469 290.226562 128.03125 289.453125 127.796875 C 288.675781 127.5625 287.910156 127.289062 287.160156 126.976562 C 286.410156 126.664062 285.675781 126.316406 284.960938 125.933594 C 284.246094 125.550781 283.550781 125.132812 282.875 124.683594 C 282.199219 124.230469 281.550781 123.746094 280.921875 123.230469 C 280.296875 122.714844 279.695312 122.171875 279.121094 121.597656 C 278.546875 121.023438 278.003906 120.421875 277.492188 119.792969 C 276.976562 119.164062 276.496094 118.511719 276.042969 117.835938 C 275.59375 117.160156 275.179688 116.464844 274.796875 115.75 C 274.417969 115.03125 274.070312 114.296875 273.761719 113.546875 C 273.453125 112.796875 273.179688 112.035156 272.949219 111.257812 C 272.714844 110.480469 272.519531 109.691406 272.363281 108.898438 C 272.207031 108.101562 272.089844 107.296875 272.011719 106.492188 C 271.933594 105.683594 271.898438 104.871094 271.898438 104.0625 Z M 179.347656 104.0625 C 179.351562 104.875 179.3125 105.683594 179.234375 106.492188 C 179.15625 107.296875 179.039062 108.101562 178.878906 108.898438 C 178.722656 109.695312 178.527344 110.480469 178.292969 111.257812 C 178.058594 112.035156 177.785156 112.796875 177.472656 113.546875 C 177.164062 114.296875 176.820312 115.03125 176.4375 115.746094 C 176.054688 116.464844 175.636719 117.160156 175.1875 117.835938 C 174.738281 118.511719 174.253906 119.164062 173.738281 119.789062 C 173.226562 120.417969 172.679688 121.019531 172.105469 121.59375 C 171.53125 122.167969 170.933594 122.714844 170.304688 123.230469 C 169.675781 123.746094 169.027344 124.226562 168.351562 124.679688 C 167.675781 125.132812 166.980469 125.546875 166.265625 125.933594 C 165.546875 126.316406 164.816406 126.664062 164.066406 126.972656 C 163.316406 127.285156 162.550781 127.558594 161.773438 127.792969 C 160.996094 128.03125 160.210938 128.226562 159.414062 128.386719 C 158.617188 128.546875 157.8125 128.664062 157.003906 128.746094 C 156.195312 128.824219 155.386719 128.867188 154.574219 128.867188 C 153.761719 128.867188 152.953125 128.828125 152.144531 128.746094 C 151.335938 128.667969 150.53125 128.550781 149.734375 128.390625 C 148.9375 128.234375 148.152344 128.039062 147.375 127.800781 C 146.597656 127.566406 145.832031 127.292969 145.082031 126.984375 C 144.332031 126.671875 143.597656 126.328125 142.882812 125.945312 C 142.164062 125.5625 141.46875 125.144531 140.792969 124.695312 C 140.117188 124.242188 139.464844 123.761719 138.839844 123.246094 C 138.210938 122.730469 137.609375 122.1875 137.035156 121.613281 C 136.460938 121.039062 135.914062 120.4375 135.398438 119.808594 C 134.882812 119.183594 134.402344 118.53125 133.949219 117.855469 C 133.5 117.179688 133.082031 116.484375 132.699219 115.769531 C 132.316406 115.054688 131.96875 114.320312 131.660156 113.570312 C 131.347656 112.820312 131.074219 112.058594 130.839844 111.28125 C 130.605469 110.503906 130.40625 109.71875 130.25 108.921875 C 130.089844 108.125 129.972656 107.324219 129.894531 106.515625 C 129.8125 105.707031 129.773438 104.898438 129.773438 104.085938 C 129.773438 103.273438 129.816406 102.464844 129.894531 101.65625 C 129.976562 100.851562 130.09375 100.046875 130.253906 99.25 C 130.414062 98.457031 130.609375 97.667969 130.847656 96.894531 C 131.082031 96.117188 131.355469 95.351562 131.667969 94.605469 C 131.980469 93.855469 132.328125 93.121094 132.710938 92.40625 C 133.09375 91.691406 133.511719 90.996094 133.964844 90.320312 C 134.414062 89.648438 134.898438 88.996094 135.414062 88.367188 C 135.933594 87.742188 136.476562 87.140625 137.050781 86.570312 C 137.628906 85.996094 138.230469 85.453125 138.859375 84.9375 C 139.484375 84.421875 140.136719 83.941406 140.8125 83.492188 C 141.488281 83.039062 142.1875 82.625 142.902344 82.242188 C 143.621094 81.859375 144.355469 81.515625 145.105469 81.207031 C 145.855469 80.894531 146.621094 80.625 147.398438 80.390625 C 148.175781 80.15625 148.964844 79.957031 149.761719 79.800781 C 150.558594 79.644531 151.359375 79.527344 152.167969 79.449219 C 152.976562 79.371094 153.785156 79.332031 154.597656 79.332031 C 155.410156 79.332031 156.21875 79.375 157.023438 79.453125 C 157.832031 79.535156 158.628906 79.65625 159.425781 79.8125 C 160.21875 79.972656 161.003906 80.167969 161.78125 80.40625 C 162.554688 80.640625 163.316406 80.914062 164.066406 81.222656 C 164.8125 81.535156 165.542969 81.882812 166.257812 82.261719 C 166.972656 82.644531 167.667969 83.0625 168.339844 83.511719 C 169.015625 83.960938 169.664062 84.441406 170.289062 84.957031 C 170.917969 85.46875 171.515625 86.011719 172.089844 86.585938 C 172.664062 87.160156 173.207031 87.757812 173.71875 88.382812 C 174.234375 89.007812 174.714844 89.660156 175.167969 90.332031 C 175.617188 91.003906 176.035156 91.699219 176.414062 92.410156 C 176.796875 93.125 177.144531 93.855469 177.457031 94.605469 C 177.765625 95.351562 178.039062 96.113281 178.273438 96.886719 C 178.511719 97.660156 178.707031 98.445312 178.867188 99.238281 C 179.027344 100.035156 179.144531 100.832031 179.226562 101.640625 C 179.308594 102.445312 179.347656 103.253906 179.347656 104.0625 Z M 179.347656 104.0625 "/></g><mask id="a6b6facc35"><g filter="url(#66ba41b04c)"><rect x="0" width="750" y="0" height="749.999995" style="fill:#000000;fill-opacity:0.4;stroke:none;"/></g></mask></g></g></svg>