<svg xmlns="http://www.w3.org/2000/svg" xmlns:xlink="http://www.w3.org/1999/xlink" width="1000" zoomAndPan="magnify" viewBox="0 0 750 749.999995" height="1000" preserveAspectRatio="xMidYMid meet" version="1.2"><defs><clipPath id="92d3484a3f"><path d="M 110.625 314.164062 L 639.375 314.164062 L 639.375 447.664062 L 110.625 447.664062 Z M 110.625 314.164062 "/></clipPath><clipPath id="96c8df868a"><path d="M 0.160156 131 L 577.121094 131 L 577.121094 251.839844 L 0.160156 251.839844 Z M 0.160156 131 "/></clipPath><clipPath id="a78164c8fb"><rect x="0" width="578" y="0" height="121"/></clipPath><clipPath id="81420130c5"><path d="M 16 0.320312 L 562 0.320312 L 562 168 L 16 168 Z M 16 0.320312 "/></clipPath><clipPath id="b79856a328"><rect x="0" width="546" y="0" height="168"/></clipPath><clipPath id="a60d0a1fa5"><rect x="0" width="578" y="0" height="252"/></clipPath><clipPath id="6a226f7f04"><rect x="0" width="646" y="0" height="168"/></clipPath></defs><g id="493c9aa6e9"><g clip-rule="nonzero" clip-path="url(#92d3484a3f)"><path style=" stroke:none;fill-rule:nonzero;fill:#000000;fill-opacity:1;" d="M 549.820312 314.171875 L 406.882812 447.65625 L 496.425781 447.65625 L 639.363281 314.171875 Z M 401.691406 314.171875 L 258.753906 447.65625 L 348.296875 447.65625 L 491.234375 314.171875 Z M 253.5625 314.171875 L 110.625 447.65625 L 200.171875 447.65625 L 343.105469 314.171875 Z M 253.5625 314.171875 "/></g><g transform="matrix(1,0,0,1,86,184)"><g clip-path="url(#a60d0a1fa5)"><g clip-rule="nonzero" clip-path="url(#96c8df868a)"><g transform="matrix(1,0,0,1,-0.000000000000014211,131)"><g id="1183544f79" clip-path="url(#a78164c8fb)"><g style="fill:#ff3131;fill-opacity:1;"><g transform="translate(0.98828, 96.67251)"><path style="stroke:none" d="M 43.6875 -14.40625 C 43.6875 -12.5625 43.523438 -10.957031 43.203125 -9.59375 C 43.523438 -8.320312 43.6875 -6.722656 43.6875 -4.796875 C 43.6875 -2.960938 43.523438 -1.363281 43.203125 0 L 33.59375 0 C 33.28125 -1.363281 33.125 -2.960938 33.125 -4.796875 C 33.125 -6.722656 33.28125 -8.320312 33.59375 -9.59375 C 33.28125 -10.957031 33.125 -12.5625 33.125 -14.40625 C 33.125 -16.320312 33.28125 -17.921875 33.59375 -19.203125 L 14.40625 -19.203125 C 14.71875 -17.921875 14.875 -16.320312 14.875 -14.40625 C 14.875 -12.5625 14.71875 -10.957031 14.40625 -9.59375 C 14.71875 -8.320312 14.875 -6.722656 14.875 -4.796875 C 14.875 -2.960938 14.71875 -1.363281 14.40625 0 L 4.796875 0 C 4.472656 -1.363281 4.3125 -2.960938 4.3125 -4.796875 C 4.3125 -6.722656 4.472656 -8.320312 4.796875 -9.59375 C 4.472656 -10.957031 4.3125 -12.5625 4.3125 -14.40625 C 4.3125 -16.320312 4.472656 -17.921875 4.796875 -19.203125 L 8.40625 -19.203125 C 8.082031 -20.554688 7.921875 -22.15625 7.921875 -24 C 7.921875 -25.914062 8.082031 -27.515625 8.40625 -28.796875 C 8.082031 -30.160156 7.921875 -31.757812 7.921875 -33.59375 C 7.921875 -35.519531 8.082031 -37.125 8.40625 -38.40625 L 10.796875 -38.40625 C 10.472656 -39.757812 10.3125 -41.359375 10.3125 -43.203125 C 10.3125 -45.117188 10.472656 -46.71875 10.796875 -48 L 14.40625 -48 C 14.082031 -49.363281 13.921875 -50.960938 13.921875 -52.796875 C 13.921875 -54.722656 14.082031 -56.320312 14.40625 -57.59375 L 16.796875 -57.59375 C 16.472656 -58.957031 16.3125 -60.5625 16.3125 -62.40625 C 16.3125 -64.320312 16.472656 -65.921875 16.796875 -67.203125 L 31.203125 -67.203125 C 31.523438 -65.921875 31.6875 -64.320312 31.6875 -62.40625 C 31.6875 -60.5625 31.523438 -58.957031 31.203125 -57.59375 L 33.59375 -57.59375 C 33.914062 -56.320312 34.078125 -54.722656 34.078125 -52.796875 C 34.078125 -50.960938 33.914062 -49.363281 33.59375 -48 L 37.203125 -48 C 37.523438 -46.71875 37.6875 -45.117188 37.6875 -43.203125 C 37.6875 -41.359375 37.523438 -39.757812 37.203125 -38.40625 L 39.59375 -38.40625 C 39.914062 -37.125 40.078125 -35.519531 40.078125 -33.59375 C 40.078125 -31.757812 39.914062 -30.160156 39.59375 -28.796875 C 39.914062 -27.515625 40.078125 -25.914062 40.078125 -24 C 40.078125 -22.15625 39.914062 -20.554688 39.59375 -19.203125 L 43.203125 -19.203125 C 43.523438 -17.921875 43.6875 -16.320312 43.6875 -14.40625 Z M 30 -28.796875 C 29.675781 -30.160156 29.515625 -31.757812 29.515625 -33.59375 C 29.515625 -35.519531 29.675781 -37.125 30 -38.40625 L 27.59375 -38.40625 C 27.28125 -39.757812 27.125 -41.359375 27.125 -43.203125 C 27.125 -45.117188 27.28125 -46.71875 27.59375 -48 L 20.40625 -48 C 20.71875 -46.71875 20.875 -45.117188 20.875 -43.203125 C 20.875 -41.359375 20.71875 -39.757812 20.40625 -38.40625 L 18 -38.40625 C 18.320312 -37.125 18.484375 -35.519531 18.484375 -33.59375 C 18.484375 -31.757812 18.320312 -30.160156 18 -28.796875 Z M 30 -28.796875 "/></g></g><g style="fill:#ff3131;fill-opacity:1;"><g transform="translate(48.988301, 96.67251)"><path style="stroke:none" d="M 43.203125 -9.59375 C 43.523438 -8.320312 43.6875 -6.722656 43.6875 -4.796875 C 43.6875 -2.960938 43.523438 -1.363281 43.203125 0 L 33.59375 0 C 33.28125 -1.363281 33.125 -2.960938 33.125 -4.796875 C 33.125 -6.722656 33.28125 -8.320312 33.59375 -9.59375 L 30 -9.59375 C 29.675781 -10.957031 29.515625 -12.5625 29.515625 -14.40625 C 29.515625 -16.320312 29.675781 -17.921875 30 -19.203125 L 26.40625 -19.203125 C 26.082031 -20.554688 25.921875 -22.15625 25.921875 -24 C 25.921875 -25.914062 26.082031 -27.515625 26.40625 -28.796875 L 14.40625 -28.796875 C 14.71875 -27.515625 14.875 -25.914062 14.875 -24 C 14.875 -22.15625 14.71875 -20.554688 14.40625 -19.203125 C 14.71875 -17.921875 14.875 -16.320312 14.875 -14.40625 C 14.875 -12.5625 14.71875 -10.957031 14.40625 -9.59375 C 14.71875 -8.320312 14.875 -6.722656 14.875 -4.796875 C 14.875 -2.960938 14.71875 -1.363281 14.40625 0 L 4.796875 0 C 4.472656 -1.363281 4.3125 -2.960938 4.3125 -4.796875 C 4.3125 -6.722656 4.472656 -8.320312 4.796875 -9.59375 C 4.472656 -10.957031 4.3125 -12.5625 4.3125 -14.40625 C 4.3125 -16.320312 4.472656 -17.921875 4.796875 -19.203125 C 4.472656 -20.554688 4.3125 -22.15625 4.3125 -24 C 4.3125 -25.914062 4.472656 -27.515625 4.796875 -28.796875 C 4.472656 -30.160156 4.3125 -31.757812 4.3125 -33.59375 C 4.3125 -35.519531 4.472656 -37.125 4.796875 -38.40625 C 4.472656 -39.757812 4.3125 -41.359375 4.3125 -43.203125 C 4.3125 -45.117188 4.472656 -46.71875 4.796875 -48 C 4.472656 -49.363281 4.3125 -50.960938 4.3125 -52.796875 C 4.3125 -54.722656 4.472656 -56.320312 4.796875 -57.59375 C 4.472656 -58.957031 4.3125 -60.5625 4.3125 -62.40625 C 4.3125 -64.320312 4.472656 -65.921875 4.796875 -67.203125 L 38.40625 -67.203125 C 38.71875 -65.921875 38.875 -64.320312 38.875 -62.40625 C 38.875 -60.5625 38.71875 -58.957031 38.40625 -57.59375 L 43.203125 -57.59375 C 43.523438 -56.320312 43.6875 -54.722656 43.6875 -52.796875 C 43.6875 -50.960938 43.523438 -49.363281 43.203125 -48 L 40.796875 -48 C 41.117188 -46.71875 41.28125 -45.117188 41.28125 -43.203125 C 41.28125 -41.359375 41.117188 -39.757812 40.796875 -38.40625 L 33.59375 -38.40625 C 33.914062 -37.125 34.078125 -35.519531 34.078125 -33.59375 C 34.078125 -31.757812 33.914062 -30.160156 33.59375 -28.796875 L 36 -28.796875 C 36.320312 -27.515625 36.484375 -25.914062 36.484375 -24 C 36.484375 -22.15625 36.320312 -20.554688 36 -19.203125 L 39.59375 -19.203125 C 39.914062 -17.921875 40.078125 -16.320312 40.078125 -14.40625 C 40.078125 -12.5625 39.914062 -10.957031 39.59375 -9.59375 Z M 31.203125 -38.40625 C 30.878906 -39.757812 30.71875 -41.359375 30.71875 -43.203125 C 30.71875 -45.117188 30.878906 -46.71875 31.203125 -48 C 30.878906 -49.363281 30.71875 -50.960938 30.71875 -52.796875 C 30.71875 -54.722656 30.878906 -56.320312 31.203125 -57.59375 L 14.40625 -57.59375 C 14.71875 -56.320312 14.875 -54.722656 14.875 -52.796875 C 14.875 -50.960938 14.71875 -49.363281 14.40625 -48 C 14.71875 -46.71875 14.875 -45.117188 14.875 -43.203125 C 14.875 -41.359375 14.71875 -39.757812 14.40625 -38.40625 Z M 31.203125 -38.40625 "/></g></g><g style="fill:#ff3131;fill-opacity:1;"><g transform="translate(96.988321, 96.67251)"><path style="stroke:none" d="M 43.203125 -19.203125 C 43.523438 -17.921875 43.6875 -16.320312 43.6875 -14.40625 C 43.6875 -12.5625 43.523438 -10.957031 43.203125 -9.59375 L 38.40625 -9.59375 C 38.71875 -8.320312 38.875 -6.722656 38.875 -4.796875 C 38.875 -2.960938 38.71875 -1.363281 38.40625 0 L 14.40625 0 C 14.082031 -1.363281 13.921875 -2.960938 13.921875 -4.796875 C 13.921875 -6.722656 14.082031 -8.320312 14.40625 -9.59375 L 9.59375 -9.59375 C 9.28125 -10.957031 9.125 -12.5625 9.125 -14.40625 C 9.125 -16.320312 9.28125 -17.921875 9.59375 -19.203125 L 4.796875 -19.203125 C 4.472656 -20.554688 4.3125 -22.15625 4.3125 -24 C 4.3125 -25.914062 4.472656 -27.515625 4.796875 -28.796875 C 4.472656 -30.160156 4.3125 -31.757812 4.3125 -33.59375 C 4.3125 -35.519531 4.472656 -37.125 4.796875 -38.40625 C 4.472656 -39.757812 4.3125 -41.359375 4.3125 -43.203125 C 4.3125 -45.117188 4.472656 -46.71875 4.796875 -48 L 9.59375 -48 C 9.28125 -49.363281 9.125 -50.960938 9.125 -52.796875 C 9.125 -54.722656 9.28125 -56.320312 9.59375 -57.59375 L 14.40625 -57.59375 C 14.082031 -58.957031 13.921875 -60.5625 13.921875 -62.40625 C 13.921875 -64.320312 14.082031 -65.921875 14.40625 -67.203125 L 38.40625 -67.203125 C 38.71875 -65.921875 38.875 -64.320312 38.875 -62.40625 C 38.875 -60.5625 38.71875 -58.957031 38.40625 -57.59375 L 43.203125 -57.59375 C 43.523438 -56.320312 43.6875 -54.722656 43.6875 -52.796875 C 43.6875 -50.960938 43.523438 -49.363281 43.203125 -48 L 33.59375 -48 C 33.28125 -49.363281 33.125 -50.960938 33.125 -52.796875 C 33.125 -54.722656 33.28125 -56.320312 33.59375 -57.59375 L 19.203125 -57.59375 C 19.523438 -56.320312 19.6875 -54.722656 19.6875 -52.796875 C 19.6875 -50.960938 19.523438 -49.363281 19.203125 -48 L 14.40625 -48 C 14.71875 -46.71875 14.875 -45.117188 14.875 -43.203125 C 14.875 -41.359375 14.71875 -39.757812 14.40625 -38.40625 C 14.71875 -37.125 14.875 -35.519531 14.875 -33.59375 C 14.875 -31.757812 14.71875 -30.160156 14.40625 -28.796875 C 14.71875 -27.515625 14.875 -25.914062 14.875 -24 C 14.875 -22.15625 14.71875 -20.554688 14.40625 -19.203125 L 19.203125 -19.203125 C 19.523438 -17.921875 19.6875 -16.320312 19.6875 -14.40625 C 19.6875 -12.5625 19.523438 -10.957031 19.203125 -9.59375 L 33.59375 -9.59375 C 33.28125 -10.957031 33.125 -12.5625 33.125 -14.40625 C 33.125 -16.320312 33.28125 -17.921875 33.59375 -19.203125 Z M 43.203125 -19.203125 "/></g></g><g style="fill:#ff3131;fill-opacity:1;"><g transform="translate(144.988342, 96.67251)"><path style="stroke:none" d="M 43.203125 -57.59375 C 43.523438 -56.320312 43.6875 -54.722656 43.6875 -52.796875 C 43.6875 -50.960938 43.523438 -49.363281 43.203125 -48 C 43.523438 -46.71875 43.6875 -45.117188 43.6875 -43.203125 C 43.6875 -41.359375 43.523438 -39.757812 43.203125 -38.40625 C 43.523438 -37.125 43.6875 -35.519531 43.6875 -33.59375 C 43.6875 -31.757812 43.523438 -30.160156 43.203125 -28.796875 C 43.523438 -27.515625 43.6875 -25.914062 43.6875 -24 C 43.6875 -22.15625 43.523438 -20.554688 43.203125 -19.203125 C 43.523438 -17.921875 43.6875 -16.320312 43.6875 -14.40625 C 43.6875 -12.5625 43.523438 -10.957031 43.203125 -9.59375 C 43.523438 -8.320312 43.6875 -6.722656 43.6875 -4.796875 C 43.6875 -2.960938 43.523438 -1.363281 43.203125 0 L 33.59375 0 C 33.28125 -1.363281 33.125 -2.960938 33.125 -4.796875 C 33.125 -6.722656 33.28125 -8.320312 33.59375 -9.59375 C 33.28125 -10.957031 33.125 -12.5625 33.125 -14.40625 C 33.125 -16.320312 33.28125 -17.921875 33.59375 -19.203125 C 33.28125 -20.554688 33.125 -22.15625 33.125 -24 C 33.125 -25.914062 33.28125 -27.515625 33.59375 -28.796875 L 14.40625 -28.796875 C 14.71875 -27.515625 14.875 -25.914062 14.875 -24 C 14.875 -22.15625 14.71875 -20.554688 14.40625 -19.203125 C 14.71875 -17.921875 14.875 -16.320312 14.875 -14.40625 C 14.875 -12.5625 14.71875 -10.957031 14.40625 -9.59375 C 14.71875 -8.320312 14.875 -6.722656 14.875 -4.796875 C 14.875 -2.960938 14.71875 -1.363281 14.40625 0 L 4.796875 0 C 4.472656 -1.363281 4.3125 -2.960938 4.3125 -4.796875 C 4.3125 -6.722656 4.472656 -8.320312 4.796875 -9.59375 C 4.472656 -10.957031 4.3125 -12.5625 4.3125 -14.40625 C 4.3125 -16.320312 4.472656 -17.921875 4.796875 -19.203125 C 4.472656 -20.554688 4.3125 -22.15625 4.3125 -24 C 4.3125 -25.914062 4.472656 -27.515625 4.796875 -28.796875 C 4.472656 -30.160156 4.3125 -31.757812 4.3125 -33.59375 C 4.3125 -35.519531 4.472656 -37.125 4.796875 -38.40625 C 4.472656 -39.757812 4.3125 -41.359375 4.3125 -43.203125 C 4.3125 -45.117188 4.472656 -46.71875 4.796875 -48 C 4.472656 -49.363281 4.3125 -50.960938 4.3125 -52.796875 C 4.3125 -54.722656 4.472656 -56.320312 4.796875 -57.59375 C 4.472656 -58.957031 4.3125 -60.5625 4.3125 -62.40625 C 4.3125 -64.320312 4.472656 -65.921875 4.796875 -67.203125 L 14.40625 -67.203125 C 14.71875 -65.921875 14.875 -64.320312 14.875 -62.40625 C 14.875 -60.5625 14.71875 -58.957031 14.40625 -57.59375 C 14.71875 -56.320312 14.875 -54.722656 14.875 -52.796875 C 14.875 -50.960938 14.71875 -49.363281 14.40625 -48 C 14.71875 -46.71875 14.875 -45.117188 14.875 -43.203125 C 14.875 -41.359375 14.71875 -39.757812 14.40625 -38.40625 L 33.59375 -38.40625 C 33.28125 -39.757812 33.125 -41.359375 33.125 -43.203125 C 33.125 -45.117188 33.28125 -46.71875 33.59375 -48 C 33.28125 -49.363281 33.125 -50.960938 33.125 -52.796875 C 33.125 -54.722656 33.28125 -56.320312 33.59375 -57.59375 C 33.28125 -58.957031 33.125 -60.5625 33.125 -62.40625 C 33.125 -64.320312 33.28125 -65.921875 33.59375 -67.203125 L 43.203125 -67.203125 C 43.523438 -65.921875 43.6875 -64.320312 43.6875 -62.40625 C 43.6875 -60.5625 43.523438 -58.957031 43.203125 -57.59375 Z M 43.203125 -57.59375 "/></g></g><g style="fill:#ff3131;fill-opacity:1;"><g transform="translate(192.988363, 96.67251)"><path style="stroke:none" d="M 36 -9.59375 C 36.320312 -8.320312 36.484375 -6.722656 36.484375 -4.796875 C 36.484375 -2.960938 36.320312 -1.363281 36 0 L 12 0 C 11.675781 -1.363281 11.515625 -2.960938 11.515625 -4.796875 C 11.515625 -6.722656 11.675781 -8.320312 12 -9.59375 L 19.203125 -9.59375 C 18.878906 -10.957031 18.71875 -12.5625 18.71875 -14.40625 C 18.71875 -16.320312 18.878906 -17.921875 19.203125 -19.203125 C 18.878906 -20.554688 18.71875 -22.15625 18.71875 -24 C 18.71875 -25.914062 18.878906 -27.515625 19.203125 -28.796875 C 18.878906 -30.160156 18.71875 -31.757812 18.71875 -33.59375 C 18.71875 -35.519531 18.878906 -37.125 19.203125 -38.40625 C 18.878906 -39.757812 18.71875 -41.359375 18.71875 -43.203125 C 18.71875 -45.117188 18.878906 -46.71875 19.203125 -48 C 18.878906 -49.363281 18.71875 -50.960938 18.71875 -52.796875 C 18.71875 -54.722656 18.878906 -56.320312 19.203125 -57.59375 L 12 -57.59375 C 11.675781 -58.957031 11.515625 -60.5625 11.515625 -62.40625 C 11.515625 -64.320312 11.675781 -65.921875 12 -67.203125 L 36 -67.203125 C 36.320312 -65.921875 36.484375 -64.320312 36.484375 -62.40625 C 36.484375 -60.5625 36.320312 -58.957031 36 -57.59375 L 28.796875 -57.59375 C 29.117188 -56.320312 29.28125 -54.722656 29.28125 -52.796875 C 29.28125 -50.960938 29.117188 -49.363281 28.796875 -48 C 29.117188 -46.71875 29.28125 -45.117188 29.28125 -43.203125 C 29.28125 -41.359375 29.117188 -39.757812 28.796875 -38.40625 C 29.117188 -37.125 29.28125 -35.519531 29.28125 -33.59375 C 29.28125 -31.757812 29.117188 -30.160156 28.796875 -28.796875 C 29.117188 -27.515625 29.28125 -25.914062 29.28125 -24 C 29.28125 -22.15625 29.117188 -20.554688 28.796875 -19.203125 C 29.117188 -17.921875 29.28125 -16.320312 29.28125 -14.40625 C 29.28125 -12.5625 29.117188 -10.957031 28.796875 -9.59375 Z M 36 -9.59375 "/></g></g><g style="fill:#ff3131;fill-opacity:1;"><g transform="translate(240.988384, 96.67251)"><path style="stroke:none" d="M 43.203125 -57.59375 C 43.523438 -56.320312 43.6875 -54.722656 43.6875 -52.796875 C 43.6875 -50.960938 43.523438 -49.363281 43.203125 -48 C 43.523438 -46.71875 43.6875 -45.117188 43.6875 -43.203125 C 43.6875 -41.359375 43.523438 -39.757812 43.203125 -38.40625 L 39.59375 -38.40625 C 39.914062 -37.125 40.078125 -35.519531 40.078125 -33.59375 C 40.078125 -31.757812 39.914062 -30.160156 39.59375 -28.796875 L 36 -28.796875 C 36.320312 -27.515625 36.484375 -25.914062 36.484375 -24 C 36.484375 -22.15625 36.320312 -20.554688 36 -19.203125 L 33.59375 -19.203125 C 33.914062 -17.921875 34.078125 -16.320312 34.078125 -14.40625 C 34.078125 -12.5625 33.914062 -10.957031 33.59375 -9.59375 L 28.796875 -9.59375 C 29.117188 -8.320312 29.28125 -6.722656 29.28125 -4.796875 C 29.28125 -2.960938 29.117188 -1.363281 28.796875 0 L 19.203125 0 C 18.878906 -1.363281 18.71875 -2.960938 18.71875 -4.796875 C 18.71875 -6.722656 18.878906 -8.320312 19.203125 -9.59375 L 14.40625 -9.59375 C 14.082031 -10.957031 13.921875 -12.5625 13.921875 -14.40625 C 13.921875 -16.320312 14.082031 -17.921875 14.40625 -19.203125 L 12 -19.203125 C 11.675781 -20.554688 11.515625 -22.15625 11.515625 -24 C 11.515625 -25.914062 11.675781 -27.515625 12 -28.796875 L 8.40625 -28.796875 C 8.082031 -30.160156 7.921875 -31.757812 7.921875 -33.59375 C 7.921875 -35.519531 8.082031 -37.125 8.40625 -38.40625 L 4.796875 -38.40625 C 4.472656 -39.757812 4.3125 -41.359375 4.3125 -43.203125 C 4.3125 -45.117188 4.472656 -46.71875 4.796875 -48 C 4.472656 -49.363281 4.3125 -50.960938 4.3125 -52.796875 C 4.3125 -54.722656 4.472656 -56.320312 4.796875 -57.59375 C 4.472656 -58.957031 4.3125 -60.5625 4.3125 -62.40625 C 4.3125 -64.320312 4.472656 -65.921875 4.796875 -67.203125 L 14.40625 -67.203125 C 14.71875 -65.921875 14.875 -64.320312 14.875 -62.40625 C 14.875 -60.5625 14.71875 -58.957031 14.40625 -57.59375 C 14.71875 -56.320312 14.875 -54.722656 14.875 -52.796875 C 14.875 -50.960938 14.71875 -49.363281 14.40625 -48 C 14.71875 -46.71875 14.875 -45.117188 14.875 -43.203125 C 14.875 -41.359375 14.71875 -39.757812 14.40625 -38.40625 L 18 -38.40625 C 18.320312 -37.125 18.484375 -35.519531 18.484375 -33.59375 C 18.484375 -31.757812 18.320312 -30.160156 18 -28.796875 L 21.59375 -28.796875 C 21.914062 -27.515625 22.078125 -25.914062 22.078125 -24 C 22.078125 -22.15625 21.914062 -20.554688 21.59375 -19.203125 L 26.40625 -19.203125 C 26.082031 -20.554688 25.921875 -22.15625 25.921875 -24 C 25.921875 -25.914062 26.082031 -27.515625 26.40625 -28.796875 L 30 -28.796875 C 29.675781 -30.160156 29.515625 -31.757812 29.515625 -33.59375 C 29.515625 -35.519531 29.675781 -37.125 30 -38.40625 L 33.59375 -38.40625 C 33.28125 -39.757812 33.125 -41.359375 33.125 -43.203125 C 33.125 -45.117188 33.28125 -46.71875 33.59375 -48 C 33.28125 -49.363281 33.125 -50.960938 33.125 -52.796875 C 33.125 -54.722656 33.28125 -56.320312 33.59375 -57.59375 C 33.28125 -58.957031 33.125 -60.5625 33.125 -62.40625 C 33.125 -64.320312 33.28125 -65.921875 33.59375 -67.203125 L 43.203125 -67.203125 C 43.523438 -65.921875 43.6875 -64.320312 43.6875 -62.40625 C 43.6875 -60.5625 43.523438 -58.957031 43.203125 -57.59375 Z M 43.203125 -57.59375 "/></g></g><g style="fill:#ff3131;fill-opacity:1;"><g transform="translate(288.988405, 96.67251)"><path style="stroke:none" d="M 19.203125 -28.796875 C 19.523438 -27.515625 19.6875 -25.914062 19.6875 -24 C 19.6875 -22.15625 19.523438 -20.554688 19.203125 -19.203125 C 19.523438 -17.921875 19.6875 -16.320312 19.6875 -14.40625 C 19.6875 -12.5625 19.523438 -10.957031 19.203125 -9.59375 L 38.40625 -9.59375 C 38.71875 -8.320312 38.875 -6.722656 38.875 -4.796875 C 38.875 -2.960938 38.71875 -1.363281 38.40625 0 L 9.59375 0 C 9.28125 -1.363281 9.125 -2.960938 9.125 -4.796875 C 9.125 -6.722656 9.28125 -8.320312 9.59375 -9.59375 C 9.28125 -10.957031 9.125 -12.5625 9.125 -14.40625 C 9.125 -16.320312 9.28125 -17.921875 9.59375 -19.203125 C 9.28125 -20.554688 9.125 -22.15625 9.125 -24 C 9.125 -25.914062 9.28125 -27.515625 9.59375 -28.796875 C 9.28125 -30.160156 9.125 -31.757812 9.125 -33.59375 C 9.125 -35.519531 9.28125 -37.125 9.59375 -38.40625 C 9.28125 -39.757812 9.125 -41.359375 9.125 -43.203125 C 9.125 -45.117188 9.28125 -46.71875 9.59375 -48 C 9.28125 -49.363281 9.125 -50.960938 9.125 -52.796875 C 9.125 -54.722656 9.28125 -56.320312 9.59375 -57.59375 C 9.28125 -58.957031 9.125 -60.5625 9.125 -62.40625 C 9.125 -64.320312 9.28125 -65.921875 9.59375 -67.203125 L 38.40625 -67.203125 C 38.71875 -65.921875 38.875 -64.320312 38.875 -62.40625 C 38.875 -60.5625 38.71875 -58.957031 38.40625 -57.59375 L 19.203125 -57.59375 C 19.523438 -56.320312 19.6875 -54.722656 19.6875 -52.796875 C 19.6875 -50.960938 19.523438 -49.363281 19.203125 -48 C 19.523438 -46.71875 19.6875 -45.117188 19.6875 -43.203125 C 19.6875 -41.359375 19.523438 -39.757812 19.203125 -38.40625 L 38.40625 -38.40625 C 38.71875 -37.125 38.875 -35.519531 38.875 -33.59375 C 38.875 -31.757812 38.71875 -30.160156 38.40625 -28.796875 Z M 19.203125 -28.796875 "/></g></g><g style="fill:#ff3131;fill-opacity:1;"><g transform="translate(336.988426, 96.67251)"><path style="stroke:none" d=""/></g></g><g style="fill:#ff3131;fill-opacity:1;"><g transform="translate(384.988447, 96.67251)"><path style="stroke:none" d="M 43.6875 -52.796875 C 43.6875 -50.960938 43.523438 -49.363281 43.203125 -48 C 43.523438 -46.71875 43.6875 -45.117188 43.6875 -43.203125 C 43.6875 -41.359375 43.523438 -39.757812 43.203125 -38.40625 L 38.40625 -38.40625 C 38.71875 -37.125 38.875 -35.519531 38.875 -33.59375 C 38.875 -31.757812 38.71875 -30.160156 38.40625 -28.796875 L 14.40625 -28.796875 C 14.71875 -27.515625 14.875 -25.914062 14.875 -24 C 14.875 -22.15625 14.71875 -20.554688 14.40625 -19.203125 C 14.71875 -17.921875 14.875 -16.320312 14.875 -14.40625 C 14.875 -12.5625 14.71875 -10.957031 14.40625 -9.59375 C 14.71875 -8.320312 14.875 -6.722656 14.875 -4.796875 C 14.875 -2.960938 14.71875 -1.363281 14.40625 0 L 4.796875 0 C 4.472656 -1.363281 4.3125 -2.960938 4.3125 -4.796875 C 4.3125 -6.722656 4.472656 -8.320312 4.796875 -9.59375 C 4.472656 -10.957031 4.3125 -12.5625 4.3125 -14.40625 C 4.3125 -16.320312 4.472656 -17.921875 4.796875 -19.203125 C 4.472656 -20.554688 4.3125 -22.15625 4.3125 -24 C 4.3125 -25.914062 4.472656 -27.515625 4.796875 -28.796875 C 4.472656 -30.160156 4.3125 -31.757812 4.3125 -33.59375 C 4.3125 -35.519531 4.472656 -37.125 4.796875 -38.40625 C 4.472656 -39.757812 4.3125 -41.359375 4.3125 -43.203125 C 4.3125 -45.117188 4.472656 -46.71875 4.796875 -48 C 4.472656 -49.363281 4.3125 -50.960938 4.3125 -52.796875 C 4.3125 -54.722656 4.472656 -56.320312 4.796875 -57.59375 C 4.472656 -58.957031 4.3125 -60.5625 4.3125 -62.40625 C 4.3125 -64.320312 4.472656 -65.921875 4.796875 -67.203125 L 38.40625 -67.203125 C 38.71875 -65.921875 38.875 -64.320312 38.875 -62.40625 C 38.875 -60.5625 38.71875 -58.957031 38.40625 -57.59375 L 43.203125 -57.59375 C 43.523438 -56.320312 43.6875 -54.722656 43.6875 -52.796875 Z M 33.59375 -38.40625 C 33.28125 -39.757812 33.125 -41.359375 33.125 -43.203125 C 33.125 -45.117188 33.28125 -46.71875 33.59375 -48 C 33.28125 -49.363281 33.125 -50.960938 33.125 -52.796875 C 33.125 -54.722656 33.28125 -56.320312 33.59375 -57.59375 L 14.40625 -57.59375 C 14.71875 -56.320312 14.875 -54.722656 14.875 -52.796875 C 14.875 -50.960938 14.71875 -49.363281 14.40625 -48 C 14.71875 -46.71875 14.875 -45.117188 14.875 -43.203125 C 14.875 -41.359375 14.71875 -39.757812 14.40625 -38.40625 Z M 33.59375 -38.40625 "/></g><g transform="translate(432.988445, 96.67251)"><path style="stroke:none" d="M 43.6875 -14.40625 C 43.6875 -12.5625 43.523438 -10.957031 43.203125 -9.59375 C 43.523438 -8.320312 43.6875 -6.722656 43.6875 -4.796875 C 43.6875 -2.960938 43.523438 -1.363281 43.203125 0 L 33.59375 0 C 33.28125 -1.363281 33.125 -2.960938 33.125 -4.796875 C 33.125 -6.722656 33.28125 -8.320312 33.59375 -9.59375 C 33.28125 -10.957031 33.125 -12.5625 33.125 -14.40625 C 33.125 -16.320312 33.28125 -17.921875 33.59375 -19.203125 L 14.40625 -19.203125 C 14.71875 -17.921875 14.875 -16.320312 14.875 -14.40625 C 14.875 -12.5625 14.71875 -10.957031 14.40625 -9.59375 C 14.71875 -8.320312 14.875 -6.722656 14.875 -4.796875 C 14.875 -2.960938 14.71875 -1.363281 14.40625 0 L 4.796875 0 C 4.472656 -1.363281 4.3125 -2.960938 4.3125 -4.796875 C 4.3125 -6.722656 4.472656 -8.320312 4.796875 -9.59375 C 4.472656 -10.957031 4.3125 -12.5625 4.3125 -14.40625 C 4.3125 -16.320312 4.472656 -17.921875 4.796875 -19.203125 L 8.40625 -19.203125 C 8.082031 -20.554688 7.921875 -22.15625 7.921875 -24 C 7.921875 -25.914062 8.082031 -27.515625 8.40625 -28.796875 C 8.082031 -30.160156 7.921875 -31.757812 7.921875 -33.59375 C 7.921875 -35.519531 8.082031 -37.125 8.40625 -38.40625 L 10.796875 -38.40625 C 10.472656 -39.757812 10.3125 -41.359375 10.3125 -43.203125 C 10.3125 -45.117188 10.472656 -46.71875 10.796875 -48 L 14.40625 -48 C 14.082031 -49.363281 13.921875 -50.960938 13.921875 -52.796875 C 13.921875 -54.722656 14.082031 -56.320312 14.40625 -57.59375 L 16.796875 -57.59375 C 16.472656 -58.957031 16.3125 -60.5625 16.3125 -62.40625 C 16.3125 -64.320312 16.472656 -65.921875 16.796875 -67.203125 L 31.203125 -67.203125 C 31.523438 -65.921875 31.6875 -64.320312 31.6875 -62.40625 C 31.6875 -60.5625 31.523438 -58.957031 31.203125 -57.59375 L 33.59375 -57.59375 C 33.914062 -56.320312 34.078125 -54.722656 34.078125 -52.796875 C 34.078125 -50.960938 33.914062 -49.363281 33.59375 -48 L 37.203125 -48 C 37.523438 -46.71875 37.6875 -45.117188 37.6875 -43.203125 C 37.6875 -41.359375 37.523438 -39.757812 37.203125 -38.40625 L 39.59375 -38.40625 C 39.914062 -37.125 40.078125 -35.519531 40.078125 -33.59375 C 40.078125 -31.757812 39.914062 -30.160156 39.59375 -28.796875 C 39.914062 -27.515625 40.078125 -25.914062 40.078125 -24 C 40.078125 -22.15625 39.914062 -20.554688 39.59375 -19.203125 L 43.203125 -19.203125 C 43.523438 -17.921875 43.6875 -16.320312 43.6875 -14.40625 Z M 30 -28.796875 C 29.675781 -30.160156 29.515625 -31.757812 29.515625 -33.59375 C 29.515625 -35.519531 29.675781 -37.125 30 -38.40625 L 27.59375 -38.40625 C 27.28125 -39.757812 27.125 -41.359375 27.125 -43.203125 C 27.125 -45.117188 27.28125 -46.71875 27.59375 -48 L 20.40625 -48 C 20.71875 -46.71875 20.875 -45.117188 20.875 -43.203125 C 20.875 -41.359375 20.71875 -39.757812 20.40625 -38.40625 L 18 -38.40625 C 18.320312 -37.125 18.484375 -35.519531 18.484375 -33.59375 C 18.484375 -31.757812 18.320312 -30.160156 18 -28.796875 Z M 30 -28.796875 "/></g></g><g style="fill:#ff3131;fill-opacity:1;"><g transform="translate(480.988488, 96.67251)"><path style="stroke:none" d="M 43.203125 -38.40625 C 43.523438 -37.125 43.6875 -35.519531 43.6875 -33.59375 C 43.6875 -31.757812 43.523438 -30.160156 43.203125 -28.796875 C 43.523438 -27.515625 43.6875 -25.914062 43.6875 -24 C 43.6875 -22.15625 43.523438 -20.554688 43.203125 -19.203125 C 43.523438 -17.921875 43.6875 -16.320312 43.6875 -14.40625 C 43.6875 -12.5625 43.523438 -10.957031 43.203125 -9.59375 L 38.40625 -9.59375 C 38.71875 -8.320312 38.875 -6.722656 38.875 -4.796875 C 38.875 -2.960938 38.71875 -1.363281 38.40625 0 L 14.40625 0 C 14.082031 -1.363281 13.921875 -2.960938 13.921875 -4.796875 C 13.921875 -6.722656 14.082031 -8.320312 14.40625 -9.59375 L 9.59375 -9.59375 C 9.28125 -10.957031 9.125 -12.5625 9.125 -14.40625 C 9.125 -16.320312 9.28125 -17.921875 9.59375 -19.203125 L 4.796875 -19.203125 C 4.472656 -20.554688 4.3125 -22.15625 4.3125 -24 C 4.3125 -25.914062 4.472656 -27.515625 4.796875 -28.796875 C 4.472656 -30.160156 4.3125 -31.757812 4.3125 -33.59375 C 4.3125 -35.519531 4.472656 -37.125 4.796875 -38.40625 C 4.472656 -39.757812 4.3125 -41.359375 4.3125 -43.203125 C 4.3125 -45.117188 4.472656 -46.71875 4.796875 -48 L 9.59375 -48 C 9.28125 -49.363281 9.125 -50.960938 9.125 -52.796875 C 9.125 -54.722656 9.28125 -56.320312 9.59375 -57.59375 L 14.40625 -57.59375 C 14.082031 -58.957031 13.921875 -60.5625 13.921875 -62.40625 C 13.921875 -64.320312 14.082031 -65.921875 14.40625 -67.203125 L 38.40625 -67.203125 C 38.71875 -65.921875 38.875 -64.320312 38.875 -62.40625 C 38.875 -60.5625 38.71875 -58.957031 38.40625 -57.59375 L 43.203125 -57.59375 C 43.523438 -56.320312 43.6875 -54.722656 43.6875 -52.796875 C 43.6875 -50.960938 43.523438 -49.363281 43.203125 -48 L 33.59375 -48 C 33.28125 -49.363281 33.125 -50.960938 33.125 -52.796875 C 33.125 -54.722656 33.28125 -56.320312 33.59375 -57.59375 L 19.203125 -57.59375 C 19.523438 -56.320312 19.6875 -54.722656 19.6875 -52.796875 C 19.6875 -50.960938 19.523438 -49.363281 19.203125 -48 L 14.40625 -48 C 14.71875 -46.71875 14.875 -45.117188 14.875 -43.203125 C 14.875 -41.359375 14.71875 -39.757812 14.40625 -38.40625 C 14.71875 -37.125 14.875 -35.519531 14.875 -33.59375 C 14.875 -31.757812 14.71875 -30.160156 14.40625 -28.796875 C 14.71875 -27.515625 14.875 -25.914062 14.875 -24 C 14.875 -22.15625 14.71875 -20.554688 14.40625 -19.203125 L 19.203125 -19.203125 C 19.523438 -17.921875 19.6875 -16.320312 19.6875 -14.40625 C 19.6875 -12.5625 19.523438 -10.957031 19.203125 -9.59375 L 33.59375 -9.59375 C 33.28125 -10.957031 33.125 -12.5625 33.125 -14.40625 C 33.125 -16.320312 33.28125 -17.921875 33.59375 -19.203125 C 33.28125 -20.554688 33.125 -22.15625 33.125 -24 C 33.125 -25.914062 33.28125 -27.515625 33.59375 -28.796875 L 26.40625 -28.796875 C 26.082031 -30.160156 25.921875 -31.757812 25.921875 -33.59375 C 25.921875 -35.519531 26.082031 -37.125 26.40625 -38.40625 Z M 43.203125 -38.40625 "/></g></g><g style="fill:#ff3131;fill-opacity:1;"><g transform="translate(528.988531, 96.67251)"><path style="stroke:none" d="M 19.203125 -28.796875 C 19.523438 -27.515625 19.6875 -25.914062 19.6875 -24 C 19.6875 -22.15625 19.523438 -20.554688 19.203125 -19.203125 C 19.523438 -17.921875 19.6875 -16.320312 19.6875 -14.40625 C 19.6875 -12.5625 19.523438 -10.957031 19.203125 -9.59375 L 38.40625 -9.59375 C 38.71875 -8.320312 38.875 -6.722656 38.875 -4.796875 C 38.875 -2.960938 38.71875 -1.363281 38.40625 0 L 9.59375 0 C 9.28125 -1.363281 9.125 -2.960938 9.125 -4.796875 C 9.125 -6.722656 9.28125 -8.320312 9.59375 -9.59375 C 9.28125 -10.957031 9.125 -12.5625 9.125 -14.40625 C 9.125 -16.320312 9.28125 -17.921875 9.59375 -19.203125 C 9.28125 -20.554688 9.125 -22.15625 9.125 -24 C 9.125 -25.914062 9.28125 -27.515625 9.59375 -28.796875 C 9.28125 -30.160156 9.125 -31.757812 9.125 -33.59375 C 9.125 -35.519531 9.28125 -37.125 9.59375 -38.40625 C 9.28125 -39.757812 9.125 -41.359375 9.125 -43.203125 C 9.125 -45.117188 9.28125 -46.71875 9.59375 -48 C 9.28125 -49.363281 9.125 -50.960938 9.125 -52.796875 C 9.125 -54.722656 9.28125 -56.320312 9.59375 -57.59375 C 9.28125 -58.957031 9.125 -60.5625 9.125 -62.40625 C 9.125 -64.320312 9.28125 -65.921875 9.59375 -67.203125 L 38.40625 -67.203125 C 38.71875 -65.921875 38.875 -64.320312 38.875 -62.40625 C 38.875 -60.5625 38.71875 -58.957031 38.40625 -57.59375 L 19.203125 -57.59375 C 19.523438 -56.320312 19.6875 -54.722656 19.6875 -52.796875 C 19.6875 -50.960938 19.523438 -49.363281 19.203125 -48 C 19.523438 -46.71875 19.6875 -45.117188 19.6875 -43.203125 C 19.6875 -41.359375 19.523438 -39.757812 19.203125 -38.40625 L 38.40625 -38.40625 C 38.71875 -37.125 38.875 -35.519531 38.875 -33.59375 C 38.875 -31.757812 38.71875 -30.160156 38.40625 -28.796875 Z M 19.203125 -28.796875 "/></g></g></g></g></g><g clip-rule="nonzero" clip-path="url(#81420130c5)"><g transform="matrix(1,0,0,1,16,-0.000000000000056843)"><g id="5ae8104e65" clip-path="url(#b79856a328)"><g style="fill:#ff3131;fill-opacity:1;"><g transform="translate(2.01025, 125.236055)"><path style="stroke:none" d="M 24.828125 0 L 24.828125 -35.007812 L 41.953125 -35.007812 C 46.296875 -35.007812 50.195312 -35.746094 53.660156 -37.222656 C 56.878906 -38.59375 59.628906 -40.5625 61.902344 -43.128906 C 64.085938 -45.589844 65.746094 -48.488281 66.886719 -51.835938 C 68.011719 -55.125 68.574219 -58.664062 68.574219 -62.449219 C 68.574219 -66.238281 68.011719 -69.785156 66.886719 -73.089844 C 65.742188 -76.453125 64.082031 -79.371094 61.902344 -81.84375 C 59.621094 -84.429688 56.871094 -86.414062 53.652344 -87.796875 C 50.191406 -89.285156 46.292969 -90.03125 41.953125 -90.03125 L 8.117188 -90.03125 L 8.117188 -91.75 L 9.835938 -91.75 L 9.835938 0 L 8.117188 0 L 8.117188 -1.71875 L 26.546875 -1.71875 L 26.546875 0 Z M 28.269531 1.71875 L 6.394531 1.71875 L 6.394531 -93.46875 L 41.953125 -93.46875 C 46.761719 -93.46875 51.117188 -92.632812 55.011719 -90.957031 C 58.703125 -89.371094 61.859375 -87.089844 64.480469 -84.117188 C 66.964844 -81.300781 68.851562 -77.992188 70.140625 -74.199219 C 71.386719 -70.535156 72.011719 -66.621094 72.011719 -62.449219 C 72.011719 -58.285156 71.386719 -54.375 70.140625 -50.722656 C 68.851562 -46.941406 66.960938 -43.648438 64.476562 -40.847656 C 61.859375 -37.894531 58.703125 -35.632812 55.007812 -34.058594 C 51.113281 -32.398438 46.761719 -31.570312 41.953125 -31.570312 L 26.546875 -31.570312 L 26.546875 -33.289062 L 28.269531 -33.289062 Z M 53.167969 -62.449219 C 53.167969 -58.085938 51.949219 -54.527344 49.519531 -51.769531 C 47.027344 -48.941406 43.769531 -47.527344 39.753906 -47.527344 L 24.828125 -47.527344 L 24.828125 -77.375 L 39.753906 -77.375 C 43.78125 -77.375 47.035156 -75.980469 49.515625 -73.1875 C 51.949219 -70.449219 53.167969 -66.871094 53.167969 -62.449219 Z M 49.726562 -62.449219 C 49.726562 -66 48.800781 -68.816406 46.945312 -70.902344 C 45.148438 -72.925781 42.753906 -73.9375 39.753906 -73.9375 L 26.546875 -73.9375 L 26.546875 -75.65625 L 28.269531 -75.65625 L 28.269531 -49.246094 L 26.546875 -49.246094 L 26.546875 -50.964844 L 39.753906 -50.964844 C 42.734375 -50.964844 45.132812 -51.992188 46.941406 -54.046875 C 48.796875 -56.152344 49.726562 -58.953125 49.726562 -62.449219 Z M 49.726562 -62.449219 "/></g></g><g style="fill:#ff3131;fill-opacity:1;"><g transform="translate(75.318319, 125.236055)"><path style="stroke:none" d="M 69.414062 0.714844 L 51.972656 -37.488281 L 53.800781 -38.085938 C 57.816406 -39.402344 61.132812 -41.898438 63.75 -45.582031 C 66.964844 -50.105469 68.574219 -55.820312 68.574219 -62.726562 C 68.574219 -66.710938 67.941406 -70.402344 66.675781 -73.800781 C 65.445312 -77.105469 63.679688 -79.972656 61.375 -82.398438 C 59.0625 -84.835938 56.324219 -86.703125 53.15625 -88.003906 C 49.871094 -89.355469 46.273438 -90.03125 42.367188 -90.03125 L 8.117188 -90.03125 L 8.117188 -91.75 L 9.835938 -91.75 L 9.835938 0 L 8.117188 0 L 8.117188 -1.71875 L 26.546875 -1.71875 L 26.546875 0 L 24.828125 0 L 24.828125 -35.007812 L 37.59375 -35.007812 L 52.066406 -0.667969 L 50.484375 0 L 50.484375 -1.71875 L 70.980469 -1.71875 L 70.980469 0 Z M 73.65625 1.71875 L 49.34375 1.71875 L 34.867188 -32.621094 L 36.453125 -33.289062 L 36.453125 -31.570312 L 26.546875 -31.570312 L 26.546875 -33.289062 L 28.269531 -33.289062 L 28.269531 1.71875 L 6.394531 1.71875 L 6.394531 -93.46875 L 42.367188 -93.46875 C 46.726562 -93.46875 50.757812 -92.707031 54.464844 -91.183594 C 58.082031 -89.699219 61.21875 -87.558594 63.871094 -84.769531 C 66.496094 -82 68.507812 -78.746094 69.902344 -75 C 71.308594 -71.214844 72.011719 -67.125 72.011719 -62.726562 C 72.011719 -55.089844 70.191406 -48.710938 66.550781 -43.589844 C 64.992188 -41.394531 63.148438 -39.523438 61.03125 -37.988281 C 59.105469 -36.589844 57.050781 -35.53125 54.871094 -34.820312 L 54.335938 -36.453125 L 55.898438 -37.167969 L 72.542969 -0.714844 Z M 53.167969 -62.449219 C 53.167969 -58.078125 51.945312 -54.515625 49.5 -51.765625 C 46.988281 -48.9375 43.691406 -47.527344 39.617188 -47.527344 L 24.828125 -47.527344 L 24.828125 -77.375 L 39.617188 -77.375 C 43.71875 -77.375 47.007812 -76 49.492188 -73.25 C 51.941406 -70.535156 53.167969 -66.933594 53.167969 -62.449219 Z M 49.726562 -62.449219 C 49.726562 -66.050781 48.796875 -68.882812 46.9375 -70.945312 C 45.136719 -72.941406 42.699219 -73.9375 39.617188 -73.9375 L 26.546875 -73.9375 L 26.546875 -75.65625 L 28.269531 -75.65625 L 28.269531 -49.246094 L 26.546875 -49.246094 L 26.546875 -50.964844 L 39.617188 -50.964844 C 42.664062 -50.964844 45.101562 -51.992188 46.929688 -54.050781 C 48.792969 -56.148438 49.726562 -58.949219 49.726562 -62.449219 Z M 49.726562 -62.449219 "/></g></g><g style="fill:#ff3131;fill-opacity:1;"><g transform="translate(151.102089, 125.236055)"><path style="stroke:none" d="M 6.121094 -45.808594 C 6.121094 -39.144531 6.96875 -32.988281 8.660156 -27.335938 C 10.328125 -21.753906 12.746094 -16.929688 15.902344 -12.867188 C 19.09375 -8.765625 22.902344 -5.632812 27.328125 -3.457031 C 31.929688 -1.199219 37.035156 -0.0703125 42.644531 -0.0703125 C 48.28125 -0.0703125 53.414062 -1.199219 58.039062 -3.460938 C 62.484375 -5.632812 66.304688 -8.769531 69.503906 -12.871094 C 72.667969 -16.929688 75.089844 -21.75 76.761719 -27.335938 C 78.457031 -32.988281 79.300781 -39.144531 79.300781 -45.808594 C 79.300781 -52.4375 78.457031 -58.574219 76.761719 -64.21875 C 75.089844 -69.800781 72.667969 -74.625 69.503906 -78.691406 C 66.300781 -82.808594 62.476562 -85.953125 58.035156 -88.136719 C 53.410156 -90.40625 48.277344 -91.542969 42.644531 -91.542969 C 37.042969 -91.542969 31.9375 -90.410156 27.332031 -88.136719 C 22.90625 -85.957031 19.097656 -82.808594 15.90625 -78.695312 C 12.746094 -74.625 10.332031 -69.800781 8.660156 -64.21875 C 6.96875 -58.574219 6.121094 -52.433594 6.121094 -45.808594 Z M 2.683594 -45.808594 C 2.683594 -52.769531 3.574219 -59.238281 5.363281 -65.207031 C 7.160156 -71.199219 9.765625 -76.398438 13.1875 -80.804688 C 16.707031 -85.332031 20.914062 -88.804688 25.808594 -91.222656 C 30.894531 -93.730469 36.507812 -94.984375 42.644531 -94.984375 C 48.8125 -94.984375 54.449219 -93.730469 59.554688 -91.222656 C 64.46875 -88.808594 68.6875 -85.335938 72.214844 -80.804688 C 75.644531 -76.398438 78.257812 -71.199219 80.058594 -65.207031 C 81.847656 -59.242188 82.742188 -52.773438 82.742188 -45.808594 C 82.742188 -38.808594 81.847656 -32.320312 80.058594 -26.347656 C 78.261719 -20.351562 75.644531 -15.152344 72.214844 -10.753906 C 68.691406 -6.234375 64.46875 -2.773438 59.550781 -0.371094 C 54.449219 2.125 48.8125 3.371094 42.644531 3.371094 C 36.503906 3.371094 30.894531 2.121094 25.8125 -0.371094 C 20.914062 -2.777344 16.703125 -6.238281 13.191406 -10.757812 C 9.765625 -15.15625 7.15625 -20.355469 5.363281 -26.351562 C 3.574219 -32.324219 2.683594 -38.808594 2.683594 -45.808594 Z M 63.894531 -45.808594 C 63.894531 -41.285156 63.457031 -37.082031 62.582031 -33.199219 C 61.683594 -29.226562 60.367188 -25.769531 58.636719 -22.835938 C 56.800781 -19.730469 54.574219 -17.34375 51.960938 -15.671875 C 49.171875 -13.890625 46.066406 -13 42.644531 -13 C 39.246094 -13 36.171875 -13.890625 33.417969 -15.675781 C 30.835938 -17.347656 28.640625 -19.738281 26.832031 -22.847656 C 25.128906 -25.777344 23.835938 -29.230469 22.953125 -33.207031 C 22.09375 -37.085938 21.664062 -41.285156 21.664062 -45.808594 C 21.664062 -55.292969 23.386719 -62.984375 26.835938 -68.875 C 28.640625 -71.957031 30.835938 -74.328125 33.425781 -75.980469 C 36.175781 -77.738281 39.246094 -78.613281 42.644531 -78.613281 C 46.070312 -78.613281 49.171875 -77.738281 51.949219 -75.988281 C 54.574219 -74.335938 56.800781 -71.964844 58.632812 -68.882812 C 60.371094 -65.964844 61.683594 -62.511719 62.582031 -58.527344 C 63.457031 -54.632812 63.894531 -50.390625 63.894531 -45.808594 Z M 60.457031 -45.808594 C 60.457031 -50.136719 60.046875 -54.125 59.226562 -57.773438 C 58.410156 -61.402344 57.226562 -64.519531 55.675781 -67.125 C 52.488281 -72.492188 48.144531 -75.175781 42.644531 -75.175781 C 37.21875 -75.175781 32.941406 -72.496094 29.804688 -67.136719 C 28.277344 -64.53125 27.113281 -61.410156 26.3125 -57.78125 C 25.507812 -54.132812 25.105469 -50.140625 25.105469 -45.808594 C 25.105469 -41.535156 25.507812 -37.585938 26.3125 -33.953125 C 27.117188 -30.324219 28.28125 -27.199219 29.804688 -24.574219 C 32.960938 -19.152344 37.238281 -16.4375 42.644531 -16.4375 C 48.121094 -16.4375 52.464844 -19.152344 55.675781 -24.585938 C 57.222656 -27.210938 58.410156 -30.332031 59.226562 -33.957031 C 60.046875 -37.59375 60.457031 -41.542969 60.457031 -45.808594 Z M 60.457031 -45.808594 "/></g></g><g style="fill:#ff3131;fill-opacity:1;"><g transform="translate(236.651088, 125.236055)"><path style="stroke:none" d="M 37.691406 -1.71875 C 43.703125 -1.71875 49.125 -2.792969 53.960938 -4.9375 C 58.605469 -6.996094 62.574219 -9.984375 65.863281 -13.898438 C 69.113281 -17.765625 71.585938 -22.394531 73.289062 -27.792969 C 75.003906 -33.238281 75.863281 -39.242188 75.863281 -45.808594 C 75.863281 -52.363281 75 -58.375 73.269531 -63.839844 C 71.558594 -69.25 69.070312 -73.898438 65.8125 -77.785156 C 62.511719 -81.71875 58.539062 -84.71875 53.898438 -86.792969 C 49.070312 -88.953125 43.664062 -90.03125 37.691406 -90.03125 L 8.117188 -90.03125 L 8.117188 -91.75 L 9.835938 -91.75 L 9.835938 0 L 8.117188 0 L 8.117188 -1.71875 Z M 37.691406 1.71875 L 6.394531 1.71875 L 6.394531 -93.46875 L 37.691406 -93.46875 C 44.15625 -93.46875 50.027344 -92.292969 55.304688 -89.933594 C 60.425781 -87.644531 64.804688 -84.332031 68.445312 -79.996094 C 72 -75.757812 74.699219 -70.71875 76.546875 -64.878906 C 78.382812 -59.074219 79.300781 -52.71875 79.300781 -45.808594 C 79.300781 -38.890625 78.390625 -32.542969 76.566406 -26.757812 C 74.730469 -20.925781 72.039062 -15.902344 68.496094 -11.6875 C 64.867188 -7.367188 60.484375 -4.070312 55.355469 -1.792969 C 50.078125 0.546875 44.1875 1.71875 37.691406 1.71875 Z M 26.546875 -77.238281 L 37.691406 -77.238281 C 41.398438 -77.238281 44.710938 -76.476562 47.636719 -74.953125 C 50.488281 -73.46875 52.894531 -71.296875 54.84375 -68.441406 C 58.585938 -62.964844 60.457031 -55.421875 60.457031 -45.808594 C 60.457031 -36.511719 58.550781 -29.074219 54.742188 -23.496094 C 52.769531 -20.613281 50.371094 -18.40625 47.539062 -16.882812 C 44.609375 -15.300781 41.324219 -14.511719 37.691406 -14.511719 L 24.828125 -14.511719 L 24.828125 -77.238281 Z M 26.546875 -73.800781 L 26.546875 -75.519531 L 28.269531 -75.519531 L 28.269531 -16.230469 L 26.546875 -16.230469 L 26.546875 -17.953125 L 37.691406 -17.953125 C 43.753906 -17.953125 48.492188 -20.445312 51.902344 -25.4375 C 55.3125 -30.429688 57.015625 -37.21875 57.015625 -45.808594 C 57.015625 -54.710938 55.347656 -61.609375 52.003906 -66.5 C 48.679688 -71.367188 43.910156 -73.800781 37.691406 -73.800781 Z M 26.546875 -73.800781 "/></g></g><g style="fill:#ff3131;fill-opacity:1;"><g transform="translate(318.761627, 125.236055)"><path style="stroke:none" d="M 9.835938 -31.636719 C 9.835938 -21.597656 12.660156 -13.8125 18.3125 -8.277344 C 21.039062 -5.605469 24.351562 -3.578125 28.25 -2.191406 C 32.226562 -0.777344 36.703125 -0.0703125 41.679688 -0.0703125 C 46.65625 -0.0703125 51.132812 -0.777344 55.109375 -2.191406 C 59.007812 -3.578125 62.320312 -5.605469 65.046875 -8.277344 C 70.699219 -13.8125 73.523438 -21.597656 73.523438 -31.636719 L 73.523438 -91.75 L 75.242188 -91.75 L 75.242188 -90.03125 L 56.671875 -90.03125 L 56.671875 -91.75 L 58.394531 -91.75 L 58.394531 -31.5 C 58.394531 -25.617188 56.972656 -21.058594 54.128906 -17.828125 C 51.214844 -14.515625 47.066406 -12.863281 41.679688 -12.863281 C 36.296875 -12.863281 32.144531 -14.515625 29.230469 -17.828125 C 26.386719 -21.058594 24.964844 -25.617188 24.964844 -31.5 L 24.964844 -91.75 L 26.6875 -91.75 L 26.6875 -90.03125 L 8.117188 -90.03125 L 8.117188 -91.75 L 9.835938 -91.75 Z M 6.394531 -31.636719 L 6.394531 -93.46875 L 28.40625 -93.46875 L 28.40625 -31.5 C 28.40625 -26.480469 29.539062 -22.679688 31.8125 -20.101562 C 34.042969 -17.566406 37.332031 -16.300781 41.679688 -16.300781 C 46.027344 -16.300781 49.316406 -17.566406 51.546875 -20.101562 C 53.820312 -22.679688 54.953125 -26.480469 54.953125 -31.5 L 54.953125 -93.46875 L 76.964844 -93.46875 L 76.964844 -31.636719 C 76.964844 -26.1875 76.152344 -21.277344 74.53125 -16.902344 C 72.925781 -12.5625 70.566406 -8.867188 67.453125 -5.820312 C 64.367188 -2.796875 60.636719 -0.507812 56.261719 1.046875 C 51.914062 2.597656 47.050781 3.371094 41.679688 3.371094 C 36.308594 3.371094 31.449219 2.597656 27.097656 1.046875 C 22.722656 -0.507812 18.992188 -2.796875 15.90625 -5.820312 C 12.792969 -8.867188 10.433594 -12.5625 8.828125 -16.902344 C 7.207031 -21.277344 6.394531 -26.1875 6.394531 -31.636719 Z M 6.394531 -31.636719 "/></g></g><g style="fill:#ff3131;fill-opacity:1;"><g transform="translate(402.110001, 125.236055)"><path style="stroke:none" d="M 42.917969 -0.0703125 C 50.695312 -0.0703125 57.199219 -2.398438 62.425781 -7.0625 C 66.414062 -10.621094 69.746094 -15.636719 72.417969 -22.113281 L 74.007812 -21.457031 L 73.324219 -19.878906 L 58.054688 -26.484375 L 58.738281 -28.0625 L 60.363281 -27.5 C 58.882812 -23.210938 56.738281 -19.804688 53.941406 -17.277344 C 50.78125 -14.425781 47.105469 -13 42.917969 -13 C 39.613281 -13 36.589844 -13.863281 33.84375 -15.585938 C 31.234375 -17.222656 29.003906 -19.566406 27.144531 -22.609375 C 25.355469 -25.535156 23.996094 -28.984375 23.0625 -32.953125 C 22.128906 -36.902344 21.664062 -41.1875 21.664062 -45.808594 C 21.664062 -50.425781 22.128906 -54.710938 23.0625 -58.660156 C 23.996094 -62.628906 25.355469 -66.078125 27.144531 -69.003906 C 29.003906 -72.046875 31.234375 -74.390625 33.84375 -76.027344 C 36.589844 -77.75 39.613281 -78.613281 42.917969 -78.613281 C 46.988281 -78.613281 50.566406 -77.328125 53.664062 -74.761719 C 56.484375 -72.417969 58.667969 -69.203125 60.207031 -65.121094 L 58.597656 -64.515625 L 57.90625 -66.085938 L 73.175781 -72.828125 L 73.867188 -71.253906 L 72.296875 -70.558594 C 69.558594 -76.757812 66.203125 -81.546875 62.230469 -84.921875 C 57.035156 -89.335938 50.597656 -91.542969 42.917969 -91.542969 C 37.390625 -91.542969 32.328125 -90.433594 27.726562 -88.207031 C 23.269531 -86.054688 19.421875 -82.945312 16.183594 -78.882812 C 12.949219 -74.828125 10.472656 -70.011719 8.753906 -64.4375 C 7 -58.742188 6.121094 -52.53125 6.121094 -45.808594 C 6.121094 -39.082031 7 -32.871094 8.753906 -27.175781 C 10.472656 -21.601562 12.949219 -16.785156 16.183594 -12.730469 C 19.421875 -8.667969 23.269531 -5.558594 27.726562 -3.40625 C 32.328125 -1.179688 37.390625 -0.0703125 42.917969 -0.0703125 Z M 42.917969 3.371094 C 36.867188 3.371094 31.300781 2.144531 26.226562 -0.308594 C 21.304688 -2.6875 17.058594 -6.113281 13.496094 -10.585938 C 9.988281 -14.980469 7.316406 -20.175781 5.46875 -26.164062 C 3.609375 -32.1875 2.683594 -38.738281 2.683594 -45.808594 C 2.683594 -52.878906 3.609375 -59.425781 5.46875 -65.449219 C 7.316406 -71.4375 9.988281 -76.632812 13.496094 -81.027344 C 17.058594 -85.5 21.304688 -88.925781 26.226562 -91.304688 C 31.300781 -93.757812 36.867188 -94.984375 42.917969 -94.984375 C 51.4375 -94.984375 58.621094 -92.503906 64.457031 -87.542969 C 68.832031 -83.828125 72.492188 -78.628906 75.441406 -71.949219 L 76.136719 -70.375 L 57.632812 -62.207031 L 56.992188 -63.90625 C 55.664062 -67.421875 53.820312 -70.160156 51.464844 -72.117188 C 49.007812 -74.15625 46.160156 -75.175781 42.917969 -75.175781 C 40.273438 -75.175781 37.859375 -74.488281 35.671875 -73.113281 C 33.523438 -71.761719 31.65625 -69.796875 30.078125 -67.210938 C 28.484375 -64.597656 27.257812 -61.484375 26.410156 -57.871094 C 25.539062 -54.183594 25.105469 -50.160156 25.105469 -45.808594 C 25.105469 -41.453125 25.539062 -37.429688 26.410156 -33.742188 C 27.257812 -30.128906 28.484375 -27.015625 30.078125 -24.402344 C 31.65625 -21.816406 33.523438 -19.851562 35.671875 -18.5 C 37.859375 -17.125 40.273438 -16.4375 42.917969 -16.4375 C 46.226562 -16.4375 49.128906 -17.570312 51.636719 -19.828125 C 53.996094 -21.960938 55.824219 -24.894531 57.113281 -28.625 L 57.71875 -30.375 L 76.242188 -22.367188 L 75.59375 -20.804688 C 68.949219 -4.6875 58.054688 3.371094 42.917969 3.371094 Z M 42.917969 3.371094 "/></g></g><g style="fill:#ff3131;fill-opacity:1;"><g transform="translate(478.85653, 125.236055)"><path style="stroke:none" d="M 40.097656 0 L 40.097656 -77.238281 L 62.175781 -77.238281 L 62.175781 -75.519531 L 60.457031 -75.519531 L 60.457031 -91.75 L 62.175781 -91.75 L 62.175781 -90.03125 L 2.890625 -90.03125 L 2.890625 -91.75 L 4.609375 -91.75 L 4.609375 -75.519531 L 2.890625 -75.519531 L 2.890625 -77.238281 L 25.105469 -77.238281 L 25.105469 0 L 23.386719 0 L 23.386719 -1.71875 L 41.816406 -1.71875 L 41.816406 0 Z M 43.535156 1.71875 L 21.664062 1.71875 L 21.664062 -75.519531 L 23.386719 -75.519531 L 23.386719 -73.800781 L 1.167969 -73.800781 L 1.167969 -93.46875 L 63.894531 -93.46875 L 63.894531 -73.800781 L 41.816406 -73.800781 L 41.816406 -75.519531 L 43.535156 -75.519531 Z M 43.535156 1.71875 "/></g></g></g></g></g></g></g><g transform="matrix(1,0,0,1,54,417)"><g clip-path="url(#6a226f7f04)"><g style="fill:#ff3131;fill-opacity:1;"><g transform="translate(1.441286, 125.280277)"><path style="stroke:none" d="M 40.097656 0 L 40.097656 -77.238281 L 62.175781 -77.238281 L 62.175781 -75.519531 L 60.457031 -75.519531 L 60.457031 -91.75 L 62.175781 -91.75 L 62.175781 -90.03125 L 2.890625 -90.03125 L 2.890625 -91.75 L 4.609375 -91.75 L 4.609375 -75.519531 L 2.890625 -75.519531 L 2.890625 -77.238281 L 25.105469 -77.238281 L 25.105469 0 L 23.386719 0 L 23.386719 -1.71875 L 41.816406 -1.71875 L 41.816406 0 Z M 43.535156 1.71875 L 21.664062 1.71875 L 21.664062 -75.519531 L 23.386719 -75.519531 L 23.386719 -73.800781 L 1.167969 -73.800781 L 1.167969 -93.46875 L 63.894531 -93.46875 L 63.894531 -73.800781 L 41.816406 -73.800781 L 41.816406 -75.519531 L 43.535156 -75.519531 Z M 43.535156 1.71875 "/></g></g><g style="fill:#ff3131;fill-opacity:1;"><g transform="translate(66.497035, 125.280277)"><path style="stroke:none" d="M 58.941406 0 L 58.941406 -16.09375 L 60.664062 -16.09375 L 60.664062 -14.375 L 24.828125 -14.375 L 24.828125 -40.375 L 59.699219 -40.375 L 59.699219 -38.652344 L 57.980469 -38.652344 L 57.980469 -54.609375 L 59.699219 -54.609375 L 59.699219 -52.890625 L 24.828125 -52.890625 L 24.828125 -77.375 L 60.664062 -77.375 L 60.664062 -75.65625 L 58.941406 -75.65625 L 58.941406 -91.75 L 60.664062 -91.75 L 60.664062 -90.03125 L 8.117188 -90.03125 L 8.117188 -91.75 L 9.835938 -91.75 L 9.835938 0 L 8.117188 0 L 8.117188 -1.71875 L 60.664062 -1.71875 L 60.664062 0 Z M 62.382812 1.71875 L 6.394531 1.71875 L 6.394531 -93.46875 L 62.382812 -93.46875 L 62.382812 -73.9375 L 26.546875 -73.9375 L 26.546875 -75.65625 L 28.269531 -75.65625 L 28.269531 -54.609375 L 26.546875 -54.609375 L 26.546875 -56.328125 L 61.417969 -56.328125 L 61.417969 -36.933594 L 26.546875 -36.933594 L 26.546875 -38.652344 L 28.269531 -38.652344 L 28.269531 -16.09375 L 26.546875 -16.09375 L 26.546875 -17.8125 L 62.382812 -17.8125 Z M 62.382812 1.71875 "/></g></g><g style="fill:#ff3131;fill-opacity:1;"><g transform="translate(132.65311, 125.280277)"><path style="stroke:none" d="M 91.40625 0 L 91.40625 -91.75 L 93.125 -91.75 L 93.125 -90.03125 L 68.503906 -90.03125 L 68.503906 -91.75 L 70.140625 -91.21875 L 50.613281 -31.144531 L 31.238281 -91.222656 L 32.875 -91.75 L 32.875 -90.03125 L 8.117188 -90.03125 L 8.117188 -91.75 L 9.835938 -91.75 L 9.835938 0 L 8.117188 0 L 8.117188 -1.71875 L 26.410156 -1.71875 L 26.410156 0 L 24.691406 0 L 24.691406 -63 L 28.046875 -63.53125 L 48.40625 -0.527344 L 46.769531 0 L 46.769531 -1.71875 L 54.335938 -1.71875 L 54.335938 0 L 52.699219 -0.535156 L 73.335938 -63.535156 L 76.6875 -63 L 76.6875 0 L 74.96875 0 L 74.96875 -1.71875 L 93.125 -1.71875 L 93.125 0 Z M 94.847656 1.71875 L 73.25 1.71875 L 73.25 -63 L 74.96875 -63 L 76.601562 -62.464844 L 55.582031 1.71875 L 45.519531 1.71875 L 24.773438 -62.472656 L 26.410156 -63 L 28.128906 -63 L 28.128906 1.71875 L 6.394531 1.71875 L 6.394531 -93.46875 L 34.128906 -93.46875 L 52.257812 -37.253906 L 50.621094 -36.726562 L 48.984375 -37.257812 L 67.253906 -93.46875 L 94.847656 -93.46875 Z M 94.847656 1.71875 "/></g></g><g style="fill:#ff3131;fill-opacity:1;"><g transform="translate(233.743961, 125.280277)"><path style="stroke:none" d="M 24.828125 0 L 24.828125 -35.007812 L 41.953125 -35.007812 C 46.296875 -35.007812 50.195312 -35.746094 53.660156 -37.222656 C 56.878906 -38.59375 59.628906 -40.5625 61.902344 -43.128906 C 64.085938 -45.589844 65.746094 -48.488281 66.886719 -51.835938 C 68.011719 -55.125 68.574219 -58.664062 68.574219 -62.449219 C 68.574219 -66.238281 68.011719 -69.785156 66.886719 -73.089844 C 65.742188 -76.453125 64.082031 -79.371094 61.902344 -81.84375 C 59.621094 -84.429688 56.871094 -86.414062 53.652344 -87.796875 C 50.191406 -89.285156 46.292969 -90.03125 41.953125 -90.03125 L 8.117188 -90.03125 L 8.117188 -91.75 L 9.835938 -91.75 L 9.835938 0 L 8.117188 0 L 8.117188 -1.71875 L 26.546875 -1.71875 L 26.546875 0 Z M 28.269531 1.71875 L 6.394531 1.71875 L 6.394531 -93.46875 L 41.953125 -93.46875 C 46.761719 -93.46875 51.117188 -92.632812 55.011719 -90.957031 C 58.703125 -89.371094 61.859375 -87.089844 64.480469 -84.117188 C 66.964844 -81.300781 68.851562 -77.992188 70.140625 -74.199219 C 71.386719 -70.535156 72.011719 -66.621094 72.011719 -62.449219 C 72.011719 -58.285156 71.386719 -54.375 70.140625 -50.722656 C 68.851562 -46.941406 66.960938 -43.648438 64.476562 -40.847656 C 61.859375 -37.894531 58.703125 -35.632812 55.007812 -34.058594 C 51.113281 -32.398438 46.761719 -31.570312 41.953125 -31.570312 L 26.546875 -31.570312 L 26.546875 -33.289062 L 28.269531 -33.289062 Z M 53.167969 -62.449219 C 53.167969 -58.085938 51.949219 -54.527344 49.519531 -51.769531 C 47.027344 -48.941406 43.769531 -47.527344 39.753906 -47.527344 L 24.828125 -47.527344 L 24.828125 -77.375 L 39.753906 -77.375 C 43.78125 -77.375 47.035156 -75.980469 49.515625 -73.1875 C 51.949219 -70.449219 53.167969 -66.871094 53.167969 -62.449219 Z M 49.726562 -62.449219 C 49.726562 -66 48.800781 -68.816406 46.945312 -70.902344 C 45.148438 -72.925781 42.753906 -73.9375 39.753906 -73.9375 L 26.546875 -73.9375 L 26.546875 -75.65625 L 28.269531 -75.65625 L 28.269531 -49.246094 L 26.546875 -49.246094 L 26.546875 -50.964844 L 39.753906 -50.964844 C 42.734375 -50.964844 45.132812 -51.992188 46.941406 -54.046875 C 48.796875 -56.152344 49.726562 -58.953125 49.726562 -62.449219 Z M 49.726562 -62.449219 "/></g></g><g style="fill:#ff3131;fill-opacity:1;"><g transform="translate(307.05203, 125.280277)"><path style="stroke:none" d="M 55.640625 0 L 55.640625 -16.230469 L 57.363281 -16.230469 L 57.363281 -14.511719 L 24.828125 -14.511719 L 24.828125 -91.75 L 26.546875 -91.75 L 26.546875 -90.03125 L 8.117188 -90.03125 L 8.117188 -91.75 L 9.835938 -91.75 L 9.835938 0 L 8.117188 0 L 8.117188 -1.71875 L 57.363281 -1.71875 L 57.363281 0 Z M 59.082031 1.71875 L 6.394531 1.71875 L 6.394531 -93.46875 L 28.269531 -93.46875 L 28.269531 -16.230469 L 26.546875 -16.230469 L 26.546875 -17.953125 L 59.082031 -17.953125 Z M 59.082031 1.71875 "/></g></g><g style="fill:#ff3131;fill-opacity:1;"><g transform="translate(368.119171, 125.280277)"><path style="stroke:none" d="M 74.832031 0.488281 L 47.597656 -91.261719 L 49.246094 -91.75 L 49.246094 -90.03125 L 26.960938 -90.03125 L 26.960938 -91.75 L 28.609375 -91.261719 L 1.375 0.488281 L -0.273438 0 L -0.273438 -1.71875 L 18.84375 -1.71875 L 18.84375 0 L 17.179688 -0.433594 L 21.78125 -18.089844 L 54.425781 -18.089844 L 59.027344 -0.433594 L 57.363281 0 L 57.363281 -1.71875 L 76.480469 -1.71875 L 76.480469 0 Z M 78.785156 1.71875 L 56.03125 1.71875 L 51.433594 -15.9375 L 53.097656 -16.371094 L 53.097656 -14.648438 L 23.109375 -14.648438 L 23.109375 -16.371094 L 24.773438 -15.9375 L 20.175781 1.71875 L -2.578125 1.71875 L 25.679688 -93.46875 L 50.527344 -93.46875 L 78.128906 -0.488281 Z M 49.382812 -30.742188 L 24.59375 -30.742188 L 38.101562 -82.144531 L 51.613281 -30.742188 Z M 49.382812 -34.183594 L 49.382812 -32.464844 L 47.71875 -32.027344 L 36.441406 -74.945312 L 38.101562 -75.382812 L 39.765625 -74.945312 L 28.488281 -32.027344 L 26.824219 -32.464844 L 26.824219 -34.183594 Z M 49.382812 -34.183594 "/></g></g><g style="fill:#ff3131;fill-opacity:1;"><g transform="translate(444.315551, 125.280277)"><path style="stroke:none" d="M 40.097656 0 L 40.097656 -77.238281 L 62.175781 -77.238281 L 62.175781 -75.519531 L 60.457031 -75.519531 L 60.457031 -91.75 L 62.175781 -91.75 L 62.175781 -90.03125 L 2.890625 -90.03125 L 2.890625 -91.75 L 4.609375 -91.75 L 4.609375 -75.519531 L 2.890625 -75.519531 L 2.890625 -77.238281 L 25.105469 -77.238281 L 25.105469 0 L 23.386719 0 L 23.386719 -1.71875 L 41.816406 -1.71875 L 41.816406 0 Z M 43.535156 1.71875 L 21.664062 1.71875 L 21.664062 -75.519531 L 23.386719 -75.519531 L 23.386719 -73.800781 L 1.167969 -73.800781 L 1.167969 -93.46875 L 63.894531 -93.46875 L 63.894531 -73.800781 L 41.816406 -73.800781 L 41.816406 -75.519531 L 43.535156 -75.519531 Z M 43.535156 1.71875 "/></g></g><g style="fill:#ff3131;fill-opacity:1;"><g transform="translate(509.3713, 125.280277)"><path style="stroke:none" d="M 58.941406 0 L 58.941406 -16.09375 L 60.664062 -16.09375 L 60.664062 -14.375 L 24.828125 -14.375 L 24.828125 -40.375 L 59.699219 -40.375 L 59.699219 -38.652344 L 57.980469 -38.652344 L 57.980469 -54.609375 L 59.699219 -54.609375 L 59.699219 -52.890625 L 24.828125 -52.890625 L 24.828125 -77.375 L 60.664062 -77.375 L 60.664062 -75.65625 L 58.941406 -75.65625 L 58.941406 -91.75 L 60.664062 -91.75 L 60.664062 -90.03125 L 8.117188 -90.03125 L 8.117188 -91.75 L 9.835938 -91.75 L 9.835938 0 L 8.117188 0 L 8.117188 -1.71875 L 60.664062 -1.71875 L 60.664062 0 Z M 62.382812 1.71875 L 6.394531 1.71875 L 6.394531 -93.46875 L 62.382812 -93.46875 L 62.382812 -73.9375 L 26.546875 -73.9375 L 26.546875 -75.65625 L 28.269531 -75.65625 L 28.269531 -54.609375 L 26.546875 -54.609375 L 26.546875 -56.328125 L 61.417969 -56.328125 L 61.417969 -36.933594 L 26.546875 -36.933594 L 26.546875 -38.652344 L 28.269531 -38.652344 L 28.269531 -16.09375 L 26.546875 -16.09375 L 26.546875 -17.8125 L 62.382812 -17.8125 Z M 62.382812 1.71875 "/></g></g><g style="fill:#ff3131;fill-opacity:1;"><g transform="translate(575.527376, 125.280277)"><path style="stroke:none" d="M 3.417969 -11.394531 C 10.96875 -3.84375 21.015625 -0.0703125 33.5625 -0.0703125 C 38.285156 -0.0703125 42.539062 -0.734375 46.320312 -2.070312 C 49.898438 -3.332031 52.945312 -5.152344 55.457031 -7.527344 C 57.894531 -9.828125 59.75 -12.574219 61.023438 -15.757812 C 62.296875 -18.949219 62.933594 -22.457031 62.933594 -26.273438 C 62.933594 -33.769531 60.230469 -39.832031 54.832031 -44.46875 C 52.675781 -46.320312 49.964844 -48.058594 46.707031 -49.6875 C 44.601562 -50.742188 41.617188 -52.03125 37.746094 -53.5625 C 35.179688 -54.632812 33.21875 -55.492188 31.867188 -56.148438 C 29.871094 -57.117188 28.242188 -58.070312 26.972656 -59.003906 C 23.710938 -61.40625 22.078125 -64.300781 22.078125 -67.679688 C 22.078125 -70.992188 23.25 -73.671875 25.589844 -75.714844 C 27.910156 -77.738281 30.980469 -78.75 34.800781 -78.75 C 38.554688 -78.75 42.164062 -78.082031 45.632812 -76.746094 C 49.285156 -75.339844 52.53125 -73.28125 55.382812 -70.574219 L 54.199219 -69.328125 L 52.75 -70.257812 L 61.554688 -84.011719 L 63 -83.085938 L 61.824219 -81.832031 C 58.476562 -84.984375 54.554688 -87.382812 50.0625 -89.035156 C 45.515625 -90.707031 40.566406 -91.542969 35.214844 -91.542969 C 30.796875 -91.542969 26.75 -90.867188 23.074219 -89.511719 C 19.625 -88.242188 16.648438 -86.429688 14.140625 -84.082031 C 11.726562 -81.820312 9.878906 -79.183594 8.59375 -76.167969 C 7.3125 -73.160156 6.671875 -69.964844 6.671875 -66.578125 C 6.671875 -59.183594 9.308594 -53.257812 14.585938 -48.804688 C 16.683594 -47.035156 19.328125 -45.371094 22.519531 -43.8125 C 24.441406 -42.875 27.355469 -41.636719 31.257812 -40.105469 C 31.429688 -40.039062 31.535156 -39.996094 31.578125 -39.980469 L 31.601562 -39.96875 L 31.625 -39.960938 C 34.253906 -38.839844 36.246094 -37.941406 37.601562 -37.265625 C 39.65625 -36.242188 41.339844 -35.226562 42.644531 -34.222656 C 45.992188 -31.640625 47.664062 -28.488281 47.664062 -24.761719 C 47.664062 -21.292969 46.386719 -18.457031 43.835938 -16.253906 C 41.214844 -13.992188 37.699219 -12.863281 33.289062 -12.863281 C 28.71875 -12.863281 24.328125 -13.835938 20.117188 -15.789062 C 16.1875 -17.609375 12.816406 -20.078125 10.003906 -23.195312 L 11.28125 -24.347656 L 12.726562 -23.421875 L 3.648438 -9.25 L 2.199219 -10.179688 Z M 0.0078125 -9.941406 L 11.046875 -27.171875 L 12.554688 -25.5 C 15.054688 -22.730469 18.058594 -20.535156 21.5625 -18.910156 C 25.316406 -17.171875 29.226562 -16.300781 33.289062 -16.300781 C 36.847656 -16.300781 39.613281 -17.152344 41.589844 -18.859375 C 43.347656 -20.375 44.226562 -22.34375 44.226562 -24.761719 C 44.226562 -27.359375 42.996094 -29.605469 40.542969 -31.496094 C 39.414062 -32.367188 37.921875 -33.265625 36.066406 -34.1875 C 34.773438 -34.832031 32.84375 -35.703125 30.277344 -36.796875 L 30.949219 -38.378906 L 30.320312 -36.777344 C 30.242188 -36.808594 30.136719 -36.851562 30 -36.90625 C 26.011719 -38.46875 23.015625 -39.742188 21.011719 -40.722656 C 17.5625 -42.40625 14.679688 -44.222656 12.367188 -46.175781 C 6.277344 -51.316406 3.234375 -58.117188 3.234375 -66.578125 C 3.234375 -70.429688 3.964844 -74.078125 5.429688 -77.515625 C 6.902344 -80.972656 9.023438 -84 11.789062 -86.59375 C 14.636719 -89.257812 18 -91.308594 21.882812 -92.738281 C 25.945312 -94.234375 30.386719 -94.984375 35.214844 -94.984375 C 40.972656 -94.984375 46.316406 -94.078125 51.25 -92.265625 C 56.179688 -90.449219 60.492188 -87.808594 64.179688 -84.335938 L 65.21875 -83.359375 L 54.523438 -66.648438 L 53.011719 -68.082031 C 50.496094 -70.476562 47.621094 -72.292969 44.398438 -73.535156 C 41.324219 -74.71875 38.125 -75.3125 34.800781 -75.3125 C 31.839844 -75.3125 29.523438 -74.582031 27.851562 -73.121094 C 26.296875 -71.765625 25.515625 -69.949219 25.515625 -67.679688 C 25.515625 -65.457031 26.683594 -63.488281 29.011719 -61.773438 C 30.109375 -60.964844 31.5625 -60.121094 33.367188 -59.242188 C 34.660156 -58.617188 36.542969 -57.789062 39.011719 -56.757812 C 42.972656 -55.191406 46.050781 -53.863281 48.242188 -52.765625 C 51.757812 -51.007812 54.699219 -49.113281 57.070312 -47.078125 C 63.273438 -41.757812 66.371094 -34.820312 66.371094 -26.273438 C 66.371094 -22.015625 65.652344 -18.085938 64.214844 -14.484375 C 62.757812 -10.828125 60.625 -7.675781 57.820312 -5.027344 C 54.953125 -2.316406 51.5 -0.25 47.464844 1.171875 C 43.3125 2.636719 38.679688 3.371094 33.5625 3.371094 C 20.066406 3.371094 9.207031 -0.742188 0.984375 -8.964844 Z M 0.0078125 -9.941406 "/></g></g></g></g></g></svg>