<svg xmlns="http://www.w3.org/2000/svg" xmlns:xlink="http://www.w3.org/1999/xlink" width="1000" zoomAndPan="magnify" viewBox="0 0 750 749.999995" height="1000" preserveAspectRatio="xMidYMid meet" version="1.2"><defs><filter x="0%" y="0%" width="100%" filterUnits="objectBoundingBox" id="14fd6c79c3" height="100%"><feColorMatrix values="0 0 0 0 1 0 0 0 0 1 0 0 0 0 1 0 0 0 1 0" type="matrix" in="SourceGraphic"/></filter><clipPath id="dfe5960a97"><path d="M 2 0.402344 L 447.648438 0.402344 L 447.648438 445.152344 L 2 445.152344 Z M 2 0.402344 "/></clipPath><clipPath id="6cf0b0ae03"><rect x="0" width="448" y="0" height="447"/></clipPath></defs><g id="409faa6cb0"><g style="fill:#000000;fill-opacity:1;"><g transform="translate(74.999999, 258.417077)"><path style="stroke:none" d="M 15.484375 0 L 5.625 -9.859375 L 5.625 -60.546875 L 15.484375 -60.546875 L 15.484375 -50.6875 L 48.046875 -50.6875 L 57.90625 -40.828125 L 57.90625 -9.859375 L 48.046875 0 Z M 15.484375 -9.859375 L 48.046875 -9.859375 L 48.046875 -40.828125 L 15.484375 -40.828125 Z M 15.484375 -9.859375 "/></g></g><g style="fill:#000000;fill-opacity:1;"><g transform="translate(138.533199, 258.417077)"><path style="stroke:none" d="M 15.484375 0 L 5.625 -9.859375 L 5.625 -50.6875 L 15.484375 -50.6875 L 15.484375 -9.859375 L 49.8125 -9.859375 L 49.8125 -50.6875 L 59.65625 -50.6875 L 59.65625 -9.859375 L 49.8125 0 Z M 15.484375 0 "/></g></g><g style="fill:#000000;fill-opacity:1;"><g transform="translate(203.826317, 258.417077)"><path style="stroke:none" d="M 15.40625 19.71875 L 15.484375 9.859375 L 48.046875 9.859375 L 48.046875 0 L 15.484375 0 L 5.625 -9.859375 L 5.625 -40.828125 L 15.484375 -50.6875 L 48.046875 -50.6875 L 57.90625 -40.828125 L 57.90625 9.859375 L 48.046875 19.71875 Z M 15.484375 -9.859375 L 48.046875 -9.859375 L 48.046875 -40.828125 L 15.484375 -40.828125 Z M 15.484375 -9.859375 "/></g></g><g style="fill:#000000;fill-opacity:1;"><g transform="translate(267.359518, 258.417077)"><path style="stroke:none" d=""/></g></g><g style="fill:#000000;fill-opacity:1;"><g transform="translate(311.357563, 258.417077)"><path style="stroke:none" d="M 15.484375 0 L 5.625 -9.859375 L 5.625 -60.546875 L 15.484375 -60.546875 L 15.484375 -50.6875 L 48.046875 -50.6875 L 57.90625 -40.828125 L 57.90625 -9.859375 L 48.046875 0 Z M 15.484375 -9.859375 L 48.046875 -9.859375 L 48.046875 -40.828125 L 15.484375 -40.828125 Z M 15.484375 -9.859375 "/></g></g><g style="fill:#000000;fill-opacity:1;"><g transform="translate(374.890763, 258.417077)"><path style="stroke:none" d="M 15.484375 0 L 5.625 -9.859375 L 5.625 -40.828125 L 15.484375 -50.6875 L 49.8125 -50.6875 L 59.65625 -40.828125 L 59.65625 -9.859375 L 49.8125 0 Z M 15.484375 -9.859375 L 49.8125 -9.859375 L 49.8125 -40.828125 L 15.484375 -40.828125 Z M 15.484375 -9.859375 "/></g></g><g style="fill:#000000;fill-opacity:1;"><g transform="translate(440.183881, 258.417077)"><path style="stroke:none" d="M 15.484375 0 L 5.625 -9.859375 L 5.625 -50.6875 L 15.484375 -50.6875 L 15.484375 -9.859375 L 49.8125 -9.859375 L 49.8125 -50.6875 L 59.65625 -50.6875 L 59.65625 -9.859375 L 49.8125 0 Z M 15.484375 0 "/></g></g><g style="fill:#000000;fill-opacity:1;"><g transform="translate(505.477, 258.417077)"><path style="stroke:none" d="M 5.625 0 L 5.625 -40.828125 L 15.484375 -50.6875 L 49.8125 -50.6875 L 59.65625 -40.828125 L 59.65625 0 L 49.8125 0 L 49.8125 -40.828125 L 15.484375 -40.828125 L 15.484375 0 Z M 5.625 0 "/></g></g><g style="fill:#000000;fill-opacity:1;"><g transform="translate(570.770118, 258.417077)"><path style="stroke:none" d="M 26.84375 0 L 26.84375 -40.828125 L 5.625 -40.828125 L 5.625 -50.6875 L 57.90625 -50.6875 L 57.90625 -40.828125 L 36.703125 -40.828125 L 36.703125 0 Z M 26.84375 0 "/></g></g><g style="fill:#000000;fill-opacity:1;"><g transform="translate(634.303318, 258.417077)"><path style="stroke:none" d="M 17.15625 0 L 17.25 -9.859375 L 49.8125 -9.859375 L 49.8125 -20.421875 L 15.484375 -20.421875 L 5.625 -30.265625 L 5.625 -50.6875 L 15.484375 -50.6875 L 15.484375 -30.265625 L 49.8125 -30.265625 L 49.8125 -50.6875 L 59.65625 -50.6875 L 59.65625 -9.859375 L 49.8125 0 Z M 17.15625 0 "/></g></g><g style="fill:#000000;fill-opacity:1;"><g transform="translate(198.726555, 381.417071)"><path style="stroke:none" d="M 5.625 0 L 5.625 -40.828125 L 15.484375 -50.6875 L 54.203125 -50.6875 L 54.203125 -40.828125 L 15.484375 -40.828125 L 15.484375 0 Z M 5.625 0 "/></g></g><g style="fill:#000000;fill-opacity:1;"><g transform="translate(258.56392, 381.417071)"><path style="stroke:none" d="M 15.484375 0 L 5.625 -9.859375 L 5.625 -40.828125 L 15.484375 -50.6875 L 59.484375 -50.6875 L 59.484375 -40.828125 L 15.484375 -40.828125 L 15.484375 -30.265625 L 48.046875 -30.265625 L 48.046875 -20.421875 L 15.484375 -20.421875 L 15.484375 -9.859375 L 59.484375 -9.859375 L 59.484375 0 Z M 15.484375 0 "/></g></g><g style="fill:#000000;fill-opacity:1;"><g transform="translate(323.681051, 381.417071)"><path style="stroke:none" d="M 5.625 9.859375 L 5.625 -40.828125 L 15.484375 -50.6875 L 48.046875 -50.6875 L 57.90625 -40.828125 L 57.90625 -9.859375 L 48.046875 0 L 15.484375 0 L 15.484375 9.859375 Z M 15.484375 -9.859375 L 48.046875 -9.859375 L 48.046875 -40.828125 L 15.484375 -40.828125 Z M 15.484375 -9.859375 "/></g></g><g style="fill:#000000;fill-opacity:1;"><g transform="translate(387.214251, 381.417071)"><path style="stroke:none" d="M 15.484375 0 L 5.625 -9.859375 L 5.625 -40.828125 L 15.484375 -50.6875 L 49.8125 -50.6875 L 59.65625 -40.828125 L 59.65625 -9.859375 L 49.8125 0 Z M 15.484375 -9.859375 L 49.8125 -9.859375 L 49.8125 -40.828125 L 15.484375 -40.828125 Z M 15.484375 -9.859375 "/></g></g><g style="fill:#000000;fill-opacity:1;"><g transform="translate(452.507381, 381.417071)"><path style="stroke:none" d="M 5.625 0 L 5.625 -40.828125 L 15.484375 -50.6875 L 54.203125 -50.6875 L 54.203125 -40.828125 L 15.484375 -40.828125 L 15.484375 0 Z M 5.625 0 "/></g></g><g style="fill:#000000;fill-opacity:1;"><g transform="translate(512.344734, 381.417071)"><path style="stroke:none" d="M 26.84375 0 L 26.84375 -40.828125 L 5.625 -40.828125 L 5.625 -50.6875 L 57.90625 -50.6875 L 57.90625 -40.828125 L 36.703125 -40.828125 L 36.703125 0 Z M 26.84375 0 "/></g></g><g style="fill:#000000;fill-opacity:1;"><g transform="translate(100.874998, 504.417065)"><path style="stroke:none" d="M 15.40625 19.71875 L 15.484375 9.859375 L 48.046875 9.859375 L 48.046875 0 L 15.484375 0 L 5.625 -9.859375 L 5.625 -40.828125 L 15.484375 -50.6875 L 48.046875 -50.6875 L 57.90625 -40.828125 L 57.90625 9.859375 L 48.046875 19.71875 Z M 15.484375 -9.859375 L 48.046875 -9.859375 L 48.046875 -40.828125 L 15.484375 -40.828125 Z M 15.484375 -9.859375 "/></g></g><g style="fill:#000000;fill-opacity:1;"><g transform="translate(164.408198, 504.417065)"><path style="stroke:none" d="M 15.484375 0 L 5.625 -9.859375 L 5.625 -40.828125 L 15.484375 -50.6875 L 59.484375 -50.6875 L 59.484375 -40.828125 L 15.484375 -40.828125 L 15.484375 -30.265625 L 48.046875 -30.265625 L 48.046875 -20.421875 L 15.484375 -20.421875 L 15.484375 -9.859375 L 59.484375 -9.859375 L 59.484375 0 Z M 15.484375 0 "/></g></g><g style="fill:#000000;fill-opacity:1;"><g transform="translate(229.525329, 504.417065)"><path style="stroke:none" d="M 5.625 0 L 5.625 -40.828125 L 15.484375 -50.6875 L 49.8125 -50.6875 L 59.65625 -40.828125 L 59.65625 0 L 49.8125 0 L 49.8125 -40.828125 L 15.484375 -40.828125 L 15.484375 0 Z M 5.625 0 "/></g></g><g style="fill:#000000;fill-opacity:1;"><g transform="translate(294.818447, 504.417065)"><path style="stroke:none" d="M 15.484375 0 L 5.625 -9.859375 L 5.625 -40.828125 L 15.484375 -50.6875 L 59.484375 -50.6875 L 59.484375 -40.828125 L 15.484375 -40.828125 L 15.484375 -30.265625 L 48.046875 -30.265625 L 48.046875 -20.421875 L 15.484375 -20.421875 L 15.484375 -9.859375 L 59.484375 -9.859375 L 59.484375 0 Z M 15.484375 0 "/></g></g><g style="fill:#000000;fill-opacity:1;"><g transform="translate(359.935577, 504.417065)"><path style="stroke:none" d="M 5.625 0 L 5.625 -40.828125 L 15.484375 -50.6875 L 54.203125 -50.6875 L 54.203125 -40.828125 L 15.484375 -40.828125 L 15.484375 0 Z M 5.625 0 "/></g></g><g style="fill:#000000;fill-opacity:1;"><g transform="translate(419.772931, 504.417065)"><path style="stroke:none" d="M 5.625 0 L 5.625 -40.828125 L 15.484375 -50.6875 L 49.8125 -50.6875 L 59.65625 -40.828125 L 59.65625 0 L 49.8125 0 L 49.8125 -20.421875 L 15.484375 -20.421875 L 15.484375 0 Z M 15.484375 -30.265625 L 49.8125 -30.265625 L 49.8125 -40.828125 L 15.484375 -40.828125 Z M 15.484375 -30.265625 "/></g></g><g style="fill:#000000;fill-opacity:1;"><g transform="translate(485.066049, 504.417065)"><path style="stroke:none" d="M 26.84375 0 L 26.84375 -40.828125 L 5.625 -40.828125 L 5.625 -50.6875 L 57.90625 -50.6875 L 57.90625 -40.828125 L 36.703125 -40.828125 L 36.703125 0 Z M 26.84375 0 "/></g></g><g style="fill:#000000;fill-opacity:1;"><g transform="translate(548.599249, 504.417065)"><path style="stroke:none" d="M 15.484375 0 L 5.625 -9.859375 L 5.625 -40.828125 L 15.484375 -50.6875 L 49.8125 -50.6875 L 59.65625 -40.828125 L 59.65625 -9.859375 L 49.8125 0 Z M 15.484375 -9.859375 L 49.8125 -9.859375 L 49.8125 -40.828125 L 15.484375 -40.828125 Z M 15.484375 -9.859375 "/></g></g><g style="fill:#000000;fill-opacity:1;"><g transform="translate(613.892367, 504.417065)"><path style="stroke:none" d="M 5.625 0 L 5.625 -40.828125 L 15.484375 -50.6875 L 54.203125 -50.6875 L 54.203125 -40.828125 L 15.484375 -40.828125 L 15.484375 0 Z M 5.625 0 "/></g></g><g mask="url(#9fbcad0a7e)" transform="matrix(1,0,0,1,151,133)"><g clip-path="url(#6cf0b0ae03)"><g clip-rule="nonzero" clip-path="url(#dfe5960a97)"><path style=" stroke:none;fill-rule:nonzero;fill:#000000;fill-opacity:1;" d="M 410.476562 0.503906 L 80.292969 0.503906 C 59.792969 0.503906 43.117188 17.15625 43.117188 37.628906 L 43.117188 243.714844 C 43.117188 264.1875 59.792969 280.839844 80.292969 280.839844 L 123.066406 280.839844 C 124.71875 283.972656 126.488281 287.03125 128.378906 290.007812 L 98.316406 319.140625 C 95.652344 317.628906 92.628906 316.792969 89.46875 316.742188 C 84.511719 316.699219 79.859375 318.515625 76.328125 321.9375 L 8.125 388.035156 C 0.816406 395.117188 0.644531 406.816406 7.734375 414.117188 L 32.355469 439.460938 C 35.972656 443.179688 40.789062 445.050781 45.613281 445.050781 C 50.25 445.050781 54.890625 443.320312 58.472656 439.851562 L 126.675781 373.757812 C 128.054688 372.421875 129.1875 370.902344 130.074219 369.257812 L 377.929688 369.257812 C 381.894531 369.257812 385.109375 366.046875 385.109375 362.085938 L 385.109375 341.675781 C 385.109375 326.46875 370.414062 314.09375 352.351562 314.09375 L 330.753906 314.09375 C 340.730469 304.4375 349.179688 293.222656 355.707031 280.839844 L 410.472656 280.839844 C 430.972656 280.839844 447.648438 264.1875 447.648438 243.714844 L 447.648438 37.628906 C 447.648438 17.15625 430.972656 0.503906 410.476562 0.503906 Z M 148.265625 314.335938 L 120.667969 341.082031 L 108.851562 328.917969 L 136.824219 301.808594 C 140.367188 306.226562 144.191406 310.410156 148.265625 314.335938 Z M 116.679688 363.464844 L 48.476562 429.558594 C 46.875 431.109375 44.214844 431.070312 42.660156 429.472656 L 18.039062 404.128906 C 16.488281 402.53125 16.527344 399.875 18.128906 398.324219 L 86.332031 332.226562 C 87.09375 331.488281 88.105469 331.082031 89.1875 331.082031 C 89.210938 331.082031 89.230469 331.082031 89.253906 331.082031 C 90.363281 331.097656 91.386719 331.535156 92.144531 332.316406 L 116.765625 357.65625 C 117.523438 358.4375 117.929688 359.472656 117.914062 360.578125 C 117.894531 361.683594 117.457031 362.710938 116.679688 363.464844 Z M 352.351562 328.433594 C 362.328125 328.433594 370.753906 334.5 370.753906 341.675781 L 370.753906 354.917969 L 131.394531 354.917969 C 131.066406 353.871094 130.648438 352.859375 130.136719 351.890625 L 154.339844 328.433594 L 165.628906 328.433594 C 186.667969 342.746094 212.066406 351.121094 239.386719 351.121094 C 266.707031 351.121094 292.105469 342.746094 313.148438 328.433594 Z M 239.386719 336.78125 C 174.863281 336.78125 122.371094 284.355469 122.371094 219.914062 C 122.371094 155.476562 174.863281 103.050781 239.386719 103.050781 C 303.910156 103.050781 356.402344 155.476562 356.402344 219.914062 C 356.402344 284.355469 303.910156 336.78125 239.386719 336.78125 Z M 108.074219 216.039062 L 82.558594 216.039062 L 82.558594 39.894531 L 408.207031 39.894531 L 408.207031 216.039062 L 370.699219 216.039062 C 368.636719 145.480469 310.527344 88.710938 239.386719 88.710938 C 168.246094 88.710938 110.136719 145.480469 108.074219 216.039062 Z M 433.292969 243.714844 C 433.292969 256.28125 423.054688 266.5 410.476562 266.5 L 362.199219 266.5 C 366.539062 255.128906 369.34375 243.003906 370.34375 230.378906 L 415.386719 230.378906 C 419.351562 230.378906 422.566406 227.171875 422.566406 223.210938 L 422.566406 36.878906 C 422.566406 30.632812 417.480469 25.554688 411.226562 25.554688 L 79.539062 25.554688 C 73.289062 25.554688 68.203125 30.632812 68.203125 36.878906 L 68.203125 223.210938 C 68.203125 227.171875 71.417969 230.378906 75.378906 230.378906 L 108.433594 230.378906 C 109.433594 243.003906 112.238281 255.128906 116.578125 266.5 L 80.292969 266.5 C 67.710938 266.5 57.476562 256.28125 57.476562 243.714844 L 57.476562 37.628906 C 57.476562 25.066406 67.710938 14.84375 80.292969 14.84375 L 410.476562 14.84375 C 423.054688 14.84375 433.292969 25.066406 433.292969 37.628906 Z M 239.386719 121.6875 C 185.152344 121.6875 141.03125 165.753906 141.03125 219.914062 C 141.03125 274.078125 185.152344 318.144531 239.386719 318.144531 C 293.621094 318.144531 337.746094 274.082031 337.746094 219.914062 C 337.746094 165.75 293.621094 121.6875 239.386719 121.6875 Z M 239.386719 303.804688 C 193.070312 303.804688 155.390625 266.171875 155.390625 219.914062 C 155.390625 173.660156 193.070312 136.027344 239.386719 136.027344 C 285.703125 136.027344 323.386719 173.660156 323.386719 219.914062 C 323.386719 266.171875 285.703125 303.804688 239.386719 303.804688 Z M 288.054688 244.707031 C 286.6875 243.105469 284.6875 242.179688 282.582031 242.179688 L 273.53125 242.179688 C 274.332031 239.351562 274.964844 236.398438 275.410156 233.335938 L 295.476562 233.335938 C 299.441406 233.335938 302.65625 230.125 302.65625 226.164062 C 302.65625 222.207031 299.441406 218.996094 295.476562 218.996094 L 276.128906 218.996094 C 275.996094 215.992188 275.683594 213.035156 275.199219 210.148438 L 282.582031 210.148438 C 284.6875 210.148438 286.6875 209.226562 288.050781 207.625 L 299.871094 193.734375 C 302.4375 190.71875 302.070312 186.191406 299.050781 183.628906 C 296.027344 181.0625 291.496094 181.429688 288.929688 184.449219 L 279.261719 195.808594 L 271.171875 195.808594 C 268.886719 190.234375 265.863281 185.28125 262.242188 181.238281 C 262.316406 180.5 262.351562 179.753906 262.351562 179.003906 C 262.351562 174.554688 261.070312 170.398438 258.863281 166.875 L 261.78125 161.832031 C 263.765625 158.402344 262.585938 154.015625 259.152344 152.035156 C 255.71875 150.054688 251.328125 151.230469 249.347656 154.660156 L 247.640625 157.609375 C 245.078125 156.621094 242.296875 156.070312 239.386719 156.070312 C 236.476562 156.070312 233.699219 156.621094 231.132812 157.609375 L 229.429688 154.660156 C 227.445312 151.230469 223.054688 150.054688 219.621094 152.035156 C 216.1875 154.015625 215.011719 158.402344 216.996094 161.828125 L 219.910156 166.875 C 217.703125 170.398438 216.425781 174.554688 216.425781 179.003906 C 216.425781 179.753906 216.460938 180.5 216.53125 181.238281 C 212.910156 185.28125 209.886719 190.234375 207.601562 195.808594 L 200.109375 195.808594 L 190.445312 184.449219 C 187.875 181.429688 183.34375 181.0625 180.324219 183.625 C 177.304688 186.191406 176.933594 190.714844 179.503906 193.734375 L 191.320312 207.621094 C 192.683594 209.226562 194.683594 210.148438 196.789062 210.148438 L 203.574219 210.148438 C 203.089844 213.035156 202.777344 215.992188 202.644531 218.996094 L 183.300781 218.996094 C 179.335938 218.996094 176.121094 222.203125 176.121094 226.164062 C 176.121094 230.125 179.335938 233.335938 183.300781 233.335938 L 203.363281 233.335938 C 203.808594 236.398438 204.441406 239.351562 205.242188 242.179688 L 196.789062 242.179688 C 194.683594 242.179688 192.683594 243.101562 191.320312 244.707031 L 179.5 258.59375 C 176.933594 261.613281 177.300781 266.136719 180.324219 268.703125 C 181.675781 269.847656 183.324219 270.40625 184.96875 270.40625 C 187.003906 270.40625 189.023438 269.546875 190.441406 267.882812 L 200.109375 256.519531 L 211.375 256.519531 C 218.078125 267.585938 228.054688 274.5 239.386719 274.5 C 250.71875 274.5 260.695312 267.585938 267.398438 256.519531 L 279.261719 256.519531 L 288.929688 267.882812 C 290.347656 269.550781 292.367188 270.40625 294.402344 270.40625 C 296.046875 270.40625 297.699219 269.847656 299.046875 268.699219 C 302.070312 266.136719 302.4375 261.613281 299.871094 258.59375 Z M 247.902344 177.824219 L 230.875 177.824219 C 231.453125 173.644531 235.042969 170.410156 239.386719 170.410156 C 243.730469 170.410156 247.324219 173.644531 247.902344 177.824219 Z M 222.292969 246.550781 C 222.195312 246.320312 222.085938 246.097656 221.964844 245.882812 C 218.832031 239.363281 216.925781 231.140625 216.925781 222.320312 C 216.925781 216.351562 217.777344 210.605469 219.347656 205.441406 C 219.414062 205.269531 219.472656 205.09375 219.523438 204.914062 C 221.078125 200.007812 223.285156 195.648438 226.050781 192.167969 L 232.207031 192.167969 L 232.207031 258.085938 C 228.339844 255.804688 224.917969 251.761719 222.292969 246.550781 Z M 246.566406 258.085938 L 246.566406 192.167969 L 252.722656 192.167969 C 255.488281 195.648438 257.699219 200.011719 259.253906 204.917969 C 259.300781 205.09375 259.359375 205.265625 259.421875 205.433594 C 260.996094 210.597656 261.847656 216.347656 261.847656 222.320312 C 261.847656 231.136719 259.945312 239.359375 256.808594 245.878906 C 256.6875 246.097656 256.574219 246.324219 256.472656 246.558594 C 253.855469 251.765625 250.433594 255.808594 246.566406 258.085938 Z M 246.566406 258.085938 "/></g></g><mask id="9fbcad0a7e"><g filter="url(#14fd6c79c3)"><rect x="0" width="750" y="0" height="749.999995" style="fill:#000000;fill-opacity:0.4;stroke:none;"/></g></mask></g></g></svg>