<svg xmlns="http://www.w3.org/2000/svg" xmlns:xlink="http://www.w3.org/1999/xlink" width="1000" zoomAndPan="magnify" viewBox="0 0 750 749.999995" height="1000" preserveAspectRatio="xMidYMid meet" version="1.2"><defs><clipPath id="8482032fe2"><rect x="0" width="706" y="0" height="344"/></clipPath><filter x="0%" y="0%" width="100%" filterUnits="objectBoundingBox" id="5ad9bfd24d" height="100%"><feColorMatrix values="0 0 0 0 1 0 0 0 0 1 0 0 0 0 1 0 0 0 1 0" type="matrix" in="SourceGraphic"/></filter><clipPath id="cec0997be4"><path d="M 1 1 L 419.792969 1 L 419.792969 420.089844 L 1 420.089844 Z M 1 1 "/></clipPath><clipPath id="695abe202a"><path d="M 202 1 L 220 1 L 220 420.089844 L 202 420.089844 Z M 202 1 "/></clipPath><clipPath id="3e2d14fdb1"><path d="M 1 202 L 419.792969 202 L 419.792969 221 L 1 221 Z M 1 202 "/></clipPath><clipPath id="0b1a5f8044"><path d="M 1 1 L 419.792969 1 L 419.792969 420.089844 L 1 420.089844 Z M 1 1 "/></clipPath><clipPath id="9bd1cac3d1"><rect x="0" width="420" y="0" height="421"/></clipPath></defs><g id="be82b96e4b"><g transform="matrix(1,0,0,1,23,205)"><g clip-path="url(#8482032fe2)"><g style="fill:#000000;fill-opacity:1;"><g transform="translate(0.695548, 111.383497)"><path style="stroke:none" d="M 70.484375 -1.703125 C 70.484375 -0.566406 70.007812 0.09375 69.0625 0.28125 C 67.257812 0.46875 64.703125 0.609375 61.390625 0.703125 C 58.078125 0.804688 54.617188 0.878906 51.015625 0.921875 C 47.410156 0.972656 44.191406 1 41.359375 1 C 31.410156 1 23.875 -1.035156 18.75 -5.109375 C 13.632812 -9.191406 11.078125 -15.96875 11.078125 -25.4375 L 11.078125 -80.15625 C 11.078125 -89.625 13.632812 -96.394531 18.75 -100.46875 C 23.875 -104.539062 31.410156 -106.578125 41.359375 -106.578125 C 44.191406 -106.578125 47.382812 -106.550781 50.9375 -106.5 C 54.5 -106.457031 57.910156 -106.363281 61.171875 -106.21875 C 64.441406 -106.082031 67.070312 -105.921875 69.0625 -105.734375 C 70.007812 -105.535156 70.484375 -104.867188 70.484375 -103.734375 L 70.484375 -96.640625 C 70.484375 -95.492188 69.960938 -94.921875 68.921875 -94.921875 L 41.5 -94.921875 C 36.476562 -94.921875 32.710938 -94.445312 30.203125 -93.5 C 27.691406 -92.5625 26.03125 -91 25.21875 -88.8125 C 24.414062 -86.632812 24.015625 -83.75 24.015625 -80.15625 L 24.015625 -60.390625 L 67.640625 -60.390625 C 68.398438 -60.390625 69.0625 -60.101562 69.625 -59.53125 C 70.195312 -58.96875 70.484375 -58.304688 70.484375 -57.546875 L 70.484375 -52.15625 C 70.484375 -51.394531 70.195312 -50.726562 69.625 -50.15625 C 69.0625 -49.59375 68.398438 -49.3125 67.640625 -49.3125 L 24.015625 -49.3125 L 24.015625 -25.4375 C 24.015625 -21.832031 24.414062 -18.941406 25.21875 -16.765625 C 26.03125 -14.585938 27.691406 -13.023438 30.203125 -12.078125 C 32.710938 -11.128906 36.476562 -10.65625 41.5 -10.65625 L 68.921875 -10.65625 C 69.960938 -10.65625 70.484375 -10.085938 70.484375 -8.953125 Z M 70.484375 -1.703125 "/></g></g><g style="fill:#000000;fill-opacity:1;"><g transform="translate(78.995081, 111.383497)"><path style="stroke:none" d="M 85.40625 -43.625 C 85.40625 -34.15625 84.054688 -26.289062 81.359375 -20.03125 C 78.660156 -13.78125 74.894531 -8.972656 70.0625 -5.609375 C 65.226562 -2.242188 59.640625 -0.1875 53.296875 0.5625 L 53.296875 23.453125 C 53.296875 24.203125 53.082031 24.863281 52.65625 25.4375 C 52.226562 26.007812 51.632812 26.296875 50.875 26.296875 L 43.203125 26.296875 C 42.441406 26.296875 41.847656 26.007812 41.421875 25.4375 C 40.992188 24.863281 40.78125 24.203125 40.78125 23.453125 L 40.78125 0.5625 C 34.4375 -0.28125 28.847656 -2.359375 24.015625 -5.671875 C 19.179688 -8.992188 15.390625 -13.78125 12.640625 -20.03125 C 9.898438 -26.289062 8.53125 -34.15625 8.53125 -43.625 L 8.53125 -61.953125 C 8.53125 -72.472656 10.1875 -81 13.5 -87.53125 C 16.8125 -94.070312 21.378906 -98.878906 27.203125 -101.953125 C 33.035156 -105.035156 39.644531 -106.578125 47.03125 -106.578125 C 54.519531 -106.578125 61.128906 -105.035156 66.859375 -101.953125 C 72.585938 -98.878906 77.109375 -94.070312 80.421875 -87.53125 C 83.742188 -81 85.40625 -72.472656 85.40625 -61.953125 Z M 72.328125 -43.625 L 72.328125 -61.953125 C 72.328125 -73.890625 70.078125 -82.367188 65.578125 -87.390625 C 61.078125 -92.410156 54.894531 -94.921875 47.03125 -94.921875 C 39.269531 -94.921875 33.085938 -92.410156 28.484375 -87.390625 C 23.890625 -82.367188 21.59375 -73.890625 21.59375 -61.953125 L 21.59375 -43.625 C 21.59375 -31.6875 23.890625 -23.207031 28.484375 -18.1875 C 33.085938 -13.164062 39.269531 -10.65625 47.03125 -10.65625 C 54.800781 -10.65625 60.957031 -13.164062 65.5 -18.1875 C 70.050781 -23.207031 72.328125 -31.6875 72.328125 -43.625 Z M 72.328125 -43.625 "/></g></g><g style="fill:#000000;fill-opacity:1;"><g transform="translate(172.926112, 111.383497)"><path style="stroke:none" d="M 82.984375 -5.109375 C 82.984375 -3.316406 82.675781 -2.160156 82.0625 -1.640625 C 81.445312 -1.117188 80.429688 -0.757812 79.015625 -0.5625 C 76.546875 -0.1875 73.394531 0.113281 69.5625 0.34375 C 65.726562 0.582031 61.914062 0.773438 58.125 0.921875 C 54.332031 1.066406 51.207031 1.140625 48.75 1.140625 C 40.21875 1.140625 33.085938 -0.0859375 27.359375 -2.546875 C 21.628906 -5.015625 17.296875 -9.253906 14.359375 -15.265625 C 11.421875 -21.285156 9.953125 -29.507812 9.953125 -39.9375 L 9.953125 -102.75 C 9.953125 -103.5 10.1875 -104.160156 10.65625 -104.734375 C 11.132812 -105.304688 11.75 -105.59375 12.5 -105.59375 L 20.46875 -105.59375 C 21.21875 -105.59375 21.804688 -105.304688 22.234375 -104.734375 C 22.660156 -104.160156 22.875 -103.5 22.875 -102.75 L 22.875 -39.9375 C 22.875 -31.6875 23.820312 -25.429688 25.71875 -21.171875 C 27.613281 -16.910156 30.503906 -14.019531 34.390625 -12.5 C 38.273438 -10.988281 43.15625 -10.234375 49.03125 -10.234375 C 51.113281 -10.234375 53.578125 -10.28125 56.421875 -10.375 C 59.265625 -10.46875 61.960938 -10.582031 64.515625 -10.71875 C 67.078125 -10.863281 68.925781 -10.984375 70.0625 -11.078125 L 70.0625 -102.75 C 70.0625 -103.5 70.296875 -104.160156 70.765625 -104.734375 C 71.242188 -105.304688 71.863281 -105.59375 72.625 -105.59375 L 80.4375 -105.59375 C 81.195312 -105.59375 81.8125 -105.304688 82.28125 -104.734375 C 82.75 -104.160156 82.984375 -103.5 82.984375 -102.75 Z M 82.984375 -5.109375 "/></g></g><g style="fill:#000000;fill-opacity:1;"><g transform="translate(266.999289, 111.383497)"><path style="stroke:none" d="M 80.4375 -2.84375 C 80.4375 -2.175781 80.195312 -1.535156 79.71875 -0.921875 C 79.25 -0.304688 78.632812 0 77.875 0 L 70.0625 0 C 69.394531 0 68.800781 -0.28125 68.28125 -0.84375 C 67.757812 -1.414062 67.5 -2.082031 67.5 -2.84375 L 67.5 -44.90625 L 24.015625 -44.90625 L 24.015625 -2.84375 C 24.015625 -2.175781 23.773438 -1.535156 23.296875 -0.921875 C 22.828125 -0.304688 22.210938 0 21.453125 0 L 13.640625 0 C 12.972656 0 12.378906 -0.304688 11.859375 -0.921875 C 11.335938 -1.535156 11.078125 -2.175781 11.078125 -2.84375 L 11.078125 -77.171875 C 11.078125 -88.066406 13.613281 -95.691406 18.6875 -100.046875 C 23.757812 -104.398438 31.410156 -106.578125 41.640625 -106.578125 L 49.875 -106.578125 C 60.019531 -106.578125 67.648438 -104.398438 72.765625 -100.046875 C 77.878906 -95.691406 80.4375 -88.066406 80.4375 -77.171875 Z M 67.5 -56.28125 L 67.5 -77.171875 C 67.5 -82.097656 66.929688 -85.863281 65.796875 -88.46875 C 64.660156 -91.070312 62.8125 -92.847656 60.25 -93.796875 C 57.695312 -94.742188 54.238281 -95.21875 49.875 -95.21875 L 41.640625 -95.21875 C 37.378906 -95.21875 33.941406 -94.742188 31.328125 -93.796875 C 28.722656 -92.847656 26.851562 -91.070312 25.71875 -88.46875 C 24.582031 -85.863281 24.015625 -82.097656 24.015625 -77.171875 L 24.015625 -56.28125 Z M 67.5 -56.28125 "/></g></g><g style="fill:#000000;fill-opacity:1;"><g transform="translate(358.514537, 111.383497)"><path style="stroke:none" d="M 78.875 -96.78125 C 78.875 -95.257812 77.972656 -94.5 76.171875 -94.5 L 48.453125 -94.5 L 48.453125 -2.84375 C 48.453125 -2.175781 48.210938 -1.535156 47.734375 -0.921875 C 47.265625 -0.304688 46.65625 0 45.90625 0 L 38.078125 0 C 37.421875 0 36.832031 -0.28125 36.3125 -0.84375 C 35.789062 -1.414062 35.53125 -2.082031 35.53125 -2.84375 L 35.53125 -94.5 L 7.8125 -94.5 C 7.050781 -94.5 6.382812 -94.6875 5.8125 -95.0625 C 5.25 -95.445312 4.96875 -96.019531 4.96875 -96.78125 L 4.96875 -103.03125 C 4.96875 -103.789062 5.25 -104.40625 5.8125 -104.875 C 6.382812 -105.351562 7.050781 -105.59375 7.8125 -105.59375 L 76.171875 -105.59375 C 77.972656 -105.59375 78.875 -104.738281 78.875 -103.03125 Z M 78.875 -96.78125 "/></g></g><g style="fill:#000000;fill-opacity:1;"><g transform="translate(442.356176, 111.383497)"><path style="stroke:none" d="M 85.40625 -43.625 C 85.40625 -33.113281 83.742188 -24.585938 80.421875 -18.046875 C 77.109375 -11.515625 72.585938 -6.707031 66.859375 -3.625 C 61.128906 -0.539062 54.519531 1 47.03125 1 C 39.644531 1 33.035156 -0.539062 27.203125 -3.625 C 21.378906 -6.707031 16.8125 -11.515625 13.5 -18.046875 C 10.1875 -24.585938 8.53125 -33.113281 8.53125 -43.625 L 8.53125 -61.953125 C 8.53125 -72.472656 10.1875 -81 13.5 -87.53125 C 16.8125 -94.070312 21.378906 -98.878906 27.203125 -101.953125 C 33.035156 -105.035156 39.644531 -106.578125 47.03125 -106.578125 C 54.519531 -106.578125 61.128906 -105.035156 66.859375 -101.953125 C 72.585938 -98.878906 77.109375 -94.070312 80.421875 -87.53125 C 83.742188 -81 85.40625 -72.472656 85.40625 -61.953125 Z M 72.328125 -43.625 L 72.328125 -61.953125 C 72.328125 -73.890625 70.078125 -82.367188 65.578125 -87.390625 C 61.078125 -92.410156 54.894531 -94.921875 47.03125 -94.921875 C 39.269531 -94.921875 33.085938 -92.410156 28.484375 -87.390625 C 23.890625 -82.367188 21.59375 -73.890625 21.59375 -61.953125 L 21.59375 -43.625 C 21.59375 -31.6875 23.890625 -23.207031 28.484375 -18.1875 C 33.085938 -13.164062 39.269531 -10.65625 47.03125 -10.65625 C 54.800781 -10.65625 60.957031 -13.164062 65.5 -18.1875 C 70.050781 -23.207031 72.328125 -31.6875 72.328125 -43.625 Z M 72.328125 -43.625 "/></g></g><g style="fill:#000000;fill-opacity:1;"><g transform="translate(536.287207, 111.383497)"><path style="stroke:none" d="M 83.28125 -1.84375 C 83.28125 -0.613281 82.660156 0 81.421875 0 L 72.328125 0 C 71.484375 0 70.796875 -0.0664062 70.265625 -0.203125 C 69.742188 -0.347656 69.203125 -0.894531 68.640625 -1.84375 L 43.203125 -44.203125 C 43.015625 -44.203125 42.800781 -44.203125 42.5625 -44.203125 C 42.320312 -44.203125 42.109375 -44.203125 41.921875 -44.203125 C 41.546875 -44.203125 41.164062 -44.203125 40.78125 -44.203125 C 40.40625 -44.203125 39.976562 -44.203125 39.5 -44.203125 C 37.132812 -44.203125 34.882812 -44.25 32.75 -44.34375 C 30.625 -44.4375 27.664062 -44.53125 23.875 -44.625 L 23.875 -2.84375 C 23.875 -2.175781 23.632812 -1.535156 23.15625 -0.921875 C 22.6875 -0.304688 22.070312 0 21.3125 0 L 13.640625 0 C 12.972656 0 12.378906 -0.28125 11.859375 -0.84375 C 11.335938 -1.414062 11.078125 -2.082031 11.078125 -2.84375 L 11.078125 -102.3125 C 11.078125 -104.113281 12.21875 -105.15625 14.5 -105.4375 C 17.53125 -105.820312 21.4375 -106.109375 26.21875 -106.296875 C 31 -106.484375 35.425781 -106.578125 39.5 -106.578125 C 46.988281 -106.578125 53.738281 -105.628906 59.75 -103.734375 C 65.769531 -101.835938 70.53125 -98.664062 74.03125 -94.21875 C 77.539062 -89.769531 79.296875 -83.707031 79.296875 -76.03125 L 79.296875 -75.03125 C 79.296875 -67.070312 77.1875 -60.722656 72.96875 -55.984375 C 68.757812 -51.253906 63.429688 -48.035156 56.984375 -46.328125 L 82.84375 -3.125 C 83.132812 -2.75 83.28125 -2.320312 83.28125 -1.84375 Z M 66.5 -75.03125 L 66.5 -76.03125 C 66.5 -83.132812 64.222656 -88.054688 59.671875 -90.796875 C 55.128906 -93.546875 48.40625 -94.921875 39.5 -94.921875 C 38.082031 -94.921875 36.351562 -94.921875 34.3125 -94.921875 C 32.28125 -94.921875 30.316406 -94.894531 28.421875 -94.84375 C 26.523438 -94.800781 25.007812 -94.6875 23.875 -94.5 L 23.875 -55.5625 C 27 -55.46875 29.984375 -55.394531 32.828125 -55.34375 C 35.671875 -55.300781 37.894531 -55.28125 39.5 -55.28125 C 48.21875 -55.28125 54.894531 -56.648438 59.53125 -59.390625 C 64.175781 -62.140625 66.5 -67.351562 66.5 -75.03125 Z M 66.5 -75.03125 "/></g></g><g style="fill:#000000;fill-opacity:1;"><g transform="translate(625.1025, 111.383497)"><path style="stroke:none" d="M 71.0625 -27.421875 C 71.0625 -24.015625 70.535156 -20.628906 69.484375 -17.265625 C 68.441406 -13.898438 66.617188 -10.84375 64.015625 -8.09375 C 61.410156 -5.351562 57.832031 -3.148438 53.28125 -1.484375 C 48.738281 0.171875 42.960938 1 35.953125 1 C 31.023438 1 26.640625 0.785156 22.796875 0.359375 C 18.960938 -0.0664062 15.484375 -0.519531 12.359375 -1 C 11.128906 -1.1875 10.367188 -1.46875 10.078125 -1.84375 C 9.796875 -2.226562 9.65625 -2.796875 9.65625 -3.546875 L 9.65625 -9.234375 C 9.65625 -9.992188 9.890625 -10.5625 10.359375 -10.9375 C 10.835938 -11.320312 11.410156 -11.515625 12.078125 -11.515625 C 12.171875 -11.515625 12.238281 -11.515625 12.28125 -11.515625 C 12.332031 -11.515625 12.40625 -11.515625 12.5 -11.515625 C 15.820312 -11.222656 19.753906 -11.003906 24.296875 -10.859375 C 28.847656 -10.722656 32.734375 -10.65625 35.953125 -10.65625 C 41.640625 -10.65625 46.046875 -11.363281 49.171875 -12.78125 C 52.296875 -14.207031 54.472656 -16.175781 55.703125 -18.6875 C 56.929688 -21.195312 57.546875 -24.109375 57.546875 -27.421875 C 57.546875 -29.796875 57.023438 -31.929688 55.984375 -33.828125 C 54.941406 -35.722656 53.1875 -37.640625 50.71875 -39.578125 C 48.257812 -41.515625 44.851562 -43.8125 40.5 -46.46875 L 26.71875 -54.859375 C 20.175781 -58.835938 15.269531 -62.835938 12 -66.859375 C 8.738281 -70.890625 7.109375 -75.742188 7.109375 -81.421875 C 7.109375 -90.046875 10.066406 -96.394531 15.984375 -100.46875 C 21.910156 -104.539062 30.269531 -106.578125 41.0625 -106.578125 C 43.90625 -106.578125 46.890625 -106.503906 50.015625 -106.359375 C 53.148438 -106.222656 56.113281 -106.007812 58.90625 -105.71875 C 61.695312 -105.4375 63.992188 -105.15625 65.796875 -104.875 C 67.410156 -104.59375 68.21875 -103.785156 68.21875 -102.453125 L 68.21875 -96.34375 C 68.21875 -94.832031 67.410156 -94.078125 65.796875 -94.078125 C 65.703125 -94.078125 65.65625 -94.078125 65.65625 -94.078125 C 65.65625 -94.078125 65.609375 -94.078125 65.515625 -94.078125 C 62.390625 -94.265625 58.578125 -94.453125 54.078125 -94.640625 C 49.578125 -94.828125 45.238281 -94.921875 41.0625 -94.921875 C 33.769531 -94.921875 28.460938 -93.972656 25.140625 -92.078125 C 21.828125 -90.191406 20.171875 -86.640625 20.171875 -81.421875 C 20.171875 -78.109375 21.398438 -75.242188 23.859375 -72.828125 C 26.328125 -70.410156 30.265625 -67.546875 35.671875 -64.234375 L 48.75 -56.421875 C 56.988281 -51.492188 62.765625 -46.847656 66.078125 -42.484375 C 69.398438 -38.128906 71.0625 -33.109375 71.0625 -27.421875 Z M 71.0625 -27.421875 "/></g></g><g style="fill:#000000;fill-opacity:1;"><g transform="translate(30.734277, 309.341694)"><path style="stroke:none" d="M 80.4375 -29.125 C 80.4375 -23.15625 79.320312 -18.226562 77.09375 -14.34375 C 74.863281 -10.46875 71.832031 -7.390625 68 -5.109375 C 64.164062 -2.835938 59.757812 -1.25 54.78125 -0.34375 C 49.8125 0.550781 44.53125 1 38.9375 1 C 34.289062 1 29.953125 0.878906 25.921875 0.640625 C 21.898438 0.398438 18.519531 0.09375 15.78125 -0.28125 C 14.164062 -0.46875 12.976562 -0.941406 12.21875 -1.703125 C 11.457031 -2.460938 11.078125 -3.742188 11.078125 -5.546875 L 11.078125 -100.1875 C 11.078125 -103.40625 12.59375 -105.15625 15.625 -105.4375 C 18 -105.726562 21.195312 -105.988281 25.21875 -106.21875 C 29.25 -106.457031 33.585938 -106.578125 38.234375 -106.578125 C 45.804688 -106.578125 52.742188 -105.769531 59.046875 -104.15625 C 65.347656 -102.550781 70.390625 -99.78125 74.171875 -95.84375 C 77.960938 -91.914062 79.859375 -86.351562 79.859375 -79.15625 L 79.859375 -76.875 C 79.859375 -71.664062 78.53125 -67.117188 75.875 -63.234375 C 73.226562 -59.347656 69.488281 -56.457031 64.65625 -54.5625 C 69.582031 -52.863281 73.441406 -49.976562 76.234375 -45.90625 C 79.035156 -41.832031 80.4375 -37.046875 80.4375 -31.546875 Z M 66.9375 -76.875 L 66.9375 -79.15625 C 66.9375 -83.695312 65.75 -87.148438 63.375 -89.515625 C 61.007812 -91.890625 57.671875 -93.503906 53.359375 -94.359375 C 49.046875 -95.210938 44.003906 -95.640625 38.234375 -95.640625 C 35.859375 -95.640625 33.414062 -95.59375 30.90625 -95.5 C 28.394531 -95.40625 26.144531 -95.3125 24.15625 -95.21875 L 24.15625 -59.96875 L 46.046875 -59.96875 C 51.535156 -59.96875 55.796875 -60.75 58.828125 -62.3125 C 61.859375 -63.875 63.96875 -65.957031 65.15625 -68.5625 C 66.34375 -71.164062 66.9375 -73.9375 66.9375 -76.875 Z M 67.5 -29.125 L 67.5 -31.546875 C 67.5 -34.671875 66.882812 -37.609375 65.65625 -40.359375 C 64.425781 -43.109375 62.242188 -45.332031 59.109375 -47.03125 C 55.984375 -48.738281 51.628906 -49.59375 46.046875 -49.59375 L 24.15625 -49.59375 L 24.15625 -10.515625 C 26.53125 -10.421875 28.972656 -10.300781 31.484375 -10.15625 C 33.992188 -10.019531 36.476562 -9.953125 38.9375 -9.953125 C 44.8125 -9.953125 49.878906 -10.492188 54.140625 -11.578125 C 58.398438 -12.671875 61.691406 -14.585938 64.015625 -17.328125 C 66.335938 -20.078125 67.5 -24.007812 67.5 -29.125 Z M 67.5 -29.125 "/></g></g><g style="fill:#000000;fill-opacity:1;"><g transform="translate(118.270638, 309.341694)"><path style="stroke:none" d="M 83.28125 -1.84375 C 83.28125 -0.613281 82.660156 0 81.421875 0 L 72.328125 0 C 71.484375 0 70.796875 -0.0664062 70.265625 -0.203125 C 69.742188 -0.347656 69.203125 -0.894531 68.640625 -1.84375 L 43.203125 -44.203125 C 43.015625 -44.203125 42.800781 -44.203125 42.5625 -44.203125 C 42.320312 -44.203125 42.109375 -44.203125 41.921875 -44.203125 C 41.546875 -44.203125 41.164062 -44.203125 40.78125 -44.203125 C 40.40625 -44.203125 39.976562 -44.203125 39.5 -44.203125 C 37.132812 -44.203125 34.882812 -44.25 32.75 -44.34375 C 30.625 -44.4375 27.664062 -44.53125 23.875 -44.625 L 23.875 -2.84375 C 23.875 -2.175781 23.632812 -1.535156 23.15625 -0.921875 C 22.6875 -0.304688 22.070312 0 21.3125 0 L 13.640625 0 C 12.972656 0 12.378906 -0.28125 11.859375 -0.84375 C 11.335938 -1.414062 11.078125 -2.082031 11.078125 -2.84375 L 11.078125 -102.3125 C 11.078125 -104.113281 12.21875 -105.15625 14.5 -105.4375 C 17.53125 -105.820312 21.4375 -106.109375 26.21875 -106.296875 C 31 -106.484375 35.425781 -106.578125 39.5 -106.578125 C 46.988281 -106.578125 53.738281 -105.628906 59.75 -103.734375 C 65.769531 -101.835938 70.53125 -98.664062 74.03125 -94.21875 C 77.539062 -89.769531 79.296875 -83.707031 79.296875 -76.03125 L 79.296875 -75.03125 C 79.296875 -67.070312 77.1875 -60.722656 72.96875 -55.984375 C 68.757812 -51.253906 63.429688 -48.035156 56.984375 -46.328125 L 82.84375 -3.125 C 83.132812 -2.75 83.28125 -2.320312 83.28125 -1.84375 Z M 66.5 -75.03125 L 66.5 -76.03125 C 66.5 -83.132812 64.222656 -88.054688 59.671875 -90.796875 C 55.128906 -93.546875 48.40625 -94.921875 39.5 -94.921875 C 38.082031 -94.921875 36.351562 -94.921875 34.3125 -94.921875 C 32.28125 -94.921875 30.316406 -94.894531 28.421875 -94.84375 C 26.523438 -94.800781 25.007812 -94.6875 23.875 -94.5 L 23.875 -55.5625 C 27 -55.46875 29.984375 -55.394531 32.828125 -55.34375 C 35.671875 -55.300781 37.894531 -55.28125 39.5 -55.28125 C 48.21875 -55.28125 54.894531 -56.648438 59.53125 -59.390625 C 64.175781 -62.140625 66.5 -67.351562 66.5 -75.03125 Z M 66.5 -75.03125 "/></g></g><g style="fill:#000000;fill-opacity:1;"><g transform="translate(207.085931, 309.341694)"><path style="stroke:none" d="M 85.40625 -43.625 C 85.40625 -33.113281 83.742188 -24.585938 80.421875 -18.046875 C 77.109375 -11.515625 72.585938 -6.707031 66.859375 -3.625 C 61.128906 -0.539062 54.519531 1 47.03125 1 C 39.644531 1 33.035156 -0.539062 27.203125 -3.625 C 21.378906 -6.707031 16.8125 -11.515625 13.5 -18.046875 C 10.1875 -24.585938 8.53125 -33.113281 8.53125 -43.625 L 8.53125 -61.953125 C 8.53125 -72.472656 10.1875 -81 13.5 -87.53125 C 16.8125 -94.070312 21.378906 -98.878906 27.203125 -101.953125 C 33.035156 -105.035156 39.644531 -106.578125 47.03125 -106.578125 C 54.519531 -106.578125 61.128906 -105.035156 66.859375 -101.953125 C 72.585938 -98.878906 77.109375 -94.070312 80.421875 -87.53125 C 83.742188 -81 85.40625 -72.472656 85.40625 -61.953125 Z M 72.328125 -43.625 L 72.328125 -61.953125 C 72.328125 -73.890625 70.078125 -82.367188 65.578125 -87.390625 C 61.078125 -92.410156 54.894531 -94.921875 47.03125 -94.921875 C 39.269531 -94.921875 33.085938 -92.410156 28.484375 -87.390625 C 23.890625 -82.367188 21.59375 -73.890625 21.59375 -61.953125 L 21.59375 -43.625 C 21.59375 -31.6875 23.890625 -23.207031 28.484375 -18.1875 C 33.085938 -13.164062 39.269531 -10.65625 47.03125 -10.65625 C 54.800781 -10.65625 60.957031 -13.164062 65.5 -18.1875 C 70.050781 -23.207031 72.328125 -31.6875 72.328125 -43.625 Z M 72.328125 -43.625 "/></g></g><g style="fill:#000000;fill-opacity:1;"><g transform="translate(301.016962, 309.341694)"><path style="stroke:none" d="M 115.8125 -37.796875 C 115.8125 -25.484375 113.488281 -15.9375 108.84375 -9.15625 C 104.207031 -2.382812 96.488281 1 85.6875 1 C 82 1 78.375 0.757812 74.8125 0.28125 C 71.257812 -0.1875 67.445312 -1.132812 63.375 -2.5625 C 59.300781 -1.132812 55.507812 -0.1875 52 0.28125 C 48.5 0.757812 44.90625 1 41.21875 1 C 30.414062 1 22.691406 -2.382812 18.046875 -9.15625 C 13.398438 -15.9375 11.078125 -25.484375 11.078125 -37.796875 L 11.078125 -102.890625 C 11.078125 -103.648438 11.335938 -104.289062 11.859375 -104.8125 C 12.378906 -105.332031 13.019531 -105.59375 13.78125 -105.59375 L 21.3125 -105.59375 C 22.070312 -105.59375 22.710938 -105.332031 23.234375 -104.8125 C 23.753906 -104.289062 24.015625 -103.648438 24.015625 -102.890625 L 24.015625 -37.796875 C 24.015625 -31.453125 24.554688 -26.21875 25.640625 -22.09375 C 26.734375 -17.976562 28.703125 -14.925781 31.546875 -12.9375 C 34.390625 -10.945312 38.507812 -9.953125 43.90625 -9.953125 C 44.757812 -9.953125 46.015625 -10 47.671875 -10.09375 C 49.335938 -10.1875 51.046875 -10.328125 52.796875 -10.515625 C 54.546875 -10.703125 55.941406 -10.941406 56.984375 -11.234375 L 56.984375 -102.890625 C 56.984375 -103.648438 57.242188 -104.289062 57.765625 -104.8125 C 58.285156 -105.332031 58.925781 -105.59375 59.6875 -105.59375 L 67.359375 -105.59375 C 69.066406 -105.59375 69.921875 -104.738281 69.921875 -103.03125 L 69.921875 -11.234375 C 70.960938 -10.941406 72.359375 -10.703125 74.109375 -10.515625 C 75.859375 -10.328125 77.585938 -10.1875 79.296875 -10.09375 C 81.003906 -10 82.234375 -9.953125 82.984375 -9.953125 C 88.390625 -9.953125 92.515625 -10.945312 95.359375 -12.9375 C 98.203125 -14.925781 100.164062 -17.976562 101.25 -22.09375 C 102.34375 -26.21875 102.890625 -31.453125 102.890625 -37.796875 L 102.890625 -102.890625 C 102.890625 -103.648438 103.148438 -104.289062 103.671875 -104.8125 C 104.191406 -105.332031 104.832031 -105.59375 105.59375 -105.59375 L 113.125 -105.59375 C 113.875 -105.59375 114.507812 -105.332031 115.03125 -104.8125 C 115.550781 -104.289062 115.8125 -103.648438 115.8125 -102.890625 Z M 115.8125 -37.796875 "/></g></g><g style="fill:#000000;fill-opacity:1;"><g transform="translate(427.916245, 309.341694)"><path style="stroke:none" d="M 71.0625 -27.421875 C 71.0625 -24.015625 70.535156 -20.628906 69.484375 -17.265625 C 68.441406 -13.898438 66.617188 -10.84375 64.015625 -8.09375 C 61.410156 -5.351562 57.832031 -3.148438 53.28125 -1.484375 C 48.738281 0.171875 42.960938 1 35.953125 1 C 31.023438 1 26.640625 0.785156 22.796875 0.359375 C 18.960938 -0.0664062 15.484375 -0.519531 12.359375 -1 C 11.128906 -1.1875 10.367188 -1.46875 10.078125 -1.84375 C 9.796875 -2.226562 9.65625 -2.796875 9.65625 -3.546875 L 9.65625 -9.234375 C 9.65625 -9.992188 9.890625 -10.5625 10.359375 -10.9375 C 10.835938 -11.320312 11.410156 -11.515625 12.078125 -11.515625 C 12.171875 -11.515625 12.238281 -11.515625 12.28125 -11.515625 C 12.332031 -11.515625 12.40625 -11.515625 12.5 -11.515625 C 15.820312 -11.222656 19.753906 -11.003906 24.296875 -10.859375 C 28.847656 -10.722656 32.734375 -10.65625 35.953125 -10.65625 C 41.640625 -10.65625 46.046875 -11.363281 49.171875 -12.78125 C 52.296875 -14.207031 54.472656 -16.175781 55.703125 -18.6875 C 56.929688 -21.195312 57.546875 -24.109375 57.546875 -27.421875 C 57.546875 -29.796875 57.023438 -31.929688 55.984375 -33.828125 C 54.941406 -35.722656 53.1875 -37.640625 50.71875 -39.578125 C 48.257812 -41.515625 44.851562 -43.8125 40.5 -46.46875 L 26.71875 -54.859375 C 20.175781 -58.835938 15.269531 -62.835938 12 -66.859375 C 8.738281 -70.890625 7.109375 -75.742188 7.109375 -81.421875 C 7.109375 -90.046875 10.066406 -96.394531 15.984375 -100.46875 C 21.910156 -104.539062 30.269531 -106.578125 41.0625 -106.578125 C 43.90625 -106.578125 46.890625 -106.503906 50.015625 -106.359375 C 53.148438 -106.222656 56.113281 -106.007812 58.90625 -105.71875 C 61.695312 -105.4375 63.992188 -105.15625 65.796875 -104.875 C 67.410156 -104.59375 68.21875 -103.785156 68.21875 -102.453125 L 68.21875 -96.34375 C 68.21875 -94.832031 67.410156 -94.078125 65.796875 -94.078125 C 65.703125 -94.078125 65.65625 -94.078125 65.65625 -94.078125 C 65.65625 -94.078125 65.609375 -94.078125 65.515625 -94.078125 C 62.390625 -94.265625 58.578125 -94.453125 54.078125 -94.640625 C 49.578125 -94.828125 45.238281 -94.921875 41.0625 -94.921875 C 33.769531 -94.921875 28.460938 -93.972656 25.140625 -92.078125 C 21.828125 -90.191406 20.171875 -86.640625 20.171875 -81.421875 C 20.171875 -78.109375 21.398438 -75.242188 23.859375 -72.828125 C 26.328125 -70.410156 30.265625 -67.546875 35.671875 -64.234375 L 48.75 -56.421875 C 56.988281 -51.492188 62.765625 -46.847656 66.078125 -42.484375 C 69.398438 -38.128906 71.0625 -33.109375 71.0625 -27.421875 Z M 71.0625 -27.421875 "/></g></g><g style="fill:#000000;fill-opacity:1;"><g transform="translate(506.073693, 309.341694)"><path style="stroke:none" d="M 70.484375 -1.703125 C 70.484375 -0.566406 70.007812 0.09375 69.0625 0.28125 C 67.257812 0.46875 64.703125 0.609375 61.390625 0.703125 C 58.078125 0.804688 54.617188 0.878906 51.015625 0.921875 C 47.410156 0.972656 44.191406 1 41.359375 1 C 31.410156 1 23.875 -1.035156 18.75 -5.109375 C 13.632812 -9.191406 11.078125 -15.96875 11.078125 -25.4375 L 11.078125 -80.15625 C 11.078125 -89.625 13.632812 -96.394531 18.75 -100.46875 C 23.875 -104.539062 31.410156 -106.578125 41.359375 -106.578125 C 44.191406 -106.578125 47.382812 -106.550781 50.9375 -106.5 C 54.5 -106.457031 57.910156 -106.363281 61.171875 -106.21875 C 64.441406 -106.082031 67.070312 -105.921875 69.0625 -105.734375 C 70.007812 -105.535156 70.484375 -104.867188 70.484375 -103.734375 L 70.484375 -96.640625 C 70.484375 -95.492188 69.960938 -94.921875 68.921875 -94.921875 L 41.5 -94.921875 C 36.476562 -94.921875 32.710938 -94.445312 30.203125 -93.5 C 27.691406 -92.5625 26.03125 -91 25.21875 -88.8125 C 24.414062 -86.632812 24.015625 -83.75 24.015625 -80.15625 L 24.015625 -60.390625 L 67.640625 -60.390625 C 68.398438 -60.390625 69.0625 -60.101562 69.625 -59.53125 C 70.195312 -58.96875 70.484375 -58.304688 70.484375 -57.546875 L 70.484375 -52.15625 C 70.484375 -51.394531 70.195312 -50.726562 69.625 -50.15625 C 69.0625 -49.59375 68.398438 -49.3125 67.640625 -49.3125 L 24.015625 -49.3125 L 24.015625 -25.4375 C 24.015625 -21.832031 24.414062 -18.941406 25.21875 -16.765625 C 26.03125 -14.585938 27.691406 -13.023438 30.203125 -12.078125 C 32.710938 -11.128906 36.476562 -10.65625 41.5 -10.65625 L 68.921875 -10.65625 C 69.960938 -10.65625 70.484375 -10.085938 70.484375 -8.953125 Z M 70.484375 -1.703125 "/></g></g><g style="fill:#000000;fill-opacity:1;"><g transform="translate(584.373225, 309.341694)"><path style="stroke:none" d="M 83.28125 -1.84375 C 83.28125 -0.613281 82.660156 0 81.421875 0 L 72.328125 0 C 71.484375 0 70.796875 -0.0664062 70.265625 -0.203125 C 69.742188 -0.347656 69.203125 -0.894531 68.640625 -1.84375 L 43.203125 -44.203125 C 43.015625 -44.203125 42.800781 -44.203125 42.5625 -44.203125 C 42.320312 -44.203125 42.109375 -44.203125 41.921875 -44.203125 C 41.546875 -44.203125 41.164062 -44.203125 40.78125 -44.203125 C 40.40625 -44.203125 39.976562 -44.203125 39.5 -44.203125 C 37.132812 -44.203125 34.882812 -44.25 32.75 -44.34375 C 30.625 -44.4375 27.664062 -44.53125 23.875 -44.625 L 23.875 -2.84375 C 23.875 -2.175781 23.632812 -1.535156 23.15625 -0.921875 C 22.6875 -0.304688 22.070312 0 21.3125 0 L 13.640625 0 C 12.972656 0 12.378906 -0.28125 11.859375 -0.84375 C 11.335938 -1.414062 11.078125 -2.082031 11.078125 -2.84375 L 11.078125 -102.3125 C 11.078125 -104.113281 12.21875 -105.15625 14.5 -105.4375 C 17.53125 -105.820312 21.4375 -106.109375 26.21875 -106.296875 C 31 -106.484375 35.425781 -106.578125 39.5 -106.578125 C 46.988281 -106.578125 53.738281 -105.628906 59.75 -103.734375 C 65.769531 -101.835938 70.53125 -98.664062 74.03125 -94.21875 C 77.539062 -89.769531 79.296875 -83.707031 79.296875 -76.03125 L 79.296875 -75.03125 C 79.296875 -67.070312 77.1875 -60.722656 72.96875 -55.984375 C 68.757812 -51.253906 63.429688 -48.035156 56.984375 -46.328125 L 82.84375 -3.125 C 83.132812 -2.75 83.28125 -2.320312 83.28125 -1.84375 Z M 66.5 -75.03125 L 66.5 -76.03125 C 66.5 -83.132812 64.222656 -88.054688 59.671875 -90.796875 C 55.128906 -93.546875 48.40625 -94.921875 39.5 -94.921875 C 38.082031 -94.921875 36.351562 -94.921875 34.3125 -94.921875 C 32.28125 -94.921875 30.316406 -94.894531 28.421875 -94.84375 C 26.523438 -94.800781 25.007812 -94.6875 23.875 -94.5 L 23.875 -55.5625 C 27 -55.46875 29.984375 -55.394531 32.828125 -55.34375 C 35.671875 -55.300781 37.894531 -55.28125 39.5 -55.28125 C 48.21875 -55.28125 54.894531 -56.648438 59.53125 -59.390625 C 64.175781 -62.140625 66.5 -67.351562 66.5 -75.03125 Z M 66.5 -75.03125 "/></g></g></g></g><g mask="url(#08b6ee97d8)" transform="matrix(1,0,0,1,165,167)"><g clip-path="url(#9bd1cac3d1)"><path style=" stroke:none;fill-rule:nonzero;fill:#231f20;fill-opacity:1;" d="M 213.558594 139.992188 C 199.628906 139.855469 185.753906 138.902344 171.933594 137.140625 C 158.117188 135.375 144.445312 132.8125 130.929688 129.449219 C 117.410156 126.082031 104.132812 121.941406 91.101562 117.023438 C 78.066406 112.101562 65.367188 106.4375 52.996094 100.03125 C 52.46875 99.773438 51.96875 99.46875 51.503906 99.113281 C 51.035156 98.757812 50.605469 98.359375 50.21875 97.921875 C 49.828125 97.480469 49.488281 97.007812 49.191406 96.5 C 48.894531 95.992188 48.652344 95.460938 48.460938 94.90625 C 48.269531 94.351562 48.136719 93.78125 48.058594 93.199219 C 47.980469 92.617188 47.960938 92.035156 47.996094 91.449219 C 48.03125 90.863281 48.125 90.285156 48.277344 89.71875 C 48.429688 89.152344 48.632812 88.605469 48.890625 88.078125 C 49.164062 87.566406 49.484375 87.085938 49.851562 86.632812 C 50.214844 86.183594 50.621094 85.769531 51.066406 85.394531 C 51.507812 85.023438 51.984375 84.695312 52.492188 84.410156 C 53 84.128906 53.527344 83.898438 54.082031 83.714844 C 54.632812 83.535156 55.195312 83.410156 55.773438 83.335938 C 56.347656 83.261719 56.925781 83.242188 57.503906 83.28125 C 58.085938 83.320312 58.65625 83.410156 59.214844 83.558594 C 59.777344 83.703125 60.320312 83.902344 60.84375 84.152344 C 66.726562 87.257812 72.695312 90.179688 78.753906 92.921875 C 84.808594 95.664062 90.945312 98.21875 97.160156 100.589844 C 103.371094 102.957031 109.652344 105.136719 115.996094 107.125 C 122.34375 109.113281 128.742188 110.90625 135.195312 112.503906 C 141.648438 114.105469 148.148438 115.507812 154.6875 116.710938 C 161.226562 117.914062 167.796875 118.921875 174.398438 119.726562 C 180.996094 120.53125 187.617188 121.136719 194.253906 121.539062 C 200.890625 121.941406 207.535156 122.144531 214.183594 122.144531 C 220.832031 122.144531 227.476562 121.941406 234.113281 121.539062 C 240.75 121.136719 247.371094 120.53125 253.96875 119.726562 C 260.570312 118.921875 267.140625 117.914062 273.679688 116.710938 C 280.21875 115.507812 286.714844 114.105469 293.171875 112.503906 C 299.625 110.90625 306.023438 109.113281 312.371094 107.125 C 318.714844 105.136719 324.996094 102.957031 331.207031 100.589844 C 337.421875 98.21875 343.558594 95.664062 349.613281 92.921875 C 355.671875 90.179688 361.640625 87.257812 367.523438 84.152344 C 368.046875 83.902344 368.589844 83.703125 369.148438 83.558594 C 369.710938 83.410156 370.28125 83.320312 370.863281 83.28125 C 371.441406 83.242188 372.019531 83.261719 372.59375 83.335938 C 373.171875 83.410156 373.734375 83.535156 374.285156 83.714844 C 374.835938 83.898438 375.367188 84.128906 375.875 84.410156 C 376.382812 84.695312 376.859375 85.023438 377.300781 85.394531 C 377.746094 85.769531 378.152344 86.183594 378.515625 86.632812 C 378.882812 87.085938 379.203125 87.566406 379.476562 88.078125 C 379.734375 88.605469 379.9375 89.152344 380.089844 89.71875 C 380.238281 90.285156 380.332031 90.863281 380.371094 91.449219 C 380.40625 92.035156 380.386719 92.617188 380.308594 93.199219 C 380.230469 93.78125 380.097656 94.351562 379.90625 94.90625 C 379.714844 95.460938 379.472656 95.992188 379.175781 96.5 C 378.878906 97.007812 378.539062 97.480469 378.148438 97.921875 C 377.761719 98.359375 377.332031 98.757812 376.863281 99.113281 C 376.398438 99.46875 375.898438 99.773438 375.371094 100.03125 C 362.90625 106.476562 350.105469 112.171875 336.96875 117.109375 C 323.832031 122.050781 310.449219 126.203125 296.824219 129.570312 C 283.199219 132.933594 269.425781 135.488281 255.5 137.230469 C 241.574219 138.976562 227.59375 139.894531 213.558594 139.992188 Z M 213.558594 139.992188 "/><g clip-rule="nonzero" clip-path="url(#cec0997be4)"><path style=" stroke:none;fill-rule:nonzero;fill:#231f20;fill-opacity:1;" d="M 211.0625 421.160156 C 207.628906 421.160156 204.195312 421.074219 200.765625 420.90625 C 197.335938 420.738281 193.914062 420.484375 190.496094 420.148438 C 187.078125 419.8125 183.671875 419.390625 180.277344 418.886719 C 176.878906 418.382812 173.5 417.796875 170.128906 417.128906 C 166.761719 416.457031 163.414062 415.707031 160.082031 414.871094 C 156.753906 414.035156 153.445312 413.121094 150.160156 412.125 C 146.871094 411.128906 143.613281 410.050781 140.378906 408.894531 C 137.148438 407.738281 133.945312 406.503906 130.773438 405.1875 C 127.601562 403.875 124.460938 402.484375 121.359375 401.015625 C 118.253906 399.546875 115.1875 398.003906 112.160156 396.386719 C 109.132812 394.765625 106.144531 393.074219 103.199219 391.308594 C 100.253906 389.542969 97.355469 387.707031 94.5 385.800781 C 91.644531 383.894531 88.839844 381.917969 86.082031 379.871094 C 83.324219 377.824219 80.617188 375.714844 77.964844 373.535156 C 75.308594 371.355469 72.710938 369.113281 70.164062 366.808594 C 67.621094 364.503906 65.136719 362.136719 62.707031 359.707031 C 60.28125 357.28125 57.914062 354.792969 55.605469 352.25 C 53.300781 349.707031 51.058594 347.105469 48.882812 344.453125 C 46.703125 341.796875 44.589844 339.09375 42.546875 336.335938 C 40.5 333.578125 38.523438 330.769531 36.617188 327.914062 C 34.707031 325.0625 32.871094 322.160156 31.105469 319.214844 C 29.339844 316.269531 27.648438 313.285156 26.03125 310.253906 C 24.414062 307.226562 22.871094 304.160156 21.402344 301.058594 C 19.933594 297.953125 18.542969 294.816406 17.226562 291.644531 C 15.914062 288.472656 14.679688 285.269531 13.523438 282.035156 C 12.367188 278.804688 11.289062 275.542969 10.292969 272.257812 C 9.296875 268.972656 8.378906 265.664062 7.546875 262.332031 C 6.710938 259.003906 5.960938 255.652344 5.289062 252.285156 C 4.621094 248.917969 4.03125 245.535156 3.527344 242.140625 C 3.023438 238.742188 2.605469 235.335938 2.269531 231.917969 C 1.933594 228.503906 1.679688 225.078125 1.511719 221.648438 C 1.34375 218.21875 1.257812 214.789062 1.257812 211.355469 C 1.257812 207.921875 1.34375 204.488281 1.511719 201.0625 C 1.679688 197.632812 1.933594 194.207031 2.269531 190.789062 C 2.605469 187.375 3.023438 183.96875 3.527344 180.570312 C 4.03125 177.175781 4.621094 173.792969 5.289062 170.425781 C 5.960938 167.058594 6.710938 163.707031 7.546875 160.378906 C 8.378906 157.046875 9.296875 153.738281 10.292969 150.453125 C 11.289062 147.167969 12.367188 143.90625 13.523438 140.675781 C 14.679688 137.441406 15.914062 134.238281 17.226562 131.066406 C 18.542969 127.894531 19.933594 124.757812 21.402344 121.652344 C 22.871094 118.546875 24.414062 115.484375 26.03125 112.453125 C 27.648438 109.425781 29.339844 106.441406 31.105469 103.496094 C 32.871094 100.550781 34.707031 97.648438 36.617188 94.792969 C 38.523438 91.941406 40.5 89.132812 42.546875 86.375 C 44.589844 83.617188 46.703125 80.910156 48.882812 78.257812 C 51.058594 75.601562 53.300781 73.003906 55.605469 70.460938 C 57.914062 67.914062 60.28125 65.429688 62.707031 63 C 65.136719 60.574219 67.621094 58.207031 70.164062 55.902344 C 72.710938 53.59375 75.308594 51.351562 77.964844 49.175781 C 80.617188 46.996094 83.324219 44.886719 86.082031 42.839844 C 88.839844 40.792969 91.644531 38.816406 94.5 36.910156 C 97.355469 35.003906 100.253906 33.164062 103.199219 31.402344 C 106.144531 29.636719 109.132812 27.945312 112.160156 26.324219 C 115.1875 24.707031 118.253906 23.164062 121.359375 21.695312 C 124.460938 20.226562 127.601562 18.835938 130.773438 17.523438 C 133.945312 16.207031 137.148438 14.972656 140.378906 13.816406 C 143.613281 12.660156 146.871094 11.582031 150.160156 10.585938 C 153.445312 9.589844 156.753906 8.671875 160.082031 7.839844 C 163.414062 7.003906 166.761719 6.253906 170.128906 5.582031 C 173.5 4.914062 176.878906 4.328125 180.277344 3.824219 C 183.671875 3.320312 187.078125 2.898438 190.496094 2.5625 C 193.914062 2.226562 197.335938 1.972656 200.765625 1.804688 C 204.195312 1.636719 207.628906 1.550781 211.0625 1.550781 C 214.496094 1.550781 217.925781 1.636719 221.355469 1.804688 C 224.785156 1.972656 228.207031 2.226562 231.625 2.5625 C 235.042969 2.898438 238.449219 3.320312 241.847656 3.824219 C 245.242188 4.328125 248.625 4.914062 251.992188 5.582031 C 255.359375 6.253906 258.707031 7.003906 262.039062 7.839844 C 265.371094 8.671875 268.679688 9.589844 271.964844 10.585938 C 275.25 11.582031 278.507812 12.660156 281.742188 13.816406 C 284.976562 14.972656 288.175781 16.207031 291.347656 17.523438 C 294.523438 18.835938 297.660156 20.226562 300.765625 21.695312 C 303.867188 23.164062 306.933594 24.707031 309.960938 26.324219 C 312.988281 27.945312 315.976562 29.636719 318.921875 31.402344 C 321.867188 33.164062 324.765625 35.003906 327.621094 36.910156 C 330.476562 38.816406 333.28125 40.792969 336.042969 42.839844 C 338.800781 44.886719 341.503906 46.996094 344.160156 49.175781 C 346.8125 51.351562 349.414062 53.59375 351.957031 55.902344 C 354.5 58.207031 356.988281 60.574219 359.414062 63 C 361.84375 65.429688 364.210938 67.914062 366.515625 70.460938 C 368.820312 73.003906 371.0625 75.601562 373.242188 78.257812 C 375.417969 80.910156 377.53125 83.617188 379.578125 86.375 C 381.621094 89.132812 383.597656 91.941406 385.507812 94.792969 C 387.414062 97.648438 389.25 100.550781 391.015625 103.496094 C 392.78125 106.441406 394.472656 109.425781 396.089844 112.453125 C 397.710938 115.484375 399.253906 118.546875 400.722656 121.652344 C 402.1875 124.757812 403.582031 127.894531 404.894531 131.066406 C 406.207031 134.238281 407.445312 137.441406 408.601562 140.675781 C 409.757812 143.90625 410.832031 147.167969 411.832031 150.453125 C 412.828125 153.738281 413.742188 157.046875 414.578125 160.378906 C 415.410156 163.707031 416.164062 167.058594 416.832031 170.425781 C 417.503906 173.792969 418.089844 177.175781 418.59375 180.570312 C 419.097656 183.96875 419.519531 187.375 419.855469 190.789062 C 420.191406 194.207031 420.445312 197.632812 420.613281 201.0625 C 420.78125 204.488281 420.863281 207.921875 420.863281 211.355469 C 420.882812 222.289062 420.039062 233.160156 418.332031 243.960938 C 416.628906 254.761719 414.082031 265.359375 410.695312 275.757812 C 410.515625 276.34375 410.277344 276.910156 409.988281 277.449219 C 409.695312 277.988281 409.351562 278.496094 408.960938 278.96875 C 408.570312 279.441406 408.136719 279.871094 407.660156 280.257812 C 407.183594 280.644531 406.671875 280.980469 406.128906 281.265625 C 405.585938 281.554688 405.019531 281.785156 404.433594 281.957031 C 403.84375 282.132812 403.246094 282.25 402.632812 282.304688 C 402.023438 282.363281 401.410156 282.359375 400.800781 282.296875 C 400.191406 282.230469 399.59375 282.109375 399.007812 281.925781 C 398.421875 281.746094 397.855469 281.507812 397.316406 281.214844 C 396.777344 280.921875 396.273438 280.578125 395.800781 280.1875 C 395.328125 279.796875 394.898438 279.359375 394.511719 278.882812 C 394.128906 278.40625 393.792969 277.894531 393.503906 277.351562 C 393.21875 276.808594 392.988281 276.242188 392.816406 275.65625 C 392.640625 275.066406 392.527344 274.464844 392.472656 273.855469 C 392.414062 273.246094 392.417969 272.632812 392.484375 272.023438 C 392.550781 271.414062 392.671875 270.816406 392.855469 270.230469 C 393.882812 267.039062 394.828125 263.820312 395.6875 260.582031 C 396.546875 257.339844 397.320312 254.078125 398.011719 250.796875 C 398.699219 247.515625 399.300781 244.21875 399.816406 240.90625 C 400.332031 237.59375 400.761719 234.269531 401.105469 230.933594 C 401.445312 227.601562 401.699219 224.257812 401.867188 220.910156 C 402.035156 217.5625 402.113281 214.210938 402.105469 210.859375 C 402.097656 207.503906 402 204.15625 401.816406 200.808594 C 401.632812 197.460938 401.359375 194.121094 401 190.785156 C 400.640625 187.453125 400.195312 184.128906 399.660156 180.820312 C 399.128906 177.511719 398.507812 174.21875 397.800781 170.9375 C 397.097656 167.660156 396.304688 164.40625 395.429688 161.167969 C 394.550781 157.933594 393.589844 154.722656 392.546875 151.535156 C 391.5 148.351562 390.375 145.195312 389.164062 142.066406 C 387.953125 138.941406 386.664062 135.847656 385.289062 132.789062 C 383.917969 129.730469 382.464844 126.707031 380.9375 123.726562 C 379.40625 120.742188 377.796875 117.800781 376.113281 114.902344 C 374.429688 112.003906 372.667969 109.152344 370.835938 106.34375 C 369 103.539062 367.09375 100.78125 365.117188 98.074219 C 363.136719 95.367188 361.089844 92.714844 358.972656 90.117188 C 356.855469 87.515625 354.671875 84.976562 352.421875 82.488281 C 350.167969 80.003906 347.855469 77.582031 345.476562 75.21875 C 343.101562 72.851562 340.660156 70.554688 338.164062 68.316406 C 335.664062 66.082031 333.109375 63.914062 330.5 61.8125 C 327.886719 59.707031 325.222656 57.675781 322.503906 55.714844 C 319.785156 53.75 317.015625 51.863281 314.199219 50.042969 C 311.382812 48.226562 308.519531 46.484375 305.609375 44.816406 C 302.703125 43.148438 299.75 41.558594 296.757812 40.046875 C 293.765625 38.535156 290.738281 37.101562 287.671875 35.746094 C 284.601562 34.390625 281.503906 33.121094 278.371094 31.929688 C 275.234375 30.738281 272.074219 29.628906 268.878906 28.601562 C 265.6875 27.574219 262.472656 26.632812 259.230469 25.777344 C 255.988281 24.917969 252.726562 24.148438 249.445312 23.460938 C 246.164062 22.773438 242.867188 22.175781 239.554688 21.660156 C 236.242188 21.148438 232.917969 20.71875 229.582031 20.382812 C 226.246094 20.042969 222.902344 19.789062 219.554688 19.625 C 216.207031 19.460938 212.855469 19.382812 209.503906 19.394531 C 206.152344 19.40625 202.800781 19.503906 199.453125 19.691406 C 196.105469 19.878906 192.765625 20.152344 189.433594 20.515625 C 186.097656 20.875 182.777344 21.324219 179.46875 21.859375 C 176.15625 22.398438 172.863281 23.019531 169.585938 23.726562 C 166.3125 24.433594 163.054688 25.230469 159.820312 26.109375 C 156.582031 26.988281 153.375 27.949219 150.1875 28.996094 C 147.003906 30.042969 143.847656 31.175781 140.722656 32.386719 C 137.597656 33.597656 134.503906 34.890625 131.445312 36.265625 C 128.386719 37.640625 125.367188 39.09375 122.386719 40.628906 C 119.40625 42.160156 116.464844 43.769531 113.566406 45.457031 C 110.671875 47.144531 107.820312 48.90625 105.011719 50.742188 C 102.207031 52.578125 99.453125 54.484375 96.746094 56.464844 C 94.042969 58.445312 91.390625 60.496094 88.792969 62.617188 C 86.195312 64.734375 83.65625 66.921875 81.171875 69.171875 C 78.6875 71.425781 76.265625 73.742188 73.902344 76.121094 C 71.542969 78.5 69.242188 80.941406 67.007812 83.441406 C 64.777344 85.941406 62.609375 88.496094 60.507812 91.109375 C 58.40625 93.722656 56.378906 96.390625 54.417969 99.109375 C 52.457031 101.828125 50.570312 104.597656 48.753906 107.417969 C 46.9375 110.238281 45.199219 113.101562 43.53125 116.011719 C 41.867188 118.921875 40.28125 121.871094 38.769531 124.867188 C 37.257812 127.859375 35.828125 130.890625 34.476562 133.957031 C 33.125 137.023438 31.851562 140.125 30.664062 143.261719 C 29.472656 146.394531 28.367188 149.558594 27.34375 152.753906 C 26.320312 155.945312 25.382812 159.164062 24.527344 162.402344 C 23.671875 165.644531 22.902344 168.90625 22.21875 172.191406 C 21.535156 175.472656 20.9375 178.769531 20.425781 182.082031 C 19.914062 185.398438 19.488281 188.722656 19.152344 192.058594 C 18.816406 195.394531 18.566406 198.734375 18.402344 202.085938 C 18.242188 205.433594 18.167969 208.785156 18.179688 212.136719 C 18.195312 215.488281 18.296875 218.839844 18.484375 222.1875 C 18.675781 225.535156 18.949219 228.875 19.316406 232.207031 C 19.679688 235.539062 20.128906 238.859375 20.667969 242.171875 C 21.207031 245.480469 21.832031 248.773438 22.542969 252.046875 C 23.253906 255.324219 24.046875 258.582031 24.929688 261.816406 C 25.8125 265.050781 26.777344 268.261719 27.824219 271.445312 C 28.875 274.628906 30.007812 277.78125 31.222656 280.90625 C 32.4375 284.03125 33.734375 287.125 35.109375 290.179688 C 36.484375 293.238281 37.941406 296.257812 39.476562 299.238281 C 41.011719 302.21875 42.625 305.15625 44.3125 308.054688 C 46 310.949219 47.765625 313.800781 49.601562 316.601562 C 51.441406 319.40625 53.351562 322.160156 55.332031 324.863281 C 57.316406 327.570312 59.367188 330.21875 61.488281 332.816406 C 63.609375 335.410156 65.796875 337.949219 68.050781 340.433594 C 70.308594 342.914062 72.625 345.335938 75.003906 347.695312 C 77.386719 350.054688 79.828125 352.351562 82.328125 354.582031 C 84.832031 356.816406 87.390625 358.980469 90.003906 361.078125 C 92.621094 363.175781 95.289062 365.207031 98.007812 367.164062 C 100.730469 369.121094 103.5 371.007812 106.320312 372.820312 C 109.140625 374.636719 112.007812 376.375 114.917969 378.035156 C 117.828125 379.699219 120.78125 381.285156 123.773438 382.792969 C 126.769531 384.300781 129.800781 385.730469 132.871094 387.082031 C 135.9375 388.429688 139.042969 389.699219 142.175781 390.886719 C 145.3125 392.074219 148.476562 393.175781 151.671875 394.199219 C 154.863281 395.21875 158.082031 396.15625 161.324219 397.007812 C 164.566406 397.863281 167.828125 398.628906 171.113281 399.3125 C 174.394531 399.992188 177.691406 400.585938 181.007812 401.097656 C 184.320312 401.605469 187.644531 402.027344 190.980469 402.363281 C 194.316406 402.695312 197.660156 402.941406 201.007812 403.101562 C 204.359375 403.261719 207.707031 403.335938 211.0625 403.316406 C 220.265625 403.285156 229.421875 402.632812 238.535156 401.355469 C 239.113281 401.277344 239.695312 401.257812 240.277344 401.292969 C 240.859375 401.328125 241.433594 401.417969 242 401.5625 C 242.5625 401.707031 243.109375 401.90625 243.636719 402.15625 C 244.164062 402.40625 244.664062 402.703125 245.132812 403.050781 C 245.601562 403.394531 246.035156 403.785156 246.429688 404.214844 C 246.824219 404.640625 247.175781 405.105469 247.480469 405.601562 C 247.789062 406.097656 248.042969 406.621094 248.25 407.167969 C 248.453125 407.710938 248.605469 408.273438 248.703125 408.847656 C 248.769531 409.433594 248.777344 410.015625 248.730469 410.601562 C 248.6875 411.1875 248.585938 411.761719 248.429688 412.328125 C 248.273438 412.894531 248.066406 413.4375 247.808594 413.964844 C 247.550781 414.492188 247.242188 414.988281 246.890625 415.457031 C 246.535156 415.925781 246.140625 416.355469 245.707031 416.75 C 245.273438 417.144531 244.804688 417.492188 244.300781 417.796875 C 243.800781 418.101562 243.277344 418.359375 242.726562 418.5625 C 242.175781 418.769531 241.613281 418.917969 241.035156 419.019531 C 231.09375 420.449219 221.101562 421.164062 211.0625 421.160156 Z M 211.0625 421.160156 "/></g><g clip-rule="nonzero" clip-path="url(#695abe202a)"><path style=" stroke:none;fill-rule:nonzero;fill:#231f20;fill-opacity:1;" d="M 211.0625 421.160156 C 210.476562 421.160156 209.894531 421.101562 209.320312 420.988281 C 208.746094 420.871094 208.1875 420.703125 207.648438 420.480469 C 207.105469 420.253906 206.59375 419.980469 206.105469 419.65625 C 205.617188 419.328125 205.167969 418.960938 204.753906 418.546875 C 204.339844 418.132812 203.96875 417.679688 203.644531 417.195312 C 203.320312 416.707031 203.042969 416.191406 202.820312 415.652344 C 202.597656 415.109375 202.425781 414.554688 202.3125 413.980469 C 202.199219 413.402344 202.140625 412.824219 202.140625 412.238281 L 202.140625 10.472656 C 202.140625 9.886719 202.199219 9.304688 202.3125 8.730469 C 202.425781 8.15625 202.597656 7.597656 202.820312 7.058594 C 203.042969 6.515625 203.320312 6.003906 203.644531 5.515625 C 203.96875 5.027344 204.339844 4.578125 204.753906 4.164062 C 205.167969 3.75 205.617188 3.378906 206.105469 3.054688 C 206.59375 2.730469 207.105469 2.453125 207.648438 2.230469 C 208.1875 2.007812 208.746094 1.835938 209.320312 1.722656 C 209.894531 1.609375 210.476562 1.550781 211.0625 1.550781 C 211.648438 1.550781 212.226562 1.609375 212.800781 1.722656 C 213.375 1.835938 213.933594 2.007812 214.476562 2.230469 C 215.015625 2.453125 215.53125 2.730469 216.015625 3.054688 C 216.503906 3.378906 216.953125 3.75 217.367188 4.164062 C 217.78125 4.578125 218.152344 5.027344 218.476562 5.515625 C 218.804688 6.003906 219.078125 6.515625 219.300781 7.058594 C 219.527344 7.597656 219.695312 8.15625 219.808594 8.730469 C 219.925781 9.304688 219.980469 9.886719 219.980469 10.472656 L 219.980469 412.238281 C 219.980469 412.824219 219.925781 413.402344 219.808594 413.980469 C 219.695312 414.554688 219.527344 415.109375 219.300781 415.652344 C 219.078125 416.191406 218.804688 416.707031 218.476562 417.195312 C 218.152344 417.679688 217.78125 418.132812 217.367188 418.546875 C 216.953125 418.960938 216.503906 419.328125 216.015625 419.65625 C 215.53125 419.980469 215.015625 420.253906 214.476562 420.480469 C 213.933594 420.703125 213.375 420.871094 212.800781 420.988281 C 212.226562 421.101562 211.648438 421.160156 211.0625 421.160156 Z M 211.0625 421.160156 "/></g><g clip-rule="nonzero" clip-path="url(#3e2d14fdb1)"><path style=" stroke:none;fill-rule:nonzero;fill:#231f20;fill-opacity:1;" d="M 411.945312 220.277344 L 10.179688 220.277344 C 9.59375 220.273438 9.011719 220.21875 8.4375 220.105469 C 7.863281 219.988281 7.304688 219.820312 6.765625 219.597656 C 6.222656 219.371094 5.710938 219.097656 5.222656 218.773438 C 4.734375 218.445312 4.285156 218.078125 3.871094 217.664062 C 3.457031 217.25 3.085938 216.796875 2.761719 216.3125 C 2.4375 215.824219 2.160156 215.308594 1.9375 214.769531 C 1.710938 214.226562 1.542969 213.667969 1.429688 213.09375 C 1.316406 212.519531 1.257812 211.941406 1.257812 211.355469 C 1.257812 210.769531 1.316406 210.1875 1.429688 209.613281 C 1.542969 209.039062 1.710938 208.484375 1.9375 207.941406 C 2.160156 207.402344 2.4375 206.886719 2.761719 206.398438 C 3.085938 205.914062 3.457031 205.460938 3.871094 205.046875 C 4.285156 204.632812 4.734375 204.265625 5.222656 203.9375 C 5.710938 203.613281 6.222656 203.339844 6.765625 203.113281 C 7.304688 202.890625 7.863281 202.71875 8.4375 202.605469 C 9.011719 202.492188 9.59375 202.433594 10.179688 202.433594 L 411.945312 202.433594 C 412.53125 202.433594 413.109375 202.492188 413.683594 202.605469 C 414.257812 202.71875 414.816406 202.890625 415.359375 203.113281 C 415.898438 203.339844 416.414062 203.613281 416.898438 203.9375 C 417.386719 204.265625 417.835938 204.632812 418.253906 205.046875 C 418.667969 205.460938 419.035156 205.914062 419.363281 206.398438 C 419.6875 206.886719 419.960938 207.402344 420.1875 207.941406 C 420.410156 208.484375 420.578125 209.039062 420.691406 209.613281 C 420.808594 210.1875 420.863281 210.769531 420.863281 211.355469 C 420.863281 211.941406 420.808594 212.519531 420.691406 213.09375 C 420.578125 213.667969 420.410156 214.226562 420.1875 214.769531 C 419.960938 215.308594 419.6875 215.824219 419.363281 216.3125 C 419.035156 216.796875 418.667969 217.25 418.253906 217.664062 C 417.835938 218.078125 417.386719 218.445312 416.898438 218.773438 C 416.414062 219.097656 415.898438 219.371094 415.359375 219.597656 C 414.816406 219.820312 414.257812 219.988281 413.683594 220.105469 C 413.109375 220.21875 412.53125 220.273438 411.945312 220.277344 Z M 411.945312 220.277344 "/></g><g clip-rule="nonzero" clip-path="url(#0b1a5f8044)"><path style=" stroke:none;fill-rule:nonzero;fill:#231f20;fill-opacity:1;" d="M 211.0625 421.160156 C 207.628906 421.160156 204.195312 421.074219 200.765625 420.90625 C 197.335938 420.738281 193.914062 420.484375 190.496094 420.148438 C 187.078125 419.8125 183.671875 419.390625 180.277344 418.886719 C 176.878906 418.382812 173.5 417.796875 170.128906 417.128906 C 166.761719 416.457031 163.414062 415.707031 160.082031 414.871094 C 156.753906 414.035156 153.445312 413.121094 150.160156 412.125 C 146.871094 411.128906 143.613281 410.050781 140.378906 408.894531 C 137.148438 407.738281 133.945312 406.503906 130.773438 405.1875 C 127.601562 403.875 124.460938 402.484375 121.359375 401.015625 C 118.253906 399.546875 115.1875 398.003906 112.160156 396.386719 C 109.132812 394.765625 106.144531 393.074219 103.199219 391.308594 C 100.253906 389.542969 97.355469 387.707031 94.5 385.800781 C 91.644531 383.894531 88.839844 381.917969 86.082031 379.871094 C 83.324219 377.824219 80.617188 375.714844 77.964844 373.535156 C 75.308594 371.355469 72.710938 369.113281 70.164062 366.808594 C 67.621094 364.503906 65.136719 362.136719 62.707031 359.707031 C 60.28125 357.28125 57.914062 354.792969 55.605469 352.25 C 53.300781 349.707031 51.058594 347.105469 48.882812 344.453125 C 46.703125 341.796875 44.589844 339.09375 42.546875 336.335938 C 40.5 333.578125 38.523438 330.769531 36.617188 327.914062 C 34.707031 325.0625 32.871094 322.160156 31.105469 319.214844 C 29.339844 316.269531 27.648438 313.285156 26.03125 310.253906 C 24.414062 307.226562 22.871094 304.160156 21.402344 301.058594 C 19.933594 297.953125 18.542969 294.816406 17.226562 291.644531 C 15.914062 288.472656 14.679688 285.269531 13.523438 282.035156 C 12.367188 278.804688 11.289062 275.542969 10.292969 272.257812 C 9.296875 268.972656 8.378906 265.664062 7.546875 262.332031 C 6.710938 259.003906 5.960938 255.652344 5.289062 252.285156 C 4.621094 248.917969 4.03125 245.535156 3.527344 242.140625 C 3.023438 238.742188 2.605469 235.335938 2.269531 231.917969 C 1.933594 228.503906 1.679688 225.078125 1.511719 221.648438 C 1.34375 218.21875 1.257812 214.789062 1.257812 211.355469 C 1.257812 207.921875 1.34375 204.488281 1.511719 201.0625 C 1.679688 197.632812 1.933594 194.207031 2.269531 190.789062 C 2.605469 187.375 3.023438 183.96875 3.527344 180.570312 C 4.03125 177.175781 4.621094 173.792969 5.289062 170.425781 C 5.960938 167.058594 6.710938 163.707031 7.546875 160.378906 C 8.378906 157.046875 9.296875 153.738281 10.292969 150.453125 C 11.289062 147.167969 12.367188 143.90625 13.523438 140.675781 C 14.679688 137.441406 15.914062 134.238281 17.226562 131.066406 C 18.542969 127.894531 19.933594 124.757812 21.402344 121.652344 C 22.871094 118.546875 24.414062 115.484375 26.03125 112.453125 C 27.648438 109.425781 29.339844 106.441406 31.105469 103.496094 C 32.871094 100.550781 34.707031 97.648438 36.617188 94.792969 C 38.523438 91.941406 40.5 89.132812 42.546875 86.375 C 44.589844 83.617188 46.703125 80.910156 48.882812 78.257812 C 51.058594 75.601562 53.300781 73.003906 55.605469 70.460938 C 57.914062 67.914062 60.28125 65.429688 62.707031 63 C 65.136719 60.574219 67.621094 58.207031 70.164062 55.902344 C 72.710938 53.59375 75.308594 51.351562 77.964844 49.175781 C 80.617188 46.996094 83.324219 44.886719 86.082031 42.839844 C 88.839844 40.792969 91.644531 38.816406 94.5 36.910156 C 97.355469 35.003906 100.253906 33.164062 103.199219 31.402344 C 106.144531 29.636719 109.132812 27.945312 112.160156 26.324219 C 115.1875 24.707031 118.253906 23.164062 121.359375 21.695312 C 124.460938 20.226562 127.601562 18.835938 130.773438 17.523438 C 133.945312 16.207031 137.148438 14.972656 140.378906 13.816406 C 143.613281 12.660156 146.871094 11.582031 150.160156 10.585938 C 153.445312 9.589844 156.753906 8.671875 160.082031 7.839844 C 163.414062 7.003906 166.761719 6.253906 170.128906 5.582031 C 173.5 4.914062 176.878906 4.328125 180.277344 3.824219 C 183.671875 3.320312 187.078125 2.898438 190.496094 2.5625 C 193.914062 2.226562 197.335938 1.972656 200.765625 1.804688 C 204.195312 1.636719 207.628906 1.550781 211.0625 1.550781 C 214.496094 1.550781 217.925781 1.636719 221.355469 1.804688 C 224.785156 1.972656 228.207031 2.226562 231.625 2.5625 C 235.042969 2.898438 238.449219 3.320312 241.847656 3.824219 C 245.242188 4.328125 248.625 4.914062 251.992188 5.582031 C 255.359375 6.253906 258.707031 7.003906 262.039062 7.839844 C 265.371094 8.671875 268.679688 9.589844 271.964844 10.585938 C 275.25 11.582031 278.507812 12.660156 281.742188 13.816406 C 284.976562 14.972656 288.175781 16.207031 291.347656 17.523438 C 294.523438 18.835938 297.660156 20.226562 300.765625 21.695312 C 303.867188 23.164062 306.933594 24.707031 309.960938 26.324219 C 312.988281 27.945312 315.976562 29.636719 318.921875 31.402344 C 321.867188 33.164062 324.765625 35.003906 327.621094 36.910156 C 330.476562 38.816406 333.28125 40.792969 336.042969 42.839844 C 338.800781 44.886719 341.503906 46.996094 344.160156 49.175781 C 346.8125 51.351562 349.414062 53.59375 351.957031 55.902344 C 354.5 58.207031 356.988281 60.574219 359.414062 63 C 361.84375 65.429688 364.210938 67.914062 366.515625 70.460938 C 368.820312 73.003906 371.0625 75.601562 373.242188 78.257812 C 375.417969 80.910156 377.53125 83.617188 379.578125 86.375 C 381.621094 89.132812 383.597656 91.941406 385.507812 94.792969 C 387.414062 97.648438 389.25 100.550781 391.015625 103.496094 C 392.78125 106.441406 394.472656 109.425781 396.089844 112.453125 C 397.710938 115.484375 399.253906 118.546875 400.722656 121.652344 C 402.1875 124.757812 403.582031 127.894531 404.894531 131.066406 C 406.207031 134.238281 407.445312 137.441406 408.601562 140.675781 C 409.757812 143.90625 410.832031 147.167969 411.832031 150.453125 C 412.828125 153.738281 413.742188 157.046875 414.578125 160.378906 C 415.410156 163.707031 416.164062 167.058594 416.832031 170.425781 C 417.503906 173.792969 418.089844 177.175781 418.59375 180.570312 C 419.097656 183.96875 419.519531 187.375 419.855469 190.789062 C 420.191406 194.207031 420.445312 197.632812 420.613281 201.0625 C 420.78125 204.488281 420.863281 207.921875 420.863281 211.355469 C 420.859375 214.789062 420.769531 218.21875 420.59375 221.644531 C 420.421875 225.070312 420.164062 228.492188 419.820312 231.910156 C 419.480469 235.324219 419.054688 238.726562 418.546875 242.121094 C 418.039062 245.515625 417.449219 248.894531 416.773438 252.261719 C 416.101562 255.625 415.34375 258.972656 414.507812 262.300781 C 413.667969 265.628906 412.75 268.933594 411.75 272.21875 C 410.75 275.5 409.671875 278.757812 408.511719 281.988281 C 407.351562 285.21875 406.117188 288.417969 404.800781 291.589844 C 403.484375 294.757812 402.089844 297.894531 400.621094 300.996094 C 399.152344 304.097656 397.605469 307.160156 395.988281 310.183594 C 394.367188 313.210938 392.675781 316.195312 390.90625 319.136719 C 389.140625 322.082031 387.304688 324.980469 385.398438 327.832031 C 383.488281 330.683594 381.511719 333.488281 379.46875 336.246094 C 377.421875 339 375.308594 341.703125 373.132812 344.355469 C 370.953125 347.011719 368.714844 349.609375 366.410156 352.148438 C 364.101562 354.691406 361.738281 357.175781 359.308594 359.605469 C 356.882812 362.03125 354.398438 364.398438 351.855469 366.703125 C 349.3125 369.007812 346.714844 371.25 344.0625 373.425781 C 341.410156 375.605469 338.707031 377.714844 335.949219 379.761719 C 333.195312 381.804688 330.390625 383.78125 327.539062 385.691406 C 324.683594 387.597656 321.789062 389.4375 318.84375 391.203125 C 315.902344 392.96875 312.917969 394.660156 309.890625 396.28125 C 306.867188 397.898438 303.800781 399.445312 300.699219 400.914062 C 297.597656 402.382812 294.464844 403.777344 291.292969 405.09375 C 288.125 406.410156 284.925781 407.648438 281.695312 408.804688 C 278.464844 409.964844 275.207031 411.046875 271.925781 412.042969 C 268.640625 413.042969 265.335938 413.964844 262.007812 414.800781 C 258.679688 415.640625 255.332031 416.394531 251.96875 417.070312 C 248.601562 417.742188 245.222656 418.332031 241.828125 418.839844 C 238.433594 419.351562 235.03125 419.773438 231.613281 420.117188 C 228.199219 420.457031 224.777344 420.714844 221.351562 420.890625 C 217.921875 421.0625 214.492188 421.152344 211.0625 421.160156 Z M 211.0625 19.390625 C 207.917969 19.390625 204.78125 19.46875 201.640625 19.625 C 198.503906 19.777344 195.371094 20.007812 192.246094 20.316406 C 189.121094 20.625 186.003906 21.007812 182.894531 21.46875 C 179.785156 21.929688 176.691406 22.46875 173.609375 23.082031 C 170.53125 23.695312 167.464844 24.382812 164.417969 25.144531 C 161.371094 25.910156 158.34375 26.746094 155.335938 27.65625 C 152.332031 28.570312 149.347656 29.554688 146.390625 30.613281 C 143.433594 31.671875 140.503906 32.800781 137.601562 34.003906 C 134.699219 35.207031 131.828125 36.480469 128.988281 37.824219 C 126.148438 39.164062 123.339844 40.578125 120.570312 42.058594 C 117.800781 43.539062 115.066406 45.089844 112.371094 46.703125 C 109.679688 48.316406 107.023438 50 104.414062 51.742188 C 101.800781 53.488281 99.234375 55.296875 96.710938 57.167969 C 94.1875 59.039062 91.710938 60.972656 89.28125 62.964844 C 86.851562 64.957031 84.476562 67.011719 82.148438 69.121094 C 79.820312 71.230469 77.542969 73.394531 75.324219 75.617188 C 73.101562 77.839844 70.9375 80.113281 68.828125 82.441406 C 66.714844 84.769531 64.664062 87.148438 62.671875 89.574219 C 60.679688 92.003906 58.746094 94.480469 56.875 97.003906 C 55.003906 99.527344 53.195312 102.09375 51.449219 104.707031 C 49.703125 107.320312 48.023438 109.972656 46.410156 112.667969 C 44.792969 115.359375 43.246094 118.09375 41.765625 120.863281 C 40.285156 123.636719 38.871094 126.441406 37.527344 129.28125 C 36.1875 132.121094 34.914062 134.992188 33.710938 137.894531 C 32.507812 140.796875 31.378906 143.726562 30.320312 146.683594 C 29.261719 149.644531 28.277344 152.625 27.363281 155.632812 C 26.453125 158.636719 25.613281 161.664062 24.851562 164.710938 C 24.089844 167.757812 23.398438 170.824219 22.785156 173.90625 C 22.175781 176.984375 21.636719 180.082031 21.175781 183.1875 C 20.714844 186.296875 20.332031 189.414062 20.023438 192.539062 C 19.714844 195.667969 19.484375 198.796875 19.328125 201.9375 C 19.175781 205.074219 19.097656 208.214844 19.097656 211.355469 C 19.097656 214.496094 19.175781 217.636719 19.328125 220.773438 C 19.484375 223.914062 19.714844 227.042969 20.023438 230.171875 C 20.332031 233.296875 20.714844 236.414062 21.175781 239.523438 C 21.636719 242.628906 22.175781 245.722656 22.785156 248.804688 C 23.398438 251.886719 24.089844 254.949219 24.851562 258 C 25.613281 261.046875 26.453125 264.074219 27.363281 267.078125 C 28.277344 270.085938 29.261719 273.066406 30.320312 276.027344 C 31.378906 278.984375 32.507812 281.914062 33.710938 284.816406 C 34.914062 287.71875 36.1875 290.589844 37.527344 293.429688 C 38.871094 296.269531 40.285156 299.074219 41.765625 301.847656 C 43.246094 304.617188 44.792969 307.347656 46.410156 310.042969 C 48.023438 312.738281 49.703125 315.390625 51.449219 318.003906 C 53.195312 320.617188 55.003906 323.183594 56.875 325.707031 C 58.746094 328.230469 60.679688 330.707031 62.671875 333.136719 C 64.664062 335.5625 66.714844 337.941406 68.828125 340.269531 C 70.9375 342.597656 73.101562 344.871094 75.324219 347.09375 C 77.542969 349.316406 79.820312 351.480469 82.148438 353.589844 C 84.476562 355.699219 86.851562 357.75 89.28125 359.746094 C 91.710938 361.738281 94.1875 363.667969 96.710938 365.542969 C 99.234375 367.414062 101.800781 369.222656 104.414062 370.964844 C 107.023438 372.710938 109.679688 374.390625 112.371094 376.007812 C 115.066406 377.621094 117.800781 379.171875 120.570312 380.652344 C 123.339844 382.132812 126.148438 383.542969 128.988281 384.886719 C 131.828125 386.230469 134.699219 387.503906 137.601562 388.707031 C 140.503906 389.90625 143.433594 391.039062 146.390625 392.097656 C 149.347656 393.15625 152.332031 394.140625 155.335938 395.050781 C 158.34375 395.964844 161.371094 396.800781 164.417969 397.566406 C 167.464844 398.328125 170.53125 399.015625 173.609375 399.628906 C 176.691406 400.242188 179.785156 400.78125 182.894531 401.242188 C 186.003906 401.703125 189.121094 402.085938 192.246094 402.394531 C 195.371094 402.703125 198.503906 402.933594 201.640625 403.085938 C 204.78125 403.242188 207.917969 403.316406 211.0625 403.316406 C 214.203125 403.316406 217.34375 403.242188 220.480469 403.085938 C 223.617188 402.933594 226.75 402.703125 229.878906 402.394531 C 233.003906 402.085938 236.121094 401.703125 239.226562 401.242188 C 242.335938 400.78125 245.429688 400.242188 248.511719 399.628906 C 251.59375 399.015625 254.65625 398.328125 257.703125 397.566406 C 260.75 396.800781 263.777344 395.964844 266.785156 395.050781 C 269.792969 394.140625 272.773438 393.15625 275.730469 392.097656 C 278.691406 391.039062 281.621094 389.90625 284.523438 388.707031 C 287.425781 387.503906 290.296875 386.230469 293.136719 384.886719 C 295.976562 383.542969 298.78125 382.132812 301.550781 380.652344 C 304.324219 379.171875 307.054688 377.621094 309.75 376.007812 C 312.445312 374.390625 315.097656 372.710938 317.710938 370.964844 C 320.324219 369.222656 322.890625 367.414062 325.414062 365.542969 C 327.9375 363.667969 330.414062 361.738281 332.839844 359.746094 C 335.269531 357.75 337.648438 355.699219 339.976562 353.589844 C 342.304688 351.480469 344.578125 349.316406 346.800781 347.09375 C 349.019531 344.871094 351.1875 342.597656 353.296875 340.269531 C 355.40625 337.941406 357.457031 335.5625 359.449219 333.136719 C 361.445312 330.707031 363.375 328.230469 365.246094 325.707031 C 367.117188 323.183594 368.925781 320.617188 370.671875 318.003906 C 372.417969 315.390625 374.097656 312.738281 375.714844 310.042969 C 377.328125 307.347656 378.875 304.617188 380.359375 301.847656 C 381.839844 299.074219 383.25 296.269531 384.59375 293.429688 C 385.9375 290.589844 387.210938 287.71875 388.410156 284.816406 C 389.613281 281.914062 390.746094 278.984375 391.804688 276.027344 C 392.859375 273.066406 393.847656 270.085938 394.757812 267.078125 C 395.671875 264.074219 396.507812 261.046875 397.269531 258 C 398.035156 254.949219 398.722656 251.886719 399.335938 248.804688 C 399.949219 245.722656 400.484375 242.628906 400.945312 239.523438 C 401.40625 236.414062 401.792969 233.296875 402.101562 230.171875 C 402.40625 227.042969 402.640625 223.914062 402.792969 220.773438 C 402.945312 217.636719 403.023438 214.496094 403.023438 211.355469 C 403.019531 208.214844 402.9375 205.078125 402.777344 201.941406 C 402.617188 198.804688 402.378906 195.675781 402.066406 192.550781 C 401.753906 189.425781 401.367188 186.3125 400.902344 183.207031 C 400.433594 180.101562 399.894531 177.007812 399.277344 173.929688 C 398.660156 170.851562 397.96875 167.789062 397.203125 164.742188 C 396.433594 161.699219 395.59375 158.675781 394.679688 155.671875 C 393.761719 152.667969 392.777344 149.6875 391.714844 146.730469 C 390.652344 143.777344 389.519531 140.847656 388.316406 137.949219 C 387.113281 135.050781 385.839844 132.179688 384.492188 129.34375 C 383.148438 126.507812 381.734375 123.703125 380.253906 120.933594 C 378.769531 118.167969 377.222656 115.4375 375.605469 112.742188 C 373.988281 110.050781 372.308594 107.402344 370.5625 104.789062 C 368.816406 102.179688 367.007812 99.613281 365.136719 97.09375 C 363.265625 94.570312 361.335938 92.097656 359.339844 89.671875 C 357.347656 87.242188 355.296875 84.867188 353.191406 82.542969 C 351.082031 80.214844 348.914062 77.941406 346.695312 75.722656 C 344.476562 73.5 342.203125 71.335938 339.875 69.226562 C 337.550781 67.117188 335.171875 65.066406 332.746094 63.074219 C 330.320312 61.082031 327.84375 59.148438 325.324219 57.277344 C 322.800781 55.40625 320.234375 53.597656 317.625 51.851562 C 315.015625 50.109375 312.363281 48.425781 309.671875 46.8125 C 306.980469 45.195312 304.25 43.644531 301.480469 42.164062 C 298.714844 40.683594 295.910156 39.269531 293.074219 37.921875 C 290.234375 36.578125 287.367188 35.304688 284.46875 34.101562 C 281.566406 32.894531 278.640625 31.761719 275.683594 30.703125 C 272.730469 29.640625 269.75 28.652344 266.746094 27.738281 C 263.742188 26.824219 260.71875 25.980469 257.671875 25.214844 C 254.628906 24.449219 251.566406 23.757812 248.488281 23.140625 C 245.40625 22.523438 242.316406 21.980469 239.210938 21.515625 C 236.105469 21.050781 232.992188 20.660156 229.867188 20.347656 C 226.742188 20.035156 223.613281 19.800781 220.476562 19.640625 C 217.339844 19.480469 214.203125 19.398438 211.0625 19.390625 Z M 211.0625 19.390625 "/></g><path style=" stroke:none;fill-rule:nonzero;fill:#231f20;fill-opacity:1;" d="M 56.386719 341.769531 C 55.546875 341.78125 54.722656 341.675781 53.917969 341.449219 C 53.109375 341.226562 52.347656 340.894531 51.636719 340.449219 C 50.925781 340.007812 50.289062 339.472656 49.734375 338.847656 C 49.175781 338.222656 48.714844 337.53125 48.355469 336.773438 C 48.109375 336.246094 47.914062 335.695312 47.773438 335.128906 C 47.632812 334.5625 47.546875 333.988281 47.515625 333.40625 C 47.484375 332.824219 47.507812 332.242188 47.589844 331.664062 C 47.667969 331.085938 47.804688 330.519531 47.996094 329.96875 C 48.183594 329.414062 48.425781 328.886719 48.714844 328.382812 C 49.007812 327.875 49.34375 327.402344 49.726562 326.960938 C 50.109375 326.519531 50.53125 326.117188 50.992188 325.757812 C 51.449219 325.398438 51.941406 325.085938 52.460938 324.820312 C 58.644531 321.5625 64.917969 318.492188 71.289062 315.617188 C 77.65625 312.738281 84.109375 310.054688 90.640625 307.570312 C 97.171875 305.082031 103.773438 302.796875 110.441406 300.710938 C 117.113281 298.625 123.839844 296.742188 130.625 295.0625 C 137.410156 293.386719 144.238281 291.914062 151.113281 290.652344 C 157.984375 289.386719 164.890625 288.332031 171.828125 287.488281 C 178.765625 286.640625 185.722656 286.007812 192.699219 285.582031 C 199.675781 285.160156 206.660156 284.949219 213.648438 284.949219 C 220.636719 284.949219 227.621094 285.160156 234.597656 285.582031 C 241.570312 286.007812 248.527344 286.640625 255.46875 287.488281 C 262.40625 288.332031 269.308594 289.386719 276.183594 290.652344 C 283.058594 291.914062 289.886719 293.386719 296.671875 295.0625 C 303.457031 296.742188 310.183594 298.625 316.855469 300.710938 C 323.523438 302.796875 330.125 305.082031 336.65625 307.570312 C 343.1875 310.054688 349.640625 312.738281 356.007812 315.617188 C 362.378906 318.492188 368.652344 321.5625 374.835938 324.820312 C 375.363281 325.078125 375.859375 325.382812 376.328125 325.738281 C 376.792969 326.097656 377.222656 326.492188 377.609375 326.933594 C 378 327.375 378.339844 327.847656 378.636719 328.355469 C 378.929688 328.859375 379.171875 329.390625 379.363281 329.945312 C 379.554688 330.5 379.6875 331.070312 379.765625 331.652344 C 379.847656 332.234375 379.867188 332.816406 379.832031 333.402344 C 379.792969 333.988281 379.699219 334.5625 379.550781 335.132812 C 379.402344 335.699219 379.199219 336.246094 378.941406 336.773438 C 378.683594 337.300781 378.375 337.796875 378.019531 338.265625 C 377.664062 338.730469 377.265625 339.160156 376.828125 339.546875 C 376.386719 339.933594 375.914062 340.277344 375.40625 340.570312 C 374.898438 340.867188 374.367188 341.109375 373.8125 341.300781 C 373.257812 341.492188 372.691406 341.625 372.109375 341.703125 C 371.527344 341.78125 370.941406 341.804688 370.359375 341.765625 C 369.773438 341.730469 369.195312 341.636719 368.628906 341.488281 C 368.0625 341.339844 367.515625 341.132812 366.988281 340.875 C 361.105469 337.773438 355.136719 334.847656 349.078125 332.105469 C 343.023438 329.367188 336.886719 326.808594 330.671875 324.441406 C 324.460938 322.070312 318.179688 319.894531 311.835938 317.90625 C 305.488281 315.917969 299.089844 314.125 292.636719 312.523438 C 286.179688 310.925781 279.683594 309.523438 273.144531 308.320312 C 266.605469 307.113281 260.035156 306.109375 253.433594 305.304688 C 246.835938 304.5 240.214844 303.894531 233.578125 303.492188 C 226.941406 303.085938 220.296875 302.886719 213.648438 302.886719 C 207 302.886719 200.355469 303.085938 193.71875 303.492188 C 187.082031 303.894531 180.460938 304.5 173.863281 305.304688 C 167.261719 306.109375 160.691406 307.113281 154.152344 308.320312 C 147.613281 309.523438 141.113281 310.925781 134.660156 312.523438 C 128.207031 314.125 121.804688 315.917969 115.460938 317.90625 C 109.117188 319.894531 102.835938 322.070312 96.625 324.441406 C 90.410156 326.808594 84.273438 329.367188 78.21875 332.105469 C 72.160156 334.847656 66.191406 337.773438 60.308594 340.875 C 59.058594 341.429688 57.75 341.726562 56.386719 341.769531 Z M 56.386719 341.769531 "/><path style=" stroke:none;fill-rule:nonzero;fill:#231f20;fill-opacity:1;" d="M 268.6875 410.988281 C 267.296875 411.039062 265.992188 410.742188 264.761719 410.097656 C 264.234375 409.84375 263.734375 409.535156 263.269531 409.179688 C 262.800781 408.824219 262.375 408.425781 261.988281 407.984375 C 261.601562 407.542969 261.261719 407.066406 260.972656 406.554688 C 260.679688 406.046875 260.445312 405.511719 260.261719 404.953125 C 260.078125 404.398438 259.953125 403.824219 259.882812 403.242188 C 259.816406 402.660156 259.804688 402.074219 259.855469 401.492188 C 259.90625 400.90625 260.011719 400.332031 260.175781 399.769531 C 260.34375 399.203125 260.5625 398.664062 260.835938 398.144531 C 320.957031 279.683594 320.957031 154.085938 260.835938 24.566406 C 260.574219 24.054688 260.363281 23.527344 260.203125 22.976562 C 260.042969 22.421875 259.941406 21.863281 259.890625 21.289062 C 259.84375 20.71875 259.851562 20.148438 259.914062 19.578125 C 259.980469 19.007812 260.097656 18.449219 260.273438 17.902344 C 260.445312 17.355469 260.671875 16.832031 260.949219 16.328125 C 261.226562 15.828125 261.550781 15.359375 261.917969 14.917969 C 262.289062 14.480469 262.699219 14.082031 263.144531 13.722656 C 263.59375 13.367188 264.074219 13.054688 264.582031 12.792969 C 265.113281 12.535156 265.667969 12.335938 266.238281 12.1875 C 266.8125 12.042969 267.394531 11.953125 267.984375 11.921875 C 268.574219 11.894531 269.160156 11.921875 269.742188 12.007812 C 270.328125 12.09375 270.898438 12.234375 271.453125 12.433594 C 272.011719 12.632812 272.542969 12.886719 273.046875 13.191406 C 273.554688 13.492188 274.023438 13.84375 274.460938 14.242188 C 274.894531 14.640625 275.289062 15.078125 275.636719 15.554688 C 275.988281 16.03125 276.285156 16.539062 276.535156 17.074219 C 339.15625 151.769531 339.15625 282.71875 276.535156 406.171875 C 276.164062 406.894531 275.699219 407.550781 275.148438 408.144531 C 274.59375 408.738281 273.972656 409.25 273.28125 409.671875 C 272.589844 410.097656 271.851562 410.421875 271.074219 410.644531 C 270.292969 410.867188 269.496094 410.984375 268.6875 410.988281 Z M 268.6875 410.988281 "/><path style=" stroke:none;fill-rule:nonzero;fill:#231f20;fill-opacity:1;" d="M 153.4375 410.988281 C 152.609375 411 151.796875 410.898438 151 410.679688 C 150.203125 410.464844 149.449219 410.144531 148.738281 409.71875 C 148.03125 409.292969 147.394531 408.78125 146.828125 408.175781 C 146.261719 407.574219 145.789062 406.90625 145.410156 406.171875 C 82.609375 282.71875 82.609375 151.769531 145.230469 17.074219 C 145.476562 16.515625 145.777344 15.988281 146.136719 15.488281 C 146.492188 14.992188 146.894531 14.539062 147.34375 14.125 C 147.792969 13.710938 148.28125 13.347656 148.804688 13.03125 C 149.328125 12.71875 149.878906 12.460938 150.457031 12.261719 C 151.03125 12.058594 151.625 11.917969 152.230469 11.839844 C 152.835938 11.761719 153.445312 11.746094 154.054688 11.789062 C 154.664062 11.835938 155.261719 11.941406 155.847656 12.113281 C 156.433594 12.28125 157 12.507812 157.539062 12.792969 C 158.074219 13.03125 158.574219 13.320312 159.050781 13.660156 C 159.523438 14.003906 159.960938 14.386719 160.359375 14.816406 C 160.753906 15.242188 161.105469 15.707031 161.410156 16.203125 C 161.714844 16.703125 161.964844 17.226562 162.167969 17.773438 C 162.367188 18.324219 162.507812 18.886719 162.597656 19.464844 C 162.683594 20.042969 162.710938 20.621094 162.679688 21.207031 C 162.652344 21.789062 162.566406 22.363281 162.421875 22.929688 C 162.273438 23.496094 162.074219 24.039062 161.820312 24.566406 C 101.519531 154.085938 101.519531 279.683594 161.820312 398.144531 C 162.097656 398.664062 162.316406 399.203125 162.480469 399.769531 C 162.644531 400.332031 162.753906 400.90625 162.800781 401.492188 C 162.851562 402.074219 162.84375 402.660156 162.773438 403.242188 C 162.707031 403.824219 162.582031 404.398438 162.398438 404.953125 C 162.214844 405.511719 161.976562 406.046875 161.6875 406.554688 C 161.394531 407.066406 161.058594 407.542969 160.671875 407.984375 C 160.285156 408.425781 159.855469 408.824219 159.390625 409.179688 C 158.921875 409.535156 158.425781 409.84375 157.898438 410.097656 C 156.5 410.84375 155.011719 411.140625 153.4375 410.988281 Z M 153.4375 410.988281 "/></g><mask id="08b6ee97d8"><g filter="url(#5ad9bfd24d)"><rect x="0" width="750" y="0" height="749.999995" style="fill:#000000;fill-opacity:0.4;stroke:none;"/></g></mask></g></g></svg>