<svg xmlns="http://www.w3.org/2000/svg" xmlns:xlink="http://www.w3.org/1999/xlink" width="1000" zoomAndPan="magnify" viewBox="0 0 750 749.999995" height="1000" preserveAspectRatio="xMidYMid meet" version="1.2"><defs><filter x="0%" y="0%" width="100%" filterUnits="objectBoundingBox" id="f7fe94b0be" height="100%"><feColorMatrix values="0 0 0 0 1 0 0 0 0 1 0 0 0 0 1 0 0 0 1 0" type="matrix" in="SourceGraphic"/></filter><clipPath id="b8f056cfaa"><path d="M 1 1.132812 L 97 1.132812 L 97 156 L 1 156 Z M 1 1.132812 "/></clipPath><clipPath id="3d05270eb2"><path d="M 2 169 L 97 169 L 97 301.132812 L 2 301.132812 Z M 2 169 "/></clipPath><clipPath id="de03d7a2f4"><path d="M 93 1.132812 L 189 1.132812 L 189 156 L 93 156 Z M 93 1.132812 "/></clipPath><clipPath id="324b5fa0c2"><path d="M 93 169 L 188 169 L 188 301.132812 L 93 301.132812 Z M 93 169 "/></clipPath><clipPath id="157a551399"><rect x="0" width="190" y="0" height="302"/></clipPath></defs><g id="2b276d045e"><g mask="url(#784bc99cdc)" transform="matrix(1,0,0,1,284,85)"><g clip-path="url(#157a551399)"><g clip-rule="nonzero" clip-path="url(#b8f056cfaa)"><path style=" stroke:none;fill-rule:nonzero;fill:#231f20;fill-opacity:1;" d="M 3.039062 155.917969 C 2.710938 155.917969 2.410156 155.835938 2.128906 155.671875 C 1.847656 155.507812 1.628906 155.285156 1.46875 155 C 1.308594 154.71875 1.230469 154.414062 1.238281 154.089844 C 1.242188 153.765625 1.332031 153.464844 1.5 153.1875 L 93.492188 2.132812 C 93.703125 1.789062 93.996094 1.542969 94.371094 1.394531 C 94.746094 1.246094 95.128906 1.226562 95.515625 1.335938 C 95.90625 1.445312 96.222656 1.660156 96.464844 1.980469 C 96.710938 2.300781 96.832031 2.664062 96.832031 3.066406 L 96.832031 113.933594 C 96.832031 114.289062 96.734375 114.617188 96.535156 114.917969 C 96.339844 115.214844 96.078125 115.4375 95.75 115.578125 L 3.761719 155.765625 C 3.53125 155.867188 3.289062 155.917969 3.039062 155.917969 Z M 93.230469 9.488281 L 7.535156 150.195312 L 93.230469 112.757812 Z M 93.230469 9.488281 "/></g><path style=" stroke:none;fill-rule:nonzero;fill:#231f20;fill-opacity:1;" d="M 95.03125 209.617188 C 94.707031 209.617188 94.402344 209.535156 94.121094 209.371094 L 2.128906 155.667969 C 1.835938 155.5 1.609375 155.265625 1.449219 154.964844 C 1.289062 154.667969 1.21875 154.351562 1.238281 154.011719 C 1.257812 153.675781 1.367188 153.367188 1.558594 153.089844 C 1.753906 152.8125 2.003906 152.605469 2.316406 152.472656 L 94.308594 112.285156 C 94.445312 112.222656 94.589844 112.183594 94.734375 112.15625 C 94.882812 112.132812 95.03125 112.128906 95.179688 112.140625 C 95.328125 112.152344 95.476562 112.183594 95.617188 112.230469 C 95.757812 112.28125 95.890625 112.34375 96.015625 112.425781 C 96.140625 112.507812 96.253906 112.605469 96.355469 112.714844 C 96.457031 112.824219 96.542969 112.945312 96.613281 113.074219 C 96.683594 113.207031 96.738281 113.34375 96.773438 113.488281 C 96.8125 113.632812 96.832031 113.78125 96.832031 113.929688 L 96.832031 207.820312 C 96.832031 208.058594 96.785156 208.289062 96.691406 208.507812 C 96.601562 208.726562 96.472656 208.921875 96.304688 209.089844 C 96.132812 209.257812 95.9375 209.390625 95.71875 209.480469 C 95.5 209.570312 95.269531 209.617188 95.03125 209.617188 Z M 7 154.351562 L 93.230469 204.691406 L 93.230469 116.679688 Z M 7 154.351562 "/><g clip-rule="nonzero" clip-path="url(#3d05270eb2)"><path style=" stroke:none;fill-rule:nonzero;fill:#231f20;fill-opacity:1;" d="M 95.03125 301.082031 C 94.410156 301.082031 93.917969 300.828125 93.558594 300.324219 L 3.300781 172.828125 C 3.058594 172.484375 2.949219 172.097656 2.976562 171.675781 C 3.003906 171.25 3.164062 170.882812 3.453125 170.570312 C 3.738281 170.261719 4.09375 170.074219 4.515625 170.015625 C 4.9375 169.953125 5.332031 170.03125 5.695312 170.25 L 95.957031 223.949219 C 96.226562 224.109375 96.441406 224.328125 96.601562 224.601562 C 96.757812 224.878906 96.835938 225.175781 96.835938 225.492188 L 96.835938 299.285156 C 96.835938 299.523438 96.789062 299.753906 96.699219 299.972656 C 96.605469 300.195312 96.476562 300.386719 96.308594 300.558594 C 96.136719 300.726562 95.945312 300.855469 95.722656 300.945312 C 95.503906 301.039062 95.273438 301.082031 95.035156 301.082031 Z M 11.140625 177.671875 L 93.230469 293.628906 L 93.230469 226.511719 Z M 11.140625 177.671875 "/></g><g clip-rule="nonzero" clip-path="url(#de03d7a2f4)"><path style=" stroke:none;fill-rule:nonzero;fill:#231f20;fill-opacity:1;" d="M 187.023438 155.917969 C 186.773438 155.917969 186.535156 155.867188 186.304688 155.765625 L 94.308594 115.578125 C 93.980469 115.4375 93.71875 115.214844 93.523438 114.917969 C 93.328125 114.617188 93.230469 114.289062 93.230469 113.933594 L 93.230469 3.066406 C 93.230469 2.664062 93.351562 2.300781 93.59375 1.980469 C 93.839844 1.660156 94.15625 1.445312 94.542969 1.335938 C 94.933594 1.226562 95.316406 1.246094 95.691406 1.394531 C 96.066406 1.542969 96.359375 1.789062 96.566406 2.132812 L 188.5625 153.1875 C 188.734375 153.464844 188.820312 153.765625 188.824219 154.089844 C 188.832031 154.414062 188.753906 154.71875 188.59375 155.003906 C 188.433594 155.285156 188.214844 155.507812 187.933594 155.671875 C 187.652344 155.835938 187.347656 155.917969 187.023438 155.917969 Z M 96.832031 112.757812 L 182.527344 150.195312 L 96.832031 9.488281 Z M 96.832031 112.757812 "/></g><path style=" stroke:none;fill-rule:nonzero;fill:#231f20;fill-opacity:1;" d="M 95.03125 209.617188 C 94.792969 209.617188 94.5625 209.574219 94.339844 209.480469 C 94.121094 209.390625 93.925781 209.261719 93.757812 209.09375 C 93.589844 208.925781 93.457031 208.730469 93.367188 208.507812 C 93.277344 208.289062 93.230469 208.058594 93.230469 207.820312 L 93.230469 113.929688 C 93.230469 113.78125 93.25 113.636719 93.285156 113.492188 C 93.320312 113.347656 93.375 113.207031 93.445312 113.078125 C 93.519531 112.945312 93.605469 112.824219 93.707031 112.714844 C 93.804688 112.605469 93.917969 112.511719 94.042969 112.429688 C 94.167969 112.347656 94.304688 112.28125 94.445312 112.234375 C 94.585938 112.183594 94.730469 112.152344 94.878906 112.140625 C 95.027344 112.128906 95.175781 112.136719 95.324219 112.160156 C 95.472656 112.183594 95.613281 112.226562 95.75 112.285156 L 187.746094 152.472656 C 188.054688 152.609375 188.308594 152.816406 188.5 153.09375 C 188.695312 153.371094 188.800781 153.675781 188.820312 154.015625 C 188.839844 154.351562 188.769531 154.667969 188.609375 154.96875 C 188.449219 155.265625 188.222656 155.5 187.933594 155.671875 L 95.941406 209.371094 C 95.660156 209.535156 95.355469 209.621094 95.03125 209.617188 Z M 96.832031 116.679688 L 96.832031 204.691406 L 183.0625 154.351562 Z M 96.832031 116.679688 "/><g clip-rule="nonzero" clip-path="url(#324b5fa0c2)"><path style=" stroke:none;fill-rule:nonzero;fill:#231f20;fill-opacity:1;" d="M 95.03125 301.082031 C 94.792969 301.082031 94.5625 301.039062 94.339844 300.945312 C 94.121094 300.855469 93.925781 300.726562 93.757812 300.558594 C 93.589844 300.386719 93.457031 300.195312 93.367188 299.972656 C 93.277344 299.753906 93.230469 299.523438 93.230469 299.285156 L 93.230469 225.492188 C 93.230469 225.175781 93.308594 224.878906 93.464844 224.601562 C 93.621094 224.328125 93.835938 224.109375 94.109375 223.949219 L 184.367188 170.246094 C 184.730469 170.03125 185.125 169.953125 185.546875 170.011719 C 185.96875 170.074219 186.320312 170.257812 186.609375 170.570312 C 186.898438 170.882812 187.058594 171.25 187.085938 171.671875 C 187.113281 172.097656 187.003906 172.480469 186.757812 172.828125 L 96.5 300.324219 C 96.144531 300.828125 95.652344 301.082031 95.03125 301.082031 Z M 96.832031 226.511719 L 96.832031 293.625 L 178.921875 177.667969 Z M 96.832031 226.511719 "/></g></g><mask id="784bc99cdc"><g filter="url(#f7fe94b0be)"><rect x="0" width="750" y="0" height="749.999995" style="fill:#000000;fill-opacity:0.38;stroke:none;"/></g></mask></g><g style="fill:#000000;fill-opacity:1;"><g transform="translate(97.658201, 349.969837)"><path style="stroke:none" d="M 54.484375 -14.3125 C 54.859375 -14.3125 55.335938 -14.164062 55.921875 -13.875 C 56.503906 -13.582031 56.796875 -12.820312 56.796875 -11.59375 L 56.796875 -2.796875 C 56.796875 -1.566406 56.503906 -0.804688 55.921875 -0.515625 C 55.335938 -0.222656 54.859375 -0.078125 54.484375 -0.078125 L 26.078125 -0.078125 C 24.316406 -0.078125 22.6875 -0.179688 21.1875 -0.390625 C 19.695312 -0.609375 18.34375 -0.957031 17.125 -1.4375 C 14.507812 -2.34375 12.425781 -3.8125 10.875 -5.84375 C 9.28125 -7.914062 8.132812 -10.53125 7.4375 -13.6875 C 7.175781 -15.019531 6.953125 -16.484375 6.765625 -18.078125 C 6.578125 -19.679688 6.457031 -21.414062 6.40625 -23.28125 L 6.40625 -23.6875 L 6.5625 -33.765625 C 6.71875 -34.347656 7.007812 -35.015625 7.4375 -35.765625 C 8.613281 -37.835938 10.425781 -38.957031 12.875 -39.125 L 54.15625 -39.203125 C 54.476562 -39.203125 54.929688 -39.050781 55.515625 -38.75 C 56.109375 -38.457031 56.40625 -37.703125 56.40625 -36.484375 L 56.40625 -30.15625 C 56.40625 -28.925781 56.109375 -28.148438 55.515625 -27.828125 C 54.929688 -27.515625 54.476562 -27.359375 54.15625 -27.359375 L 18.40625 -27.359375 C 18.40625 -27.359375 18.390625 -27.0625 18.359375 -26.46875 C 18.328125 -25.882812 18.296875 -25.21875 18.265625 -24.46875 C 18.242188 -23.726562 18.234375 -23.0625 18.234375 -22.46875 C 18.234375 -21.882812 18.234375 -21.59375 18.234375 -21.59375 C 18.285156 -21.382812 18.3125 -21.160156 18.3125 -20.921875 C 18.3125 -20.679688 18.34375 -20.453125 18.40625 -20.234375 C 18.613281 -18.742188 19.066406 -17.546875 19.765625 -16.640625 C 20.398438 -15.835938 21.195312 -15.25 22.15625 -14.875 C 22.75 -14.71875 23.378906 -14.582031 24.046875 -14.46875 C 24.710938 -14.363281 25.46875 -14.3125 26.3125 -14.3125 Z M 13.4375 -38.484375 Z M 54.5625 -66.078125 C 54.882812 -66.078125 55.335938 -65.914062 55.921875 -65.59375 C 56.503906 -65.28125 56.796875 -64.507812 56.796875 -63.28125 L 56.796875 -56.953125 C 56.796875 -55.734375 56.503906 -54.960938 55.921875 -54.640625 C 55.335938 -54.316406 54.882812 -54.15625 54.5625 -54.15625 L 8.5625 -54.234375 C 8.238281 -54.234375 7.796875 -54.378906 7.234375 -54.671875 C 6.679688 -54.972656 6.40625 -55.734375 6.40625 -56.953125 L 6.40625 -63.203125 C 6.40625 -64.484375 6.679688 -65.28125 7.234375 -65.59375 C 7.796875 -65.914062 8.238281 -66.078125 8.5625 -66.078125 Z M 54.5625 -66.078125 "/></g></g><g style="fill:#000000;fill-opacity:1;"><g transform="translate(164.85168, 349.969837)"><path style="stroke:none" d="M 61.6875 -65.921875 C 62.050781 -65.921875 62.523438 -65.773438 63.109375 -65.484375 C 63.703125 -65.191406 64 -64.429688 64 -63.203125 L 64 -56.953125 C 64 -55.617188 63.703125 -54.804688 63.109375 -54.515625 C 62.523438 -54.222656 62.050781 -54.078125 61.6875 -54.078125 L 41.125 -54.078125 L 41.125 -2.71875 C 41.125 -1.488281 40.84375 -0.726562 40.28125 -0.4375 C 39.71875 -0.144531 39.25 0 38.875 0 L 31.515625 0 C 31.203125 0 30.75 -0.144531 30.15625 -0.4375 C 29.570312 -0.726562 29.28125 -1.488281 29.28125 -2.71875 L 29.28125 -54.078125 L 8.71875 -54.078125 C 8.34375 -54.078125 7.863281 -54.222656 7.28125 -54.515625 C 6.695312 -54.804688 6.40625 -55.617188 6.40625 -56.953125 L 6.40625 -63.203125 C 6.40625 -64.429688 6.695312 -65.191406 7.28125 -65.484375 C 7.863281 -65.773438 8.34375 -65.921875 8.71875 -65.921875 Z M 61.6875 -65.921875 "/></g></g><g style="fill:#000000;fill-opacity:1;"><g transform="translate(239.244453, 349.969837)"><path style="stroke:none" d="M 58.078125 -65.921875 C 58.453125 -65.921875 58.929688 -65.757812 59.515625 -65.4375 C 60.109375 -65.113281 60.40625 -64.34375 60.40625 -63.125 L 60.40625 -2.71875 C 60.40625 -1.488281 60.109375 -0.710938 59.515625 -0.390625 C 58.929688 -0.078125 58.453125 0.078125 58.078125 0.078125 L 50.71875 0.078125 C 50.394531 0.078125 49.953125 -0.078125 49.390625 -0.390625 C 48.835938 -0.710938 48.5625 -1.488281 48.5625 -2.71875 L 48.5625 -27.359375 L 18.234375 -27.359375 L 18.234375 -2.71875 C 18.234375 -1.488281 17.953125 -0.710938 17.390625 -0.390625 C 16.835938 -0.078125 16.375 0.078125 16 0.078125 L 8.71875 0.078125 C 8.34375 0.078125 7.863281 -0.078125 7.28125 -0.390625 C 6.695312 -0.710938 6.40625 -1.488281 6.40625 -2.71875 L 6.40625 -63.125 C 6.40625 -64.34375 6.695312 -65.113281 7.28125 -65.4375 C 7.863281 -65.757812 8.34375 -65.921875 8.71875 -65.921875 L 16 -65.921875 C 16.375 -65.921875 16.835938 -65.757812 17.390625 -65.4375 C 17.953125 -65.113281 18.234375 -64.34375 18.234375 -63.125 L 18.234375 -39.203125 L 48.5625 -39.203125 L 48.5625 -63.125 C 48.5625 -64.34375 48.835938 -65.113281 49.390625 -65.4375 C 49.953125 -65.757812 50.394531 -65.921875 50.71875 -65.921875 Z M 58.078125 -65.921875 "/></g></g><g style="fill:#000000;fill-opacity:1;"><g transform="translate(310.037578, 349.969837)"><path style="stroke:none" d="M 54.484375 -14.3125 C 54.859375 -14.3125 55.335938 -14.164062 55.921875 -13.875 C 56.503906 -13.582031 56.796875 -12.820312 56.796875 -11.59375 L 56.796875 -2.796875 C 56.796875 -1.566406 56.503906 -0.804688 55.921875 -0.515625 C 55.335938 -0.222656 54.859375 -0.078125 54.484375 -0.078125 L 26.078125 -0.078125 C 24.316406 -0.078125 22.6875 -0.179688 21.1875 -0.390625 C 19.695312 -0.609375 18.34375 -0.957031 17.125 -1.4375 C 14.507812 -2.34375 12.425781 -3.8125 10.875 -5.84375 C 9.28125 -7.914062 8.132812 -10.53125 7.4375 -13.6875 C 7.175781 -15.019531 6.953125 -16.484375 6.765625 -18.078125 C 6.578125 -19.679688 6.457031 -21.414062 6.40625 -23.28125 L 6.40625 -23.6875 L 6.5625 -33.765625 C 6.71875 -34.347656 7.007812 -35.015625 7.4375 -35.765625 C 8.613281 -37.835938 10.425781 -38.957031 12.875 -39.125 L 54.15625 -39.203125 C 54.476562 -39.203125 54.929688 -39.050781 55.515625 -38.75 C 56.109375 -38.457031 56.40625 -37.703125 56.40625 -36.484375 L 56.40625 -30.15625 C 56.40625 -28.925781 56.109375 -28.148438 55.515625 -27.828125 C 54.929688 -27.515625 54.476562 -27.359375 54.15625 -27.359375 L 18.40625 -27.359375 C 18.40625 -27.359375 18.390625 -27.0625 18.359375 -26.46875 C 18.328125 -25.882812 18.296875 -25.21875 18.265625 -24.46875 C 18.242188 -23.726562 18.234375 -23.0625 18.234375 -22.46875 C 18.234375 -21.882812 18.234375 -21.59375 18.234375 -21.59375 C 18.285156 -21.382812 18.3125 -21.160156 18.3125 -20.921875 C 18.3125 -20.679688 18.34375 -20.453125 18.40625 -20.234375 C 18.613281 -18.742188 19.066406 -17.546875 19.765625 -16.640625 C 20.398438 -15.835938 21.195312 -15.25 22.15625 -14.875 C 22.75 -14.71875 23.378906 -14.582031 24.046875 -14.46875 C 24.710938 -14.363281 25.46875 -14.3125 26.3125 -14.3125 Z M 13.4375 -38.484375 Z M 54.5625 -66.078125 C 54.882812 -66.078125 55.335938 -65.914062 55.921875 -65.59375 C 56.503906 -65.28125 56.796875 -64.507812 56.796875 -63.28125 L 56.796875 -56.953125 C 56.796875 -55.734375 56.503906 -54.960938 55.921875 -54.640625 C 55.335938 -54.316406 54.882812 -54.15625 54.5625 -54.15625 L 8.5625 -54.234375 C 8.238281 -54.234375 7.796875 -54.378906 7.234375 -54.671875 C 6.679688 -54.972656 6.40625 -55.734375 6.40625 -56.953125 L 6.40625 -63.203125 C 6.40625 -64.484375 6.679688 -65.28125 7.234375 -65.59375 C 7.796875 -65.914062 8.238281 -66.078125 8.5625 -66.078125 Z M 54.5625 -66.078125 "/></g></g><g style="fill:#000000;fill-opacity:1;"><g transform="translate(377.231057, 349.969837)"><path style="stroke:none" d="M 60.953125 -46.796875 L 60.953125 -46.3125 C 60.953125 -46.375 60.953125 -46.414062 60.953125 -46.4375 C 60.953125 -46.46875 60.953125 -46.507812 60.953125 -46.5625 C 60.953125 -46.613281 60.953125 -46.648438 60.953125 -46.671875 C 60.953125 -46.703125 60.953125 -46.742188 60.953125 -46.796875 Z M 62.484375 -3.4375 C 62.796875 -3.007812 62.898438 -2.367188 62.796875 -1.515625 C 62.640625 -0.453125 62.023438 0.078125 60.953125 0.078125 L 52.15625 0.078125 C 51.46875 0.078125 50.910156 -0.0820312 50.484375 -0.40625 C 50.316406 -0.507812 50.164062 -0.664062 50.03125 -0.875 C 49.90625 -1.09375 49.757812 -1.304688 49.59375 -1.515625 L 35.125 -27.203125 L 18.234375 -27.203125 L 18.234375 -2.71875 C 18.234375 -1.488281 17.953125 -0.710938 17.390625 -0.390625 C 16.835938 -0.078125 16.375 0.078125 16 0.078125 L 8.71875 0.078125 C 8.34375 0.078125 7.863281 -0.078125 7.28125 -0.390625 C 6.695312 -0.710938 6.40625 -1.488281 6.40625 -2.71875 L 6.40625 -36.3125 C 6.40625 -37.539062 6.695312 -38.300781 7.28125 -38.59375 C 7.863281 -38.894531 8.34375 -39.046875 8.71875 -39.046875 L 43.515625 -39.046875 C 45.546875 -39.046875 46.960938 -39.628906 47.765625 -40.796875 C 48.617188 -41.972656 49.046875 -43.894531 49.046875 -46.5625 C 49.046875 -49.226562 48.617188 -51.144531 47.765625 -52.3125 C 46.960938 -53.488281 45.546875 -54.078125 43.515625 -54.078125 L 8.71875 -54.078125 C 8.34375 -54.078125 7.863281 -54.222656 7.28125 -54.515625 C 6.695312 -54.804688 6.40625 -55.566406 6.40625 -56.796875 L 6.40625 -63.125 C 6.40625 -64.40625 6.695312 -65.191406 7.28125 -65.484375 C 7.863281 -65.773438 8.34375 -65.921875 8.71875 -65.921875 L 45.59375 -65.921875 C 51.09375 -65.921875 55.039062 -64.210938 57.4375 -60.796875 C 59.726562 -57.492188 60.898438 -52.75 60.953125 -46.5625 C 60.898438 -40.375 59.726562 -35.625 57.4375 -32.3125 C 55.414062 -29.539062 52.429688 -27.914062 48.484375 -27.4375 Z M 62.484375 -3.4375 "/></g></g><g style="fill:#000000;fill-opacity:1;"><g transform="translate(450.503934, 349.969837)"><path style="stroke:none" d="M 54.484375 -14.3125 C 54.859375 -14.3125 55.335938 -14.164062 55.921875 -13.875 C 56.503906 -13.582031 56.796875 -12.820312 56.796875 -11.59375 L 56.796875 -2.796875 C 56.796875 -1.566406 56.503906 -0.804688 55.921875 -0.515625 C 55.335938 -0.222656 54.859375 -0.078125 54.484375 -0.078125 L 26.078125 -0.078125 C 24.316406 -0.078125 22.6875 -0.179688 21.1875 -0.390625 C 19.695312 -0.609375 18.34375 -0.957031 17.125 -1.4375 C 14.507812 -2.34375 12.425781 -3.8125 10.875 -5.84375 C 9.28125 -7.914062 8.132812 -10.53125 7.4375 -13.6875 C 7.175781 -15.019531 6.953125 -16.484375 6.765625 -18.078125 C 6.578125 -19.679688 6.457031 -21.414062 6.40625 -23.28125 L 6.40625 -23.6875 L 6.5625 -33.765625 C 6.71875 -34.347656 7.007812 -35.015625 7.4375 -35.765625 C 8.613281 -37.835938 10.425781 -38.957031 12.875 -39.125 L 54.15625 -39.203125 C 54.476562 -39.203125 54.929688 -39.050781 55.515625 -38.75 C 56.109375 -38.457031 56.40625 -37.703125 56.40625 -36.484375 L 56.40625 -30.15625 C 56.40625 -28.925781 56.109375 -28.148438 55.515625 -27.828125 C 54.929688 -27.515625 54.476562 -27.359375 54.15625 -27.359375 L 18.40625 -27.359375 C 18.40625 -27.359375 18.390625 -27.0625 18.359375 -26.46875 C 18.328125 -25.882812 18.296875 -25.21875 18.265625 -24.46875 C 18.242188 -23.726562 18.234375 -23.0625 18.234375 -22.46875 C 18.234375 -21.882812 18.234375 -21.59375 18.234375 -21.59375 C 18.285156 -21.382812 18.3125 -21.160156 18.3125 -20.921875 C 18.3125 -20.679688 18.34375 -20.453125 18.40625 -20.234375 C 18.613281 -18.742188 19.066406 -17.546875 19.765625 -16.640625 C 20.398438 -15.835938 21.195312 -15.25 22.15625 -14.875 C 22.75 -14.71875 23.378906 -14.582031 24.046875 -14.46875 C 24.710938 -14.363281 25.46875 -14.3125 26.3125 -14.3125 Z M 13.4375 -38.484375 Z M 54.5625 -66.078125 C 54.882812 -66.078125 55.335938 -65.914062 55.921875 -65.59375 C 56.503906 -65.28125 56.796875 -64.507812 56.796875 -63.28125 L 56.796875 -56.953125 C 56.796875 -55.734375 56.503906 -54.960938 55.921875 -54.640625 C 55.335938 -54.316406 54.882812 -54.15625 54.5625 -54.15625 L 8.5625 -54.234375 C 8.238281 -54.234375 7.796875 -54.378906 7.234375 -54.671875 C 6.679688 -54.972656 6.40625 -55.734375 6.40625 -56.953125 L 6.40625 -63.203125 C 6.40625 -64.484375 6.679688 -65.28125 7.234375 -65.59375 C 7.796875 -65.914062 8.238281 -66.078125 8.5625 -66.078125 Z M 54.5625 -66.078125 "/></g></g><g style="fill:#000000;fill-opacity:1;"><g transform="translate(517.697412, 349.969837)"><path style="stroke:none" d="M 61.6875 -65.921875 C 62.050781 -65.921875 62.515625 -65.773438 63.078125 -65.484375 C 63.640625 -65.191406 63.921875 -64.429688 63.921875 -63.203125 L 63.921875 -25.046875 C 63.921875 -22.804688 63.835938 -20.722656 63.671875 -18.796875 C 63.515625 -16.878906 63.25 -15.144531 62.875 -13.59375 C 62.132812 -10.289062 60.988281 -7.679688 59.4375 -5.765625 C 57.894531 -3.734375 55.816406 -2.238281 53.203125 -1.28125 C 50.796875 -0.425781 47.78125 0 44.15625 0 L 26.15625 0 C 22.53125 0 19.519531 -0.425781 17.125 -1.28125 C 15.894531 -1.757812 14.742188 -2.367188 13.671875 -3.109375 C 12.609375 -3.859375 11.703125 -4.742188 10.953125 -5.765625 C 9.304688 -7.785156 8.132812 -10.394531 7.4375 -13.59375 C 7.0625 -15.144531 6.796875 -16.878906 6.640625 -18.796875 C 6.484375 -20.722656 6.40625 -22.804688 6.40625 -25.046875 L 6.40625 -63.203125 C 6.40625 -64.429688 6.695312 -65.191406 7.28125 -65.484375 C 7.863281 -65.773438 8.34375 -65.921875 8.71875 -65.921875 L 16 -65.921875 C 16.375 -65.921875 16.835938 -65.773438 17.390625 -65.484375 C 17.953125 -65.191406 18.234375 -64.429688 18.234375 -63.203125 L 18.234375 -23.765625 C 18.234375 -22.585938 18.273438 -21.476562 18.359375 -20.4375 C 18.441406 -19.394531 18.535156 -18.503906 18.640625 -17.765625 C 18.960938 -16.316406 19.414062 -15.113281 20 -14.15625 C 20.632812 -13.351562 21.4375 -12.769531 22.40625 -12.40625 C 22.9375 -12.238281 23.546875 -12.101562 24.234375 -12 C 24.929688 -11.894531 25.707031 -11.84375 26.5625 -11.84375 L 43.84375 -11.84375 C 44.695312 -11.84375 45.46875 -11.894531 46.15625 -12 C 46.851562 -12.101562 47.46875 -12.238281 48 -12.40625 C 48.957031 -12.769531 49.757812 -13.351562 50.40625 -14.15625 C 50.664062 -14.582031 50.914062 -15.101562 51.15625 -15.71875 C 51.394531 -16.332031 51.570312 -17.015625 51.6875 -17.765625 C 51.789062 -18.503906 51.878906 -19.394531 51.953125 -20.4375 C 52.035156 -21.476562 52.078125 -22.585938 52.078125 -23.765625 L 52.078125 -63.203125 C 52.078125 -64.429688 52.359375 -65.191406 52.921875 -65.484375 C 53.484375 -65.773438 53.945312 -65.921875 54.3125 -65.921875 Z M 61.6875 -65.921875 "/></g></g><g style="fill:#000000;fill-opacity:1;"><g transform="translate(592.010214, 349.969837)"><path style="stroke:none" d="M 73.203125 -65.921875 C 75.867188 -65.921875 77.679688 -65.066406 78.640625 -63.359375 C 79.492188 -61.867188 79.921875 -59.28125 79.921875 -55.59375 L 79.921875 -2.71875 C 79.921875 -1.488281 79.625 -0.710938 79.03125 -0.390625 C 78.445312 -0.078125 77.96875 0.078125 77.59375 0.078125 L 70.71875 0.078125 C 70.394531 0.078125 69.941406 -0.078125 69.359375 -0.390625 C 68.773438 -0.710938 68.484375 -1.488281 68.484375 -2.71875 L 68.484375 -50.796875 C 68.484375 -50.847656 68.484375 -50.882812 68.484375 -50.90625 C 68.484375 -50.9375 68.484375 -50.953125 68.484375 -50.953125 L 68.078125 -50.953125 C 67.972656 -50.953125 67.921875 -50.898438 67.921875 -50.796875 L 54.15625 -16.875 C 53.625 -15.226562 53.066406 -13.789062 52.484375 -12.5625 C 52.210938 -11.976562 51.90625 -11.441406 51.5625 -10.953125 C 51.21875 -10.472656 50.882812 -10.019531 50.5625 -9.59375 C 49.757812 -8.738281 48.90625 -8.15625 48 -7.84375 C 47.144531 -7.519531 46.078125 -7.359375 44.796875 -7.359375 L 41.515625 -7.359375 C 40.347656 -7.359375 39.28125 -7.519531 38.3125 -7.84375 C 37.832031 -8 37.394531 -8.238281 37 -8.5625 C 36.601562 -8.882812 36.191406 -9.226562 35.765625 -9.59375 C 35.066406 -10.445312 34.425781 -11.4375 33.84375 -12.5625 C 33.3125 -13.789062 32.75 -15.226562 32.15625 -16.875 L 18.484375 -50.71875 C 18.429688 -50.875 18.347656 -50.953125 18.234375 -50.953125 L 17.84375 -50.953125 C 17.84375 -50.953125 17.84375 -50.9375 17.84375 -50.90625 C 17.84375 -50.882812 17.84375 -50.847656 17.84375 -50.796875 L 17.84375 -2.71875 C 17.84375 -1.488281 17.5625 -0.710938 17 -0.390625 C 16.4375 -0.078125 15.96875 0.078125 15.59375 0.078125 L 8.71875 0.078125 C 8.34375 0.078125 7.863281 -0.078125 7.28125 -0.390625 C 6.695312 -0.710938 6.40625 -1.488281 6.40625 -2.71875 L 6.40625 -55.59375 C 6.40625 -59.28125 6.832031 -61.867188 7.6875 -63.359375 C 8.644531 -65.066406 10.484375 -65.921875 13.203125 -65.921875 L 20.5625 -65.921875 C 21.726562 -65.921875 22.660156 -65.8125 23.359375 -65.59375 C 24.265625 -65.332031 25.007812 -64.9375 25.59375 -64.40625 C 25.863281 -64.082031 26.144531 -63.734375 26.4375 -63.359375 C 26.726562 -62.984375 26.984375 -62.554688 27.203125 -62.078125 C 27.410156 -61.597656 27.632812 -61.050781 27.875 -60.4375 C 28.113281 -59.820312 28.34375 -59.144531 28.5625 -58.40625 L 42.640625 -23.046875 C 42.691406 -22.878906 42.742188 -22.78125 42.796875 -22.75 C 42.847656 -22.726562 42.875 -22.71875 42.875 -22.71875 L 43.6875 -22.71875 C 43.789062 -22.71875 43.867188 -22.828125 43.921875 -23.046875 L 58.078125 -58.40625 C 58.347656 -59.144531 58.585938 -59.820312 58.796875 -60.4375 C 59.015625 -61.050781 59.226562 -61.597656 59.4375 -62.078125 C 59.707031 -62.554688 59.972656 -62.984375 60.234375 -63.359375 C 60.503906 -63.734375 60.773438 -64.082031 61.046875 -64.40625 C 61.679688 -64.988281 62.398438 -65.382812 63.203125 -65.59375 C 63.890625 -65.8125 64.820312 -65.921875 66 -65.921875 Z M 73.203125 -65.921875 "/></g></g><g style="fill:#000000;fill-opacity:1;"><g transform="translate(155.056636, 461.719831)"><path style="stroke:none" d="M 103.046875 -66.875 C 103.679688 -66.875 104.117188 -66.738281 104.359375 -66.46875 C 104.597656 -66.207031 104.742188 -65.945312 104.796875 -65.6875 C 104.960938 -65.144531 104.910156 -64.503906 104.640625 -63.765625 L 86.796875 -8.40625 C 85.628906 -5.46875 84.457031 -3.492188 83.28125 -2.484375 C 83.125 -2.367188 82.953125 -2.234375 82.765625 -2.078125 C 82.578125 -1.921875 82.347656 -1.789062 82.078125 -1.6875 C 80.484375 -0.5625 78.644531 0 76.5625 0 C 74.375 0 72.382812 -0.664062 70.59375 -2 C 68.8125 -3.332031 67.628906 -5.039062 67.046875 -7.125 C 66.984375 -7.28125 66.898438 -7.460938 66.796875 -7.671875 C 66.691406 -7.890625 66.585938 -8.101562 66.484375 -8.3125 L 55.4375 -45.203125 L 43.59375 -8.40625 C 43.007812 -6.90625 42.421875 -5.675781 41.828125 -4.71875 C 41.242188 -3.757812 40.660156 -3.015625 40.078125 -2.484375 C 39.867188 -2.367188 39.679688 -2.234375 39.515625 -2.078125 C 39.359375 -1.921875 39.144531 -1.789062 38.875 -1.6875 C 37.28125 -0.5625 35.441406 0 33.359375 0 C 31.171875 0 29.179688 -0.664062 27.390625 -2 C 25.609375 -3.332031 24.425781 -5.039062 23.84375 -7.125 C 23.789062 -7.28125 23.707031 -7.460938 23.59375 -7.671875 C 23.488281 -7.890625 23.382812 -8.101562 23.28125 -8.3125 L 6.71875 -63.765625 C 6.445312 -64.398438 6.394531 -65.039062 6.5625 -65.6875 C 6.613281 -65.894531 6.742188 -66.144531 6.953125 -66.4375 C 7.171875 -66.726562 7.597656 -66.875 8.234375 -66.875 L 16.796875 -66.875 C 17.921875 -66.875 18.695312 -66.289062 19.125 -65.125 L 33.125 -17.046875 C 33.125 -16.984375 33.132812 -16.9375 33.15625 -16.90625 C 33.1875 -16.882812 33.203125 -16.875 33.203125 -16.875 L 33.515625 -16.953125 C 33.515625 -16.953125 33.515625 -16.96875 33.515625 -17 C 33.515625 -17.03125 33.539062 -17.070312 33.59375 -17.125 L 48.71875 -65.125 C 49.195312 -66.289062 49.972656 -66.875 51.046875 -66.875 L 60.078125 -66.875 C 61.148438 -66.875 61.894531 -66.289062 62.3125 -65.125 L 76.3125 -17.046875 C 76.3125 -16.984375 76.328125 -16.9375 76.359375 -16.90625 C 76.390625 -16.882812 76.40625 -16.875 76.40625 -16.875 L 76.71875 -16.953125 C 76.71875 -16.953125 76.71875 -16.96875 76.71875 -17 C 76.71875 -17.03125 76.742188 -17.070312 76.796875 -17.125 L 91.921875 -65.125 C 92.398438 -66.289062 93.171875 -66.875 94.234375 -66.875 Z M 103.046875 -66.875 "/></g></g><g style="fill:#000000;fill-opacity:1;"><g transform="translate(270.405431, 461.719831)"><path style="stroke:none" d="M 49.28125 -58.484375 L 71.765625 -3.046875 C 72.078125 -2.296875 72.15625 -1.65625 72 -1.125 C 71.945312 -0.90625 71.800781 -0.648438 71.5625 -0.359375 C 71.320312 -0.0664062 70.878906 0.078125 70.234375 0.078125 L 61.6875 0.078125 C 60.5625 0.078125 59.785156 -0.507812 59.359375 -1.6875 L 39.515625 -51.203125 C 39.460938 -51.304688 39.4375 -51.359375 39.4375 -51.359375 L 39.125 -51.359375 C 39.125 -51.359375 39.109375 -51.34375 39.078125 -51.3125 C 39.054688 -51.289062 39.015625 -51.226562 38.953125 -51.125 L 28.71875 -25.203125 L 38.640625 -25.203125 C 39.753906 -25.203125 40.523438 -24.664062 40.953125 -23.59375 L 43.84375 -16.484375 C 44.101562 -15.578125 43.992188 -14.800781 43.515625 -14.15625 C 43.085938 -13.414062 42.394531 -13.046875 41.4375 -13.046875 L 23.921875 -13.046875 L 19.359375 -1.59375 C 18.929688 -0.476562 18.1875 0.078125 17.125 0.078125 L 8.3125 0.078125 C 7.675781 0.078125 7.238281 -0.0664062 7 -0.359375 C 6.757812 -0.648438 6.613281 -0.90625 6.5625 -1.125 C 6.394531 -1.601562 6.445312 -2.242188 6.71875 -3.046875 L 29.046875 -58.484375 C 30.109375 -61.304688 31.28125 -63.25 32.5625 -64.3125 C 32.71875 -64.425781 32.898438 -64.5625 33.109375 -64.71875 C 33.328125 -64.875 33.546875 -65.007812 33.765625 -65.125 C 35.359375 -66.238281 37.195312 -66.796875 39.28125 -66.796875 C 41.46875 -66.796875 43.441406 -66.128906 45.203125 -64.796875 C 46.960938 -63.460938 48.160156 -61.757812 48.796875 -59.6875 C 48.898438 -59.519531 48.992188 -59.328125 49.078125 -59.109375 C 49.160156 -58.898438 49.226562 -58.691406 49.28125 -58.484375 Z M 49.28125 -58.484375 "/></g></g><g style="fill:#000000;fill-opacity:1;"><g transform="translate(352.957429, 461.719831)"><path style="stroke:none" d="M 52.5625 -11.84375 C 52.9375 -11.84375 53.398438 -11.679688 53.953125 -11.359375 C 54.515625 -11.035156 54.796875 -10.265625 54.796875 -9.046875 L 54.796875 -2.71875 C 54.796875 -1.488281 54.515625 -0.710938 53.953125 -0.390625 C 53.398438 -0.078125 52.9375 0.078125 52.5625 0.078125 L 26.15625 0.078125 C 22.632812 0.078125 19.648438 -0.375 17.203125 -1.28125 C 14.691406 -2.132812 12.609375 -3.628906 10.953125 -5.765625 C 9.410156 -7.679688 8.265625 -10.289062 7.515625 -13.59375 C 6.773438 -16.851562 6.40625 -20.671875 6.40625 -25.046875 L 6.40625 -63.125 C 6.40625 -64.40625 6.695312 -65.191406 7.28125 -65.484375 C 7.863281 -65.773438 8.34375 -65.921875 8.71875 -65.921875 L 16.078125 -65.921875 C 16.398438 -65.921875 16.851562 -65.773438 17.4375 -65.484375 C 18.019531 -65.191406 18.3125 -64.40625 18.3125 -63.125 L 18.3125 -23.6875 C 18.3125 -22.507812 18.335938 -21.410156 18.390625 -20.390625 C 18.453125 -19.378906 18.5625 -18.476562 18.71875 -17.6875 C 18.9375 -16.238281 19.390625 -15.0625 20.078125 -14.15625 C 20.609375 -13.300781 21.382812 -12.71875 22.40625 -12.40625 C 23.46875 -12.03125 24.851562 -11.84375 26.5625 -11.84375 Z M 52.5625 -11.84375 "/></g></g><g style="fill:#000000;fill-opacity:1;"><g transform="translate(418.151075, 461.719831)"><path style="stroke:none" d="M 52.5625 -11.84375 C 52.9375 -11.84375 53.398438 -11.679688 53.953125 -11.359375 C 54.515625 -11.035156 54.796875 -10.265625 54.796875 -9.046875 L 54.796875 -2.71875 C 54.796875 -1.488281 54.515625 -0.710938 53.953125 -0.390625 C 53.398438 -0.078125 52.9375 0.078125 52.5625 0.078125 L 26.15625 0.078125 C 22.632812 0.078125 19.648438 -0.375 17.203125 -1.28125 C 14.691406 -2.132812 12.609375 -3.628906 10.953125 -5.765625 C 9.410156 -7.679688 8.265625 -10.289062 7.515625 -13.59375 C 6.773438 -16.851562 6.40625 -20.671875 6.40625 -25.046875 L 6.40625 -63.125 C 6.40625 -64.40625 6.695312 -65.191406 7.28125 -65.484375 C 7.863281 -65.773438 8.34375 -65.921875 8.71875 -65.921875 L 16.078125 -65.921875 C 16.398438 -65.921875 16.851562 -65.773438 17.4375 -65.484375 C 18.019531 -65.191406 18.3125 -64.40625 18.3125 -63.125 L 18.3125 -23.6875 C 18.3125 -22.507812 18.335938 -21.410156 18.390625 -20.390625 C 18.453125 -19.378906 18.5625 -18.476562 18.71875 -17.6875 C 18.9375 -16.238281 19.390625 -15.0625 20.078125 -14.15625 C 20.609375 -13.300781 21.382812 -12.71875 22.40625 -12.40625 C 23.46875 -12.03125 24.851562 -11.84375 26.5625 -11.84375 Z M 52.5625 -11.84375 "/></g></g><g style="fill:#000000;fill-opacity:1;"><g transform="translate(483.344767, 461.719831)"><path style="stroke:none" d="M 54.484375 -14.3125 C 54.859375 -14.3125 55.335938 -14.164062 55.921875 -13.875 C 56.503906 -13.582031 56.796875 -12.820312 56.796875 -11.59375 L 56.796875 -2.796875 C 56.796875 -1.566406 56.503906 -0.804688 55.921875 -0.515625 C 55.335938 -0.222656 54.859375 -0.078125 54.484375 -0.078125 L 26.078125 -0.078125 C 24.316406 -0.078125 22.6875 -0.179688 21.1875 -0.390625 C 19.695312 -0.609375 18.34375 -0.957031 17.125 -1.4375 C 14.507812 -2.34375 12.425781 -3.8125 10.875 -5.84375 C 9.28125 -7.914062 8.132812 -10.53125 7.4375 -13.6875 C 7.175781 -15.019531 6.953125 -16.484375 6.765625 -18.078125 C 6.578125 -19.679688 6.457031 -21.414062 6.40625 -23.28125 L 6.40625 -23.6875 L 6.5625 -33.765625 C 6.71875 -34.347656 7.007812 -35.015625 7.4375 -35.765625 C 8.613281 -37.835938 10.425781 -38.957031 12.875 -39.125 L 54.15625 -39.203125 C 54.476562 -39.203125 54.929688 -39.050781 55.515625 -38.75 C 56.109375 -38.457031 56.40625 -37.703125 56.40625 -36.484375 L 56.40625 -30.15625 C 56.40625 -28.925781 56.109375 -28.148438 55.515625 -27.828125 C 54.929688 -27.515625 54.476562 -27.359375 54.15625 -27.359375 L 18.40625 -27.359375 C 18.40625 -27.359375 18.390625 -27.0625 18.359375 -26.46875 C 18.328125 -25.882812 18.296875 -25.21875 18.265625 -24.46875 C 18.242188 -23.726562 18.234375 -23.0625 18.234375 -22.46875 C 18.234375 -21.882812 18.234375 -21.59375 18.234375 -21.59375 C 18.285156 -21.382812 18.3125 -21.160156 18.3125 -20.921875 C 18.3125 -20.679688 18.34375 -20.453125 18.40625 -20.234375 C 18.613281 -18.742188 19.066406 -17.546875 19.765625 -16.640625 C 20.398438 -15.835938 21.195312 -15.25 22.15625 -14.875 C 22.75 -14.71875 23.378906 -14.582031 24.046875 -14.46875 C 24.710938 -14.363281 25.46875 -14.3125 26.3125 -14.3125 Z M 13.4375 -38.484375 Z M 54.5625 -66.078125 C 54.882812 -66.078125 55.335938 -65.914062 55.921875 -65.59375 C 56.503906 -65.28125 56.796875 -64.507812 56.796875 -63.28125 L 56.796875 -56.953125 C 56.796875 -55.734375 56.503906 -54.960938 55.921875 -54.640625 C 55.335938 -54.316406 54.882812 -54.15625 54.5625 -54.15625 L 8.5625 -54.234375 C 8.238281 -54.234375 7.796875 -54.378906 7.234375 -54.671875 C 6.679688 -54.972656 6.40625 -55.734375 6.40625 -56.953125 L 6.40625 -63.203125 C 6.40625 -64.484375 6.679688 -65.28125 7.234375 -65.59375 C 7.796875 -65.914062 8.238281 -66.078125 8.5625 -66.078125 Z M 54.5625 -66.078125 "/></g></g><g style="fill:#000000;fill-opacity:1;"><g transform="translate(550.538246, 461.719831)"><path style="stroke:none" d="M 61.6875 -65.921875 C 62.050781 -65.921875 62.523438 -65.773438 63.109375 -65.484375 C 63.703125 -65.191406 64 -64.429688 64 -63.203125 L 64 -56.953125 C 64 -55.617188 63.703125 -54.804688 63.109375 -54.515625 C 62.523438 -54.222656 62.050781 -54.078125 61.6875 -54.078125 L 41.125 -54.078125 L 41.125 -2.71875 C 41.125 -1.488281 40.84375 -0.726562 40.28125 -0.4375 C 39.71875 -0.144531 39.25 0 38.875 0 L 31.515625 0 C 31.203125 0 30.75 -0.144531 30.15625 -0.4375 C 29.570312 -0.726562 29.28125 -1.488281 29.28125 -2.71875 L 29.28125 -54.078125 L 8.71875 -54.078125 C 8.34375 -54.078125 7.863281 -54.222656 7.28125 -54.515625 C 6.695312 -54.804688 6.40625 -55.617188 6.40625 -56.953125 L 6.40625 -63.203125 C 6.40625 -64.429688 6.695312 -65.191406 7.28125 -65.484375 C 7.863281 -65.773438 8.34375 -65.921875 8.71875 -65.921875 Z M 61.6875 -65.921875 "/></g></g></g></svg>