<svg xmlns="http://www.w3.org/2000/svg" xmlns:xlink="http://www.w3.org/1999/xlink" width="1000" zoomAndPan="magnify" viewBox="0 0 750 749.999995" height="1000" preserveAspectRatio="xMidYMid meet" version="1.2"><defs><filter x="0%" y="0%" width="100%" filterUnits="objectBoundingBox" id="a489b56912" height="100%"><feColorMatrix values="0 0 0 0 1 0 0 0 0 1 0 0 0 0 1 0 0 0 1 0" type="matrix" in="SourceGraphic"/></filter><clipPath id="1800d83809"><path d="M 1 0.785156 L 411 0.785156 L 411 396.785156 L 1 396.785156 Z M 1 0.785156 "/></clipPath><clipPath id="1b7d90eb15"><rect x="0" width="412" y="0" height="397"/></clipPath></defs><g id="b92400aa83"><g style="fill:#000000;fill-opacity:1;"><g transform="translate(190.476556, 227.187549)"><path style="stroke:none" d="M 108.625 -2.71875 C 108.625 -2.082031 108.394531 -1.46875 107.9375 -0.875 C 107.488281 -0.289062 106.898438 0 106.171875 0 L 98.546875 0 C 97.921875 0 97.359375 -0.269531 96.859375 -0.8125 C 96.359375 -1.363281 96.109375 -2 96.109375 -2.71875 L 96.109375 -62.203125 C 96.109375 -68.554688 95.628906 -73.660156 94.671875 -77.515625 C 93.722656 -81.378906 92.113281 -84.285156 89.84375 -86.234375 C 87.570312 -88.179688 84.460938 -89.472656 80.515625 -90.109375 C 76.566406 -90.742188 71.597656 -91.0625 65.609375 -91.0625 L 65.609375 -2.71875 C 65.609375 -2.082031 65.378906 -1.46875 64.921875 -0.875 C 64.472656 -0.289062 63.882812 0 63.15625 0 L 55.671875 0 C 54.953125 0 54.363281 -0.269531 53.90625 -0.8125 C 53.445312 -1.363281 53.21875 -2 53.21875 -2.71875 L 53.21875 -91.0625 C 47.226562 -91.0625 42.257812 -90.742188 38.3125 -90.109375 C 34.363281 -89.472656 31.253906 -88.179688 28.984375 -86.234375 C 26.722656 -84.285156 25.113281 -81.378906 24.15625 -77.515625 C 23.207031 -73.660156 22.734375 -68.554688 22.734375 -62.203125 L 22.734375 -2.71875 C 22.734375 -2.082031 22.503906 -1.46875 22.046875 -0.875 C 21.597656 -0.289062 21.007812 0 20.28125 0 L 12.65625 0 C 12.019531 0 11.453125 -0.269531 10.953125 -0.8125 C 10.453125 -1.363281 10.203125 -2 10.203125 -2.71875 L 10.203125 -62.203125 C 10.203125 -70.921875 11.132812 -77.929688 13 -83.234375 C 14.863281 -88.546875 17.769531 -92.539062 21.71875 -95.21875 C 25.664062 -97.894531 30.769531 -99.707031 37.03125 -100.65625 C 43.289062 -101.613281 50.773438 -102.09375 59.484375 -102.09375 C 68.191406 -102.09375 75.675781 -101.613281 81.9375 -100.65625 C 88.207031 -99.707031 93.289062 -97.894531 97.1875 -95.21875 C 101.09375 -92.539062 103.972656 -88.546875 105.828125 -83.234375 C 107.691406 -77.929688 108.625 -70.921875 108.625 -62.203125 Z M 108.625 -2.71875 "/></g></g><g style="fill:#000000;fill-opacity:1;"><g transform="translate(309.313647, 227.187549)"><path style="stroke:none" d="M 67.515625 -1.640625 C 67.515625 -0.546875 67.0625 0.0859375 66.15625 0.265625 C 64.4375 0.453125 61.988281 0.585938 58.8125 0.671875 C 55.632812 0.765625 52.320312 0.832031 48.875 0.875 C 45.425781 0.925781 42.335938 0.953125 39.609375 0.953125 C 30.078125 0.953125 22.863281 -0.992188 17.96875 -4.890625 C 13.070312 -8.796875 10.625 -15.285156 10.625 -24.359375 L 10.625 -76.78125 C 10.625 -85.851562 13.070312 -92.335938 17.96875 -96.234375 C 22.863281 -100.140625 30.078125 -102.09375 39.609375 -102.09375 C 42.335938 -102.09375 45.398438 -102.066406 48.796875 -102.015625 C 52.203125 -101.972656 55.46875 -101.882812 58.59375 -101.75 C 61.726562 -101.613281 64.25 -101.457031 66.15625 -101.28125 C 67.0625 -101.09375 67.515625 -100.457031 67.515625 -99.375 L 67.515625 -92.5625 C 67.515625 -91.476562 67.015625 -90.9375 66.015625 -90.9375 L 39.75 -90.9375 C 34.9375 -90.9375 31.328125 -90.476562 28.921875 -89.5625 C 26.515625 -88.65625 24.925781 -87.160156 24.15625 -85.078125 C 23.382812 -82.992188 23 -80.226562 23 -76.78125 L 23 -57.859375 L 64.796875 -57.859375 C 65.523438 -57.859375 66.160156 -57.582031 66.703125 -57.03125 C 67.242188 -56.488281 67.515625 -55.851562 67.515625 -55.125 L 67.515625 -49.953125 C 67.515625 -49.234375 67.242188 -48.597656 66.703125 -48.046875 C 66.160156 -47.503906 65.523438 -47.234375 64.796875 -47.234375 L 23 -47.234375 L 23 -24.359375 C 23 -20.910156 23.382812 -18.144531 24.15625 -16.0625 C 24.925781 -13.976562 26.515625 -12.476562 28.921875 -11.5625 C 31.328125 -10.65625 34.9375 -10.203125 39.75 -10.203125 L 66.015625 -10.203125 C 67.015625 -10.203125 67.515625 -9.660156 67.515625 -8.578125 Z M 67.515625 -1.640625 "/></g></g><g style="fill:#000000;fill-opacity:1;"><g transform="translate(384.318496, 227.187549)"><path style="stroke:none" d="M 79.765625 -1.765625 C 79.765625 -0.585938 79.175781 0 78 0 L 69.28125 0 C 68.46875 0 67.8125 -0.0664062 67.3125 -0.203125 C 66.8125 -0.335938 66.289062 -0.859375 65.75 -1.765625 L 41.375 -42.328125 C 41.195312 -42.328125 40.992188 -42.328125 40.765625 -42.328125 C 40.535156 -42.328125 40.332031 -42.328125 40.15625 -42.328125 C 39.789062 -42.328125 39.425781 -42.328125 39.0625 -42.328125 C 38.695312 -42.328125 38.289062 -42.328125 37.84375 -42.328125 C 35.570312 -42.328125 33.414062 -42.375 31.375 -42.46875 C 29.332031 -42.5625 26.5 -42.65625 22.875 -42.75 L 22.875 -2.71875 C 22.875 -2.082031 22.644531 -1.46875 22.1875 -0.875 C 21.726562 -0.289062 21.140625 0 20.421875 0 L 13.0625 0 C 12.425781 0 11.859375 -0.269531 11.359375 -0.8125 C 10.867188 -1.363281 10.625 -2 10.625 -2.71875 L 10.625 -98.015625 C 10.625 -99.734375 11.710938 -100.726562 13.890625 -101 C 16.785156 -101.363281 20.523438 -101.632812 25.109375 -101.8125 C 29.691406 -102 33.9375 -102.09375 37.84375 -102.09375 C 45.007812 -102.09375 51.472656 -101.1875 57.234375 -99.375 C 63.003906 -97.5625 67.566406 -94.519531 70.921875 -90.25 C 74.273438 -85.988281 75.953125 -80.179688 75.953125 -72.828125 L 75.953125 -71.875 C 75.953125 -64.25 73.929688 -58.164062 69.890625 -53.625 C 65.859375 -49.09375 60.757812 -46.007812 54.59375 -44.375 L 79.359375 -3 C 79.628906 -2.632812 79.765625 -2.222656 79.765625 -1.765625 Z M 63.703125 -71.875 L 63.703125 -72.828125 C 63.703125 -79.628906 61.523438 -84.347656 57.171875 -86.984375 C 52.816406 -89.617188 46.375 -90.9375 37.84375 -90.9375 C 36.476562 -90.9375 34.820312 -90.9375 32.875 -90.9375 C 30.925781 -90.9375 29.039062 -90.910156 27.21875 -90.859375 C 25.40625 -90.816406 23.957031 -90.703125 22.875 -90.515625 L 22.875 -53.21875 C 25.863281 -53.132812 28.71875 -53.066406 31.4375 -53.015625 C 34.164062 -52.972656 36.300781 -52.953125 37.84375 -52.953125 C 46.1875 -52.953125 52.582031 -54.265625 57.03125 -56.890625 C 61.476562 -59.523438 63.703125 -64.519531 63.703125 -71.875 Z M 63.703125 -71.875 "/></g></g><g style="fill:#000000;fill-opacity:1;"><g transform="translate(469.396594, 227.187549)"><path style="stroke:none" d="M 80.59375 -2.71875 C 80.59375 -2.082031 80.363281 -1.46875 79.90625 -0.875 C 79.445312 -0.289062 78.859375 0 78.140625 0 L 70.515625 0 C 69.878906 0 69.332031 -0.269531 68.875 -0.8125 C 68.425781 -1.363281 68.203125 -2 68.203125 -2.71875 L 68.203125 -62.890625 C 68.203125 -70.785156 67.289062 -76.773438 65.46875 -80.859375 C 63.65625 -84.941406 60.890625 -87.707031 57.171875 -89.15625 C 53.453125 -90.613281 48.78125 -91.34375 43.15625 -91.34375 C 41.25 -91.34375 38.929688 -91.296875 36.203125 -91.203125 C 33.484375 -91.109375 30.898438 -90.992188 28.453125 -90.859375 C 26.003906 -90.722656 24.1875 -90.609375 23 -90.515625 L 23 -2.71875 C 23 -2.082031 22.769531 -1.46875 22.3125 -0.875 C 21.863281 -0.289062 21.28125 0 20.5625 0 L 13.0625 0 C 12.34375 0 11.753906 -0.269531 11.296875 -0.8125 C 10.847656 -1.363281 10.625 -2 10.625 -2.71875 L 10.625 -95.828125 C 10.625 -97.554688 10.914062 -98.738281 11.5 -99.375 C 12.09375 -100.007812 13.066406 -100.414062 14.421875 -100.59375 C 16.878906 -100.957031 19.921875 -101.253906 23.546875 -101.484375 C 27.179688 -101.710938 30.832031 -101.894531 34.5 -102.03125 C 38.175781 -102.164062 41.148438 -102.234375 43.421875 -102.234375 C 51.585938 -102.234375 58.4375 -101.050781 63.96875 -98.6875 C 69.507812 -96.332031 73.664062 -92.296875 76.4375 -86.578125 C 79.207031 -80.859375 80.59375 -72.960938 80.59375 -62.890625 Z M 80.59375 -2.71875 "/></g></g><g style="fill:#000000;fill-opacity:1;"><g transform="translate(18.140627, 417.68754)"><path style="stroke:none" d="M 68.0625 -26.265625 C 68.0625 -23.003906 67.5625 -19.757812 66.5625 -16.53125 C 65.5625 -13.3125 63.8125 -10.382812 61.3125 -7.75 C 58.820312 -5.125 55.398438 -3.015625 51.046875 -1.421875 C 46.691406 0.160156 41.15625 0.953125 34.4375 0.953125 C 29.71875 0.953125 25.519531 0.75 21.84375 0.34375 C 18.164062 -0.0625 14.832031 -0.492188 11.84375 -0.953125 C 10.664062 -1.128906 9.9375 -1.398438 9.65625 -1.765625 C 9.382812 -2.128906 9.25 -2.675781 9.25 -3.40625 L 9.25 -8.84375 C 9.25 -9.570312 9.476562 -10.117188 9.9375 -10.484375 C 10.394531 -10.847656 10.941406 -11.03125 11.578125 -11.03125 C 11.660156 -11.03125 11.722656 -11.03125 11.765625 -11.03125 C 11.816406 -11.03125 11.890625 -11.03125 11.984375 -11.03125 C 15.160156 -10.757812 18.925781 -10.550781 23.28125 -10.40625 C 27.632812 -10.269531 31.351562 -10.203125 34.4375 -10.203125 C 39.882812 -10.203125 44.101562 -10.882812 47.09375 -12.25 C 50.09375 -13.613281 52.179688 -15.492188 53.359375 -17.890625 C 54.535156 -20.296875 55.125 -23.085938 55.125 -26.265625 C 55.125 -28.535156 54.625 -30.578125 53.625 -32.390625 C 52.632812 -34.210938 50.957031 -36.050781 48.59375 -37.90625 C 46.238281 -39.769531 42.972656 -41.972656 38.796875 -44.515625 L 25.59375 -52.546875 C 19.332031 -56.359375 14.632812 -60.191406 11.5 -64.046875 C 8.375 -67.898438 6.8125 -72.550781 6.8125 -78 C 6.8125 -86.257812 9.644531 -92.335938 15.3125 -96.234375 C 20.988281 -100.140625 29 -102.09375 39.34375 -102.09375 C 42.0625 -102.09375 44.914062 -102.023438 47.90625 -101.890625 C 50.90625 -101.753906 53.742188 -101.550781 56.421875 -101.28125 C 59.097656 -101.007812 61.300781 -100.734375 63.03125 -100.453125 C 64.570312 -100.179688 65.34375 -99.410156 65.34375 -98.140625 L 65.34375 -92.296875 C 65.34375 -90.835938 64.570312 -90.109375 63.03125 -90.109375 C 62.9375 -90.109375 62.890625 -90.109375 62.890625 -90.109375 C 62.890625 -90.109375 62.84375 -90.109375 62.75 -90.109375 C 59.757812 -90.296875 56.109375 -90.476562 51.796875 -90.65625 C 47.484375 -90.84375 43.332031 -90.9375 39.34375 -90.9375 C 32.351562 -90.9375 27.269531 -90.023438 24.09375 -88.203125 C 20.914062 -86.390625 19.328125 -82.988281 19.328125 -78 C 19.328125 -74.820312 20.503906 -72.078125 22.859375 -69.765625 C 25.222656 -67.453125 28.992188 -64.707031 34.171875 -61.53125 L 46.6875 -54.046875 C 54.582031 -49.328125 60.117188 -44.878906 63.296875 -40.703125 C 66.472656 -36.523438 68.0625 -31.710938 68.0625 -26.265625 Z M 68.0625 -26.265625 "/></g></g><g style="fill:#000000;fill-opacity:1;"><g transform="translate(93.00936, 417.68754)"><path style="stroke:none" d="M 75.546875 -92.703125 C 75.546875 -91.242188 74.6875 -90.515625 72.96875 -90.515625 L 46.421875 -90.515625 L 46.421875 -2.71875 C 46.421875 -2.082031 46.191406 -1.46875 45.734375 -0.875 C 45.285156 -0.289062 44.695312 0 43.96875 0 L 36.484375 0 C 35.847656 0 35.28125 -0.269531 34.78125 -0.8125 C 34.28125 -1.363281 34.03125 -2 34.03125 -2.71875 L 34.03125 -90.515625 L 7.484375 -90.515625 C 6.753906 -90.515625 6.117188 -90.695312 5.578125 -91.0625 C 5.035156 -91.425781 4.765625 -91.972656 4.765625 -92.703125 L 4.765625 -98.6875 C 4.765625 -99.414062 5.035156 -100.003906 5.578125 -100.453125 C 6.117188 -100.910156 6.753906 -101.140625 7.484375 -101.140625 L 72.96875 -101.140625 C 74.6875 -101.140625 75.546875 -100.320312 75.546875 -98.6875 Z M 75.546875 -92.703125 "/></g></g><g style="fill:#000000;fill-opacity:1;"><g transform="translate(173.323088, 417.68754)"><path style="stroke:none" d="M 77.046875 -2.71875 C 77.046875 -2.082031 76.816406 -1.46875 76.359375 -0.875 C 75.910156 -0.289062 75.320312 0 74.59375 0 L 67.109375 0 C 66.472656 0 65.90625 -0.269531 65.40625 -0.8125 C 64.90625 -1.363281 64.65625 -2 64.65625 -2.71875 L 64.65625 -43.015625 L 23 -43.015625 L 23 -2.71875 C 23 -2.082031 22.769531 -1.46875 22.3125 -0.875 C 21.863281 -0.289062 21.28125 0 20.5625 0 L 13.0625 0 C 12.425781 0 11.859375 -0.289062 11.359375 -0.875 C 10.867188 -1.46875 10.625 -2.082031 10.625 -2.71875 L 10.625 -73.921875 C 10.625 -84.347656 13.050781 -91.648438 17.90625 -95.828125 C 22.757812 -100.003906 30.085938 -102.09375 39.890625 -102.09375 L 47.78125 -102.09375 C 57.488281 -102.09375 64.789062 -100.003906 69.6875 -95.828125 C 74.59375 -91.648438 77.046875 -84.347656 77.046875 -73.921875 Z M 64.65625 -53.90625 L 64.65625 -73.921875 C 64.65625 -78.640625 64.109375 -82.242188 63.015625 -84.734375 C 61.929688 -87.234375 60.164062 -88.9375 57.71875 -89.84375 C 55.269531 -90.75 51.957031 -91.203125 47.78125 -91.203125 L 39.890625 -91.203125 C 35.804688 -91.203125 32.515625 -90.75 30.015625 -89.84375 C 27.515625 -88.9375 25.71875 -87.234375 24.625 -84.734375 C 23.539062 -82.242188 23 -78.640625 23 -73.921875 L 23 -53.90625 Z M 64.65625 -53.90625 "/></g></g><g style="fill:#000000;fill-opacity:1;"><g transform="translate(260.987562, 417.68754)"><path style="stroke:none" d="M 69.421875 -3.546875 C 69.421875 -2.722656 69.148438 -2.109375 68.609375 -1.703125 C 68.066406 -1.296875 67.429688 -1 66.703125 -0.8125 C 63.890625 -0.269531 60.867188 0.15625 57.640625 0.46875 C 54.421875 0.789062 49.910156 0.953125 44.109375 0.953125 C 39.929688 0.953125 35.734375 0.296875 31.515625 -1.015625 C 27.296875 -2.335938 23.414062 -4.5625 19.875 -7.6875 C 16.332031 -10.820312 13.492188 -15.109375 11.359375 -20.546875 C 9.234375 -25.992188 8.171875 -32.847656 8.171875 -41.109375 L 8.171875 -60.03125 C 8.171875 -68.375 9.234375 -75.269531 11.359375 -80.71875 C 13.492188 -86.164062 16.332031 -90.453125 19.875 -93.578125 C 23.414062 -96.710938 27.296875 -98.914062 31.515625 -100.1875 C 35.734375 -101.457031 39.929688 -102.09375 44.109375 -102.09375 C 48.367188 -102.09375 52.492188 -101.84375 56.484375 -101.34375 C 60.484375 -100.84375 63.976562 -100.367188 66.96875 -99.921875 C 68.425781 -99.734375 69.15625 -99.140625 69.15625 -98.140625 L 69.15625 -91.203125 C 69.15625 -90.203125 68.609375 -89.703125 67.515625 -89.703125 C 67.421875 -89.703125 67.351562 -89.703125 67.3125 -89.703125 C 67.269531 -89.703125 67.203125 -89.703125 67.109375 -89.703125 C 65.472656 -89.890625 63.363281 -90.070312 60.78125 -90.25 C 58.195312 -90.425781 55.453125 -90.582031 52.546875 -90.71875 C 49.640625 -90.863281 46.867188 -90.9375 44.234375 -90.9375 C 39.796875 -90.9375 35.78125 -89.957031 32.1875 -88 C 28.601562 -86.050781 25.769531 -82.832031 23.6875 -78.34375 C 21.601562 -73.851562 20.5625 -67.75 20.5625 -60.03125 L 20.5625 -41.109375 C 20.5625 -33.484375 21.601562 -27.425781 23.6875 -22.9375 C 25.769531 -18.445312 28.601562 -15.203125 32.1875 -13.203125 C 35.78125 -11.203125 39.796875 -10.203125 44.234375 -10.203125 C 48.140625 -10.203125 52.25 -10.335938 56.5625 -10.609375 C 60.875 -10.890625 64.253906 -11.117188 66.703125 -11.296875 C 66.796875 -11.296875 66.882812 -11.296875 66.96875 -11.296875 C 67.0625 -11.296875 67.15625 -11.296875 67.25 -11.296875 C 68.695312 -11.296875 69.421875 -10.570312 69.421875 -9.125 Z M 69.421875 -3.546875 "/></g></g><g style="fill:#000000;fill-opacity:1;"><g transform="translate(335.175668, 417.68754)"><path style="stroke:none" d="M 76.78125 -1.359375 C 76.78125 -0.453125 76.1875 0 75 0 L 64.390625 0 C 63.210938 0 62.210938 -0.453125 61.390625 -1.359375 L 23 -48.046875 L 23 -2.71875 C 23 -2.082031 22.769531 -1.46875 22.3125 -0.875 C 21.863281 -0.289062 21.28125 0 20.5625 0 L 13.0625 0 C 12.425781 0 11.859375 -0.269531 11.359375 -0.8125 C 10.867188 -1.363281 10.625 -2 10.625 -2.71875 L 10.625 -98.546875 C 10.625 -99.273438 10.867188 -99.890625 11.359375 -100.390625 C 11.859375 -100.890625 12.472656 -101.140625 13.203125 -101.140625 L 20.421875 -101.140625 C 21.140625 -101.140625 21.75 -100.890625 22.25 -100.390625 C 22.75 -99.890625 23 -99.273438 23 -98.546875 L 23 -54.59375 L 62.203125 -99.921875 C 62.660156 -100.367188 63.070312 -100.679688 63.4375 -100.859375 C 63.800781 -101.046875 64.300781 -101.140625 64.9375 -101.140625 L 74.734375 -101.140625 C 76.003906 -101.140625 76.640625 -100.640625 76.640625 -99.640625 C 76.640625 -99.097656 76.457031 -98.644531 76.09375 -98.28125 L 35.125 -52 L 76.09375 -3 C 76.550781 -2.539062 76.78125 -1.992188 76.78125 -1.359375 Z M 76.78125 -1.359375 "/></g><g transform="translate(417.803539, 417.68754)"><path style="stroke:none" d=""/></g></g><g style="fill:#000000;fill-opacity:1;"><g transform="translate(451.426372, 417.68754)"><path style="stroke:none" d="M 110.9375 -36.203125 C 110.9375 -24.410156 108.710938 -15.269531 104.265625 -8.78125 C 99.828125 -2.289062 92.429688 0.953125 82.078125 0.953125 C 78.546875 0.953125 75.078125 0.722656 71.671875 0.265625 C 68.265625 -0.179688 64.613281 -1.085938 60.71875 -2.453125 C 56.8125 -1.085938 53.175781 -0.179688 49.8125 0.265625 C 46.457031 0.722656 43.007812 0.953125 39.46875 0.953125 C 29.125 0.953125 21.726562 -2.289062 17.28125 -8.78125 C 12.84375 -15.269531 10.625 -24.410156 10.625 -36.203125 L 10.625 -98.546875 C 10.625 -99.273438 10.867188 -99.890625 11.359375 -100.390625 C 11.859375 -100.890625 12.472656 -101.140625 13.203125 -101.140625 L 20.421875 -101.140625 C 21.140625 -101.140625 21.75 -100.890625 22.25 -100.390625 C 22.75 -99.890625 23 -99.273438 23 -98.546875 L 23 -36.203125 C 23 -30.128906 23.519531 -25.117188 24.5625 -21.171875 C 25.613281 -17.222656 27.5 -14.296875 30.21875 -12.390625 C 32.9375 -10.484375 36.882812 -9.53125 42.0625 -9.53125 C 42.875 -9.53125 44.070312 -9.570312 45.65625 -9.65625 C 47.25 -9.75 48.882812 -9.882812 50.5625 -10.0625 C 52.25 -10.25 53.59375 -10.476562 54.59375 -10.75 L 54.59375 -98.546875 C 54.59375 -99.273438 54.835938 -99.890625 55.328125 -100.390625 C 55.828125 -100.890625 56.441406 -101.140625 57.171875 -101.140625 L 64.515625 -101.140625 C 66.148438 -101.140625 66.96875 -100.320312 66.96875 -98.6875 L 66.96875 -10.75 C 67.96875 -10.476562 69.304688 -10.25 70.984375 -10.0625 C 72.660156 -9.882812 74.316406 -9.75 75.953125 -9.65625 C 77.585938 -9.570312 78.769531 -9.53125 79.5 -9.53125 C 84.664062 -9.53125 88.609375 -10.484375 91.328125 -12.390625 C 94.054688 -14.296875 95.941406 -17.222656 96.984375 -21.171875 C 98.023438 -25.117188 98.546875 -30.128906 98.546875 -36.203125 L 98.546875 -98.546875 C 98.546875 -99.273438 98.796875 -99.890625 99.296875 -100.390625 C 99.796875 -100.890625 100.410156 -101.140625 101.140625 -101.140625 L 108.359375 -101.140625 C 109.078125 -101.140625 109.6875 -100.890625 110.1875 -100.390625 C 110.6875 -99.890625 110.9375 -99.273438 110.9375 -98.546875 Z M 110.9375 -36.203125 "/></g></g><g style="fill:#000000;fill-opacity:1;"><g transform="translate(572.985967, 417.68754)"><path style="stroke:none" d="M 67.515625 -1.640625 C 67.515625 -0.546875 67.0625 0.0859375 66.15625 0.265625 C 64.4375 0.453125 61.988281 0.585938 58.8125 0.671875 C 55.632812 0.765625 52.320312 0.832031 48.875 0.875 C 45.425781 0.925781 42.335938 0.953125 39.609375 0.953125 C 30.078125 0.953125 22.863281 -0.992188 17.96875 -4.890625 C 13.070312 -8.796875 10.625 -15.285156 10.625 -24.359375 L 10.625 -76.78125 C 10.625 -85.851562 13.070312 -92.335938 17.96875 -96.234375 C 22.863281 -100.140625 30.078125 -102.09375 39.609375 -102.09375 C 42.335938 -102.09375 45.398438 -102.066406 48.796875 -102.015625 C 52.203125 -101.972656 55.46875 -101.882812 58.59375 -101.75 C 61.726562 -101.613281 64.25 -101.457031 66.15625 -101.28125 C 67.0625 -101.09375 67.515625 -100.457031 67.515625 -99.375 L 67.515625 -92.5625 C 67.515625 -91.476562 67.015625 -90.9375 66.015625 -90.9375 L 39.75 -90.9375 C 34.9375 -90.9375 31.328125 -90.476562 28.921875 -89.5625 C 26.515625 -88.65625 24.925781 -87.160156 24.15625 -85.078125 C 23.382812 -82.992188 23 -80.226562 23 -76.78125 L 23 -57.859375 L 64.796875 -57.859375 C 65.523438 -57.859375 66.160156 -57.582031 66.703125 -57.03125 C 67.242188 -56.488281 67.515625 -55.851562 67.515625 -55.125 L 67.515625 -49.953125 C 67.515625 -49.234375 67.242188 -48.597656 66.703125 -48.046875 C 66.160156 -47.503906 65.523438 -47.234375 64.796875 -47.234375 L 23 -47.234375 L 23 -24.359375 C 23 -20.910156 23.382812 -18.144531 24.15625 -16.0625 C 24.925781 -13.976562 26.515625 -12.476562 28.921875 -11.5625 C 31.328125 -10.65625 34.9375 -10.203125 39.75 -10.203125 L 66.015625 -10.203125 C 67.015625 -10.203125 67.515625 -9.660156 67.515625 -8.578125 Z M 67.515625 -1.640625 "/></g></g><g style="fill:#000000;fill-opacity:1;"><g transform="translate(647.990816, 417.68754)"><path style="stroke:none" d="M 77.046875 -27.90625 C 77.046875 -22.1875 75.976562 -17.46875 73.84375 -13.75 C 71.71875 -10.03125 68.816406 -7.082031 65.140625 -4.90625 C 61.460938 -2.726562 57.238281 -1.207031 52.46875 -0.34375 C 47.707031 0.519531 42.648438 0.953125 37.296875 0.953125 C 32.847656 0.953125 28.695312 0.835938 24.84375 0.609375 C 20.988281 0.378906 17.742188 0.0859375 15.109375 -0.265625 C 13.566406 -0.453125 12.429688 -0.90625 11.703125 -1.625 C 10.984375 -2.351562 10.625 -3.582031 10.625 -5.3125 L 10.625 -95.96875 C 10.625 -99.050781 12.070312 -100.726562 14.96875 -101 C 17.238281 -101.269531 20.300781 -101.519531 24.15625 -101.75 C 28.019531 -101.976562 32.175781 -102.09375 36.625 -102.09375 C 43.875 -102.09375 50.515625 -101.320312 56.546875 -99.78125 C 62.585938 -98.238281 67.421875 -95.582031 71.046875 -91.8125 C 74.679688 -88.050781 76.5 -82.722656 76.5 -75.828125 L 76.5 -73.640625 C 76.5 -68.648438 75.226562 -64.296875 72.6875 -60.578125 C 70.144531 -56.859375 66.5625 -54.085938 61.9375 -52.265625 C 66.65625 -50.640625 70.351562 -47.875 73.03125 -43.96875 C 75.707031 -40.0625 77.046875 -35.476562 77.046875 -30.21875 Z M 64.109375 -73.640625 L 64.109375 -75.828125 C 64.109375 -80.179688 62.972656 -83.488281 60.703125 -85.75 C 58.441406 -88.019531 55.242188 -89.5625 51.109375 -90.375 C 46.984375 -91.195312 42.15625 -91.609375 36.625 -91.609375 C 34.351562 -91.609375 32.015625 -91.5625 29.609375 -91.46875 C 27.203125 -91.382812 25.046875 -91.296875 23.140625 -91.203125 L 23.140625 -57.4375 L 44.109375 -57.4375 C 49.367188 -57.4375 53.453125 -58.1875 56.359375 -59.6875 C 59.265625 -61.1875 61.28125 -63.179688 62.40625 -65.671875 C 63.539062 -68.171875 64.109375 -70.828125 64.109375 -73.640625 Z M 64.65625 -27.90625 L 64.65625 -30.21875 C 64.65625 -33.21875 64.066406 -36.03125 62.890625 -38.65625 C 61.710938 -41.289062 59.625 -43.421875 56.625 -45.046875 C 53.632812 -46.679688 49.460938 -47.5 44.109375 -47.5 L 23.140625 -47.5 L 23.140625 -10.078125 C 25.410156 -9.984375 27.75 -9.867188 30.15625 -9.734375 C 32.5625 -9.597656 34.941406 -9.53125 37.296875 -9.53125 C 42.921875 -9.53125 47.773438 -10.050781 51.859375 -11.09375 C 55.941406 -12.132812 59.09375 -13.972656 61.3125 -16.609375 C 63.539062 -19.242188 64.65625 -23.007812 64.65625 -27.90625 Z M 64.65625 -27.90625 "/></g></g><g style="fill:#000000;fill-opacity:1;"><g transform="translate(250.4414, 608.18753)"><path style="stroke:none" d="M 77.046875 -2.71875 C 77.046875 -2.082031 76.816406 -1.46875 76.359375 -0.875 C 75.910156 -0.289062 75.320312 0 74.59375 0 L 67.109375 0 C 66.472656 0 65.90625 -0.269531 65.40625 -0.8125 C 64.90625 -1.363281 64.65625 -2 64.65625 -2.71875 L 64.65625 -43.015625 L 23 -43.015625 L 23 -2.71875 C 23 -2.082031 22.769531 -1.46875 22.3125 -0.875 C 21.863281 -0.289062 21.28125 0 20.5625 0 L 13.0625 0 C 12.425781 0 11.859375 -0.289062 11.359375 -0.875 C 10.867188 -1.46875 10.625 -2.082031 10.625 -2.71875 L 10.625 -73.921875 C 10.625 -84.347656 13.050781 -91.648438 17.90625 -95.828125 C 22.757812 -100.003906 30.085938 -102.09375 39.890625 -102.09375 L 47.78125 -102.09375 C 57.488281 -102.09375 64.789062 -100.003906 69.6875 -95.828125 C 74.59375 -91.648438 77.046875 -84.347656 77.046875 -73.921875 Z M 64.65625 -53.90625 L 64.65625 -73.921875 C 64.65625 -78.640625 64.109375 -82.242188 63.015625 -84.734375 C 61.929688 -87.234375 60.164062 -88.9375 57.71875 -89.84375 C 55.269531 -90.75 51.957031 -91.203125 47.78125 -91.203125 L 39.890625 -91.203125 C 35.804688 -91.203125 32.515625 -90.75 30.015625 -89.84375 C 27.515625 -88.9375 25.71875 -87.234375 24.625 -84.734375 C 23.539062 -82.242188 23 -78.640625 23 -73.921875 L 23 -53.90625 Z M 64.65625 -53.90625 "/></g></g><g style="fill:#000000;fill-opacity:1;"><g transform="translate(338.105874, 608.18753)"><path style="stroke:none" d="M 74.59375 -70.78125 C 74.59375 -63.25 72.957031 -57.238281 69.6875 -52.75 C 66.425781 -48.257812 61.910156 -45.0625 56.140625 -43.15625 C 50.378906 -41.25 43.828125 -40.296875 36.484375 -40.296875 C 34.304688 -40.296875 31.945312 -40.382812 29.40625 -40.5625 C 26.863281 -40.75 24.6875 -40.882812 22.875 -40.96875 L 22.875 -2.71875 C 22.875 -2.082031 22.644531 -1.46875 22.1875 -0.875 C 21.726562 -0.289062 21.140625 0 20.421875 0 L 13.0625 0 C 12.425781 0 11.859375 -0.269531 11.359375 -0.8125 C 10.867188 -1.363281 10.625 -2 10.625 -2.71875 L 10.625 -97.609375 C 10.625 -99.597656 11.710938 -100.726562 13.890625 -101 C 16.785156 -101.363281 20.296875 -101.632812 24.421875 -101.8125 C 28.554688 -102 32.578125 -102.09375 36.484375 -102.09375 C 43.828125 -102.09375 50.378906 -101.160156 56.140625 -99.296875 C 61.910156 -97.441406 66.425781 -94.359375 69.6875 -90.046875 C 72.957031 -85.734375 74.59375 -79.898438 74.59375 -72.546875 Z M 62.203125 -70.78125 L 62.203125 -72.546875 C 62.203125 -79.453125 60.113281 -84.351562 55.9375 -87.25 C 51.769531 -90.15625 45.285156 -91.609375 36.484375 -91.609375 C 34.390625 -91.609375 32.003906 -91.5625 29.328125 -91.46875 C 26.648438 -91.382812 24.5 -91.25 22.875 -91.0625 L 22.875 -51.1875 C 24.414062 -51.09375 26.632812 -50.976562 29.53125 -50.84375 C 32.4375 -50.707031 34.753906 -50.640625 36.484375 -50.640625 C 45.828125 -50.640625 52.445312 -52.226562 56.34375 -55.40625 C 60.25 -58.582031 62.203125 -63.707031 62.203125 -70.78125 Z M 62.203125 -70.78125 "/></g></g><g style="fill:#000000;fill-opacity:1;"><g transform="translate(418.827974, 608.18753)"><path style="stroke:none" d="M 74.59375 -70.78125 C 74.59375 -63.25 72.957031 -57.238281 69.6875 -52.75 C 66.425781 -48.257812 61.910156 -45.0625 56.140625 -43.15625 C 50.378906 -41.25 43.828125 -40.296875 36.484375 -40.296875 C 34.304688 -40.296875 31.945312 -40.382812 29.40625 -40.5625 C 26.863281 -40.75 24.6875 -40.882812 22.875 -40.96875 L 22.875 -2.71875 C 22.875 -2.082031 22.644531 -1.46875 22.1875 -0.875 C 21.726562 -0.289062 21.140625 0 20.421875 0 L 13.0625 0 C 12.425781 0 11.859375 -0.269531 11.359375 -0.8125 C 10.867188 -1.363281 10.625 -2 10.625 -2.71875 L 10.625 -97.609375 C 10.625 -99.597656 11.710938 -100.726562 13.890625 -101 C 16.785156 -101.363281 20.296875 -101.632812 24.421875 -101.8125 C 28.554688 -102 32.578125 -102.09375 36.484375 -102.09375 C 43.828125 -102.09375 50.378906 -101.160156 56.140625 -99.296875 C 61.910156 -97.441406 66.425781 -94.359375 69.6875 -90.046875 C 72.957031 -85.734375 74.59375 -79.898438 74.59375 -72.546875 Z M 62.203125 -70.78125 L 62.203125 -72.546875 C 62.203125 -79.453125 60.113281 -84.351562 55.9375 -87.25 C 51.769531 -90.15625 45.285156 -91.609375 36.484375 -91.609375 C 34.390625 -91.609375 32.003906 -91.5625 29.328125 -91.46875 C 26.648438 -91.382812 24.5 -91.25 22.875 -91.0625 L 22.875 -51.1875 C 24.414062 -51.09375 26.632812 -50.976562 29.53125 -50.84375 C 32.4375 -50.707031 34.753906 -50.640625 36.484375 -50.640625 C 45.828125 -50.640625 52.445312 -52.226562 56.34375 -55.40625 C 60.25 -58.582031 62.203125 -63.707031 62.203125 -70.78125 Z M 62.203125 -70.78125 "/></g></g><g mask="url(#00b3a94a7f)" transform="matrix(1,0,0,1,117,183)"><g clip-path="url(#1b7d90eb15)"><g clip-rule="nonzero" clip-path="url(#1800d83809)"><path style=" stroke:none;fill-rule:nonzero;fill:#000000;fill-opacity:1;" d="M 34.085938 36.28125 L 34.085938 35.71875 C 34.085938 32.085938 37.03125 29.136719 40.667969 29.136719 C 44.300781 29.136719 47.25 32.085938 47.25 35.71875 L 47.25 36.28125 C 47.25 39.914062 44.300781 42.863281 40.667969 42.863281 C 37.03125 42.863281 34.085938 39.914062 34.085938 36.28125 Z M 69.199219 42.289062 C 72.832031 42.289062 75.78125 39.34375 75.78125 35.707031 L 75.78125 35.144531 C 75.78125 31.511719 72.832031 28.5625 69.199219 28.5625 C 65.5625 28.5625 62.617188 31.511719 62.617188 35.144531 L 62.617188 35.707031 C 62.617188 39.34375 65.5625 42.289062 69.199219 42.289062 Z M 97.730469 42.289062 C 101.363281 42.289062 104.3125 39.34375 104.3125 35.707031 L 104.3125 35.144531 C 104.3125 31.511719 101.363281 28.5625 97.730469 28.5625 C 94.09375 28.5625 91.148438 31.511719 91.148438 35.144531 L 91.148438 35.707031 C 91.148438 39.34375 94.09375 42.289062 97.730469 42.289062 Z M 132.589844 148.980469 C 129.160156 147.835938 125.433594 149.6875 124.285156 153.117188 L 111.992188 189.738281 L 99.695312 153.125 C 99.0625 151.242188 97.585938 149.667969 95.558594 148.992188 C 92.128906 147.84375 88.402344 149.699219 87.257812 153.125 L 74.960938 189.75 L 62.667969 153.125 C 61.519531 149.6875 57.792969 147.835938 54.363281 148.992188 C 50.933594 150.136719 49.070312 153.863281 50.226562 157.292969 L 68.746094 212.449219 C 69.894531 215.890625 73.621094 217.742188 77.050781 216.585938 C 79.078125 215.910156 80.550781 214.332031 81.1875 212.449219 L 93.480469 175.828125 L 105.777344 212.449219 C 106.921875 215.890625 110.648438 217.742188 114.078125 216.585938 C 116.105469 215.910156 117.582031 214.332031 118.214844 212.449219 L 136.722656 157.292969 C 137.878906 153.855469 136.019531 150.136719 132.589844 148.980469 Z M 226.710938 148.980469 C 223.28125 147.835938 219.554688 149.6875 218.40625 153.117188 L 206.113281 189.738281 L 193.816406 153.117188 C 193.183594 151.234375 191.707031 149.65625 189.683594 148.980469 C 186.253906 147.835938 182.527344 149.6875 181.378906 153.117188 L 169.085938 189.738281 L 156.789062 153.117188 C 155.644531 149.675781 151.917969 147.824219 148.488281 148.980469 C 145.058594 150.128906 143.195312 153.855469 144.351562 157.28125 L 162.871094 212.441406 C 164.015625 215.878906 167.742188 217.730469 171.171875 216.574219 C 173.199219 215.898438 174.675781 214.324219 175.308594 212.441406 L 187.605469 175.816406 L 199.898438 212.441406 C 201.046875 215.878906 204.773438 217.730469 208.203125 216.574219 C 210.226562 215.898438 211.703125 214.324219 212.335938 212.441406 L 230.847656 157.28125 C 232.003906 153.855469 230.140625 150.136719 226.710938 148.980469 Z M 265.285156 216.585938 C 267.3125 215.910156 268.785156 214.332031 269.421875 212.449219 L 281.714844 175.828125 L 294.011719 212.449219 C 295.15625 215.890625 298.882812 217.742188 302.3125 216.585938 C 304.339844 215.910156 305.816406 214.332031 306.449219 212.449219 L 324.957031 157.292969 C 326.105469 153.863281 324.253906 150.136719 320.824219 148.992188 C 317.394531 147.84375 313.667969 149.699219 312.519531 153.125 L 300.226562 189.75 L 287.929688 153.125 C 287.296875 151.242188 285.820312 149.667969 283.792969 148.992188 C 280.363281 147.84375 276.636719 149.699219 275.492188 153.125 L 263.195312 189.75 L 250.902344 153.125 C 249.753906 149.6875 246.027344 147.835938 242.597656 148.992188 C 239.167969 150.136719 237.304688 153.863281 238.464844 157.292969 L 256.980469 212.449219 C 258.128906 215.878906 261.855469 217.730469 265.285156 216.585938 Z M 408.578125 361.085938 L 375.429688 394.226562 C 372.859375 396.796875 368.691406 396.796875 366.121094 394.226562 L 332.625 360.738281 L 306.449219 386.910156 C 303.878906 389.476562 299.714844 389.476562 297.144531 386.910156 C 296.335938 386.101562 295.78125 385.136719 295.484375 384.125 L 275.796875 319.152344 L 7.589844 319.152344 C 3.957031 319.152344 1.007812 316.203125 1.007812 312.570312 L 1.007812 64.429688 C 1.007812 64.429688 1.007812 64.417969 1.007812 64.417969 C 1.007812 64.417969 1.007812 64.40625 1.007812 64.40625 L 1.007812 7.367188 C 1.007812 3.734375 3.957031 0.785156 7.589844 0.785156 L 367.605469 0.785156 C 371.242188 0.785156 374.191406 3.734375 374.191406 7.367188 L 374.191406 273.808594 L 398.515625 281.179688 C 401.996094 282.222656 403.960938 285.898438 402.90625 289.378906 C 402.566406 290.492188 401.964844 291.445312 401.1875 292.203125 L 375.082031 318.300781 L 408.578125 351.792969 C 411.148438 354.351562 411.148438 358.527344 408.578125 361.085938 Z M 14.171875 13.949219 L 14.171875 57.835938 L 361.023438 57.835938 L 361.023438 13.949219 Z M 271.816406 305.980469 L 254.300781 248.179688 C 253.257812 244.703125 255.222656 241.027344 258.691406 239.984375 C 259.980469 239.59375 261.292969 239.625 262.5 239.984375 L 361.015625 269.820312 L 361.015625 71 L 14.171875 71 L 14.171875 305.988281 L 271.816406 305.988281 Z M 394.613281 356.4375 L 361.117188 322.949219 C 358.546875 320.378906 358.546875 316.214844 361.117188 313.644531 L 384.179688 290.585938 L 365.722656 284.996094 C 365.683594 284.988281 365.632812 284.964844 365.589844 284.957031 L 270.464844 256.144531 L 286.957031 310.585938 C 286.96875 310.605469 286.96875 310.625 286.976562 310.648438 L 304.914062 369.835938 L 327.976562 346.777344 C 330.546875 344.207031 334.714844 344.207031 337.285156 346.777344 L 370.78125 380.265625 Z M 394.613281 356.4375 "/></g></g><mask id="00b3a94a7f"><g filter="url(#a489b56912)"><rect x="0" width="750" y="0" height="749.999995" style="fill:#000000;fill-opacity:0.4;stroke:none;"/></g></mask></g></g></svg>