<svg xmlns="http://www.w3.org/2000/svg" xmlns:xlink="http://www.w3.org/1999/xlink" width="1000" zoomAndPan="magnify" viewBox="0 0 750 749.999995" height="1000" preserveAspectRatio="xMidYMid meet" version="1.2"><defs><filter x="0%" y="0%" width="100%" filterUnits="objectBoundingBox" id="24a2e44555" height="100%"><feColorMatrix values="0 0 0 0 1 0 0 0 0 1 0 0 0 0 1 0 0 0 1 0" type="matrix" in="SourceGraphic"/></filter><clipPath id="73cf36b3c1"><path d="M 5 3 L 465 3 L 465 462.367188 L 5 462.367188 Z M 5 3 "/></clipPath><clipPath id="4571cd94c1"><rect x="0" width="471" y="0" height="464"/></clipPath><clipPath id="11becbafdd"><rect x="0" width="632" y="0" height="317"/></clipPath></defs><g id="33be534fc1"><g mask="url(#cb8eaceb48)" transform="matrix(1,0,0,1,166,116)"><g clip-path="url(#4571cd94c1)"><g clip-rule="nonzero" clip-path="url(#73cf36b3c1)"><path style=" stroke:none;fill-rule:nonzero;fill:#000000;fill-opacity:1;" d="M 439.238281 135.753906 C 445.757812 135.753906 452.285156 133.273438 457.253906 128.304688 C 462.0625 123.492188 464.714844 117.09375 464.714844 110.285156 C 464.714844 103.472656 462.0625 97.074219 457.253906 92.261719 C 447.320312 82.328125 431.160156 82.328125 421.226562 92.261719 C 416.417969 97.074219 413.765625 103.472656 413.765625 110.285156 C 413.765625 114.542969 414.914062 118.574219 416.859375 122.226562 L 391.84375 147.25 C 384.816406 134.421875 376.253906 122.558594 366.425781 111.875 L 427.097656 51.1875 C 430.820312 53.164062 434.890625 54.269531 439.007812 54.269531 C 445.527344 54.269531 452.054688 51.789062 457.023438 46.820312 C 466.957031 36.882812 466.957031 20.722656 457.023438 10.785156 C 447.089844 0.851562 430.929688 0.851562 421 10.785156 C 412.902344 18.886719 411.523438 31.085938 416.632812 40.71875 L 355.957031 101.40625 C 345.320312 91.613281 333.515625 83.082031 320.746094 76.070312 L 345.648438 51.21875 C 349.28125 53.15625 353.308594 54.289062 357.550781 54.289062 C 364.351562 54.289062 370.753906 51.640625 375.566406 46.828125 C 385.5 36.890625 385.5 20.730469 375.566406 10.792969 C 365.941406 1.160156 349.164062 1.167969 339.539062 10.792969 C 331.4375 18.898438 330.066406 31.117188 335.1875 40.75 L 306.714844 69.179688 C 284.746094 59.507812 260.511719 54.113281 235.027344 54.113281 C 209.542969 54.113281 185.308594 59.507812 163.355469 69.171875 L 134.878906 40.742188 C 140 31.109375 138.625 18.898438 130.527344 10.792969 C 120.90625 1.167969 104.125 1.160156 94.503906 10.792969 C 84.570312 20.730469 84.570312 36.890625 94.503906 46.828125 C 99.3125 51.640625 105.707031 54.289062 112.519531 54.289062 C 116.757812 54.289062 120.785156 53.148438 124.421875 51.21875 L 149.320312 76.070312 C 136.550781 83.082031 124.746094 91.613281 114.109375 101.40625 L 53.421875 40.71875 C 58.535156 31.085938 57.152344 18.886719 49.054688 10.785156 C 39.121094 0.851562 22.964844 0.851562 13.03125 10.785156 C 3.097656 20.722656 3.097656 36.882812 13.03125 46.820312 C 17.996094 51.789062 24.523438 54.273438 31.046875 54.273438 C 35.160156 54.273438 39.230469 53.171875 42.957031 51.195312 L 103.628906 111.882812 C 93.828125 122.523438 85.300781 134.339844 78.292969 147.117188 L 53.421875 122.242188 C 55.375 118.589844 56.523438 114.546875 56.523438 110.292969 C 56.523438 103.488281 53.875 97.082031 49.0625 92.269531 C 39.128906 82.335938 22.96875 82.335938 13.039062 92.269531 C 8.21875 97.082031 5.570312 103.480469 5.570312 110.285156 C 5.570312 117.089844 8.21875 123.492188 13.03125 128.304688 C 17.996094 133.265625 24.515625 135.753906 31.046875 135.753906 C 35.152344 135.753906 39.21875 134.648438 42.941406 132.679688 L 71.402344 161.148438 C 61.75 183.105469 56.34375 207.347656 56.34375 232.835938 C 56.34375 258.328125 61.742188 282.566406 71.402344 304.527344 L 42.976562 333.015625 C 33.347656 327.894531 21.136719 329.269531 13.039062 337.371094 C 8.21875 342.183594 5.570312 348.578125 5.570312 355.390625 C 5.570312 362.203125 8.21875 368.597656 13.03125 373.410156 C 17.996094 378.378906 24.515625 380.859375 31.046875 380.859375 C 37.574219 380.859375 44.09375 378.378906 49.0625 373.410156 C 53.875 368.597656 56.523438 362.203125 56.523438 355.390625 C 56.523438 351.148438 55.382812 347.121094 53.453125 343.484375 L 78.300781 318.578125 C 85.308594 331.351562 93.835938 343.160156 103.628906 353.800781 L 42.957031 414.488281 C 33.324219 409.371094 21.128906 410.753906 13.03125 418.855469 C 3.097656 428.789062 3.097656 444.953125 13.03125 454.890625 C 17.996094 459.855469 24.515625 462.335938 31.046875 462.335938 C 37.574219 462.335938 44.09375 459.855469 49.0625 454.890625 C 57.160156 446.789062 58.542969 434.589844 53.429688 424.957031 L 114.101562 364.269531 C 124.738281 374.070312 136.550781 382.597656 149.328125 389.609375 L 124.390625 414.554688 C 114.804688 409.675781 102.320312 411.023438 94.503906 418.847656 C 84.570312 428.785156 84.570312 444.945312 94.503906 454.882812 C 99.3125 459.695312 105.707031 462.34375 112.519531 462.34375 C 119.328125 462.34375 125.722656 459.695312 130.535156 454.882812 C 138.625 446.78125 140.007812 434.59375 134.910156 424.96875 L 163.367188 396.503906 C 185.324219 406.15625 209.558594 411.5625 235.042969 411.5625 C 260.527344 411.5625 284.753906 406.164062 306.714844 396.503906 L 335.171875 424.96875 C 330.074219 434.59375 331.457031 446.78125 339.546875 454.882812 C 344.359375 459.695312 350.753906 462.34375 357.5625 462.34375 C 364.375 462.34375 370.769531 459.695312 375.582031 454.882812 C 385.515625 444.945312 385.515625 428.785156 375.582031 418.847656 C 367.765625 411.023438 355.277344 409.675781 345.691406 414.554688 L 320.753906 389.609375 C 333.523438 382.597656 345.34375 374.070312 355.980469 364.269531 L 416.652344 424.957031 C 411.539062 434.589844 412.921875 446.789062 421.019531 454.890625 C 425.988281 459.855469 432.507812 462.335938 439.035156 462.335938 C 445.566406 462.335938 452.085938 459.855469 457.050781 454.890625 C 466.984375 444.953125 466.984375 428.789062 457.050781 418.855469 C 448.953125 410.753906 436.757812 409.371094 427.128906 414.488281 L 366.453125 353.800781 C 376.246094 343.160156 384.773438 331.351562 391.78125 318.578125 L 416.632812 343.484375 C 414.691406 347.121094 413.558594 351.148438 413.558594 355.390625 C 413.558594 362.195312 416.210938 368.597656 421.019531 373.410156 C 425.988281 378.378906 432.507812 380.859375 439.035156 380.859375 C 445.566406 380.859375 452.085938 378.378906 457.050781 373.410156 C 461.835938 368.589844 464.484375 362.195312 464.484375 355.390625 C 464.484375 348.585938 461.835938 342.183594 457.023438 337.371094 C 448.917969 329.269531 436.710938 327.894531 427.074219 333.015625 L 398.652344 304.535156 C 408.304688 282.574219 413.707031 258.335938 413.707031 232.84375 C 413.707031 207.414062 408.332031 183.234375 398.726562 161.308594 L 427.339844 132.6875 C 431.066406 134.648438 435.128906 135.753906 439.238281 135.753906 Z M 350 21.253906 C 352.011719 19.242188 354.691406 18.128906 357.550781 18.128906 C 360.40625 18.128906 363.078125 19.242188 365.097656 21.253906 C 369.257812 25.414062 369.257812 32.191406 365.097656 36.351562 C 361.066406 40.386719 354.042969 40.386719 350.007812 36.351562 C 345.839844 32.191406 345.839844 25.414062 350 21.253906 Z M 104.960938 36.351562 C 100.800781 32.191406 100.800781 25.414062 104.960938 21.253906 C 106.972656 19.242188 109.652344 18.128906 112.511719 18.128906 C 115.367188 18.128906 118.039062 19.242188 120.054688 21.253906 C 124.214844 25.414062 124.214844 32.191406 120.054688 36.351562 C 116.019531 40.386719 108.996094 40.386719 104.960938 36.351562 Z M 23.496094 117.835938 C 21.484375 115.816406 20.371094 113.140625 20.371094 110.285156 C 20.371094 107.425781 21.484375 104.753906 23.496094 102.730469 C 25.574219 100.652344 28.308594 99.617188 31.046875 99.617188 C 33.785156 99.617188 36.507812 100.660156 38.597656 102.730469 C 40.609375 104.746094 41.71875 107.425781 41.71875 110.285156 C 41.71875 113.140625 40.609375 115.816406 38.597656 117.835938 C 34.429688 121.988281 27.664062 121.988281 23.496094 117.835938 Z M 38.589844 362.933594 C 34.429688 367.097656 27.65625 367.097656 23.496094 362.933594 C 21.484375 360.921875 20.371094 358.242188 20.371094 355.390625 C 20.371094 352.539062 21.484375 349.859375 23.496094 347.847656 C 25.574219 345.765625 28.308594 344.730469 31.046875 344.730469 C 33.785156 344.730469 36.507812 345.773438 38.597656 347.855469 C 40.609375 349.867188 41.71875 352.546875 41.71875 355.398438 C 41.71875 358.25 40.609375 360.921875 38.589844 362.933594 Z M 120.054688 444.421875 C 116.027344 448.453125 108.996094 448.453125 104.960938 444.421875 C 100.800781 440.257812 100.800781 433.484375 104.960938 429.324219 C 106.972656 427.308594 109.652344 426.199219 112.511719 426.199219 C 115.367188 426.199219 118.039062 427.308594 120.0625 429.324219 C 124.214844 433.484375 124.214844 440.257812 120.054688 444.421875 Z M 357.550781 426.191406 C 360.398438 426.191406 363.078125 427.300781 365.097656 429.316406 C 369.257812 433.476562 369.257812 440.25 365.097656 444.414062 C 361.066406 448.449219 354.035156 448.449219 350.007812 444.414062 C 345.847656 440.25 345.847656 433.476562 350.007812 429.316406 C 352.019531 427.300781 354.691406 426.191406 357.550781 426.191406 Z M 439.007812 344.722656 C 441.738281 344.722656 444.46875 345.765625 446.558594 347.839844 C 448.570312 349.859375 449.679688 352.539062 449.679688 355.390625 C 449.679688 358.242188 448.570312 360.921875 446.558594 362.941406 C 442.398438 367.101562 435.625 367.101562 431.464844 362.941406 C 429.453125 360.929688 428.339844 358.25 428.339844 355.390625 C 428.339844 352.53125 429.453125 349.859375 431.464844 347.839844 C 433.542969 345.757812 436.277344 344.722656 439.007812 344.722656 Z M 431.464844 21.253906 C 433.542969 19.175781 436.277344 18.136719 439.015625 18.136719 C 441.753906 18.136719 444.476562 19.179688 446.5625 21.253906 C 450.722656 25.414062 450.722656 32.191406 446.5625 36.351562 C 442.40625 40.511719 435.632812 40.511719 431.472656 36.351562 C 427.304688 32.191406 427.304688 25.414062 431.464844 21.253906 Z M 23.496094 36.351562 C 19.335938 32.191406 19.335938 25.414062 23.496094 21.253906 C 25.574219 19.175781 28.308594 18.136719 31.046875 18.136719 C 33.785156 18.136719 36.507812 19.179688 38.589844 21.253906 C 42.75 25.414062 42.75 32.191406 38.589844 36.351562 C 34.429688 40.511719 27.664062 40.511719 23.496094 36.351562 Z M 38.589844 444.421875 C 34.429688 448.582031 27.65625 448.582031 23.496094 444.421875 C 19.335938 440.257812 19.335938 433.484375 23.496094 429.324219 C 25.574219 427.242188 28.308594 426.207031 31.046875 426.207031 C 33.785156 426.207031 36.507812 427.25 38.597656 429.324219 C 42.75 433.484375 42.75 440.257812 38.589844 444.421875 Z M 439.007812 426.199219 C 441.738281 426.199219 444.46875 427.242188 446.558594 429.316406 C 450.714844 433.476562 450.714844 440.25 446.558594 444.414062 C 442.398438 448.574219 435.625 448.574219 431.464844 444.414062 C 427.304688 440.25 427.304688 433.476562 431.464844 429.316406 C 433.542969 427.242188 436.277344 426.199219 439.007812 426.199219 Z M 235.027344 396.753906 C 144.664062 396.753906 71.148438 323.222656 71.148438 232.835938 C 71.148438 142.453125 144.664062 68.917969 235.027344 68.917969 C 325.386719 68.917969 398.902344 142.453125 398.902344 232.835938 C 398.902344 323.222656 325.386719 396.753906 235.027344 396.753906 Z M 431.695312 102.738281 C 433.773438 100.660156 436.503906 99.621094 439.242188 99.621094 C 441.984375 99.621094 444.707031 100.667969 446.792969 102.738281 C 448.808594 104.753906 449.917969 107.433594 449.917969 110.292969 C 449.917969 113.148438 448.808594 115.820312 446.792969 117.835938 C 442.632812 121.996094 435.859375 121.996094 431.703125 117.835938 C 429.6875 115.820312 428.578125 113.140625 428.578125 110.292969 C 428.578125 107.441406 429.671875 104.753906 431.695312 102.738281 Z M 431.695312 102.738281 "/></g><path style=" stroke:none;fill-rule:nonzero;fill:#000000;fill-opacity:1;" d="M 235.027344 100.320312 C 161.96875 100.320312 102.539062 159.761719 102.539062 232.835938 C 102.539062 305.910156 161.96875 365.355469 235.027344 365.355469 C 308.082031 365.355469 367.511719 305.910156 367.511719 232.835938 C 367.511719 159.761719 308.082031 100.320312 235.027344 100.320312 Z M 235.027344 350.546875 C 170.132812 350.546875 117.34375 297.746094 117.34375 232.835938 C 117.34375 167.929688 170.132812 115.125 235.027344 115.125 C 299.917969 115.125 352.707031 167.929688 352.707031 232.835938 C 352.707031 297.746094 299.917969 350.546875 235.027344 350.546875 Z M 235.027344 350.546875 "/><path style=" stroke:none;fill-rule:nonzero;fill:#000000;fill-opacity:1;" d="M 302.714844 189.472656 L 238.726562 152.515625 C 236.433594 151.1875 233.621094 151.1875 231.324219 152.515625 L 167.335938 189.464844 C 165.042969 190.792969 163.636719 193.234375 163.636719 195.878906 L 163.636719 269.78125 C 163.636719 272.425781 165.042969 274.875 167.335938 276.191406 L 231.324219 313.144531 C 232.472656 313.804688 233.746094 314.136719 235.027344 314.136719 C 236.308594 314.136719 237.582031 313.8125 238.726562 313.144531 L 302.714844 276.191406 C 305.011719 274.867188 306.417969 272.425781 306.417969 269.78125 L 306.417969 195.878906 C 306.417969 193.234375 305.011719 190.792969 302.714844 189.472656 Z M 235.027344 167.476562 L 284.210938 195.878906 L 235.027344 224.285156 L 185.839844 195.878906 Z M 178.4375 208.707031 L 227.625 237.117188 L 227.625 293.925781 L 178.4375 265.523438 Z M 242.429688 293.917969 L 242.429688 237.109375 L 291.613281 208.707031 L 291.613281 265.515625 Z M 242.429688 293.917969 "/></g><mask id="cb8eaceb48"><g filter="url(#24a2e44555)"><rect x="0" width="750" y="0" height="749.999995" style="fill:#000000;fill-opacity:0.45;stroke:none;"/></g></mask></g><g transform="matrix(1,0,0,1,82,193)"><g clip-path="url(#11becbafdd)"><g style="fill:#000000;fill-opacity:1;"><g transform="translate(0.161891, 77.160821)"><path style="stroke:none" d="M 28.015625 0 C 24.566406 0 22.84375 -1.75 22.84375 -5.25 L 22.84375 -44.09375 C 22.84375 -45.519531 22.320312 -46.738281 21.28125 -47.75 C 20.25 -48.757812 18.988281 -49.265625 17.5 -49.265625 L 10.5 -49.265625 C 7 -49.265625 5.25 -51.015625 5.25 -54.515625 L 5.25 -58.484375 C 5.25 -61.984375 7 -63.734375 10.5 -63.734375 L 52.59375 -63.65625 C 56.101562 -63.65625 57.859375 -61.90625 57.859375 -58.40625 L 57.859375 -54.515625 C 57.859375 -51.015625 56.101562 -49.265625 52.59375 -49.265625 L 45.515625 -49.265625 C 44.085938 -49.265625 42.851562 -48.757812 41.8125 -47.75 C 40.78125 -46.738281 40.265625 -45.519531 40.265625 -44.09375 L 40.265625 -5.171875 C 40.265625 -1.722656 38.515625 0 35.015625 0 Z M 28.015625 0 "/></g></g><g style="fill:#000000;fill-opacity:1;"><g transform="translate(63.269263, 77.160821)"><path style="stroke:none" d="M 24.75 0 C 20.976562 0 17.617188 -0.832031 14.671875 -2.5 C 11.734375 -4.175781 9.425781 -6.484375 7.75 -9.421875 C 6.082031 -12.367188 5.25 -15.726562 5.25 -19.5 L 5.25 -44.171875 C 5.25 -47.929688 6.082031 -51.285156 7.75 -54.234375 C 9.425781 -57.179688 11.734375 -59.488281 14.671875 -61.15625 C 17.617188 -62.820312 20.976562 -63.65625 24.75 -63.65625 L 31.03125 -63.65625 C 34.800781 -63.65625 38.15625 -62.820312 41.09375 -61.15625 C 44.039062 -59.488281 46.347656 -57.179688 48.015625 -54.234375 C 49.691406 -51.285156 50.53125 -47.929688 50.53125 -44.171875 L 50.53125 -19.5 C 50.53125 -15.726562 49.691406 -12.367188 48.015625 -9.421875 C 46.347656 -6.484375 44.039062 -4.175781 41.09375 -2.5 C 38.15625 -0.832031 34.800781 0 31.03125 0 Z M 27.859375 -14.40625 C 29.335938 -14.40625 30.582031 -14.90625 31.59375 -15.90625 C 32.601562 -16.914062 33.109375 -18.164062 33.109375 -19.65625 L 33.109375 -44 C 33.109375 -45.488281 32.601562 -46.738281 31.59375 -47.75 C 30.582031 -48.757812 29.335938 -49.265625 27.859375 -49.265625 C 26.421875 -49.265625 25.195312 -48.757812 24.1875 -47.75 C 23.1875 -46.738281 22.6875 -45.488281 22.6875 -44 L 22.6875 -19.65625 C 22.6875 -18.164062 23.1875 -16.914062 24.1875 -15.90625 C 25.195312 -14.90625 26.421875 -14.40625 27.859375 -14.40625 Z M 27.859375 -14.40625 "/></g></g><g style="fill:#000000;fill-opacity:1;"><g transform="translate(119.055215, 77.160821)"><path style="stroke:none" d="M 10.578125 0 C 9.097656 0 7.835938 -0.515625 6.796875 -1.546875 C 5.765625 -2.585938 5.25 -3.847656 5.25 -5.328125 L 5.25 -58.328125 C 5.25 -59.867188 5.765625 -61.140625 6.796875 -62.140625 C 7.835938 -63.148438 9.097656 -63.65625 10.578125 -63.65625 L 17.34375 -63.65625 C 18.882812 -63.65625 20.160156 -63.148438 21.171875 -62.140625 C 22.179688 -61.140625 22.6875 -59.867188 22.6875 -58.328125 L 22.6875 -44 C 22.6875 -42.570312 23.1875 -41.351562 24.1875 -40.34375 C 25.195312 -39.332031 26.421875 -38.828125 27.859375 -38.828125 C 29.335938 -38.828125 30.582031 -39.332031 31.59375 -40.34375 C 32.601562 -41.351562 33.109375 -42.570312 33.109375 -44 L 33.109375 -58.328125 C 33.109375 -59.867188 33.625 -61.140625 34.65625 -62.140625 C 35.6875 -63.148438 36.945312 -63.65625 38.4375 -63.65625 L 45.203125 -63.65625 C 46.742188 -63.65625 48.015625 -63.148438 49.015625 -62.140625 C 50.023438 -61.140625 50.53125 -59.867188 50.53125 -58.328125 L 50.53125 -48.625 C 50.53125 -46.820312 50.050781 -45.175781 49.09375 -43.6875 L 43.375 -34.609375 C 42.207031 -32.753906 42.207031 -30.898438 43.375 -29.046875 L 49.09375 -19.96875 C 50.050781 -18.488281 50.53125 -16.847656 50.53125 -15.046875 L 50.53125 -5.328125 C 50.53125 -3.847656 50.023438 -2.585938 49.015625 -1.546875 C 48.015625 -0.515625 46.742188 0 45.203125 0 L 38.4375 0 C 36.945312 0 35.6875 -0.515625 34.65625 -1.546875 C 33.625 -2.585938 33.109375 -3.847656 33.109375 -5.328125 L 33.109375 -19.65625 C 33.109375 -21.082031 32.601562 -22.3125 31.59375 -23.34375 C 30.582031 -24.382812 29.335938 -24.90625 27.859375 -24.90625 C 26.421875 -24.90625 25.195312 -24.398438 24.1875 -23.390625 C 23.1875 -22.390625 22.6875 -21.144531 22.6875 -19.65625 L 22.6875 -5.328125 C 22.6875 -3.847656 22.179688 -2.585938 21.171875 -1.546875 C 20.160156 -0.515625 18.882812 0 17.34375 0 Z M 10.578125 0 "/></g></g><g style="fill:#000000;fill-opacity:1;"><g transform="translate(174.841167, 77.160821)"><path style="stroke:none" d="M 10.578125 0 C 9.097656 0 7.835938 -0.515625 6.796875 -1.546875 C 5.765625 -2.585938 5.25 -3.847656 5.25 -5.328125 L 5.25 -58.328125 C 5.25 -59.867188 5.765625 -61.140625 6.796875 -62.140625 C 7.835938 -63.148438 9.097656 -63.65625 10.578125 -63.65625 L 57.21875 -63.65625 C 58.757812 -63.65625 60.03125 -63.148438 61.03125 -62.140625 C 62.039062 -61.140625 62.546875 -59.867188 62.546875 -58.328125 L 62.546875 -54.59375 C 62.546875 -53.101562 62.039062 -51.84375 61.03125 -50.8125 C 60.03125 -49.78125 58.757812 -49.265625 57.21875 -49.265625 L 27.859375 -49.265625 C 26.421875 -49.265625 25.195312 -48.757812 24.1875 -47.75 C 23.1875 -46.738281 22.6875 -45.488281 22.6875 -44 C 22.6875 -42.570312 23.1875 -41.351562 24.1875 -40.34375 C 25.195312 -39.332031 26.421875 -38.828125 27.859375 -38.828125 L 54.03125 -38.828125 C 55.570312 -38.828125 56.84375 -38.320312 57.84375 -37.3125 C 58.851562 -36.3125 59.359375 -35.039062 59.359375 -33.5 L 59.359375 -30.3125 C 59.359375 -28.78125 58.84375 -27.492188 57.8125 -26.453125 C 56.78125 -25.421875 55.519531 -24.90625 54.03125 -24.90625 L 27.859375 -24.90625 C 26.421875 -24.90625 25.195312 -24.382812 24.1875 -23.34375 C 23.1875 -22.3125 22.6875 -21.082031 22.6875 -19.65625 C 22.6875 -18.164062 23.1875 -16.914062 24.1875 -15.90625 C 25.195312 -14.90625 26.421875 -14.40625 27.859375 -14.40625 L 57.21875 -14.40625 C 58.757812 -14.40625 60.03125 -13.898438 61.03125 -12.890625 C 62.039062 -11.878906 62.546875 -10.609375 62.546875 -9.078125 L 62.546875 -5.328125 C 62.546875 -3.847656 62.039062 -2.585938 61.03125 -1.546875 C 60.03125 -0.515625 58.757812 0 57.21875 0 Z M 10.578125 0 "/></g></g><g style="fill:#000000;fill-opacity:1;"><g transform="translate(242.643781, 77.160821)"><path style="stroke:none" d="M 10.578125 0 C 9.097656 0 7.835938 -0.515625 6.796875 -1.546875 C 5.765625 -2.585938 5.25 -3.847656 5.25 -5.328125 L 5.25 -58.328125 C 5.25 -59.867188 5.765625 -61.140625 6.796875 -62.140625 C 7.835938 -63.148438 9.097656 -63.65625 10.578125 -63.65625 L 42.8125 -63.65625 C 44.351562 -63.65625 45.625 -63.125 46.625 -62.0625 C 47.632812 -61.007812 48.140625 -59.738281 48.140625 -58.25 L 48.140625 -19.65625 C 48.140625 -18.164062 48.644531 -16.914062 49.65625 -15.90625 C 50.664062 -14.90625 51.882812 -14.40625 53.3125 -14.40625 C 54.800781 -14.40625 56.046875 -14.90625 57.046875 -15.90625 C 58.054688 -16.914062 58.5625 -18.164062 58.5625 -19.65625 L 58.5625 -58.328125 C 58.5625 -59.867188 59.078125 -61.140625 60.109375 -62.140625 C 61.148438 -63.148438 62.414062 -63.65625 63.90625 -63.65625 L 70.671875 -63.65625 C 72.203125 -63.65625 73.472656 -63.148438 74.484375 -62.140625 C 75.492188 -61.140625 76 -59.867188 76 -58.328125 L 76 -5.328125 C 76 -3.847656 75.492188 -2.585938 74.484375 -1.546875 C 73.472656 -0.515625 72.203125 0 70.671875 0 L 38.4375 0 C 36.945312 0 35.6875 -0.53125 34.65625 -1.59375 C 33.625 -2.65625 33.109375 -3.925781 33.109375 -5.40625 L 33.109375 -44.09375 C 33.109375 -45.519531 32.601562 -46.738281 31.59375 -47.75 C 30.582031 -48.757812 29.335938 -49.265625 27.859375 -49.265625 C 26.421875 -49.265625 25.195312 -48.757812 24.1875 -47.75 C 23.1875 -46.738281 22.6875 -45.519531 22.6875 -44.09375 L 22.6875 -5.328125 C 22.6875 -3.847656 22.179688 -2.585938 21.171875 -1.546875 C 20.160156 -0.515625 18.882812 0 17.34375 0 Z M 10.578125 0 "/></g></g><g style="fill:#000000;fill-opacity:1;"><g transform="translate(323.895502, 77.160821)"><path style="stroke:none" d=""/></g></g><g style="fill:#000000;fill-opacity:1;"><g transform="translate(354.295254, 77.160821)"><path style="stroke:none" d="M 10.578125 0 C 9.097656 0 7.835938 -0.515625 6.796875 -1.546875 C 5.765625 -2.585938 5.25 -3.847656 5.25 -5.328125 L 5.25 -9.078125 C 5.25 -10.609375 5.765625 -11.878906 6.796875 -12.890625 C 7.835938 -13.898438 9.097656 -14.40625 10.578125 -14.40625 L 39.796875 -14.40625 C 41.273438 -14.40625 42.519531 -14.90625 43.53125 -15.90625 C 44.539062 -16.914062 45.046875 -18.164062 45.046875 -19.65625 C 45.046875 -21.082031 44.539062 -22.3125 43.53125 -23.34375 C 42.519531 -24.382812 41.273438 -24.90625 39.796875 -24.90625 L 23.953125 -24.90625 C 20.347656 -24.90625 17.140625 -25.710938 14.328125 -27.328125 C 11.515625 -28.953125 9.296875 -31.171875 7.671875 -33.984375 C 6.054688 -36.796875 5.25 -40.003906 5.25 -43.609375 L 5.25 -44.96875 C 5.25 -48.570312 6.054688 -51.78125 7.671875 -54.59375 C 9.296875 -57.40625 11.515625 -59.617188 14.328125 -61.234375 C 17.140625 -62.847656 20.347656 -63.65625 23.953125 -63.65625 L 57.140625 -63.65625 C 58.671875 -63.65625 59.941406 -63.148438 60.953125 -62.140625 C 61.960938 -61.140625 62.46875 -59.867188 62.46875 -58.328125 L 62.46875 -54.59375 C 62.46875 -53.101562 61.960938 -51.84375 60.953125 -50.8125 C 59.941406 -49.78125 58.671875 -49.265625 57.140625 -49.265625 L 27.859375 -49.265625 C 26.421875 -49.265625 25.195312 -48.757812 24.1875 -47.75 C 23.1875 -46.738281 22.6875 -45.488281 22.6875 -44 C 22.6875 -42.570312 23.1875 -41.351562 24.1875 -40.34375 C 25.195312 -39.332031 26.421875 -38.828125 27.859375 -38.828125 L 43.765625 -38.828125 C 47.367188 -38.828125 50.578125 -38.019531 53.390625 -36.40625 C 56.203125 -34.789062 58.414062 -32.578125 60.03125 -29.765625 C 61.65625 -26.953125 62.46875 -23.742188 62.46875 -20.140625 L 62.46875 -18.703125 C 62.46875 -15.097656 61.65625 -11.890625 60.03125 -9.078125 C 58.414062 -6.265625 56.203125 -4.046875 53.390625 -2.421875 C 50.578125 -0.804688 47.367188 0 43.765625 0 Z M 10.578125 0 "/></g></g><g style="fill:#000000;fill-opacity:1;"><g transform="translate(422.018299, 77.160821)"><path style="stroke:none" d="M 10.578125 0 C 9.097656 0 7.835938 -0.515625 6.796875 -1.546875 C 5.765625 -2.585938 5.25 -3.847656 5.25 -5.328125 L 5.25 -58.328125 C 5.25 -59.867188 5.765625 -61.140625 6.796875 -62.140625 C 7.835938 -63.148438 9.097656 -63.65625 10.578125 -63.65625 L 17.34375 -63.65625 C 18.882812 -63.65625 20.160156 -63.148438 21.171875 -62.140625 C 22.179688 -61.140625 22.6875 -59.867188 22.6875 -58.328125 L 22.6875 -23.234375 C 22.6875 -21.753906 23.1875 -20.507812 24.1875 -19.5 C 25.195312 -18.488281 26.421875 -17.984375 27.859375 -17.984375 C 29.335938 -17.984375 30.582031 -18.488281 31.59375 -19.5 C 32.601562 -20.507812 33.109375 -21.753906 33.109375 -23.234375 L 33.109375 -58.25 C 33.109375 -59.789062 33.609375 -61.078125 34.609375 -62.109375 C 35.617188 -63.140625 36.894531 -63.65625 38.4375 -63.65625 L 45.203125 -63.65625 C 46.742188 -63.65625 48.015625 -63.140625 49.015625 -62.109375 C 50.023438 -61.078125 50.53125 -59.789062 50.53125 -58.25 L 50.53125 -23.234375 C 50.53125 -21.753906 51.035156 -20.507812 52.046875 -19.5 C 53.054688 -18.488281 54.273438 -17.984375 55.703125 -17.984375 C 57.191406 -17.984375 58.4375 -18.488281 59.4375 -19.5 C 60.445312 -20.507812 60.953125 -21.753906 60.953125 -23.234375 L 60.953125 -58.328125 C 60.953125 -59.867188 61.46875 -61.140625 62.5 -62.140625 C 63.539062 -63.148438 64.800781 -63.65625 66.28125 -63.65625 L 73.046875 -63.65625 C 74.585938 -63.65625 75.863281 -63.148438 76.875 -62.140625 C 77.882812 -61.140625 78.390625 -59.867188 78.390625 -58.328125 L 78.390625 -5.328125 C 78.390625 -3.847656 77.882812 -2.585938 76.875 -1.546875 C 75.863281 -0.515625 74.585938 0 73.046875 0 L 52.359375 0 C 50.878906 0 49.617188 -0.515625 48.578125 -1.546875 C 47.546875 -2.585938 47.03125 -3.847656 47.03125 -5.328125 L 47.03125 -7.15625 C 47.03125 -8.59375 46.523438 -9.828125 45.515625 -10.859375 C 44.503906 -11.898438 43.257812 -12.421875 41.78125 -12.421875 C 40.34375 -12.421875 39.117188 -11.914062 38.109375 -10.90625 C 37.109375 -9.894531 36.609375 -8.644531 36.609375 -7.15625 L 36.609375 -5.328125 C 36.609375 -3.847656 36.101562 -2.585938 35.09375 -1.546875 C 34.082031 -0.515625 32.8125 0 31.28125 0 Z M 10.578125 0 "/></g></g><g style="fill:#000000;fill-opacity:1;"><g transform="translate(505.657425, 77.160821)"><path style="stroke:none" d="M 10.578125 0 C 9.097656 0 7.835938 -0.515625 6.796875 -1.546875 C 5.765625 -2.585938 5.25 -3.847656 5.25 -5.328125 L 5.25 -44.171875 C 5.25 -47.929688 6.082031 -51.285156 7.75 -54.234375 C 9.425781 -57.179688 11.734375 -59.488281 14.671875 -61.15625 C 17.617188 -62.820312 20.976562 -63.65625 24.75 -63.65625 L 31.03125 -63.65625 C 34.800781 -63.65625 38.15625 -62.820312 41.09375 -61.15625 C 44.039062 -59.488281 46.347656 -57.179688 48.015625 -54.234375 C 49.691406 -51.285156 50.53125 -47.929688 50.53125 -44.171875 L 50.53125 -5.328125 C 50.53125 -3.847656 50.023438 -2.585938 49.015625 -1.546875 C 48.015625 -0.515625 46.742188 0 45.203125 0 L 38.4375 0 C 36.945312 0 35.6875 -0.515625 34.65625 -1.546875 C 33.625 -2.585938 33.109375 -3.847656 33.109375 -5.328125 L 33.109375 -14.796875 C 33.109375 -16.234375 32.601562 -17.453125 31.59375 -18.453125 C 30.582031 -19.460938 29.335938 -19.96875 27.859375 -19.96875 C 26.421875 -19.96875 25.195312 -19.460938 24.1875 -18.453125 C 23.1875 -17.453125 22.6875 -16.207031 22.6875 -14.71875 L 22.6875 -5.328125 C 22.6875 -3.847656 22.179688 -2.585938 21.171875 -1.546875 C 20.160156 -0.515625 18.882812 0 17.34375 0 Z M 27.859375 -30.484375 C 29.335938 -30.484375 30.582031 -30.984375 31.59375 -31.984375 C 32.601562 -32.992188 33.109375 -34.21875 33.109375 -35.65625 L 33.109375 -44 C 33.109375 -45.488281 32.601562 -46.738281 31.59375 -47.75 C 30.582031 -48.757812 29.335938 -49.265625 27.859375 -49.265625 C 26.421875 -49.265625 25.195312 -48.757812 24.1875 -47.75 C 23.1875 -46.738281 22.6875 -45.488281 22.6875 -44 L 22.6875 -35.65625 C 22.6875 -34.21875 23.1875 -32.992188 24.1875 -31.984375 C 25.195312 -30.984375 26.421875 -30.484375 27.859375 -30.484375 Z M 27.859375 -30.484375 "/></g></g><g style="fill:#000000;fill-opacity:1;"><g transform="translate(561.443409, 77.160821)"><path style="stroke:none" d="M 10.578125 0 C 9.097656 0 7.835938 -0.515625 6.796875 -1.546875 C 5.765625 -2.585938 5.25 -3.847656 5.25 -5.328125 L 5.25 -58.328125 C 5.25 -59.867188 5.765625 -61.140625 6.796875 -62.140625 C 7.835938 -63.148438 9.097656 -63.65625 10.578125 -63.65625 L 43.765625 -63.65625 C 47.367188 -63.65625 50.578125 -62.847656 53.390625 -61.234375 C 56.203125 -59.617188 58.414062 -57.40625 60.03125 -54.59375 C 61.65625 -51.78125 62.46875 -48.570312 62.46875 -44.96875 L 62.46875 -43.609375 C 62.46875 -40.003906 61.65625 -36.796875 60.03125 -33.984375 C 58.414062 -31.171875 56.203125 -28.953125 53.390625 -27.328125 C 50.578125 -25.710938 47.367188 -24.90625 43.765625 -24.90625 L 27.9375 -24.90625 C 26.5 -24.90625 25.265625 -24.382812 24.234375 -23.34375 C 23.203125 -22.3125 22.6875 -21.082031 22.6875 -19.65625 L 22.6875 -5.328125 C 22.6875 -3.847656 22.179688 -2.585938 21.171875 -1.546875 C 20.160156 -0.515625 18.882812 0 17.34375 0 Z M 27.859375 -38.828125 L 39.796875 -38.828125 C 41.273438 -38.828125 42.519531 -39.332031 43.53125 -40.34375 C 44.539062 -41.351562 45.046875 -42.570312 45.046875 -44 C 45.046875 -45.488281 44.539062 -46.738281 43.53125 -47.75 C 42.519531 -48.757812 41.273438 -49.265625 39.796875 -49.265625 L 27.859375 -49.265625 C 26.421875 -49.265625 25.195312 -48.757812 24.1875 -47.75 C 23.1875 -46.738281 22.6875 -45.488281 22.6875 -44 C 22.6875 -42.570312 23.1875 -41.351562 24.1875 -40.34375 C 25.195312 -39.332031 26.421875 -38.828125 27.859375 -38.828125 Z M 27.859375 -38.828125 "/></g></g><g style="fill:#000000;fill-opacity:1;"><g transform="translate(31.24117, 188.020244)"><path style="stroke:none" d="M 10.578125 0 C 9.097656 0 7.835938 -0.515625 6.796875 -1.546875 C 5.765625 -2.585938 5.25 -3.847656 5.25 -5.328125 L 5.25 -58.328125 C 5.25 -59.867188 5.765625 -61.140625 6.796875 -62.140625 C 7.835938 -63.148438 9.097656 -63.65625 10.578125 -63.65625 L 17.34375 -63.65625 C 18.882812 -63.65625 20.160156 -63.148438 21.171875 -62.140625 C 22.179688 -61.140625 22.6875 -59.867188 22.6875 -58.328125 L 22.6875 -5.328125 C 22.6875 -3.847656 22.179688 -2.585938 21.171875 -1.546875 C 20.160156 -0.515625 18.882812 0 17.34375 0 Z M 10.578125 0 "/></g></g><g style="fill:#000000;fill-opacity:1;"><g transform="translate(59.173947, 188.020244)"><path style="stroke:none" d="M 10.578125 0 C 9.097656 0 7.835938 -0.515625 6.796875 -1.546875 C 5.765625 -2.585938 5.25 -3.847656 5.25 -5.328125 L 5.25 -58.328125 C 5.25 -59.867188 5.765625 -61.140625 6.796875 -62.140625 C 7.835938 -63.148438 9.097656 -63.65625 10.578125 -63.65625 L 42.8125 -63.65625 C 44.351562 -63.65625 45.625 -63.125 46.625 -62.0625 C 47.632812 -61.007812 48.140625 -59.738281 48.140625 -58.25 L 48.140625 -19.65625 C 48.140625 -18.164062 48.644531 -16.914062 49.65625 -15.90625 C 50.664062 -14.90625 51.882812 -14.40625 53.3125 -14.40625 C 54.800781 -14.40625 56.046875 -14.90625 57.046875 -15.90625 C 58.054688 -16.914062 58.5625 -18.164062 58.5625 -19.65625 L 58.5625 -58.328125 C 58.5625 -59.867188 59.078125 -61.140625 60.109375 -62.140625 C 61.148438 -63.148438 62.414062 -63.65625 63.90625 -63.65625 L 70.671875 -63.65625 C 72.203125 -63.65625 73.472656 -63.148438 74.484375 -62.140625 C 75.492188 -61.140625 76 -59.867188 76 -58.328125 L 76 -5.328125 C 76 -3.847656 75.492188 -2.585938 74.484375 -1.546875 C 73.472656 -0.515625 72.203125 0 70.671875 0 L 38.4375 0 C 36.945312 0 35.6875 -0.53125 34.65625 -1.59375 C 33.625 -2.65625 33.109375 -3.925781 33.109375 -5.40625 L 33.109375 -44.09375 C 33.109375 -45.519531 32.601562 -46.738281 31.59375 -47.75 C 30.582031 -48.757812 29.335938 -49.265625 27.859375 -49.265625 C 26.421875 -49.265625 25.195312 -48.757812 24.1875 -47.75 C 23.1875 -46.738281 22.6875 -45.519531 22.6875 -44.09375 L 22.6875 -5.328125 C 22.6875 -3.847656 22.179688 -2.585938 21.171875 -1.546875 C 20.160156 -0.515625 18.882812 0 17.34375 0 Z M 10.578125 0 "/></g></g><g style="fill:#000000;fill-opacity:1;"><g transform="translate(140.425668, 188.020244)"><path style="stroke:none" d="M 28.015625 0 C 24.566406 0 22.84375 -1.75 22.84375 -5.25 L 22.84375 -44.09375 C 22.84375 -45.519531 22.320312 -46.738281 21.28125 -47.75 C 20.25 -48.757812 18.988281 -49.265625 17.5 -49.265625 L 10.5 -49.265625 C 7 -49.265625 5.25 -51.015625 5.25 -54.515625 L 5.25 -58.484375 C 5.25 -61.984375 7 -63.734375 10.5 -63.734375 L 52.59375 -63.65625 C 56.101562 -63.65625 57.859375 -61.90625 57.859375 -58.40625 L 57.859375 -54.515625 C 57.859375 -51.015625 56.101562 -49.265625 52.59375 -49.265625 L 45.515625 -49.265625 C 44.085938 -49.265625 42.851562 -48.757812 41.8125 -47.75 C 40.78125 -46.738281 40.265625 -45.519531 40.265625 -44.09375 L 40.265625 -5.171875 C 40.265625 -1.722656 38.515625 0 35.015625 0 Z M 28.015625 0 "/></g></g><g style="fill:#000000;fill-opacity:1;"><g transform="translate(203.53304, 188.020244)"><path style="stroke:none" d="M 10.578125 0 C 9.097656 0 7.835938 -0.515625 6.796875 -1.546875 C 5.765625 -2.585938 5.25 -3.847656 5.25 -5.328125 L 5.25 -58.328125 C 5.25 -59.867188 5.765625 -61.140625 6.796875 -62.140625 C 7.835938 -63.148438 9.097656 -63.65625 10.578125 -63.65625 L 57.21875 -63.65625 C 58.757812 -63.65625 60.03125 -63.148438 61.03125 -62.140625 C 62.039062 -61.140625 62.546875 -59.867188 62.546875 -58.328125 L 62.546875 -54.59375 C 62.546875 -53.101562 62.039062 -51.84375 61.03125 -50.8125 C 60.03125 -49.78125 58.757812 -49.265625 57.21875 -49.265625 L 27.859375 -49.265625 C 26.421875 -49.265625 25.195312 -48.757812 24.1875 -47.75 C 23.1875 -46.738281 22.6875 -45.488281 22.6875 -44 C 22.6875 -42.570312 23.1875 -41.351562 24.1875 -40.34375 C 25.195312 -39.332031 26.421875 -38.828125 27.859375 -38.828125 L 54.03125 -38.828125 C 55.570312 -38.828125 56.84375 -38.320312 57.84375 -37.3125 C 58.851562 -36.3125 59.359375 -35.039062 59.359375 -33.5 L 59.359375 -30.3125 C 59.359375 -28.78125 58.84375 -27.492188 57.8125 -26.453125 C 56.78125 -25.421875 55.519531 -24.90625 54.03125 -24.90625 L 27.859375 -24.90625 C 26.421875 -24.90625 25.195312 -24.382812 24.1875 -23.34375 C 23.1875 -22.3125 22.6875 -21.082031 22.6875 -19.65625 C 22.6875 -18.164062 23.1875 -16.914062 24.1875 -15.90625 C 25.195312 -14.90625 26.421875 -14.40625 27.859375 -14.40625 L 57.21875 -14.40625 C 58.757812 -14.40625 60.03125 -13.898438 61.03125 -12.890625 C 62.039062 -11.878906 62.546875 -10.609375 62.546875 -9.078125 L 62.546875 -5.328125 C 62.546875 -3.847656 62.039062 -2.585938 61.03125 -1.546875 C 60.03125 -0.515625 58.757812 0 57.21875 0 Z M 10.578125 0 "/></g></g><g style="fill:#000000;fill-opacity:1;"><g transform="translate(271.335655, 188.020244)"><path style="stroke:none" d="M 10.578125 0 C 9.097656 0 7.835938 -0.515625 6.796875 -1.546875 C 5.765625 -2.585938 5.25 -3.847656 5.25 -5.328125 L 5.25 -58.328125 C 5.25 -59.867188 5.765625 -61.140625 6.796875 -62.140625 C 7.835938 -63.148438 9.097656 -63.65625 10.578125 -63.65625 L 46.234375 -63.65625 C 49.367188 -63.65625 52.15625 -62.953125 54.59375 -61.546875 C 57.03125 -60.140625 58.953125 -58.21875 60.359375 -55.78125 C 61.765625 -53.34375 62.46875 -50.554688 62.46875 -47.421875 L 62.46875 -42.578125 C 62.46875 -40.984375 61.945312 -39.664062 60.90625 -38.625 C 59.875 -37.59375 58.566406 -37.078125 56.984375 -37.078125 L 56.8125 -37.078125 C 55.382812 -37.078125 54.164062 -36.570312 53.15625 -35.5625 C 52.144531 -34.5625 51.640625 -33.316406 51.640625 -31.828125 C 51.640625 -30.347656 52.144531 -29.101562 53.15625 -28.09375 C 54.164062 -27.082031 55.382812 -26.578125 56.8125 -26.578125 L 57.53125 -26.578125 C 58.96875 -26.578125 60.148438 -26.125 61.078125 -25.21875 C 62.003906 -24.320312 62.46875 -23.15625 62.46875 -21.71875 L 62.46875 -5.328125 C 62.46875 -3.847656 61.960938 -2.585938 60.953125 -1.546875 C 59.941406 -0.515625 58.671875 0 57.140625 0 L 50.375 0 C 48.882812 0 47.625 -0.515625 46.59375 -1.546875 C 45.5625 -2.585938 45.046875 -3.847656 45.046875 -5.328125 L 45.046875 -19.734375 C 45.046875 -21.171875 44.539062 -22.390625 43.53125 -23.390625 C 42.519531 -24.398438 41.273438 -24.90625 39.796875 -24.90625 L 27.859375 -24.90625 C 26.421875 -24.90625 25.195312 -24.398438 24.1875 -23.390625 C 23.1875 -22.390625 22.6875 -21.171875 22.6875 -19.734375 L 22.6875 -5.328125 C 22.6875 -3.847656 22.179688 -2.585938 21.171875 -1.546875 C 20.160156 -0.515625 18.882812 0 17.34375 0 Z M 27.859375 -38.828125 L 39.796875 -38.828125 C 41.273438 -38.828125 42.519531 -39.332031 43.53125 -40.34375 C 44.539062 -41.351562 45.046875 -42.570312 45.046875 -44 C 45.046875 -45.488281 44.539062 -46.738281 43.53125 -47.75 C 42.519531 -48.757812 41.273438 -49.265625 39.796875 -49.265625 L 27.859375 -49.265625 C 26.421875 -49.265625 25.195312 -48.757812 24.1875 -47.75 C 23.1875 -46.738281 22.6875 -45.488281 22.6875 -44 C 22.6875 -42.570312 23.1875 -41.351562 24.1875 -40.34375 C 25.195312 -39.332031 26.421875 -38.828125 27.859375 -38.828125 Z M 27.859375 -38.828125 "/></g></g><g style="fill:#000000;fill-opacity:1;"><g transform="translate(339.0587, 188.020244)"><path style="stroke:none" d="M 10.578125 0 C 9.097656 0 7.835938 -0.515625 6.796875 -1.546875 C 5.765625 -2.585938 5.25 -3.847656 5.25 -5.328125 L 5.25 -58.328125 C 5.25 -59.867188 5.765625 -61.140625 6.796875 -62.140625 C 7.835938 -63.148438 9.097656 -63.65625 10.578125 -63.65625 L 57.140625 -63.65625 C 58.671875 -63.65625 59.941406 -63.148438 60.953125 -62.140625 C 61.960938 -61.140625 62.46875 -59.867188 62.46875 -58.328125 L 62.46875 -54.59375 C 62.46875 -53.101562 61.960938 -51.84375 60.953125 -50.8125 C 59.941406 -49.78125 58.671875 -49.265625 57.140625 -49.265625 L 27.859375 -49.265625 C 26.421875 -49.265625 25.195312 -48.757812 24.1875 -47.75 C 23.1875 -46.738281 22.6875 -45.488281 22.6875 -44 C 22.6875 -42.570312 23.1875 -41.351562 24.1875 -40.34375 C 25.195312 -39.332031 26.421875 -38.828125 27.859375 -38.828125 L 53.953125 -38.828125 C 55.492188 -38.828125 56.765625 -38.3125 57.765625 -37.28125 C 58.773438 -36.25 59.28125 -34.960938 59.28125 -33.421875 L 59.28125 -29.84375 C 59.28125 -28.300781 58.765625 -27.015625 57.734375 -25.984375 C 56.703125 -24.953125 55.441406 -24.4375 53.953125 -24.4375 L 27.859375 -24.4375 C 26.421875 -24.4375 25.195312 -23.929688 24.1875 -22.921875 C 23.1875 -21.910156 22.6875 -20.691406 22.6875 -19.265625 L 22.6875 -5.328125 C 22.6875 -3.847656 22.179688 -2.585938 21.171875 -1.546875 C 20.160156 -0.515625 18.882812 0 17.34375 0 Z M 10.578125 0 "/></g></g><g style="fill:#000000;fill-opacity:1;"><g transform="translate(406.781745, 188.020244)"><path style="stroke:none" d="M 10.578125 0 C 9.097656 0 7.835938 -0.515625 6.796875 -1.546875 C 5.765625 -2.585938 5.25 -3.847656 5.25 -5.328125 L 5.25 -44.171875 C 5.25 -47.929688 6.082031 -51.285156 7.75 -54.234375 C 9.425781 -57.179688 11.734375 -59.488281 14.671875 -61.15625 C 17.617188 -62.820312 20.976562 -63.65625 24.75 -63.65625 L 31.03125 -63.65625 C 34.800781 -63.65625 38.15625 -62.820312 41.09375 -61.15625 C 44.039062 -59.488281 46.347656 -57.179688 48.015625 -54.234375 C 49.691406 -51.285156 50.53125 -47.929688 50.53125 -44.171875 L 50.53125 -5.328125 C 50.53125 -3.847656 50.023438 -2.585938 49.015625 -1.546875 C 48.015625 -0.515625 46.742188 0 45.203125 0 L 38.4375 0 C 36.945312 0 35.6875 -0.515625 34.65625 -1.546875 C 33.625 -2.585938 33.109375 -3.847656 33.109375 -5.328125 L 33.109375 -14.796875 C 33.109375 -16.234375 32.601562 -17.453125 31.59375 -18.453125 C 30.582031 -19.460938 29.335938 -19.96875 27.859375 -19.96875 C 26.421875 -19.96875 25.195312 -19.460938 24.1875 -18.453125 C 23.1875 -17.453125 22.6875 -16.207031 22.6875 -14.71875 L 22.6875 -5.328125 C 22.6875 -3.847656 22.179688 -2.585938 21.171875 -1.546875 C 20.160156 -0.515625 18.882812 0 17.34375 0 Z M 27.859375 -30.484375 C 29.335938 -30.484375 30.582031 -30.984375 31.59375 -31.984375 C 32.601562 -32.992188 33.109375 -34.21875 33.109375 -35.65625 L 33.109375 -44 C 33.109375 -45.488281 32.601562 -46.738281 31.59375 -47.75 C 30.582031 -48.757812 29.335938 -49.265625 27.859375 -49.265625 C 26.421875 -49.265625 25.195312 -48.757812 24.1875 -47.75 C 23.1875 -46.738281 22.6875 -45.488281 22.6875 -44 L 22.6875 -35.65625 C 22.6875 -34.21875 23.1875 -32.992188 24.1875 -31.984375 C 25.195312 -30.984375 26.421875 -30.484375 27.859375 -30.484375 Z M 27.859375 -30.484375 "/></g></g><g style="fill:#000000;fill-opacity:1;"><g transform="translate(462.567696, 188.020244)"><path style="stroke:none" d="M 24.75 0 C 20.976562 0 17.617188 -0.832031 14.671875 -2.5 C 11.734375 -4.175781 9.425781 -6.484375 7.75 -9.421875 C 6.082031 -12.367188 5.25 -15.726562 5.25 -19.5 L 5.25 -44.171875 C 5.25 -47.929688 6.082031 -51.285156 7.75 -54.234375 C 9.425781 -57.179688 11.734375 -59.488281 14.671875 -61.15625 C 17.617188 -62.820312 20.976562 -63.65625 24.75 -63.65625 L 57.140625 -63.65625 C 58.671875 -63.65625 59.941406 -63.148438 60.953125 -62.140625 C 61.960938 -61.140625 62.46875 -59.867188 62.46875 -58.328125 L 62.46875 -54.515625 C 62.46875 -53.023438 61.945312 -51.773438 60.90625 -50.765625 C 59.875 -49.765625 58.617188 -49.265625 57.140625 -49.265625 L 27.859375 -49.265625 C 26.421875 -49.265625 25.195312 -48.757812 24.1875 -47.75 C 23.1875 -46.738281 22.6875 -45.488281 22.6875 -44 L 22.6875 -19.65625 C 22.6875 -18.164062 23.1875 -16.914062 24.1875 -15.90625 C 25.195312 -14.90625 26.421875 -14.40625 27.859375 -14.40625 L 57.140625 -14.40625 C 58.671875 -14.40625 59.941406 -13.898438 60.953125 -12.890625 C 61.960938 -11.878906 62.46875 -10.609375 62.46875 -9.078125 L 62.46875 -5.328125 C 62.46875 -3.847656 61.960938 -2.585938 60.953125 -1.546875 C 59.941406 -0.515625 58.671875 0 57.140625 0 Z M 24.75 0 "/></g></g><g style="fill:#000000;fill-opacity:1;"><g transform="translate(530.290741, 188.020244)"><path style="stroke:none" d="M 10.578125 0 C 9.097656 0 7.835938 -0.515625 6.796875 -1.546875 C 5.765625 -2.585938 5.25 -3.847656 5.25 -5.328125 L 5.25 -58.328125 C 5.25 -59.867188 5.765625 -61.140625 6.796875 -62.140625 C 7.835938 -63.148438 9.097656 -63.65625 10.578125 -63.65625 L 57.21875 -63.65625 C 58.757812 -63.65625 60.03125 -63.148438 61.03125 -62.140625 C 62.039062 -61.140625 62.546875 -59.867188 62.546875 -58.328125 L 62.546875 -54.59375 C 62.546875 -53.101562 62.039062 -51.84375 61.03125 -50.8125 C 60.03125 -49.78125 58.757812 -49.265625 57.21875 -49.265625 L 27.859375 -49.265625 C 26.421875 -49.265625 25.195312 -48.757812 24.1875 -47.75 C 23.1875 -46.738281 22.6875 -45.488281 22.6875 -44 C 22.6875 -42.570312 23.1875 -41.351562 24.1875 -40.34375 C 25.195312 -39.332031 26.421875 -38.828125 27.859375 -38.828125 L 54.03125 -38.828125 C 55.570312 -38.828125 56.84375 -38.320312 57.84375 -37.3125 C 58.851562 -36.3125 59.359375 -35.039062 59.359375 -33.5 L 59.359375 -30.3125 C 59.359375 -28.78125 58.84375 -27.492188 57.8125 -26.453125 C 56.78125 -25.421875 55.519531 -24.90625 54.03125 -24.90625 L 27.859375 -24.90625 C 26.421875 -24.90625 25.195312 -24.382812 24.1875 -23.34375 C 23.1875 -22.3125 22.6875 -21.082031 22.6875 -19.65625 C 22.6875 -18.164062 23.1875 -16.914062 24.1875 -15.90625 C 25.195312 -14.90625 26.421875 -14.40625 27.859375 -14.40625 L 57.21875 -14.40625 C 58.757812 -14.40625 60.03125 -13.898438 61.03125 -12.890625 C 62.039062 -11.878906 62.546875 -10.609375 62.546875 -9.078125 L 62.546875 -5.328125 C 62.546875 -3.847656 62.039062 -2.585938 61.03125 -1.546875 C 60.03125 -0.515625 58.757812 0 57.21875 0 Z M 10.578125 0 "/></g></g><g style="fill:#000000;fill-opacity:1;"><g transform="translate(42.533641, 298.879667)"><path style="stroke:none" d="M 19.5 13.921875 C 16.738281 13.921875 14.28125 13.3125 12.125 12.09375 C 9.976562 10.875 8.296875 9.1875 7.078125 7.03125 C 5.859375 4.882812 5.25 2.4375 5.25 -0.3125 L 5.25 -63.34375 C 5.25 -66.15625 5.859375 -68.617188 7.078125 -70.734375 C 8.296875 -72.859375 9.976562 -74.53125 12.125 -75.75 C 14.28125 -76.976562 16.738281 -77.59375 19.5 -77.59375 L 25.859375 -77.59375 C 27.023438 -77.59375 27.992188 -77.207031 28.765625 -76.4375 C 29.535156 -75.664062 29.921875 -74.695312 29.921875 -73.53125 L 29.921875 -69.703125 C 29.921875 -68.535156 29.535156 -67.566406 28.765625 -66.796875 C 27.992188 -66.035156 27.023438 -65.65625 25.859375 -65.65625 L 21.25 -65.65625 C 20.132812 -65.65625 19.175781 -65.269531 18.375 -64.5 C 17.582031 -63.726562 17.1875 -62.785156 17.1875 -61.671875 L 17.1875 -1.984375 C 17.1875 -0.867188 17.570312 0.0664062 18.34375 0.828125 C 19.113281 1.597656 20.054688 1.984375 21.171875 1.984375 L 25.859375 1.984375 C 27.023438 1.984375 27.992188 2.367188 28.765625 3.140625 C 29.535156 3.910156 29.921875 4.878906 29.921875 6.046875 L 29.921875 9.875 C 29.921875 11.039062 29.535156 12.003906 28.765625 12.765625 C 27.992188 13.535156 27.023438 13.921875 25.859375 13.921875 Z M 19.5 13.921875 "/></g></g><g style="fill:#000000;fill-opacity:1;"><g transform="translate(77.708237, 298.879667)"><path style="stroke:none" d="M 28.015625 0 C 24.566406 0 22.84375 -1.75 22.84375 -5.25 L 22.84375 -44.09375 C 22.84375 -45.519531 22.320312 -46.738281 21.28125 -47.75 C 20.25 -48.757812 18.988281 -49.265625 17.5 -49.265625 L 10.5 -49.265625 C 7 -49.265625 5.25 -51.015625 5.25 -54.515625 L 5.25 -58.484375 C 5.25 -61.984375 7 -63.734375 10.5 -63.734375 L 52.59375 -63.65625 C 56.101562 -63.65625 57.859375 -61.90625 57.859375 -58.40625 L 57.859375 -54.515625 C 57.859375 -51.015625 56.101562 -49.265625 52.59375 -49.265625 L 45.515625 -49.265625 C 44.085938 -49.265625 42.851562 -48.757812 41.8125 -47.75 C 40.78125 -46.738281 40.265625 -45.519531 40.265625 -44.09375 L 40.265625 -5.171875 C 40.265625 -1.722656 38.515625 0 35.015625 0 Z M 28.015625 0 "/></g></g><g style="fill:#000000;fill-opacity:1;"><g transform="translate(140.815609, 298.879667)"><path style="stroke:none" d="M 10.578125 0 C 9.097656 0 7.835938 -0.515625 6.796875 -1.546875 C 5.765625 -2.585938 5.25 -3.847656 5.25 -5.328125 L 5.25 -58.328125 C 5.25 -59.867188 5.765625 -61.140625 6.796875 -62.140625 C 7.835938 -63.148438 9.097656 -63.65625 10.578125 -63.65625 L 57.21875 -63.65625 C 58.757812 -63.65625 60.03125 -63.148438 61.03125 -62.140625 C 62.039062 -61.140625 62.546875 -59.867188 62.546875 -58.328125 L 62.546875 -54.59375 C 62.546875 -53.101562 62.039062 -51.84375 61.03125 -50.8125 C 60.03125 -49.78125 58.757812 -49.265625 57.21875 -49.265625 L 27.859375 -49.265625 C 26.421875 -49.265625 25.195312 -48.757812 24.1875 -47.75 C 23.1875 -46.738281 22.6875 -45.488281 22.6875 -44 C 22.6875 -42.570312 23.1875 -41.351562 24.1875 -40.34375 C 25.195312 -39.332031 26.421875 -38.828125 27.859375 -38.828125 L 54.03125 -38.828125 C 55.570312 -38.828125 56.84375 -38.320312 57.84375 -37.3125 C 58.851562 -36.3125 59.359375 -35.039062 59.359375 -33.5 L 59.359375 -30.3125 C 59.359375 -28.78125 58.84375 -27.492188 57.8125 -26.453125 C 56.78125 -25.421875 55.519531 -24.90625 54.03125 -24.90625 L 27.859375 -24.90625 C 26.421875 -24.90625 25.195312 -24.382812 24.1875 -23.34375 C 23.1875 -22.3125 22.6875 -21.082031 22.6875 -19.65625 C 22.6875 -18.164062 23.1875 -16.914062 24.1875 -15.90625 C 25.195312 -14.90625 26.421875 -14.40625 27.859375 -14.40625 L 57.21875 -14.40625 C 58.757812 -14.40625 60.03125 -13.898438 61.03125 -12.890625 C 62.039062 -11.878906 62.546875 -10.609375 62.546875 -9.078125 L 62.546875 -5.328125 C 62.546875 -3.847656 62.039062 -2.585938 61.03125 -1.546875 C 60.03125 -0.515625 58.757812 0 57.21875 0 Z M 10.578125 0 "/></g></g><g style="fill:#000000;fill-opacity:1;"><g transform="translate(208.618224, 298.879667)"><path style="stroke:none" d="M 10.578125 0 C 9.097656 0 7.835938 -0.515625 6.796875 -1.546875 C 5.765625 -2.585938 5.25 -3.847656 5.25 -5.328125 L 5.25 -9.078125 C 5.25 -10.609375 5.765625 -11.878906 6.796875 -12.890625 C 7.835938 -13.898438 9.097656 -14.40625 10.578125 -14.40625 L 39.796875 -14.40625 C 41.273438 -14.40625 42.519531 -14.90625 43.53125 -15.90625 C 44.539062 -16.914062 45.046875 -18.164062 45.046875 -19.65625 C 45.046875 -21.082031 44.539062 -22.3125 43.53125 -23.34375 C 42.519531 -24.382812 41.273438 -24.90625 39.796875 -24.90625 L 23.953125 -24.90625 C 20.347656 -24.90625 17.140625 -25.710938 14.328125 -27.328125 C 11.515625 -28.953125 9.296875 -31.171875 7.671875 -33.984375 C 6.054688 -36.796875 5.25 -40.003906 5.25 -43.609375 L 5.25 -44.96875 C 5.25 -48.570312 6.054688 -51.78125 7.671875 -54.59375 C 9.296875 -57.40625 11.515625 -59.617188 14.328125 -61.234375 C 17.140625 -62.847656 20.347656 -63.65625 23.953125 -63.65625 L 57.140625 -63.65625 C 58.671875 -63.65625 59.941406 -63.148438 60.953125 -62.140625 C 61.960938 -61.140625 62.46875 -59.867188 62.46875 -58.328125 L 62.46875 -54.59375 C 62.46875 -53.101562 61.960938 -51.84375 60.953125 -50.8125 C 59.941406 -49.78125 58.671875 -49.265625 57.140625 -49.265625 L 27.859375 -49.265625 C 26.421875 -49.265625 25.195312 -48.757812 24.1875 -47.75 C 23.1875 -46.738281 22.6875 -45.488281 22.6875 -44 C 22.6875 -42.570312 23.1875 -41.351562 24.1875 -40.34375 C 25.195312 -39.332031 26.421875 -38.828125 27.859375 -38.828125 L 43.765625 -38.828125 C 47.367188 -38.828125 50.578125 -38.019531 53.390625 -36.40625 C 56.203125 -34.789062 58.414062 -32.578125 60.03125 -29.765625 C 61.65625 -26.953125 62.46875 -23.742188 62.46875 -20.140625 L 62.46875 -18.703125 C 62.46875 -15.097656 61.65625 -11.890625 60.03125 -9.078125 C 58.414062 -6.265625 56.203125 -4.046875 53.390625 -2.421875 C 50.578125 -0.804688 47.367188 0 43.765625 0 Z M 10.578125 0 "/></g></g><g style="fill:#000000;fill-opacity:1;"><g transform="translate(276.341269, 298.879667)"><path style="stroke:none" d="M 28.015625 0 C 24.566406 0 22.84375 -1.75 22.84375 -5.25 L 22.84375 -44.09375 C 22.84375 -45.519531 22.320312 -46.738281 21.28125 -47.75 C 20.25 -48.757812 18.988281 -49.265625 17.5 -49.265625 L 10.5 -49.265625 C 7 -49.265625 5.25 -51.015625 5.25 -54.515625 L 5.25 -58.484375 C 5.25 -61.984375 7 -63.734375 10.5 -63.734375 L 52.59375 -63.65625 C 56.101562 -63.65625 57.859375 -61.90625 57.859375 -58.40625 L 57.859375 -54.515625 C 57.859375 -51.015625 56.101562 -49.265625 52.59375 -49.265625 L 45.515625 -49.265625 C 44.085938 -49.265625 42.851562 -48.757812 41.8125 -47.75 C 40.78125 -46.738281 40.265625 -45.519531 40.265625 -44.09375 L 40.265625 -5.171875 C 40.265625 -1.722656 38.515625 0 35.015625 0 Z M 28.015625 0 "/></g></g><g style="fill:#000000;fill-opacity:1;"><g transform="translate(339.448641, 298.879667)"><path style="stroke:none" d="M 10.578125 0 C 9.097656 0 7.835938 -0.515625 6.796875 -1.546875 C 5.765625 -2.585938 5.25 -3.847656 5.25 -5.328125 L 5.25 -58.328125 C 5.25 -59.867188 5.765625 -61.140625 6.796875 -62.140625 C 7.835938 -63.148438 9.097656 -63.65625 10.578125 -63.65625 L 42.8125 -63.65625 C 44.351562 -63.65625 45.625 -63.125 46.625 -62.0625 C 47.632812 -61.007812 48.140625 -59.738281 48.140625 -58.25 L 48.140625 -19.65625 C 48.140625 -18.164062 48.644531 -16.914062 49.65625 -15.90625 C 50.664062 -14.90625 51.882812 -14.40625 53.3125 -14.40625 C 54.800781 -14.40625 56.046875 -14.90625 57.046875 -15.90625 C 58.054688 -16.914062 58.5625 -18.164062 58.5625 -19.65625 L 58.5625 -58.328125 C 58.5625 -59.867188 59.078125 -61.140625 60.109375 -62.140625 C 61.148438 -63.148438 62.414062 -63.65625 63.90625 -63.65625 L 70.671875 -63.65625 C 72.203125 -63.65625 73.472656 -63.148438 74.484375 -62.140625 C 75.492188 -61.140625 76 -59.867188 76 -58.328125 L 76 -5.328125 C 76 -3.847656 75.492188 -2.585938 74.484375 -1.546875 C 73.472656 -0.515625 72.203125 0 70.671875 0 L 38.4375 0 C 36.945312 0 35.6875 -0.53125 34.65625 -1.59375 C 33.625 -2.65625 33.109375 -3.925781 33.109375 -5.40625 L 33.109375 -44.09375 C 33.109375 -45.519531 32.601562 -46.738281 31.59375 -47.75 C 30.582031 -48.757812 29.335938 -49.265625 27.859375 -49.265625 C 26.421875 -49.265625 25.195312 -48.757812 24.1875 -47.75 C 23.1875 -46.738281 22.6875 -45.519531 22.6875 -44.09375 L 22.6875 -5.328125 C 22.6875 -3.847656 22.179688 -2.585938 21.171875 -1.546875 C 20.160156 -0.515625 18.882812 0 17.34375 0 Z M 10.578125 0 "/></g></g><g style="fill:#000000;fill-opacity:1;"><g transform="translate(420.700362, 298.879667)"><path style="stroke:none" d="M 10.578125 0 C 9.097656 0 7.835938 -0.515625 6.796875 -1.546875 C 5.765625 -2.585938 5.25 -3.847656 5.25 -5.328125 L 5.25 -58.328125 C 5.25 -59.867188 5.765625 -61.140625 6.796875 -62.140625 C 7.835938 -63.148438 9.097656 -63.65625 10.578125 -63.65625 L 57.21875 -63.65625 C 58.757812 -63.65625 60.03125 -63.148438 61.03125 -62.140625 C 62.039062 -61.140625 62.546875 -59.867188 62.546875 -58.328125 L 62.546875 -54.59375 C 62.546875 -53.101562 62.039062 -51.84375 61.03125 -50.8125 C 60.03125 -49.78125 58.757812 -49.265625 57.21875 -49.265625 L 27.859375 -49.265625 C 26.421875 -49.265625 25.195312 -48.757812 24.1875 -47.75 C 23.1875 -46.738281 22.6875 -45.488281 22.6875 -44 C 22.6875 -42.570312 23.1875 -41.351562 24.1875 -40.34375 C 25.195312 -39.332031 26.421875 -38.828125 27.859375 -38.828125 L 54.03125 -38.828125 C 55.570312 -38.828125 56.84375 -38.320312 57.84375 -37.3125 C 58.851562 -36.3125 59.359375 -35.039062 59.359375 -33.5 L 59.359375 -30.3125 C 59.359375 -28.78125 58.84375 -27.492188 57.8125 -26.453125 C 56.78125 -25.421875 55.519531 -24.90625 54.03125 -24.90625 L 27.859375 -24.90625 C 26.421875 -24.90625 25.195312 -24.382812 24.1875 -23.34375 C 23.1875 -22.3125 22.6875 -21.082031 22.6875 -19.65625 C 22.6875 -18.164062 23.1875 -16.914062 24.1875 -15.90625 C 25.195312 -14.90625 26.421875 -14.40625 27.859375 -14.40625 L 57.21875 -14.40625 C 58.757812 -14.40625 60.03125 -13.898438 61.03125 -12.890625 C 62.039062 -11.878906 62.546875 -10.609375 62.546875 -9.078125 L 62.546875 -5.328125 C 62.546875 -3.847656 62.039062 -2.585938 61.03125 -1.546875 C 60.03125 -0.515625 58.757812 0 57.21875 0 Z M 10.578125 0 "/></g></g><g style="fill:#000000;fill-opacity:1;"><g transform="translate(488.502977, 298.879667)"><path style="stroke:none" d="M 28.015625 0 C 24.566406 0 22.84375 -1.75 22.84375 -5.25 L 22.84375 -44.09375 C 22.84375 -45.519531 22.320312 -46.738281 21.28125 -47.75 C 20.25 -48.757812 18.988281 -49.265625 17.5 -49.265625 L 10.5 -49.265625 C 7 -49.265625 5.25 -51.015625 5.25 -54.515625 L 5.25 -58.484375 C 5.25 -61.984375 7 -63.734375 10.5 -63.734375 L 52.59375 -63.65625 C 56.101562 -63.65625 57.859375 -61.90625 57.859375 -58.40625 L 57.859375 -54.515625 C 57.859375 -51.015625 56.101562 -49.265625 52.59375 -49.265625 L 45.515625 -49.265625 C 44.085938 -49.265625 42.851562 -48.757812 41.8125 -47.75 C 40.78125 -46.738281 40.265625 -45.519531 40.265625 -44.09375 L 40.265625 -5.171875 C 40.265625 -1.722656 38.515625 0 35.015625 0 Z M 28.015625 0 "/></g></g><g style="fill:#000000;fill-opacity:1;"><g transform="translate(551.610349, 298.879667)"><path style="stroke:none" d="M 15.671875 13.921875 L 9.3125 13.921875 C 8.144531 13.921875 7.175781 13.535156 6.40625 12.765625 C 5.632812 12.003906 5.25 11.039062 5.25 9.875 L 5.25 6.046875 C 5.25 4.878906 5.632812 3.910156 6.40625 3.140625 C 7.175781 2.367188 8.144531 1.984375 9.3125 1.984375 L 14 1.984375 C 15.113281 1.984375 16.054688 1.597656 16.828125 0.828125 C 17.597656 0.0664062 17.984375 -0.867188 17.984375 -1.984375 L 17.984375 -61.671875 C 17.984375 -62.785156 17.582031 -63.726562 16.78125 -64.5 C 15.988281 -65.269531 15.035156 -65.65625 13.921875 -65.65625 L 9.3125 -65.65625 C 8.144531 -65.65625 7.175781 -66.035156 6.40625 -66.796875 C 5.632812 -67.566406 5.25 -68.535156 5.25 -69.703125 L 5.25 -73.53125 C 5.25 -74.695312 5.632812 -75.664062 6.40625 -76.4375 C 7.175781 -77.207031 8.144531 -77.59375 9.3125 -77.59375 L 15.671875 -77.59375 C 18.429688 -77.59375 20.882812 -76.976562 23.03125 -75.75 C 25.1875 -74.53125 26.875 -72.859375 28.09375 -70.734375 C 29.3125 -68.617188 29.921875 -66.15625 29.921875 -63.34375 L 29.921875 -0.3125 C 29.921875 2.4375 29.3125 4.882812 28.09375 7.03125 C 26.875 9.1875 25.203125 10.875 23.078125 12.09375 C 20.953125 13.3125 18.484375 13.921875 15.671875 13.921875 Z M 15.671875 13.921875 "/></g></g></g></g></g></svg>